<?xml version="1.0" encoding="UTF-8" standalone="no"?>
<!-- Created with Inkscape (http://www.inkscape.org/) -->

<svg
   xmlns:ns0="http://www.iki.fi/pav/software/textext/"
   xmlns:dc="http://purl.org/dc/elements/1.1/"
   xmlns:cc="http://creativecommons.org/ns#"
   xmlns:rdf="http://www.w3.org/1999/02/22-rdf-syntax-ns#"
   xmlns:svg="http://www.w3.org/2000/svg"
   xmlns="http://www.w3.org/2000/svg"
   xmlns:xlink="http://www.w3.org/1999/xlink"
   xmlns:sodipodi="http://sodipodi.sourceforge.net/DTD/sodipodi-0.dtd"
   xmlns:inkscape="http://www.inkscape.org/namespaces/inkscape"
   width="1127.5784"
   height="436.29294"
   viewBox="0 0 1127.5784 436.29295"
   id="svg2"
   version="1.1"
   inkscape:version="0.91 r13725"
   sodipodi:docname="deutsch.svg">
  <sodipodi:namedview
     id="base"
     pagecolor="#ffffff"
     bordercolor="#666666"
     borderopacity="1.0"
     inkscape:pageopacity="0.0"
     inkscape:pageshadow="2"
     inkscape:zoom="0.7"
     inkscape:cx="713.85303"
     inkscape:cy="369.60251"
     inkscape:document-units="px"
     inkscape:current-layer="layer1"
     showgrid="false"
     inkscape:window-width="1920"
     inkscape:window-height="1136"
     inkscape:window-x="0"
     inkscape:window-y="27"
     inkscape:window-maximized="1"
     inkscape:snap-bbox="true"
     inkscape:bbox-paths="true"
     inkscape:bbox-nodes="true"
     inkscape:snap-bbox-edge-midpoints="true"
     inkscape:snap-bbox-midpoints="true"
     inkscape:object-paths="true"
     inkscape:snap-intersection-paths="true"
     inkscape:object-nodes="true"
     inkscape:snap-smooth-nodes="true"
     inkscape:snap-midpoints="true"
     inkscape:snap-object-midpoints="true"
     inkscape:snap-center="true"
     inkscape:snap-global="true"
     units="px"
     fit-margin-top="0"
     fit-margin-left="0"
     fit-margin-right="0"
     fit-margin-bottom="0"
     inkscape:snap-page="true" />
  <defs
     id="defs4">
    <linearGradient
       id="linearGradient4698"
       inkscape:collect="always">
      <stop
         id="stop4700"
         offset="0"
         style="stop-color:#00a1ff;stop-opacity:1" />
      <stop
         id="stop4702"
         offset="1"
         style="stop-color:#ffffff;stop-opacity:1" />
    </linearGradient>
    <linearGradient
       spreadMethod="reflect"
       gradientUnits="userSpaceOnUse"
       y2="382.06451"
       x2="426.28571"
       y1="341.52591"
       x1="311.44702"
       id="linearGradient4562"
       xlink:href="#linearGradient4698"
       inkscape:collect="always" />
    <linearGradient
       gradientTransform="matrix(0.39107206,0,0,0.75215388,-120.55499,186.61256)"
       y2="382.06451"
       x2="426.28571"
       y1="341.52591"
       x1="311.44702"
       spreadMethod="reflect"
       gradientUnits="userSpaceOnUse"
       id="linearGradient4566"
       xlink:href="#linearGradient4698"
       inkscape:collect="always" />
    <linearGradient
       y2="382.06451"
       x2="426.28571"
       y1="341.52591"
       x1="311.44702"
       spreadMethod="reflect"
       gradientTransform="matrix(0.39107206,0,0,0.75215388,-120.55499,-18.027141)"
       gradientUnits="userSpaceOnUse"
       id="linearGradient4595"
       xlink:href="#linearGradient4698"
       inkscape:collect="always" />
    <linearGradient
       y2="382.06451"
       x2="426.28571"
       y1="341.52591"
       x1="311.44702"
       spreadMethod="reflect"
       gradientTransform="matrix(0.39107206,0,0,0.75215388,503.71928,-18.027141)"
       gradientUnits="userSpaceOnUse"
       id="linearGradient4597"
       xlink:href="#linearGradient4698"
       inkscape:collect="always" />
    <linearGradient
       y2="382.06451"
       x2="426.28571"
       y1="341.52591"
       x1="311.44702"
       spreadMethod="reflect"
       gradientTransform="matrix(0.39107206,0,0,0.75215388,503.71928,186.61256)"
       gradientUnits="userSpaceOnUse"
       id="linearGradient4599"
       xlink:href="#linearGradient4698"
       inkscape:collect="always" />
    <filter
       height="1.1861752"
       y="-0.093087628"
       width="1.1345651"
       x="-0.067282572"
       id="filter4627"
       style="color-interpolation-filters:sRGB"
       inkscape:collect="always">
      <feGaussianBlur
         id="feGaussianBlur4629"
         stdDeviation="2.448443"
         inkscape:collect="always" />
    </filter>
    <filter
       height="1.1400324"
       y="-0.07001622"
       width="1.0526247"
       x="-0.026312333"
       id="filter4631"
       style="color-interpolation-filters:sRGB"
       inkscape:collect="always">
      <feGaussianBlur
         id="feGaussianBlur4633"
         stdDeviation="2.448443"
         inkscape:collect="always" />
    </filter>
    <filter
       height="1.1861752"
       y="-0.093087628"
       width="1.1345651"
       x="-0.067282572"
       id="filter4635"
       style="color-interpolation-filters:sRGB"
       inkscape:collect="always">
      <feGaussianBlur
         id="feGaussianBlur4637"
         stdDeviation="2.448443"
         inkscape:collect="always" />
    </filter>
    <filter
       height="1.1861752"
       y="-0.093087628"
       width="1.1345651"
       x="-0.067282572"
       id="filter4639"
       style="color-interpolation-filters:sRGB"
       inkscape:collect="always">
      <feGaussianBlur
         id="feGaussianBlur4641"
         stdDeviation="2.448443"
         inkscape:collect="always" />
    </filter>
    <filter
       height="1.1861752"
       y="-0.093087628"
       width="1.1345651"
       x="-0.067282572"
       id="filter4643"
       style="color-interpolation-filters:sRGB"
       inkscape:collect="always">
      <feGaussianBlur
         id="feGaussianBlur4645"
         stdDeviation="2.448443"
         inkscape:collect="always" />
    </filter>
  </defs>
  <metadata
     id="metadata7">
    <rdf:RDF>
      <cc:Work
         rdf:about="">
        <dc:format>image/svg+xml</dc:format>
        <dc:type
           rdf:resource="http://purl.org/dc/dcmitype/StillImage" />
        <dc:title></dc:title>
      </cc:Work>
    </rdf:RDF>
  </metadata>
  <g
     transform="translate(171.36716,-768.77936)"
     id="layer1"
     inkscape:groupmode="layer"
     inkscape:label="Layer 1">
    <g
       id="g4725">
      <g
         id="g4684"
         transform="matrix(1,0,0,-1,0,680.2018)"
         style="stroke-width:4;stroke-miterlimit:4;stroke-dasharray:none">
        <path
           sodipodi:nodetypes="cc"
           style="fill:none;fill-rule:evenodd;stroke:#000000;stroke-width:4;stroke-linecap:butt;stroke-linejoin:miter;stroke-miterlimit:4;stroke-dasharray:none;stroke-opacity:1"
           d="m 175.74582,329.1009 277.75242,0"
           id="path4686"
           inkscape:connector-curvature="0" />
        <path
           style="fill:none;fill-rule:evenodd;stroke:#000000;stroke-width:4;stroke-linecap:butt;stroke-linejoin:miter;stroke-miterlimit:4;stroke-dasharray:none;stroke-opacity:1"
           d="m -89.1671,238.0311 171.807983,0"
           id="path4688"
           inkscape:connector-curvature="0"
           sodipodi:nodetypes="cc" />
        <path
           style="fill:none;fill-rule:evenodd;stroke:#000000;stroke-width:4;stroke-linecap:butt;stroke-linejoin:miter;stroke-miterlimit:4;stroke-dasharray:none;stroke-opacity:1"
           d="m 82.640883,238.0311 93.104937,91.0698"
           id="path4690"
           inkscape:connector-curvature="0" />
        <path
           sodipodi:nodetypes="cc"
           inkscape:connector-curvature="0"
           id="path4692"
           d="m 718.41116,238.0311 -171.80798,0"
           style="fill:none;fill-rule:evenodd;stroke:#000000;stroke-width:4;stroke-linecap:butt;stroke-linejoin:miter;stroke-miterlimit:4;stroke-dasharray:none;stroke-opacity:1" />
        <path
           inkscape:connector-curvature="0"
           id="path4694"
           d="m 546.60318,238.0311 -93.10494,91.0698"
           style="fill:none;fill-rule:evenodd;stroke:#000000;stroke-width:4;stroke-linecap:butt;stroke-linejoin:miter;stroke-miterlimit:4;stroke-dasharray:none;stroke-opacity:1" />
      </g>
      <g
         id="g4677"
         style="stroke-width:4;stroke-miterlimit:4;stroke-dasharray:none">
        <path
           inkscape:connector-curvature="0"
           id="path4649"
           d="m 175.74582,329.1009 277.75242,0"
           style="fill:none;fill-rule:evenodd;stroke:#000000;stroke-width:4;stroke-linecap:butt;stroke-linejoin:miter;stroke-miterlimit:4;stroke-dasharray:none;stroke-opacity:1"
           sodipodi:nodetypes="cc" />
        <path
           sodipodi:nodetypes="cc"
           inkscape:connector-curvature="0"
           id="path4647"
           d="m -89.1671,238.0311 171.807983,0"
           style="fill:none;fill-rule:evenodd;stroke:#000000;stroke-width:4;stroke-linecap:butt;stroke-linejoin:miter;stroke-miterlimit:4;stroke-dasharray:none;stroke-opacity:1" />
        <path
           inkscape:connector-curvature="0"
           id="path4659"
           d="m 82.640883,238.0311 93.104937,91.0698"
           style="fill:none;fill-rule:evenodd;stroke:#000000;stroke-width:4;stroke-linecap:butt;stroke-linejoin:miter;stroke-miterlimit:4;stroke-dasharray:none;stroke-opacity:1" />
        <path
           style="fill:none;fill-rule:evenodd;stroke:#000000;stroke-width:4;stroke-linecap:butt;stroke-linejoin:miter;stroke-miterlimit:4;stroke-dasharray:none;stroke-opacity:1"
           d="m 718.41116,238.0311 -171.80798,0"
           id="path4665"
           inkscape:connector-curvature="0"
           sodipodi:nodetypes="cc" />
        <path
           style="fill:none;fill-rule:evenodd;stroke:#000000;stroke-width:4;stroke-linecap:butt;stroke-linejoin:miter;stroke-miterlimit:4;stroke-dasharray:none;stroke-opacity:1"
           d="m 546.60318,238.0311 -93.10494,91.0698"
           id="path4667"
           inkscape:connector-curvature="0" />
      </g>
    </g>
    <g
       style="font-style:normal;font-variant:normal;font-weight:normal;font-stretch:normal;letter-spacing:normal;word-spacing:normal;text-anchor:start;fill:none;fill-opacity:1;fill-rule:evenodd;stroke:#000000;stroke-linecap:butt;stroke-linejoin:miter;stroke-miterlimit:10.43299961;stroke-dasharray:none;stroke-dashoffset:0;stroke-opacity:1"
       ns0:preamble="/home/ngarcia/.config/inkscape/preamble.tex"
       ns0:text="$|y\\rangle$"
       word-spacing="normal"
       letter-spacing="normal"
       font-size-adjust="none"
       font-stretch="normal"
       font-weight="normal"
       font-variant="normal"
       font-style="normal"
       stroke-miterlimit="10.433"
       xml:space="preserve"
       transform="matrix(5,0,0,-5,-1272.4671,3990.4708)"
       id="g4334"><path
         style="fill:#000000;stroke-width:0"
         inkscape:connector-curvature="0"
         id="path4336"
         d="m 225.02,714.24 0,0.03 0,0.03 0,0.04 -0.01,0.01 0,0.02 0,0.01 0,0.02 0,0.01 0,0.02 -0.01,0.01 0,0.02 0,0.01 -0.01,0.01 0,0.01 -0.01,0.02 0,0.01 -0.01,0.01 -0.01,0.01 -0.01,0.01 -0.01,0.01 -0.01,0 -0.01,0.01 0,0 -0.01,0.01 -0.01,0 0,0 -0.01,0 -0.01,0.01 0,0 -0.01,0 -0.01,0 -0.01,0 -0.01,0 0,0 -0.01,0 -0.01,0 c -0.2,0 -0.2,-0.18 -0.2,-0.35 l 0,-9.25 c 0,-0.18 0,-0.36 0.2,-0.36 0.2,0 0.2,0.18 0.2,0.36 z" /><path
         style="fill:#000000;stroke-width:0"
         inkscape:connector-curvature="0"
         id="path4338"
         d="m 231.04,710.92 0,0 0.01,0.01 0,0.01 0,0 0,0.01 0.01,0.02 0,0.01 0,0.01 0,0 0.01,0.01 0,0.01 0,0.01 0,0.01 0,0 0,0.01 0,0.01 0.01,0 0,0.01 0,0 0,0.01 0,0.01 0,0 0,0.01 0,0.01 0,0.01 0,0.01 0,0.01 0,0 0,0.01 0,0.01 c 0,0.18 -0.14,0.27 -0.29,0.27 -0.1,0 -0.26,-0.06 -0.35,-0.21 -0.02,-0.05 -0.1,-0.36 -0.14,-0.54 -0.06,-0.26 -0.14,-0.53 -0.2,-0.8 l -0.44,-1.79 c -0.04,-0.15 -0.47,-0.85 -1.13,-0.85 -0.51,0 -0.62,0.44 -0.62,0.81 0,0.46 0.17,1.07 0.51,1.95 0.16,0.41 0.2,0.52 0.2,0.72 0,0.45 -0.32,0.82 -0.82,0.82 -0.94,0 -1.31,-1.45 -1.31,-1.54 0,-0.1 0.1,-0.1 0.12,-0.1 0.1,0 0.11,0.02 0.16,0.18 0.27,0.94 0.66,1.24 1,1.24 0.08,0 0.25,0 0.25,-0.32 0,-0.25 -0.1,-0.51 -0.17,-0.7 -0.39,-1.06 -0.57,-1.62 -0.57,-2.09 0,-0.89 0.62,-1.19 1.21,-1.19 0.39,0 0.73,0.17 1.01,0.45 -0.13,-0.52 -0.25,-1 -0.65,-1.53 -0.26,-0.34 -0.64,-0.63 -1.1,-0.63 -0.13,0 -0.58,0.03 -0.75,0.42 0.16,0 0.29,0 0.43,0.12 0.09,0.09 0.19,0.22 0.19,0.41 0,0.3 -0.26,0.34 -0.36,0.34 -0.23,0 -0.56,-0.16 -0.56,-0.64 0,-0.5 0.44,-0.87 1.05,-0.87 1.03,0 2.06,0.91 2.34,2.03 z" /><path
         style="fill:#000000;stroke-width:0"
         inkscape:connector-curvature="0"
         id="path4340"
         d="m 234.16,709.44 0,0.01 0.01,0 0,0.01 0,0.01 0,0 0,0 0.01,0.01 0,0 0,0.01 0,0 0,0.01 0.01,0 0,0.01 0,0.01 0,0 0.01,0.01 0,0.01 0,0 0,0.01 0,0 0,0.01 0.01,0 0,0.01 0,0 0,0 0,0.01 0,0 0,0 0,0.01 0,0 0,0.01 0,0 0,0.01 0,0 c 0,0.03 0,0.05 -0.05,0.17 l -1.74,4.58 c -0.06,0.17 -0.12,0.23 -0.23,0.23 -0.11,0 -0.2,-0.08 -0.2,-0.19 0,-0.04 0,-0.06 0.05,-0.16 l 1.76,-4.63 -1.76,-4.6 c -0.05,-0.11 -0.05,-0.13 -0.05,-0.18 0,-0.11 0.09,-0.2 0.2,-0.2 0.13,0 0.17,0.1 0.21,0.2 z" /></g>    <g
       id="g4412"
       transform="matrix(5,0,0,-5,-394.68883,3990.4708)"
       xml:space="preserve"
       stroke-miterlimit="10.433"
       font-style="normal"
       font-variant="normal"
       font-weight="normal"
       font-stretch="normal"
       font-size-adjust="none"
       letter-spacing="normal"
       word-spacing="normal"
       ns0:text="$|f(x)\\oplus y\\rangle$"
       ns0:preamble="/home/ngarcia/.config/inkscape/preamble.tex"
       style="font-style:normal;font-variant:normal;font-weight:normal;font-stretch:normal;letter-spacing:normal;word-spacing:normal;text-anchor:start;fill:none;fill-opacity:1;fill-rule:evenodd;stroke:#000000;stroke-linecap:butt;stroke-linejoin:miter;stroke-miterlimit:10.43299961;stroke-dasharray:none;stroke-dashoffset:0;stroke-opacity:1"><path
         style="fill:#000000;stroke-width:0"
         inkscape:connector-curvature="0"
         d="m 225.02,714.24 0,0.03 0,0.03 0,0.04 -0.01,0.01 0,0.02 0,0.01 0,0.02 0,0.01 0,0.02 -0.01,0.01 0,0.02 0,0.01 -0.01,0.01 0,0.01 -0.01,0.02 0,0.01 -0.01,0.01 -0.01,0.01 -0.01,0.01 -0.01,0.01 -0.01,0 -0.01,0.01 0,0 -0.01,0.01 -0.01,0 0,0 -0.01,0 -0.01,0.01 0,0 -0.01,0 -0.01,0 -0.01,0 -0.01,0 0,0 -0.01,0 -0.01,0 c -0.2,0 -0.2,-0.18 -0.2,-0.35 l 0,-9.25 c 0,-0.18 0,-0.36 0.2,-0.36 0.2,0 0.2,0.18 0.2,0.36 z"
         id="path4414" /><path
         style="fill:#000000;stroke-width:0"
         inkscape:connector-curvature="0"
         d="m 229.86,711.11 0.85,0 c 0.2,0 0.3,0 0.3,0.2 0,0.11 -0.1,0.11 -0.27,0.11 l -0.82,0 0.2,1.13 c 0.04,0.21 0.18,0.92 0.24,1.04 0.09,0.19 0.26,0.34 0.47,0.34 0.04,0 0.3,0 0.49,-0.18 -0.44,-0.04 -0.54,-0.39 -0.54,-0.54 0,-0.23 0.18,-0.35 0.37,-0.35 0.26,0 0.55,0.22 0.55,0.6 0,0.46 -0.46,0.69 -0.87,0.69 -0.34,0 -0.96,-0.18 -1.26,-1.17 -0.06,-0.21 -0.09,-0.31 -0.33,-1.56 l -0.69,0 c -0.19,0 -0.3,0 -0.3,-0.19 0,-0.12 0.09,-0.12 0.28,-0.12 l 0.66,0 -0.75,-3.94 c -0.18,-0.96 -0.35,-1.87 -0.87,-1.87 -0.03,0 -0.28,0 -0.47,0.18 0.45,0.03 0.55,0.39 0.55,0.54 0,0.23 -0.19,0.34 -0.37,0.34 -0.26,0 -0.55,-0.21 -0.55,-0.59 0,-0.45 0.44,-0.69 0.84,-0.69 0.55,0 0.95,0.59 1.13,0.97 0.32,0.62 0.55,1.83 0.56,1.9 z"
         id="path4416" /><path
         style="fill:#000000;stroke-width:0"
         inkscape:connector-curvature="0"
         d="m 235.45,704.73 -0.01,0.01 0,0 0,0.01 0,0 0,0 0,0 0,0.01 0,0 0,0.01 0,0 -0.01,0 0,0.01 0,0 -0.01,0.01 0,0 -0.01,0.01 0,0.01 -0.01,0 0,0.01 0,0 -0.01,0.01 0,0 0,0.01 -0.01,0 0,0 -0.01,0.01 0,0 -0.01,0.01 0,0 -0.01,0.01 0,0.01 -0.01,0 0,0.01 -0.01,0 0,0.01 -0.01,0.01 -0.01,0 0,0.01 -0.01,0.01 -0.01,0.01 -0.01,0 0,0.01 c -1.25,1.26 -1.57,3.14 -1.57,4.66 0,1.74 0.38,3.47 1.61,4.72 0.13,0.12 0.13,0.14 0.13,0.16 0,0.08 -0.05,0.1 -0.1,0.1 -0.1,0 -1,-0.67 -1.59,-1.94 -0.51,-1.09 -0.63,-2.2 -0.63,-3.04 0,-0.77 0.11,-1.98 0.66,-3.1 0.6,-1.23 1.46,-1.88 1.56,-1.88 0.05,0 0.1,0.03 0.1,0.1 z"
         id="path4418" /><path
         style="fill:#000000;stroke-width:0"
         inkscape:connector-curvature="0"
         d="m 239.35,710.13 0.01,0.03 0.01,0.03 0,0.03 0.01,0.04 0.01,0.03 0.02,0.05 0.01,0.04 0.01,0.04 0.02,0.05 0.02,0.05 0.02,0.05 0.02,0.05 0.02,0.05 0.02,0.05 0.03,0.05 0.03,0.05 0.03,0.04 0.03,0.05 0.03,0.05 0.04,0.04 0.03,0.05 0.04,0.04 0.04,0.03 0.05,0.04 0.05,0.03 0.04,0.03 0.03,0.01 0.03,0.02 0.02,0.01 0.03,0.01 0.03,0.01 0.02,0 0.03,0.01 0.03,0.01 0.03,0 0.03,0 0.04,0.01 0.03,0 c 0.05,0 0.29,0 0.5,-0.13 -0.28,-0.05 -0.48,-0.3 -0.48,-0.54 0,-0.16 0.11,-0.35 0.38,-0.35 0.22,0 0.53,0.18 0.53,0.58 0,0.52 -0.58,0.66 -0.92,0.66 -0.58,0 -0.93,-0.53 -1.05,-0.76 -0.25,0.66 -0.78,0.76 -1.07,0.76 -1.04,0 -1.61,-1.29 -1.61,-1.54 0,-0.1 0.1,-0.1 0.12,-0.1 0.08,0 0.11,0.02 0.13,0.11 0.34,1.06 1,1.31 1.34,1.31 0.19,0 0.53,-0.09 0.53,-0.67 0,-0.31 -0.17,-0.98 -0.53,-2.37 -0.16,-0.62 -0.51,-1.04 -0.95,-1.04 -0.06,0 -0.29,0 -0.5,0.13 0.25,0.05 0.47,0.26 0.47,0.54 0,0.27 -0.22,0.35 -0.37,0.35 -0.3,0 -0.55,-0.26 -0.55,-0.58 0,-0.46 0.5,-0.66 0.94,-0.66 0.66,0 1.02,0.7 1.05,0.76 0.12,-0.37 0.47,-0.76 1.07,-0.76 1.03,0 1.6,1.29 1.6,1.54 0,0.1 -0.09,0.1 -0.12,0.1 -0.09,0 -0.11,-0.04 -0.13,-0.11 -0.33,-1.07 -1.01,-1.31 -1.33,-1.31 -0.39,0 -0.55,0.32 -0.55,0.66 0,0.22 0.06,0.44 0.17,0.88 z"
         id="path4420" /><path
         style="fill:#000000;stroke-width:0"
         inkscape:connector-curvature="0"
         d="m 244.6,709.61 0,0.08 0,0.07 -0.01,0.08 0,0.08 -0.01,0.17 -0.01,0.18 -0.02,0.18 -0.02,0.19 -0.02,0.2 -0.04,0.2 -0.04,0.2 -0.04,0.21 -0.06,0.21 -0.06,0.21 -0.07,0.21 -0.08,0.22 -0.04,0.1 -0.04,0.11 -0.05,0.11 -0.05,0.1 c -0.6,1.23 -1.45,1.87 -1.56,1.87 -0.06,0 -0.09,-0.04 -0.09,-0.1 0,-0.02 0,-0.04 0.19,-0.22 0.97,-0.99 1.54,-2.57 1.54,-4.66 0,-1.7 -0.37,-3.45 -1.61,-4.71 -0.12,-0.12 -0.12,-0.14 -0.12,-0.17 0,-0.06 0.03,-0.1 0.09,-0.1 0.11,0 1,0.68 1.59,1.95 0.51,1.09 0.63,2.2 0.63,3.03 z"
         id="path4422" /><path
         style="fill:#000000;stroke-width:0"
         inkscape:connector-curvature="0"
         d="m 255,709.61 0,0.17 -0.02,0.17 -0.02,0.17 -0.03,0.16 -0.03,0.16 -0.05,0.16 -0.05,0.15 -0.06,0.15 -0.07,0.15 -0.07,0.14 -0.08,0.14 -0.09,0.14 -0.09,0.13 -0.1,0.12 -0.1,0.12 -0.11,0.12 -0.12,0.11 -0.12,0.1 -0.13,0.1 -0.13,0.09 -0.13,0.09 -0.14,0.08 -0.14,0.07 -0.15,0.07 -0.15,0.06 -0.15,0.05 -0.16,0.05 -0.16,0.03 -0.16,0.03 -0.17,0.02 -0.17,0.02 -0.17,0 c -1.85,0 -3.33,-1.5 -3.33,-3.32 0,-1.83 1.5,-3.31 3.32,-3.31 l -0.12,0.24 c -1.54,0.08 -2.85,1.25 -2.95,2.95 l 0,0.25 c 0.1,1.68 1.4,2.86 2.95,2.94 l 0.25,0 c 1.57,-0.08 2.85,-1.27 2.95,-2.94 l 0,-0.25 c -0.1,-1.7 -1.41,-2.87 -2.95,-2.95 l 0,2.95 2.95,0 0,0.25 -2.95,0 0,2.94 -0.25,0 0,-2.94 -2.95,0 0,-0.25 2.95,0 0,-2.95 0.12,-0.24 c 1.86,0 3.33,1.5 3.33,3.31 z"
         id="path4424" /><path
         style="fill:#000000;stroke-width:0"
         inkscape:connector-curvature="0"
         d="m 262.61,710.92 0,0 0,0.01 0,0.01 0.01,0 0,0.01 0,0.02 0,0.01 0.01,0.01 0,0 0,0.01 0,0.01 0.01,0.01 0,0.01 0,0 0,0.01 0,0.01 0,0 0,0.01 0,0 0.01,0.01 0,0.01 0,0 0,0.01 0,0.01 0,0.01 0,0.01 0,0.01 0,0 0,0.01 0,0.01 c 0,0.18 -0.14,0.27 -0.29,0.27 -0.1,0 -0.26,-0.06 -0.35,-0.21 -0.02,-0.05 -0.1,-0.36 -0.14,-0.54 -0.07,-0.26 -0.14,-0.53 -0.2,-0.8 l -0.44,-1.79 c -0.05,-0.15 -0.47,-0.85 -1.13,-0.85 -0.51,0 -0.62,0.44 -0.62,0.81 0,0.46 0.17,1.07 0.51,1.95 0.16,0.41 0.2,0.52 0.2,0.72 0,0.45 -0.32,0.82 -0.82,0.82 -0.95,0 -1.31,-1.45 -1.31,-1.54 0,-0.1 0.1,-0.1 0.12,-0.1 0.1,0 0.11,0.02 0.15,0.18 0.27,0.94 0.67,1.24 1.01,1.24 0.08,0 0.25,0 0.25,-0.32 0,-0.25 -0.1,-0.51 -0.17,-0.7 -0.4,-1.06 -0.58,-1.62 -0.58,-2.09 0,-0.89 0.63,-1.19 1.22,-1.19 0.39,0 0.73,0.17 1.01,0.45 -0.13,-0.52 -0.25,-1 -0.65,-1.53 -0.26,-0.34 -0.64,-0.63 -1.1,-0.63 -0.14,0 -0.59,0.03 -0.75,0.42 0.15,0 0.28,0 0.42,0.12 0.1,0.09 0.2,0.22 0.2,0.41 0,0.3 -0.27,0.34 -0.37,0.34 -0.23,0 -0.55,-0.16 -0.55,-0.64 0,-0.5 0.43,-0.87 1.05,-0.87 1.03,0 2.05,0.91 2.33,2.03 z"
         id="path4426" /><path
         style="fill:#000000;stroke-width:0"
         inkscape:connector-curvature="0"
         d="m 265.73,709.44 0,0.01 0,0 0.01,0.01 0,0.01 0,0 0,0 0,0.01 0.01,0 0,0.01 0,0 0,0.01 0,0 0.01,0.01 0,0.01 0,0 0,0.01 0.01,0.01 0,0 0,0.01 0,0 0,0.01 0,0 0,0.01 0.01,0 0,0 0,0.01 0,0 0,0 0,0.01 0,0 0,0.01 0,0 0,0.01 0,0 c 0,0.03 0,0.05 -0.05,0.17 l -1.74,4.58 c -0.06,0.17 -0.12,0.23 -0.23,0.23 -0.11,0 -0.2,-0.08 -0.2,-0.19 0,-0.04 0,-0.06 0.05,-0.16 l 1.76,-4.63 -1.76,-4.6 c -0.05,-0.11 -0.05,-0.13 -0.05,-0.18 0,-0.11 0.09,-0.2 0.2,-0.2 0.13,0 0.17,0.1 0.21,0.2 z"
         id="path4428" /></g>    <rect
       style="opacity:1;fill:url(#linearGradient4566);fill-opacity:1;stroke:none;stroke-width:2;stroke-linecap:round;stroke-miterlimit:4;stroke-dasharray:none;stroke-dashoffset:0;stroke-opacity:1;filter:url(#filter4639)"
       id="rect4564"
       width="87.337082"
       height="63.126148"
       x="-41.18364"
       y="410.85773" />
    <g
       style="font-style:normal;font-variant:normal;font-weight:normal;font-stretch:normal;letter-spacing:normal;word-spacing:normal;text-anchor:start;fill:none;fill-opacity:1;fill-rule:evenodd;stroke:#000000;stroke-linecap:butt;stroke-linejoin:miter;stroke-miterlimit:10.43299961;stroke-dasharray:none;stroke-dashoffset:0;stroke-opacity:1"
       id="g4196"
       transform="matrix(5,0,0,-5,-1133.3401,3995.0458)"
       xml:space="preserve"
       stroke-miterlimit="10.433"
       font-style="normal"
       font-variant="normal"
       font-weight="normal"
       font-stretch="normal"
       font-size-adjust="none"
       letter-spacing="normal"
       word-spacing="normal"
       ns0:text="H"
       ns0:preamble="/home/ngarcia/.config/inkscape/preamble.tex"><path
         style="fill:#000000;stroke-width:0"
         inkscape:connector-curvature="0"
         d="m 229.54,713.15 0,0.03 0,0.03 0,0.03 0,0.03 0,0.03 0.01,0.03 0,0.02 0.01,0.02 0,0.03 0.01,0.02 0.01,0.02 0.01,0.02 0.01,0.01 0.01,0.02 0.02,0.01 0.02,0.02 0.02,0.01 0.02,0.01 0.01,0.01 0.01,0 0.02,0.01 0.01,0 0.02,0.01 0.01,0 0.02,0.01 0.01,0 0.02,0.01 0.02,0 0.02,0 0.02,0.01 0.02,0 0.02,0 0.03,0 0.02,0.01 0.02,0 0.03,0 0.03,0 0.02,0 0.03,0 0.03,0 0.03,0.01 0.03,0 0.03,0 0.04,0 0.03,0 0.04,0 0.24,0 0,0.31 c -0.35,-0.03 -1.09,-0.03 -1.47,-0.03 -0.38,0 -1.12,0 -1.47,0.03 l 0,-0.31 0.24,0 c 0.76,0 0.78,-0.11 0.78,-0.47 l 0,-2.33 -2.98,0 0,2.33 c 0,0.36 0.02,0.47 0.79,0.47 l 0.24,0 0,0.31 c -0.35,-0.03 -1.09,-0.03 -1.46,-0.03 -0.38,0 -1.13,0 -1.48,0.03 l 0,-0.31 0.24,0 c 0.77,0 0.79,-0.11 0.79,-0.47 l 0,-5.25 c 0,-0.36 -0.02,-0.47 -0.79,-0.47 l -0.24,0 0,-0.31 c 0.35,0.03 1.09,0.03 1.47,0.03 0.37,0 1.12,0 1.47,-0.03 l 0,0.31 -0.24,0 c -0.77,0 -0.79,0.11 -0.79,0.47 l 0,2.61 2.98,0 0,-2.61 c 0,-0.36 -0.02,-0.47 -0.78,-0.47 l -0.24,0 0,-0.31 c 0.35,0.03 1.08,0.03 1.46,0.03 0.38,0 1.13,0 1.48,-0.03 l 0,0.31 -0.24,0 c -0.77,0 -0.79,0.11 -0.79,0.47 z"
         id="path4198" /></g>    <rect
       y="206.21803"
       x="-41.18364"
       height="63.126148"
       width="87.337082"
       id="rect4593"
       style="opacity:1;fill:url(#linearGradient4595);fill-opacity:1;stroke:none;stroke-width:2;stroke-linecap:round;stroke-miterlimit:4;stroke-dasharray:none;stroke-dashoffset:0;stroke-opacity:1;filter:url(#filter4635)" />
    <g
       style="font-style:normal;font-variant:normal;font-weight:normal;font-stretch:normal;letter-spacing:normal;word-spacing:normal;text-anchor:start;fill:none;fill-opacity:1;fill-rule:evenodd;stroke:#000000;stroke-linecap:butt;stroke-linejoin:miter;stroke-miterlimit:10.43299961;stroke-dasharray:none;stroke-dashoffset:0;stroke-opacity:1"
       id="g4260"
       transform="matrix(5,0,0,-5,-1272.4671,3785.8311)"
       xml:space="preserve"
       stroke-miterlimit="10.433"
       font-style="normal"
       font-variant="normal"
       font-weight="normal"
       font-stretch="normal"
       font-size-adjust="none"
       letter-spacing="normal"
       word-spacing="normal"
       ns0:text="$|x\\rangle$"
       ns0:preamble="/home/ngarcia/.config/inkscape/preamble.tex"><path
         style="fill:#000000;stroke-width:0"
         inkscape:connector-curvature="0"
         d="m 225.02,714.24 0,0.03 0,0.03 0,0.04 -0.01,0.01 0,0.02 0,0.01 0,0.02 0,0.01 0,0.02 -0.01,0.01 0,0.02 0,0.01 -0.01,0.01 0,0.01 -0.01,0.02 0,0.01 -0.01,0.01 -0.01,0.01 -0.01,0.01 -0.01,0.01 -0.01,0 -0.01,0.01 0,0 -0.01,0.01 -0.01,0 0,0 -0.01,0 -0.01,0.01 0,0 -0.01,0 -0.01,0 -0.01,0 -0.01,0 0,0 -0.01,0 -0.01,0 c -0.2,0 -0.2,-0.18 -0.2,-0.35 l 0,-9.25 c 0,-0.18 0,-0.36 0.2,-0.36 0.2,0 0.2,0.18 0.2,0.36 z"
         id="path4262" /><path
         style="fill:#000000;stroke-width:0"
         inkscape:connector-curvature="0"
         d="m 229.53,710.13 0,0.03 0.01,0.03 0.01,0.03 0.01,0.04 0.01,0.03 0.01,0.05 0.01,0.04 0.02,0.04 0.01,0.05 0.02,0.05 0.02,0.05 0.02,0.05 0.02,0.05 0.03,0.05 0.02,0.05 0.03,0.05 0.03,0.04 0.03,0.05 0.04,0.05 0.03,0.04 0.04,0.05 0.04,0.04 0.04,0.03 0.04,0.04 0.05,0.03 0.05,0.03 0.02,0.01 0.03,0.02 0.03,0.01 0.02,0.01 0.03,0.01 0.03,0 0.03,0.01 0.03,0.01 0.03,0 0.03,0 0.03,0.01 0.03,0 c 0.05,0 0.29,0 0.5,-0.13 -0.28,-0.05 -0.48,-0.3 -0.48,-0.54 0,-0.16 0.11,-0.35 0.38,-0.35 0.22,0 0.54,0.18 0.54,0.58 0,0.52 -0.59,0.66 -0.93,0.66 -0.57,0 -0.92,-0.53 -1.04,-0.76 -0.25,0.66 -0.79,0.76 -1.08,0.76 -1.03,0 -1.6,-1.29 -1.6,-1.54 0,-0.1 0.1,-0.1 0.12,-0.1 0.08,0 0.11,0.02 0.13,0.11 0.34,1.06 0.99,1.31 1.33,1.31 0.19,0 0.54,-0.09 0.54,-0.67 0,-0.31 -0.17,-0.98 -0.54,-2.37 -0.16,-0.62 -0.51,-1.04 -0.95,-1.04 -0.05,0 -0.28,0 -0.49,0.13 0.25,0.05 0.46,0.26 0.46,0.54 0,0.27 -0.21,0.35 -0.36,0.35 -0.3,0 -0.55,-0.26 -0.55,-0.58 0,-0.46 0.5,-0.66 0.94,-0.66 0.65,0 1.01,0.7 1.04,0.76 0.12,-0.37 0.48,-0.76 1.08,-0.76 1.02,0 1.59,1.29 1.59,1.54 0,0.1 -0.09,0.1 -0.12,0.1 -0.09,0 -0.11,-0.04 -0.13,-0.11 -0.33,-1.07 -1,-1.31 -1.32,-1.31 -0.39,0 -0.55,0.32 -0.55,0.66 0,0.22 0.06,0.44 0.17,0.88 z"
         id="path4264" /><path
         style="fill:#000000;stroke-width:0"
         inkscape:connector-curvature="0"
         d="m 234.61,709.44 0,0.01 0.01,0 0,0.01 0,0.01 0,0 0,0 0.01,0.01 0,0 0,0.01 0,0 0,0.01 0.01,0 0,0.01 0,0.01 0,0 0.01,0.01 0,0.01 0,0 0,0.01 0,0 0,0.01 0.01,0 0,0.01 0,0 0,0 0,0.01 0,0 0,0 0,0.01 0,0 0,0.01 0,0 0,0.01 0,0 c 0,0.03 0,0.05 -0.05,0.17 l -1.74,4.58 c -0.06,0.17 -0.12,0.23 -0.23,0.23 -0.11,0 -0.2,-0.08 -0.2,-0.19 0,-0.04 0,-0.06 0.05,-0.16 l 1.76,-4.63 -1.76,-4.6 c -0.05,-0.11 -0.05,-0.13 -0.05,-0.18 0,-0.11 0.09,-0.2 0.2,-0.2 0.13,0 0.17,0.1 0.21,0.2 z"
         id="path4266" /></g>    <rect
       style="opacity:1;fill:url(#linearGradient4597);fill-opacity:1;stroke:none;stroke-width:2;stroke-linecap:round;stroke-miterlimit:4;stroke-dasharray:none;stroke-dashoffset:0;stroke-opacity:1;filter:url(#filter4627)"
       id="rect4591"
       width="87.337082"
       height="63.126148"
       x="583.09064"
       y="206.21803" />
    <g
       ns0:preamble="/home/ngarcia/.config/inkscape/preamble.tex"
       ns0:text="$|x\\rangle$"
       word-spacing="normal"
       letter-spacing="normal"
       font-size-adjust="none"
       font-stretch="normal"
       font-weight="normal"
       font-variant="normal"
       font-style="normal"
       stroke-miterlimit="10.433"
       xml:space="preserve"
       transform="matrix(5,0,0,-5,-394.68883,3785.8311)"
       id="g4290"
       style="font-style:normal;font-variant:normal;font-weight:normal;font-stretch:normal;letter-spacing:normal;word-spacing:normal;text-anchor:start;fill:none;fill-opacity:1;fill-rule:evenodd;stroke:#000000;stroke-linecap:butt;stroke-linejoin:miter;stroke-miterlimit:10.43299961;stroke-dasharray:none;stroke-dashoffset:0;stroke-opacity:1"><path
         id="path4292"
         d="m 225.02,714.24 0,0.03 0,0.03 0,0.04 -0.01,0.01 0,0.02 0,0.01 0,0.02 0,0.01 0,0.02 -0.01,0.01 0,0.02 0,0.01 -0.01,0.01 0,0.01 -0.01,0.02 0,0.01 -0.01,0.01 -0.01,0.01 -0.01,0.01 -0.01,0.01 -0.01,0 -0.01,0.01 0,0 -0.01,0.01 -0.01,0 0,0 -0.01,0 -0.01,0.01 0,0 -0.01,0 -0.01,0 -0.01,0 -0.01,0 0,0 -0.01,0 -0.01,0 c -0.2,0 -0.2,-0.18 -0.2,-0.35 l 0,-9.25 c 0,-0.18 0,-0.36 0.2,-0.36 0.2,0 0.2,0.18 0.2,0.36 z"
         inkscape:connector-curvature="0"
         style="fill:#000000;stroke-width:0" /><path
         id="path4294"
         d="m 229.53,710.13 0,0.03 0.01,0.03 0.01,0.03 0.01,0.04 0.01,0.03 0.01,0.05 0.01,0.04 0.02,0.04 0.01,0.05 0.02,0.05 0.02,0.05 0.02,0.05 0.02,0.05 0.03,0.05 0.02,0.05 0.03,0.05 0.03,0.04 0.03,0.05 0.04,0.05 0.03,0.04 0.04,0.05 0.04,0.04 0.04,0.03 0.04,0.04 0.05,0.03 0.05,0.03 0.02,0.01 0.03,0.02 0.03,0.01 0.02,0.01 0.03,0.01 0.03,0 0.03,0.01 0.03,0.01 0.03,0 0.03,0 0.03,0.01 0.03,0 c 0.05,0 0.29,0 0.5,-0.13 -0.28,-0.05 -0.48,-0.3 -0.48,-0.54 0,-0.16 0.11,-0.35 0.38,-0.35 0.22,0 0.54,0.18 0.54,0.58 0,0.52 -0.59,0.66 -0.93,0.66 -0.57,0 -0.92,-0.53 -1.04,-0.76 -0.25,0.66 -0.79,0.76 -1.08,0.76 -1.03,0 -1.6,-1.29 -1.6,-1.54 0,-0.1 0.1,-0.1 0.12,-0.1 0.08,0 0.11,0.02 0.13,0.11 0.34,1.06 0.99,1.31 1.33,1.31 0.19,0 0.54,-0.09 0.54,-0.67 0,-0.31 -0.17,-0.98 -0.54,-2.37 -0.16,-0.62 -0.51,-1.04 -0.95,-1.04 -0.05,0 -0.28,0 -0.49,0.13 0.25,0.05 0.46,0.26 0.46,0.54 0,0.27 -0.21,0.35 -0.36,0.35 -0.3,0 -0.55,-0.26 -0.55,-0.58 0,-0.46 0.5,-0.66 0.94,-0.66 0.65,0 1.01,0.7 1.04,0.76 0.12,-0.37 0.48,-0.76 1.08,-0.76 1.02,0 1.59,1.29 1.59,1.54 0,0.1 -0.09,0.1 -0.12,0.1 -0.09,0 -0.11,-0.04 -0.13,-0.11 -0.33,-1.07 -1,-1.31 -1.32,-1.31 -0.39,0 -0.55,0.32 -0.55,0.66 0,0.22 0.06,0.44 0.17,0.88 z"
         inkscape:connector-curvature="0"
         style="fill:#000000;stroke-width:0" /><path
         id="path4296"
         d="m 234.61,709.44 0,0.01 0.01,0 0,0.01 0,0.01 0,0 0,0 0.01,0.01 0,0 0,0.01 0,0 0,0.01 0.01,0 0,0.01 0,0.01 0,0 0.01,0.01 0,0.01 0,0 0,0.01 0,0 0,0.01 0.01,0 0,0.01 0,0 0,0 0,0.01 0,0 0,0 0,0.01 0,0 0,0.01 0,0 0,0.01 0,0 c 0,0.03 0,0.05 -0.05,0.17 l -1.74,4.58 c -0.06,0.17 -0.12,0.23 -0.23,0.23 -0.11,0 -0.2,-0.08 -0.2,-0.19 0,-0.04 0,-0.06 0.05,-0.16 l 1.76,-4.63 -1.76,-4.6 c -0.05,-0.11 -0.05,-0.13 -0.05,-0.18 0,-0.11 0.09,-0.2 0.2,-0.2 0.13,0 0.17,0.1 0.21,0.2 z"
         inkscape:connector-curvature="0"
         style="fill:#000000;stroke-width:0" /></g>    <g
       ns0:preamble="/home/ngarcia/.config/inkscape/preamble.tex"
       ns0:text="H"
       word-spacing="normal"
       letter-spacing="normal"
       font-size-adjust="none"
       font-stretch="normal"
       font-weight="normal"
       font-variant="normal"
       font-style="normal"
       stroke-miterlimit="10.433"
       xml:space="preserve"
       transform="matrix(5,0,0,-5,-509.06583,3790.4061)"
       id="g4192"
       style="font-style:normal;font-variant:normal;font-weight:normal;font-stretch:normal;letter-spacing:normal;word-spacing:normal;text-anchor:start;fill:none;fill-opacity:1;fill-rule:evenodd;stroke:#000000;stroke-linecap:butt;stroke-linejoin:miter;stroke-miterlimit:10.43299961;stroke-dasharray:none;stroke-dashoffset:0;stroke-opacity:1"><path
         id="path4194"
         d="m 229.54,713.15 0,0.03 0,0.03 0,0.03 0,0.03 0,0.03 0.01,0.03 0,0.02 0.01,0.02 0,0.03 0.01,0.02 0.01,0.02 0.01,0.02 0.01,0.01 0.01,0.02 0.02,0.01 0.02,0.02 0.02,0.01 0.02,0.01 0.01,0.01 0.01,0 0.02,0.01 0.01,0 0.02,0.01 0.01,0 0.02,0.01 0.01,0 0.02,0.01 0.02,0 0.02,0 0.02,0.01 0.02,0 0.02,0 0.03,0 0.02,0.01 0.02,0 0.03,0 0.03,0 0.02,0 0.03,0 0.03,0 0.03,0.01 0.03,0 0.03,0 0.04,0 0.03,0 0.04,0 0.24,0 0,0.31 c -0.35,-0.03 -1.09,-0.03 -1.47,-0.03 -0.38,0 -1.12,0 -1.47,0.03 l 0,-0.31 0.24,0 c 0.76,0 0.78,-0.11 0.78,-0.47 l 0,-2.33 -2.98,0 0,2.33 c 0,0.36 0.02,0.47 0.79,0.47 l 0.24,0 0,0.31 c -0.35,-0.03 -1.09,-0.03 -1.46,-0.03 -0.38,0 -1.13,0 -1.48,0.03 l 0,-0.31 0.24,0 c 0.77,0 0.79,-0.11 0.79,-0.47 l 0,-5.25 c 0,-0.36 -0.02,-0.47 -0.79,-0.47 l -0.24,0 0,-0.31 c 0.35,0.03 1.09,0.03 1.47,0.03 0.37,0 1.12,0 1.47,-0.03 l 0,0.31 -0.24,0 c -0.77,0 -0.79,0.11 -0.79,0.47 l 0,2.61 2.98,0 0,-2.61 c 0,-0.36 -0.02,-0.47 -0.78,-0.47 l -0.24,0 0,-0.31 c 0.35,0.03 1.08,0.03 1.46,0.03 0.38,0 1.13,0 1.48,-0.03 l 0,0.31 -0.24,0 c -0.77,0 -0.79,0.11 -0.79,0.47 z"
         inkscape:connector-curvature="0"
         style="fill:#000000;stroke-width:0" /></g>    <rect
       y="410.85773"
       x="583.09064"
       height="63.126148"
       width="87.337082"
       id="rect4589"
       style="opacity:1;fill:url(#linearGradient4599);fill-opacity:1;stroke:none;stroke-width:2;stroke-linecap:round;stroke-miterlimit:4;stroke-dasharray:none;stroke-dashoffset:0;stroke-opacity:1;filter:url(#filter4643)" />
    <g
       ns0:preamble="/home/ngarcia/.config/inkscape/preamble.tex"
       ns0:text="I"
       word-spacing="normal"
       letter-spacing="normal"
       font-size-adjust="none"
       font-stretch="normal"
       font-weight="normal"
       font-variant="normal"
       font-style="normal"
       stroke-miterlimit="10.433"
       xml:space="preserve"
       transform="matrix(5,0,0,-5,-499.39083,3995.0458)"
       id="g4218"
       style="font-style:normal;font-variant:normal;font-weight:normal;font-stretch:normal;letter-spacing:normal;word-spacing:normal;text-anchor:start;fill:none;fill-opacity:1;fill-rule:evenodd;stroke:#000000;stroke-linecap:butt;stroke-linejoin:miter;stroke-miterlimit:10.43299961;stroke-dasharray:none;stroke-dashoffset:0;stroke-opacity:1"><path
         id="path4220"
         d="m 225.67,713.15 0,0.03 0,0.03 0.01,0.03 0,0.03 0,0.03 0,0.03 0.01,0.02 0,0.02 0.01,0.03 0,0.02 0.01,0.02 0.01,0.02 0.02,0.01 0.01,0.02 0.02,0.01 0.02,0.02 0.02,0.01 0.02,0.01 0.01,0.01 0.02,0 0.01,0.01 0.02,0 0.01,0.01 0.02,0 0.02,0.01 0.01,0 0.02,0.01 0.02,0 0.02,0 0.02,0.01 0.02,0 0.03,0 0.02,0 0.02,0.01 0.03,0 0.02,0 0.03,0 0.03,0 0.03,0 0.03,0 0.03,0.01 0.03,0 0.04,0 0.03,0 0.03,0 0.04,0 0.26,0 0,0.31 c -0.35,-0.03 -1.14,-0.03 -1.51,-0.03 -0.39,0 -1.18,0 -1.53,0.03 l 0,-0.31 0.26,0 c 0.79,0 0.82,-0.11 0.82,-0.47 l 0,-5.25 c 0,-0.36 -0.03,-0.47 -0.82,-0.47 l -0.26,0 0,-0.31 c 0.35,0.03 1.14,0.03 1.52,0.03 0.38,0 1.17,0 1.52,-0.03 l 0,0.31 -0.26,0 c -0.79,0 -0.82,0.11 -0.82,0.47 z"
         inkscape:connector-curvature="0"
         style="fill:#000000;stroke-width:0" /></g>    <rect
       style="opacity:1;fill:url(#linearGradient4562);fill-opacity:1;stroke:none;stroke-width:2;stroke-linecap:round;stroke-miterlimit:4;stroke-dasharray:none;stroke-dashoffset:0;stroke-opacity:1;filter:url(#filter4631)"
       id="rect4696"
       width="223.32735"
       height="83.92717"
       x="202.95836"
       y="298.13733" />
    <g
       style="font-style:normal;font-variant:normal;font-weight:normal;font-stretch:normal;letter-spacing:normal;word-spacing:normal;text-anchor:start;fill:none;fill-opacity:1;fill-rule:evenodd;stroke:#000000;stroke-linecap:butt;stroke-linejoin:miter;stroke-miterlimit:10.43299961;stroke-dasharray:none;stroke-dashoffset:0;stroke-opacity:1"
       id="g4176"
       transform="matrix(5,0,0,-5,-1133.3401,3790.4061)"
       xml:space="preserve"
       stroke-miterlimit="10.433"
       font-style="normal"
       font-variant="normal"
       font-weight="normal"
       font-stretch="normal"
       font-size-adjust="none"
       letter-spacing="normal"
       word-spacing="normal"
       ns0:text="H"
       ns0:preamble="/home/ngarcia/.config/inkscape/preamble.tex"><path
         style="fill:#000000;stroke-width:0"
         inkscape:connector-curvature="0"
         d="m 229.54,713.15 0,0.03 0,0.03 0,0.03 0,0.03 0,0.03 0.01,0.03 0,0.02 0.01,0.02 0,0.03 0.01,0.02 0.01,0.02 0.01,0.02 0.01,0.01 0.01,0.02 0.02,0.01 0.02,0.02 0.02,0.01 0.02,0.01 0.01,0.01 0.01,0 0.02,0.01 0.01,0 0.02,0.01 0.01,0 0.02,0.01 0.01,0 0.02,0.01 0.02,0 0.02,0 0.02,0.01 0.02,0 0.02,0 0.03,0 0.02,0.01 0.02,0 0.03,0 0.03,0 0.02,0 0.03,0 0.03,0 0.03,0.01 0.03,0 0.03,0 0.04,0 0.03,0 0.04,0 0.24,0 0,0.31 c -0.35,-0.03 -1.09,-0.03 -1.47,-0.03 -0.38,0 -1.12,0 -1.47,0.03 l 0,-0.31 0.24,0 c 0.76,0 0.78,-0.11 0.78,-0.47 l 0,-2.33 -2.98,0 0,2.33 c 0,0.36 0.02,0.47 0.79,0.47 l 0.24,0 0,0.31 c -0.35,-0.03 -1.09,-0.03 -1.46,-0.03 -0.38,0 -1.13,0 -1.48,0.03 l 0,-0.31 0.24,0 c 0.77,0 0.79,-0.11 0.79,-0.47 l 0,-5.25 c 0,-0.36 -0.02,-0.47 -0.79,-0.47 l -0.24,0 0,-0.31 c 0.35,0.03 1.09,0.03 1.47,0.03 0.37,0 1.12,0 1.47,-0.03 l 0,0.31 -0.24,0 c -0.77,0 -0.79,0.11 -0.79,0.47 l 0,2.61 2.98,0 0,-2.61 c 0,-0.36 -0.02,-0.47 -0.78,-0.47 l -0.24,0 0,-0.31 c 0.35,0.03 1.08,0.03 1.46,0.03 0.38,0 1.13,0 1.48,-0.03 l 0,0.31 -0.24,0 c -0.77,0 -0.79,0.11 -0.79,0.47 z"
         id="path4178" /></g>    <g
       ns0:preamble="/home/ngarcia/.config/inkscape/preamble.tex"
       ns0:text="f-CNOT"
       word-spacing="normal"
       letter-spacing="normal"
       font-size-adjust="none"
       font-stretch="normal"
       font-weight="normal"
       font-variant="normal"
       font-style="normal"
       stroke-miterlimit="10.433"
       xml:space="preserve"
       transform="matrix(5,0,0,-5,-892.35297,3892.7259)"
       id="content"
       style="font-style:normal;font-variant:normal;font-weight:normal;font-stretch:normal;letter-spacing:normal;word-spacing:normal;text-anchor:start;fill:none;fill-opacity:1;fill-rule:evenodd;stroke:#000000;stroke-linecap:butt;stroke-linejoin:miter;stroke-miterlimit:10.43299961;stroke-dasharray:none;stroke-dashoffset:0;stroke-opacity:1"><path
         id="path4142"
         d="m 225.18,711.42 0,1.15 c 0,0.88 0.47,1.36 0.91,1.36 0.03,0 0.18,0 0.33,-0.07 -0.12,-0.04 -0.3,-0.17 -0.3,-0.42 0,-0.23 0.16,-0.43 0.43,-0.43 0.29,0 0.44,0.2 0.44,0.44 0,0.37 -0.37,0.7 -0.9,0.7 -0.69,0 -1.54,-0.53 -1.54,-1.59 l 0,-1.14 -0.79,0 0,-0.31 0.79,0 0,-3.23 c 0,-0.45 -0.11,-0.45 -0.78,-0.45 l 0,-0.31 c 0.39,0.01 0.86,0.03 1.14,0.03 0.39,0 0.86,0 1.26,-0.03 l 0,0.31 -0.21,0 c -0.73,0 -0.75,0.11 -0.75,0.47 l 0,3.21 1.13,0 0,0.31 z"
         inkscape:connector-curvature="0"
         style="fill:#000000;stroke-width:0" /><polygon
         id="polygon4144"
         points="229.23,709.56 226.59,709.56 226.59,708.99 229.23,708.99 "
         style="fill:#000000;stroke-width:0" /><path
         id="path4146"
         d="m 230.36,710.53 0,-0.19 0.02,-0.19 0.02,-0.19 0.03,-0.18 0.04,-0.18 0.05,-0.17 0.06,-0.17 0.06,-0.17 0.07,-0.16 0.08,-0.16 0.08,-0.15 0.1,-0.14 0.09,-0.15 0.11,-0.13 0.11,-0.13 0.12,-0.13 0.12,-0.12 0.13,-0.11 0.13,-0.1 0.13,-0.1 0.14,-0.1 0.15,-0.08 0.15,-0.08 0.15,-0.07 0.16,-0.06 0.16,-0.06 0.16,-0.05 0.16,-0.04 0.17,-0.03 0.17,-0.02 0.17,-0.01 0.17,-0.01 c 1.63,0 2.61,1.39 2.61,2.54 0,0.1 0,0.17 -0.13,0.17 -0.11,0 -0.11,-0.06 -0.12,-0.16 -0.08,-1.42 -1.15,-2.24 -2.24,-2.24 -0.6,0 -2.56,0.34 -2.56,3.31 0,2.98 1.95,3.32 2.55,3.32 1.09,0 1.98,-0.91 2.18,-2.36 0.02,-0.14 0.02,-0.17 0.16,-0.17 0.16,0 0.16,0.03 0.16,0.24 l 0,2.36 c 0,0.17 0,0.24 -0.11,0.24 -0.04,0 -0.08,0 -0.16,-0.12 l -0.5,-0.74 c -0.37,0.36 -0.88,0.86 -1.84,0.86 -1.86,0 -3.46,-1.59 -3.46,-3.62 z"
         inkscape:connector-curvature="0"
         style="fill:#000000;stroke-width:0" /><path
         id="path4148"
         d="m 239.3,713.8 0,0.01 -0.01,0.01 -0.01,0.01 -0.01,0.01 0,0.01 -0.01,0 -0.01,0.01 0,0.01 -0.01,0 0,0.01 -0.01,0.01 -0.01,0 0,0.01 -0.01,0 -0.01,0 0,0.01 -0.01,0 -0.01,0 -0.01,0.01 0,0 -0.01,0 -0.01,0 -0.01,0 -0.01,0 -0.01,0 -0.02,0.01 -0.01,0 -0.01,0 -0.02,0 0,0 -0.01,0 -0.01,0 -0.01,0 -0.01,0 -0.01,0 -1.69,0 0,-0.31 0.29,0 c 0.15,0 0.35,-0.01 0.5,-0.02 0.23,-0.03 0.24,-0.04 0.24,-0.23 l 0,-5.2 c 0,-0.27 0,-0.74 -1.03,-0.74 l 0,-0.31 c 0.35,0.01 0.84,0.03 1.17,0.03 0.33,0 0.81,-0.02 1.16,-0.03 l 0,0.31 c -1.02,0 -1.02,0.47 -1.02,0.74 l 0,5.18 c 0.05,-0.05 0.06,-0.06 0.1,-0.12 l 4.06,-5.98 c 0.09,-0.12 0.1,-0.13 0.17,-0.13 0.14,0 0.14,0.07 0.14,0.26 l 0,5.5 c 0,0.27 0,0.74 1.03,0.74 l 0,0.31 c -0.35,-0.01 -0.84,-0.03 -1.17,-0.03 -0.33,0 -0.82,0.02 -1.17,0.03 l 0,-0.31 c 1.03,0 1.03,-0.47 1.03,-0.74 l 0,-4.25 z"
         inkscape:connector-curvature="0"
         style="fill:#000000;stroke-width:0" /><path
         id="path4150"
         d="m 251.65,710.5 -0.01,0.19 -0.01,0.19 -0.02,0.18 -0.03,0.18 -0.04,0.18 -0.04,0.17 -0.06,0.17 -0.06,0.17 -0.06,0.16 -0.08,0.16 -0.08,0.15 -0.09,0.15 -0.09,0.14 -0.1,0.14 -0.1,0.13 -0.11,0.12 -0.12,0.13 -0.12,0.11 -0.13,0.11 -0.13,0.1 -0.13,0.09 -0.14,0.09 -0.14,0.08 -0.15,0.07 -0.15,0.07 -0.15,0.05 -0.16,0.05 -0.16,0.04 -0.16,0.03 -0.17,0.03 -0.16,0.01 -0.17,0.01 0,-0.25 c 0.87,0 2.29,-0.71 2.29,-3.26 0,-2.64 -1.36,-3.48 -2.28,-3.48 l 0,0 c -0.96,0 -2.29,0.88 -2.29,3.48 0,2.58 1.45,3.26 2.28,3.26 l 0,0.25 c -1.79,0 -3.31,-1.6 -3.31,-3.65 0,-2.04 1.53,-3.6 3.31,-3.6 1.81,0 3.32,1.59 3.32,3.6 z"
         inkscape:connector-curvature="0"
         style="fill:#000000;stroke-width:0" /><path
         id="path4152"
         d="m 258.85,713.87 -6.09,0 -0.19,-2.24 0.25,0 c 0.14,1.6 0.29,1.93 1.79,1.93 0.18,0 0.44,0 0.54,-0.02 0.21,-0.04 0.21,-0.15 0.21,-0.38 l 0,-5.25 c 0,-0.34 0,-0.48 -1.05,-0.48 l -0.4,0 0,-0.31 c 0.41,0.03 1.43,0.03 1.89,0.03 0.46,0 1.48,0 1.89,-0.03 l 0,0.31 -0.4,0 c -1.05,0 -1.05,0.14 -1.05,0.48 l 0,5.25 c 0,0.2 0,0.34 0.18,0.38 0.11,0.02 0.38,0.02 0.57,0.02 1.51,0 1.66,-0.33 1.8,-1.93 l 0.24,0 z"
         inkscape:connector-curvature="0"
         style="fill:#000000;stroke-width:0" /></g>    <path
       sodipodi:nodetypes="cc"
       inkscape:connector-curvature="0"
       id="path4723"
       d="m -64.9286,176.52947 0,327.14285"
       style="fill:none;fill-rule:evenodd;stroke:#000000;stroke-width:3;stroke-linecap:butt;stroke-linejoin:miter;stroke-miterlimit:4;stroke-dasharray:12, 12;stroke-dashoffset:0;stroke-opacity:1" />
    <path
       sodipodi:nodetypes="cc"
       style="fill:none;fill-rule:evenodd;stroke:#000000;stroke-width:3;stroke-linecap:butt;stroke-linejoin:miter;stroke-miterlimit:4;stroke-dasharray:12, 12;stroke-dashoffset:0;stroke-opacity:1"
       d="m 122.97847,176.52947 0,327.14285"
       id="path4753"
       inkscape:connector-curvature="0" />
    <path
       sodipodi:nodetypes="cc"
       inkscape:connector-curvature="0"
       id="path4789"
       d="m 694.17267,176.52947 0,327.14285"
       style="fill:none;fill-rule:evenodd;stroke:#000000;stroke-width:3;stroke-linecap:butt;stroke-linejoin:miter;stroke-miterlimit:4;stroke-dasharray:12, 12;stroke-dashoffset:0;stroke-opacity:1" />
    <path
       sodipodi:nodetypes="cc"
       style="fill:none;fill-rule:evenodd;stroke:#000000;stroke-width:3;stroke-linecap:butt;stroke-linejoin:miter;stroke-miterlimit:4;stroke-dasharray:12, 12;stroke-dashoffset:0;stroke-opacity:1"
       d="m 506.26559,176.52947 0,327.14285"
       id="path4791"
       inkscape:connector-curvature="0" />
    <g
       ns0:preamble="/home/ngarcia/.config/inkscape/preamble.tex"
       ns0:text="$a$"
       word-spacing="normal"
       letter-spacing="normal"
       font-size-adjust="none"
       font-stretch="normal"
       font-weight="normal"
       font-variant="normal"
       font-style="normal"
       stroke-miterlimit="10.433"
       xml:space="preserve"
       transform="matrix(5,0,0,-5,-1195.4786,3694.5794)"
       id="g4900"
       style="font-style:normal;font-variant:normal;font-weight:normal;font-stretch:normal;letter-spacing:normal;word-spacing:normal;text-anchor:start;fill:none;fill-opacity:1;fill-rule:evenodd;stroke:#000000;stroke-linecap:butt;stroke-linejoin:miter;stroke-miterlimit:10.43299961;stroke-dasharray:none;stroke-dashoffset:0;stroke-opacity:1"><path
         id="path4902"
         d="m 227.15,710.89 -0.02,0.03 -0.02,0.04 -0.01,0.03 -0.02,0.03 -0.02,0.03 -0.02,0.03 -0.03,0.03 -0.02,0.03 -0.02,0.03 -0.02,0.03 -0.03,0.03 -0.02,0.02 -0.03,0.03 -0.02,0.02 -0.03,0.02 -0.03,0.03 -0.03,0.02 -0.03,0.02 -0.03,0.01 -0.03,0.02 -0.03,0.02 -0.03,0.01 -0.04,0.02 -0.03,0.01 -0.04,0.01 -0.03,0.01 -0.04,0.01 -0.04,0 -0.04,0.01 -0.04,0 -0.04,0.01 -0.04,0 0.01,-0.22 c 0.65,0 0.79,-0.82 0.79,-0.88 0,-0.06 -0.02,-0.12 -0.03,-0.17 l -0.5,-1.95 c -0.05,-0.18 -0.05,-0.2 -0.2,-0.37 -0.44,-0.55 -0.84,-0.71 -1.12,-0.71 -0.5,0 -0.64,0.55 -0.64,0.94 0,0.5 0.32,1.72 0.55,2.18 0.31,0.59 0.75,0.96 1.15,0.96 l -0.01,0.22 c -1.16,0 -2.4,-1.47 -2.4,-2.92 0,-0.94 0.55,-1.6 1.33,-1.6 0.19,0 0.69,0.04 1.29,0.75 0.08,-0.42 0.43,-0.75 0.91,-0.75 0.35,0 0.58,0.23 0.74,0.55 0.16,0.36 0.29,0.97 0.29,0.99 0,0.1 -0.09,0.1 -0.12,0.1 -0.09,0 -0.11,-0.04 -0.14,-0.18 -0.17,-0.65 -0.34,-1.24 -0.75,-1.24 -0.27,0 -0.3,0.26 -0.3,0.46 0,0.22 0.02,0.3 0.13,0.74 0.11,0.42 0.13,0.52 0.22,0.89 l 0.36,1.4 c 0.07,0.28 0.07,0.3 0.07,0.34 0,0.17 -0.12,0.27 -0.29,0.27 -0.24,0 -0.39,-0.22 -0.42,-0.44 z"
         inkscape:connector-curvature="0"
         style="fill:#000000;stroke-width:0" /></g>    <g
       id="g5084"
       transform="matrix(5,0,0,-5,-1005.6965,3694.5794)"
       xml:space="preserve"
       stroke-miterlimit="10.433"
       font-style="normal"
       font-variant="normal"
       font-weight="normal"
       font-stretch="normal"
       font-size-adjust="none"
       letter-spacing="normal"
       word-spacing="normal"
       ns0:text="$b$"
       ns0:preamble="/home/ngarcia/.config/inkscape/preamble.tex"
       style="font-style:normal;font-variant:normal;font-weight:normal;font-stretch:normal;letter-spacing:normal;word-spacing:normal;text-anchor:start;fill:none;fill-opacity:1;fill-rule:evenodd;stroke:#000000;stroke-linecap:butt;stroke-linejoin:miter;stroke-miterlimit:10.43299961;stroke-dasharray:none;stroke-dashoffset:0;stroke-opacity:1"><path
         style="fill:#000000;stroke-width:0"
         inkscape:connector-curvature="0"
         d="m 225.81,713.93 0,0 0,0 0,0 0,0 0,0 0,0.01 0,0 0,0 0,0.01 0,0 0,0.01 0,0 0,0.01 0,0 -0.01,0.01 0,0 0,0.01 -0.01,0 0,0.01 0,0 -0.01,0 0,0.01 0,0 -0.01,0 0,0 0,0.01 0,0 -0.01,0 0,0 0,0 -0.01,0 0,0.01 -0.01,0 0,0 0,0 -0.01,0 0,0 -0.01,0 0,0 -0.01,0.01 0,0 -0.01,0 0,0 -0.01,0 -0.01,0 c -0.22,0 -0.95,-0.08 -1.21,-0.1 -0.08,-0.01 -0.19,-0.02 -0.19,-0.2 0,-0.12 0.09,-0.12 0.24,-0.12 0.48,0 0.5,-0.07 0.5,-0.17 0,-0.07 -0.09,-0.41 -0.14,-0.62 l -0.82,-3.25 c -0.12,-0.49 -0.16,-0.65 -0.16,-1 0,-0.95 0.53,-1.57 1.27,-1.57 l 0,0.22 c -0.34,0 -0.67,0.27 -0.67,1.01 0,0.19 0,0.38 0.16,1 l 0.22,0.92 c 0.06,0.22 0.06,0.24 0.15,0.35 0.48,0.65 0.93,0.8 1.19,0.8 0.36,0 0.63,-0.3 0.63,-0.94 0,-0.59 -0.33,-1.73 -0.51,-2.11 -0.33,-0.67 -0.79,-1.03 -1.17,-1.03 l 0,-0.22 c 1.17,0 2.4,1.49 2.4,2.92 0,0.91 -0.53,1.6 -1.33,1.6 -0.46,0 -0.86,-0.29 -1.16,-0.6 z"
         id="path5086" /></g>    <g
       style="font-style:normal;font-variant:normal;font-weight:normal;font-stretch:normal;letter-spacing:normal;word-spacing:normal;text-anchor:start;fill:none;fill-opacity:1;fill-rule:evenodd;stroke:#000000;stroke-linecap:butt;stroke-linejoin:miter;stroke-miterlimit:10.43299961;stroke-dasharray:none;stroke-dashoffset:0;stroke-opacity:1"
       ns0:preamble="/home/ngarcia/.config/inkscape/preamble.tex"
       ns0:text="$c$"
       word-spacing="normal"
       letter-spacing="normal"
       font-size-adjust="none"
       font-stretch="normal"
       font-weight="normal"
       font-variant="normal"
       font-style="normal"
       stroke-miterlimit="10.433"
       xml:space="preserve"
       transform="matrix(5,0,0,-5,-622.63441,3694.5794)"
       id="g5262"><path
         style="fill:#000000;stroke-width:0"
         inkscape:connector-curvature="0"
         id="path5264"
         d="m 227.38,710.91 -0.03,0 -0.03,0 -0.03,0 -0.03,0 -0.03,-0.01 -0.02,0 -0.02,0 -0.01,0 -0.02,-0.01 -0.01,0 -0.01,0 -0.02,-0.01 -0.01,0 -0.01,-0.01 -0.02,0 -0.01,-0.01 -0.01,0 -0.02,-0.01 -0.01,-0.01 -0.01,-0.01 -0.02,-0.01 -0.01,-0.01 -0.01,-0.01 -0.01,-0.01 -0.02,-0.01 -0.01,-0.01 c -0.16,-0.15 -0.18,-0.32 -0.18,-0.39 0,-0.24 0.18,-0.35 0.37,-0.35 0.29,0 0.56,0.24 0.56,0.64 0,0.49 -0.47,0.86 -1.18,0.86 -1.34,0 -2.67,-1.43 -2.67,-2.83 0,-0.9 0.58,-1.69 1.62,-1.69 1.42,0 2.26,1.06 2.26,1.18 0,0.06 -0.06,0.13 -0.12,0.13 -0.05,0 -0.07,-0.02 -0.13,-0.1 -0.79,-0.99 -1.88,-0.99 -1.99,-0.99 -0.63,0 -0.9,0.49 -0.9,1.09 0,0.41 0.2,1.37 0.54,1.99 0.31,0.57 0.85,1 1.4,1 0.34,0 0.72,-0.13 0.86,-0.4 z" /></g>    <g
       id="g5440"
       transform="matrix(5,0,0,-5,-436.82733,3694.5794)"
       xml:space="preserve"
       stroke-miterlimit="10.433"
       font-style="normal"
       font-variant="normal"
       font-weight="normal"
       font-stretch="normal"
       font-size-adjust="none"
       letter-spacing="normal"
       word-spacing="normal"
       ns0:text="$d$"
       ns0:preamble="/home/ngarcia/.config/inkscape/preamble.tex"
       style="font-style:normal;font-variant:normal;font-weight:normal;font-stretch:normal;letter-spacing:normal;word-spacing:normal;text-anchor:start;fill:none;fill-opacity:1;fill-rule:evenodd;stroke:#000000;stroke-linecap:butt;stroke-linejoin:miter;stroke-miterlimit:10.43299961;stroke-dasharray:none;stroke-dashoffset:0;stroke-opacity:1"><path
         style="fill:#000000;stroke-width:0"
         inkscape:connector-curvature="0"
         d="m 228.57,713.93 0,0 0,0 0,0 0,0 0,0 0,0.01 0,0 0,0 0,0.01 0,0 0,0.01 0,0 0,0.01 -0.01,0 0,0.01 0,0 0,0.01 -0.01,0 0,0.01 0,0 -0.01,0 0,0.01 0,0 -0.01,0 0,0 0,0.01 0,0 -0.01,0 0,0 0,0 -0.01,0 0,0.01 -0.01,0 0,0 0,0 -0.01,0 0,0 -0.01,0 0,0 -0.01,0.01 0,0 -0.01,0 0,0 -0.01,0 -0.01,0 c -0.15,0 -1.09,-0.09 -1.26,-0.11 -0.08,-0.01 -0.14,-0.06 -0.14,-0.19 0,-0.12 0.09,-0.12 0.24,-0.12 0.48,0 0.5,-0.07 0.5,-0.17 l -0.03,-0.2 -0.6,-2.36 c -0.18,0.37 -0.47,0.64 -0.92,0.64 l 0.01,-0.22 c 0.65,0 0.79,-0.82 0.79,-0.88 0,-0.06 -0.02,-0.12 -0.03,-0.17 l -0.5,-1.95 c -0.05,-0.18 -0.05,-0.2 -0.2,-0.37 -0.44,-0.55 -0.84,-0.71 -1.12,-0.71 -0.5,0 -0.64,0.55 -0.64,0.94 0,0.5 0.32,1.72 0.55,2.18 0.31,0.59 0.75,0.96 1.15,0.96 l -0.01,0.22 c -1.16,0 -2.4,-1.47 -2.4,-2.92 0,-0.94 0.55,-1.6 1.33,-1.6 0.19,0 0.69,0.04 1.29,0.75 0.08,-0.42 0.43,-0.75 0.91,-0.75 0.35,0 0.58,0.23 0.74,0.55 0.16,0.36 0.29,0.97 0.29,0.99 0,0.1 -0.09,0.1 -0.12,0.1 -0.09,0 -0.11,-0.04 -0.14,-0.18 -0.17,-0.65 -0.34,-1.24 -0.75,-1.24 -0.27,0 -0.3,0.26 -0.3,0.46 0,0.24 0.02,0.31 0.06,0.48 z"
         id="path5442" /></g>    <g
       transform="translate(409.2887,-560.69264)"
       id="g4595">
      <rect
         style="opacity:1;fill:#ffffff;fill-opacity:1;stroke:#000000;stroke-width:4;stroke-linecap:round;stroke-miterlimit:4;stroke-dasharray:none;stroke-dashoffset:0;stroke-opacity:1"
         id="rect4523"
         width="67.712082"
         height="67.712082"
         x="208.0845"
         y="1127.3367" />
      <g
         ns0:preamble="/home/ngarcia/.config/inkscape/preamble.tex"
         ns0:text="H"
         word-spacing="normal"
         letter-spacing="normal"
         font-size-adjust="none"
         font-stretch="normal"
         font-weight="normal"
         font-variant="normal"
         font-style="normal"
         stroke-miterlimit="10.433"
         xml:space="preserve"
         transform="matrix(5,0,0,-5,-893.88445,4713.8177)"
         id="g4591"
         style="font-style:normal;font-variant:normal;font-weight:normal;font-stretch:normal;letter-spacing:normal;word-spacing:normal;text-anchor:start;fill:none;fill-opacity:1;fill-rule:evenodd;stroke:#000000;stroke-linecap:butt;stroke-linejoin:miter;stroke-miterlimit:10.43299961;stroke-dasharray:none;stroke-dashoffset:0;stroke-opacity:1"><path
           id="path4593"
           d="m 229.54,713.15 0,0.03 0,0.03 0,0.03 0,0.03 0,0.03 0.01,0.03 0,0.02 0.01,0.02 0,0.03 0.01,0.02 0.01,0.02 0.01,0.02 0.01,0.01 0.01,0.02 0.02,0.01 0.02,0.02 0.02,0.01 0.02,0.01 0.01,0.01 0.01,0 0.02,0.01 0.01,0 0.02,0.01 0.01,0 0.02,0.01 0.01,0 0.02,0.01 0.02,0 0.02,0 0.02,0.01 0.02,0 0.02,0 0.03,0 0.02,0.01 0.02,0 0.03,0 0.03,0 0.02,0 0.03,0 0.03,0 0.03,0.01 0.03,0 0.03,0 0.04,0 0.03,0 0.04,0 0.24,0 0,0.31 c -0.35,-0.03 -1.09,-0.03 -1.47,-0.03 -0.38,0 -1.12,0 -1.47,0.03 l 0,-0.31 0.24,0 c 0.76,0 0.78,-0.11 0.78,-0.47 l 0,-2.33 -2.98,0 0,2.33 c 0,0.36 0.02,0.47 0.79,0.47 l 0.24,0 0,0.31 c -0.35,-0.03 -1.09,-0.03 -1.46,-0.03 -0.38,0 -1.13,0 -1.48,0.03 l 0,-0.31 0.24,0 c 0.77,0 0.79,-0.11 0.79,-0.47 l 0,-5.25 c 0,-0.36 -0.02,-0.47 -0.79,-0.47 l -0.24,0 0,-0.31 c 0.35,0.03 1.09,0.03 1.47,0.03 0.37,0 1.12,0 1.47,-0.03 l 0,0.31 -0.24,0 c -0.77,0 -0.79,0.11 -0.79,0.47 l 0,2.61 2.98,0 0,-2.61 c 0,-0.36 -0.02,-0.47 -0.78,-0.47 l -0.24,0 0,-0.31 c 0.35,0.03 1.08,0.03 1.46,0.03 0.38,0 1.13,0 1.48,-0.03 l 0,0.31 -0.24,0 c -0.77,0 -0.79,0.11 -0.79,0.47 z"
           inkscape:connector-curvature="0"
           style="fill:#000000;stroke-width:0" /></g>    </g>
    <g
       id="g5724">
      <g
         style="font-style:normal;font-variant:normal;font-weight:normal;font-stretch:normal;letter-spacing:normal;word-spacing:normal;text-anchor:start;fill:none;fill-opacity:1;fill-rule:evenodd;stroke:#000000;stroke-linecap:butt;stroke-linejoin:miter;stroke-miterlimit:10.43299961;stroke-dasharray:none;stroke-dashoffset:0;stroke-opacity:1"
         ns0:preamble="/home/ngarcia/.config/inkscape/preamble.tex"
         ns0:text="$|y\\rangle$"
         word-spacing="normal"
         letter-spacing="normal"
         font-size-adjust="none"
         font-stretch="normal"
         font-weight="normal"
         font-variant="normal"
         font-style="normal"
         stroke-miterlimit="10.433"
         xml:space="preserve"
         transform="matrix(5,0,0,-5,-1272.4671,4663.3708)"
         id="g4243"><path
           style="fill:#000000;stroke-width:0"
           inkscape:connector-curvature="0"
           id="path4245"
           d="m 225.02,714.24 0,0.03 0,0.03 0,0.04 -0.01,0.01 0,0.02 0,0.01 0,0.02 0,0.01 0,0.02 -0.01,0.01 0,0.02 0,0.01 -0.01,0.01 0,0.01 -0.01,0.02 0,0.01 -0.01,0.01 -0.01,0.01 -0.01,0.01 -0.01,0.01 -0.01,0 -0.01,0.01 0,0 -0.01,0.01 -0.01,0 0,0 -0.01,0 -0.01,0.01 0,0 -0.01,0 -0.01,0 -0.01,0 -0.01,0 0,0 -0.01,0 -0.01,0 c -0.2,0 -0.2,-0.18 -0.2,-0.35 l 0,-9.25 c 0,-0.18 0,-0.36 0.2,-0.36 0.2,0 0.2,0.18 0.2,0.36 z" /><path
           style="fill:#000000;stroke-width:0"
           inkscape:connector-curvature="0"
           id="path4247"
           d="m 231.04,710.92 0,0 0.01,0.01 0,0.01 0,0 0,0.01 0.01,0.02 0,0.01 0,0.01 0,0 0.01,0.01 0,0.01 0,0.01 0,0.01 0,0 0,0.01 0,0.01 0.01,0 0,0.01 0,0 0,0.01 0,0.01 0,0 0,0.01 0,0.01 0,0.01 0,0.01 0,0.01 0,0 0,0.01 0,0.01 c 0,0.18 -0.14,0.27 -0.29,0.27 -0.1,0 -0.26,-0.06 -0.35,-0.21 -0.02,-0.05 -0.1,-0.36 -0.14,-0.54 -0.06,-0.26 -0.14,-0.53 -0.2,-0.8 l -0.44,-1.79 c -0.04,-0.15 -0.47,-0.85 -1.13,-0.85 -0.51,0 -0.62,0.44 -0.62,0.81 0,0.46 0.17,1.07 0.51,1.95 0.16,0.41 0.2,0.52 0.2,0.72 0,0.45 -0.32,0.82 -0.82,0.82 -0.94,0 -1.31,-1.45 -1.31,-1.54 0,-0.1 0.1,-0.1 0.12,-0.1 0.1,0 0.11,0.02 0.16,0.18 0.27,0.94 0.66,1.24 1,1.24 0.08,0 0.25,0 0.25,-0.32 0,-0.25 -0.1,-0.51 -0.17,-0.7 -0.39,-1.06 -0.57,-1.62 -0.57,-2.09 0,-0.89 0.62,-1.19 1.21,-1.19 0.39,0 0.73,0.17 1.01,0.45 -0.13,-0.52 -0.25,-1 -0.65,-1.53 -0.26,-0.34 -0.64,-0.63 -1.1,-0.63 -0.13,0 -0.58,0.03 -0.75,0.42 0.16,0 0.29,0 0.43,0.12 0.09,0.09 0.19,0.22 0.19,0.41 0,0.3 -0.26,0.34 -0.36,0.34 -0.23,0 -0.56,-0.16 -0.56,-0.64 0,-0.5 0.44,-0.87 1.05,-0.87 1.03,0 2.06,0.91 2.34,2.03 z" /><path
           style="fill:#000000;stroke-width:0"
           inkscape:connector-curvature="0"
           id="path4249"
           d="m 234.16,709.44 0,0.01 0.01,0 0,0.01 0,0.01 0,0 0,0 0.01,0.01 0,0 0,0.01 0,0 0,0.01 0.01,0 0,0.01 0,0.01 0,0 0.01,0.01 0,0.01 0,0 0,0.01 0,0 0,0.01 0.01,0 0,0.01 0,0 0,0 0,0.01 0,0 0,0 0,0.01 0,0 0,0.01 0,0 0,0.01 0,0 c 0,0.03 0,0.05 -0.05,0.17 l -1.74,4.58 c -0.06,0.17 -0.12,0.23 -0.23,0.23 -0.11,0 -0.2,-0.08 -0.2,-0.19 0,-0.04 0,-0.06 0.05,-0.16 l 1.76,-4.63 -1.76,-4.6 c -0.05,-0.11 -0.05,-0.13 -0.05,-0.18 0,-0.11 0.09,-0.2 0.2,-0.2 0.13,0 0.17,0.1 0.21,0.2 z" /></g>      <g
         id="g4251"
         transform="matrix(5,0,0,-5,-394.68883,4663.3708)"
         xml:space="preserve"
         stroke-miterlimit="10.433"
         font-style="normal"
         font-variant="normal"
         font-weight="normal"
         font-stretch="normal"
         font-size-adjust="none"
         letter-spacing="normal"
         word-spacing="normal"
         ns0:text="$|f(x)\\oplus y\\rangle$"
         ns0:preamble="/home/ngarcia/.config/inkscape/preamble.tex"
         style="font-style:normal;font-variant:normal;font-weight:normal;font-stretch:normal;letter-spacing:normal;word-spacing:normal;text-anchor:start;fill:none;fill-opacity:1;fill-rule:evenodd;stroke:#000000;stroke-linecap:butt;stroke-linejoin:miter;stroke-miterlimit:10.43299961;stroke-dasharray:none;stroke-dashoffset:0;stroke-opacity:1"><path
           style="fill:#000000;stroke-width:0"
           inkscape:connector-curvature="0"
           d="m 225.02,714.24 0,0.03 0,0.03 0,0.04 -0.01,0.01 0,0.02 0,0.01 0,0.02 0,0.01 0,0.02 -0.01,0.01 0,0.02 0,0.01 -0.01,0.01 0,0.01 -0.01,0.02 0,0.01 -0.01,0.01 -0.01,0.01 -0.01,0.01 -0.01,0.01 -0.01,0 -0.01,0.01 0,0 -0.01,0.01 -0.01,0 0,0 -0.01,0 -0.01,0.01 0,0 -0.01,0 -0.01,0 -0.01,0 -0.01,0 0,0 -0.01,0 -0.01,0 c -0.2,0 -0.2,-0.18 -0.2,-0.35 l 0,-9.25 c 0,-0.18 0,-0.36 0.2,-0.36 0.2,0 0.2,0.18 0.2,0.36 z"
           id="path4253" /><path
           style="fill:#000000;stroke-width:0"
           inkscape:connector-curvature="0"
           d="m 229.86,711.11 0.85,0 c 0.2,0 0.3,0 0.3,0.2 0,0.11 -0.1,0.11 -0.27,0.11 l -0.82,0 0.2,1.13 c 0.04,0.21 0.18,0.92 0.24,1.04 0.09,0.19 0.26,0.34 0.47,0.34 0.04,0 0.3,0 0.49,-0.18 -0.44,-0.04 -0.54,-0.39 -0.54,-0.54 0,-0.23 0.18,-0.35 0.37,-0.35 0.26,0 0.55,0.22 0.55,0.6 0,0.46 -0.46,0.69 -0.87,0.69 -0.34,0 -0.96,-0.18 -1.26,-1.17 -0.06,-0.21 -0.09,-0.31 -0.33,-1.56 l -0.69,0 c -0.19,0 -0.3,0 -0.3,-0.19 0,-0.12 0.09,-0.12 0.28,-0.12 l 0.66,0 -0.75,-3.94 c -0.18,-0.96 -0.35,-1.87 -0.87,-1.87 -0.03,0 -0.28,0 -0.47,0.18 0.45,0.03 0.55,0.39 0.55,0.54 0,0.23 -0.19,0.34 -0.37,0.34 -0.26,0 -0.55,-0.21 -0.55,-0.59 0,-0.45 0.44,-0.69 0.84,-0.69 0.55,0 0.95,0.59 1.13,0.97 0.32,0.62 0.55,1.83 0.56,1.9 z"
           id="path4255" /><path
           style="fill:#000000;stroke-width:0"
           inkscape:connector-curvature="0"
           d="m 235.45,704.73 -0.01,0.01 0,0 0,0.01 0,0 0,0 0,0 0,0.01 0,0 0,0.01 0,0 -0.01,0 0,0.01 0,0 -0.01,0.01 0,0 -0.01,0.01 0,0.01 -0.01,0 0,0.01 0,0 -0.01,0.01 0,0 0,0.01 -0.01,0 0,0 -0.01,0.01 0,0 -0.01,0.01 0,0 -0.01,0.01 0,0.01 -0.01,0 0,0.01 -0.01,0 0,0.01 -0.01,0.01 -0.01,0 0,0.01 -0.01,0.01 -0.01,0.01 -0.01,0 0,0.01 c -1.25,1.26 -1.57,3.14 -1.57,4.66 0,1.74 0.38,3.47 1.61,4.72 0.13,0.12 0.13,0.14 0.13,0.16 0,0.08 -0.05,0.1 -0.1,0.1 -0.1,0 -1,-0.67 -1.59,-1.94 -0.51,-1.09 -0.63,-2.2 -0.63,-3.04 0,-0.77 0.11,-1.98 0.66,-3.1 0.6,-1.23 1.46,-1.88 1.56,-1.88 0.05,0 0.1,0.03 0.1,0.1 z"
           id="path4257" /><path
           style="fill:#000000;stroke-width:0"
           inkscape:connector-curvature="0"
           d="m 239.35,710.13 0.01,0.03 0.01,0.03 0,0.03 0.01,0.04 0.01,0.03 0.02,0.05 0.01,0.04 0.01,0.04 0.02,0.05 0.02,0.05 0.02,0.05 0.02,0.05 0.02,0.05 0.02,0.05 0.03,0.05 0.03,0.05 0.03,0.04 0.03,0.05 0.03,0.05 0.04,0.04 0.03,0.05 0.04,0.04 0.04,0.03 0.05,0.04 0.05,0.03 0.04,0.03 0.03,0.01 0.03,0.02 0.02,0.01 0.03,0.01 0.03,0.01 0.02,0 0.03,0.01 0.03,0.01 0.03,0 0.03,0 0.04,0.01 0.03,0 c 0.05,0 0.29,0 0.5,-0.13 -0.28,-0.05 -0.48,-0.3 -0.48,-0.54 0,-0.16 0.11,-0.35 0.38,-0.35 0.22,0 0.53,0.18 0.53,0.58 0,0.52 -0.58,0.66 -0.92,0.66 -0.58,0 -0.93,-0.53 -1.05,-0.76 -0.25,0.66 -0.78,0.76 -1.07,0.76 -1.04,0 -1.61,-1.29 -1.61,-1.54 0,-0.1 0.1,-0.1 0.12,-0.1 0.08,0 0.11,0.02 0.13,0.11 0.34,1.06 1,1.31 1.34,1.31 0.19,0 0.53,-0.09 0.53,-0.67 0,-0.31 -0.17,-0.98 -0.53,-2.37 -0.16,-0.62 -0.51,-1.04 -0.95,-1.04 -0.06,0 -0.29,0 -0.5,0.13 0.25,0.05 0.47,0.26 0.47,0.54 0,0.27 -0.22,0.35 -0.37,0.35 -0.3,0 -0.55,-0.26 -0.55,-0.58 0,-0.46 0.5,-0.66 0.94,-0.66 0.66,0 1.02,0.7 1.05,0.76 0.12,-0.37 0.47,-0.76 1.07,-0.76 1.03,0 1.6,1.29 1.6,1.54 0,0.1 -0.09,0.1 -0.12,0.1 -0.09,0 -0.11,-0.04 -0.13,-0.11 -0.33,-1.07 -1.01,-1.31 -1.33,-1.31 -0.39,0 -0.55,0.32 -0.55,0.66 0,0.22 0.06,0.44 0.17,0.88 z"
           id="path4259" /><path
           style="fill:#000000;stroke-width:0"
           inkscape:connector-curvature="0"
           d="m 244.6,709.61 0,0.08 0,0.07 -0.01,0.08 0,0.08 -0.01,0.17 -0.01,0.18 -0.02,0.18 -0.02,0.19 -0.02,0.2 -0.04,0.2 -0.04,0.2 -0.04,0.21 -0.06,0.21 -0.06,0.21 -0.07,0.21 -0.08,0.22 -0.04,0.1 -0.04,0.11 -0.05,0.11 -0.05,0.1 c -0.6,1.23 -1.45,1.87 -1.56,1.87 -0.06,0 -0.09,-0.04 -0.09,-0.1 0,-0.02 0,-0.04 0.19,-0.22 0.97,-0.99 1.54,-2.57 1.54,-4.66 0,-1.7 -0.37,-3.45 -1.61,-4.71 -0.12,-0.12 -0.12,-0.14 -0.12,-0.17 0,-0.06 0.03,-0.1 0.09,-0.1 0.11,0 1,0.68 1.59,1.95 0.51,1.09 0.63,2.2 0.63,3.03 z"
           id="path4261" /><path
           style="fill:#000000;stroke-width:0"
           inkscape:connector-curvature="0"
           d="m 255,709.61 0,0.17 -0.02,0.17 -0.02,0.17 -0.03,0.16 -0.03,0.16 -0.05,0.16 -0.05,0.15 -0.06,0.15 -0.07,0.15 -0.07,0.14 -0.08,0.14 -0.09,0.14 -0.09,0.13 -0.1,0.12 -0.1,0.12 -0.11,0.12 -0.12,0.11 -0.12,0.1 -0.13,0.1 -0.13,0.09 -0.13,0.09 -0.14,0.08 -0.14,0.07 -0.15,0.07 -0.15,0.06 -0.15,0.05 -0.16,0.05 -0.16,0.03 -0.16,0.03 -0.17,0.02 -0.17,0.02 -0.17,0 c -1.85,0 -3.33,-1.5 -3.33,-3.32 0,-1.83 1.5,-3.31 3.32,-3.31 l -0.12,0.24 c -1.54,0.08 -2.85,1.25 -2.95,2.95 l 0,0.25 c 0.1,1.68 1.4,2.86 2.95,2.94 l 0.25,0 c 1.57,-0.08 2.85,-1.27 2.95,-2.94 l 0,-0.25 c -0.1,-1.7 -1.41,-2.87 -2.95,-2.95 l 0,2.95 2.95,0 0,0.25 -2.95,0 0,2.94 -0.25,0 0,-2.94 -2.95,0 0,-0.25 2.95,0 0,-2.95 0.12,-0.24 c 1.86,0 3.33,1.5 3.33,3.31 z"
           id="path4263" /><path
           style="fill:#000000;stroke-width:0"
           inkscape:connector-curvature="0"
           d="m 262.61,710.92 0,0 0,0.01 0,0.01 0.01,0 0,0.01 0,0.02 0,0.01 0.01,0.01 0,0 0,0.01 0,0.01 0.01,0.01 0,0.01 0,0 0,0.01 0,0.01 0,0 0,0.01 0,0 0.01,0.01 0,0.01 0,0 0,0.01 0,0.01 0,0.01 0,0.01 0,0.01 0,0 0,0.01 0,0.01 c 0,0.18 -0.14,0.27 -0.29,0.27 -0.1,0 -0.26,-0.06 -0.35,-0.21 -0.02,-0.05 -0.1,-0.36 -0.14,-0.54 -0.07,-0.26 -0.14,-0.53 -0.2,-0.8 l -0.44,-1.79 c -0.05,-0.15 -0.47,-0.85 -1.13,-0.85 -0.51,0 -0.62,0.44 -0.62,0.81 0,0.46 0.17,1.07 0.51,1.95 0.16,0.41 0.2,0.52 0.2,0.72 0,0.45 -0.32,0.82 -0.82,0.82 -0.95,0 -1.31,-1.45 -1.31,-1.54 0,-0.1 0.1,-0.1 0.12,-0.1 0.1,0 0.11,0.02 0.15,0.18 0.27,0.94 0.67,1.24 1.01,1.24 0.08,0 0.25,0 0.25,-0.32 0,-0.25 -0.1,-0.51 -0.17,-0.7 -0.4,-1.06 -0.58,-1.62 -0.58,-2.09 0,-0.89 0.63,-1.19 1.22,-1.19 0.39,0 0.73,0.17 1.01,0.45 -0.13,-0.52 -0.25,-1 -0.65,-1.53 -0.26,-0.34 -0.64,-0.63 -1.1,-0.63 -0.14,0 -0.59,0.03 -0.75,0.42 0.15,0 0.28,0 0.42,0.12 0.1,0.09 0.2,0.22 0.2,0.41 0,0.3 -0.27,0.34 -0.37,0.34 -0.23,0 -0.55,-0.16 -0.55,-0.64 0,-0.5 0.43,-0.87 1.05,-0.87 1.03,0 2.05,0.91 2.33,2.03 z"
           id="path4265" /><path
           style="fill:#000000;stroke-width:0"
           inkscape:connector-curvature="0"
           d="m 265.73,709.44 0,0.01 0,0 0.01,0.01 0,0.01 0,0 0,0 0,0.01 0.01,0 0,0.01 0,0 0,0.01 0,0 0.01,0.01 0,0.01 0,0 0,0.01 0.01,0.01 0,0 0,0.01 0,0 0,0.01 0,0 0,0.01 0.01,0 0,0 0,0.01 0,0 0,0 0,0.01 0,0 0,0.01 0,0 0,0.01 0,0 c 0,0.03 0,0.05 -0.05,0.17 l -1.74,4.58 c -0.06,0.17 -0.12,0.23 -0.23,0.23 -0.11,0 -0.2,-0.08 -0.2,-0.19 0,-0.04 0,-0.06 0.05,-0.16 l 1.76,-4.63 -1.76,-4.6 c -0.05,-0.11 -0.05,-0.13 -0.05,-0.18 0,-0.11 0.09,-0.2 0.2,-0.2 0.13,0 0.17,0.1 0.21,0.2 z"
           id="path4267" /></g>      <g
         style="font-style:normal;font-variant:normal;font-weight:normal;font-stretch:normal;letter-spacing:normal;word-spacing:normal;text-anchor:start;fill:none;fill-opacity:1;fill-rule:evenodd;stroke:#000000;stroke-linecap:butt;stroke-linejoin:miter;stroke-miterlimit:10.43299961;stroke-dasharray:none;stroke-dashoffset:0;stroke-opacity:1"
         id="g4277"
         transform="matrix(5,0,0,-5,-1272.4671,4458.7311)"
         xml:space="preserve"
         stroke-miterlimit="10.433"
         font-style="normal"
         font-variant="normal"
         font-weight="normal"
         font-stretch="normal"
         font-size-adjust="none"
         letter-spacing="normal"
         word-spacing="normal"
         ns0:text="$|x\\rangle$"
         ns0:preamble="/home/ngarcia/.config/inkscape/preamble.tex"><path
           style="fill:#000000;stroke-width:0"
           inkscape:connector-curvature="0"
           d="m 225.02,714.24 0,0.03 0,0.03 0,0.04 -0.01,0.01 0,0.02 0,0.01 0,0.02 0,0.01 0,0.02 -0.01,0.01 0,0.02 0,0.01 -0.01,0.01 0,0.01 -0.01,0.02 0,0.01 -0.01,0.01 -0.01,0.01 -0.01,0.01 -0.01,0.01 -0.01,0 -0.01,0.01 0,0 -0.01,0.01 -0.01,0 0,0 -0.01,0 -0.01,0.01 0,0 -0.01,0 -0.01,0 -0.01,0 -0.01,0 0,0 -0.01,0 -0.01,0 c -0.2,0 -0.2,-0.18 -0.2,-0.35 l 0,-9.25 c 0,-0.18 0,-0.36 0.2,-0.36 0.2,0 0.2,0.18 0.2,0.36 z"
           id="path4279" /><path
           style="fill:#000000;stroke-width:0"
           inkscape:connector-curvature="0"
           d="m 229.53,710.13 0,0.03 0.01,0.03 0.01,0.03 0.01,0.04 0.01,0.03 0.01,0.05 0.01,0.04 0.02,0.04 0.01,0.05 0.02,0.05 0.02,0.05 0.02,0.05 0.02,0.05 0.03,0.05 0.02,0.05 0.03,0.05 0.03,0.04 0.03,0.05 0.04,0.05 0.03,0.04 0.04,0.05 0.04,0.04 0.04,0.03 0.04,0.04 0.05,0.03 0.05,0.03 0.02,0.01 0.03,0.02 0.03,0.01 0.02,0.01 0.03,0.01 0.03,0 0.03,0.01 0.03,0.01 0.03,0 0.03,0 0.03,0.01 0.03,0 c 0.05,0 0.29,0 0.5,-0.13 -0.28,-0.05 -0.48,-0.3 -0.48,-0.54 0,-0.16 0.11,-0.35 0.38,-0.35 0.22,0 0.54,0.18 0.54,0.58 0,0.52 -0.59,0.66 -0.93,0.66 -0.57,0 -0.92,-0.53 -1.04,-0.76 -0.25,0.66 -0.79,0.76 -1.08,0.76 -1.03,0 -1.6,-1.29 -1.6,-1.54 0,-0.1 0.1,-0.1 0.12,-0.1 0.08,0 0.11,0.02 0.13,0.11 0.34,1.06 0.99,1.31 1.33,1.31 0.19,0 0.54,-0.09 0.54,-0.67 0,-0.31 -0.17,-0.98 -0.54,-2.37 -0.16,-0.62 -0.51,-1.04 -0.95,-1.04 -0.05,0 -0.28,0 -0.49,0.13 0.25,0.05 0.46,0.26 0.46,0.54 0,0.27 -0.21,0.35 -0.36,0.35 -0.3,0 -0.55,-0.26 -0.55,-0.58 0,-0.46 0.5,-0.66 0.94,-0.66 0.65,0 1.01,0.7 1.04,0.76 0.12,-0.37 0.48,-0.76 1.08,-0.76 1.02,0 1.59,1.29 1.59,1.54 0,0.1 -0.09,0.1 -0.12,0.1 -0.09,0 -0.11,-0.04 -0.13,-0.11 -0.33,-1.07 -1,-1.31 -1.32,-1.31 -0.39,0 -0.55,0.32 -0.55,0.66 0,0.22 0.06,0.44 0.17,0.88 z"
           id="path4281" /><path
           style="fill:#000000;stroke-width:0"
           inkscape:connector-curvature="0"
           d="m 234.61,709.44 0,0.01 0.01,0 0,0.01 0,0.01 0,0 0,0 0.01,0.01 0,0 0,0.01 0,0 0,0.01 0.01,0 0,0.01 0,0.01 0,0 0.01,0.01 0,0.01 0,0 0,0.01 0,0 0,0.01 0.01,0 0,0.01 0,0 0,0 0,0.01 0,0 0,0 0,0.01 0,0 0,0.01 0,0 0,0.01 0,0 c 0,0.03 0,0.05 -0.05,0.17 l -1.74,4.58 c -0.06,0.17 -0.12,0.23 -0.23,0.23 -0.11,0 -0.2,-0.08 -0.2,-0.19 0,-0.04 0,-0.06 0.05,-0.16 l 1.76,-4.63 -1.76,-4.6 c -0.05,-0.11 -0.05,-0.13 -0.05,-0.18 0,-0.11 0.09,-0.2 0.2,-0.2 0.13,0 0.17,0.1 0.21,0.2 z"
           id="path4283" /></g>      <g
         ns0:preamble="/home/ngarcia/.config/inkscape/preamble.tex"
         ns0:text="$|x\\rangle$"
         word-spacing="normal"
         letter-spacing="normal"
         font-size-adjust="none"
         font-stretch="normal"
         font-weight="normal"
         font-variant="normal"
         font-style="normal"
         stroke-miterlimit="10.433"
         xml:space="preserve"
         transform="matrix(5,0,0,-5,-394.68884,4458.7311)"
         id="g4287"
         style="font-style:normal;font-variant:normal;font-weight:normal;font-stretch:normal;letter-spacing:normal;word-spacing:normal;text-anchor:start;fill:none;fill-opacity:1;fill-rule:evenodd;stroke:#000000;stroke-linecap:butt;stroke-linejoin:miter;stroke-miterlimit:10.43299961;stroke-dasharray:none;stroke-dashoffset:0;stroke-opacity:1"><path
           id="path4289"
           d="m 225.02,714.24 0,0.03 0,0.03 0,0.04 -0.01,0.01 0,0.02 0,0.01 0,0.02 0,0.01 0,0.02 -0.01,0.01 0,0.02 0,0.01 -0.01,0.01 0,0.01 -0.01,0.02 0,0.01 -0.01,0.01 -0.01,0.01 -0.01,0.01 -0.01,0.01 -0.01,0 -0.01,0.01 0,0 -0.01,0.01 -0.01,0 0,0 -0.01,0 -0.01,0.01 0,0 -0.01,0 -0.01,0 -0.01,0 -0.01,0 0,0 -0.01,0 -0.01,0 c -0.2,0 -0.2,-0.18 -0.2,-0.35 l 0,-9.25 c 0,-0.18 0,-0.36 0.2,-0.36 0.2,0 0.2,0.18 0.2,0.36 z"
           inkscape:connector-curvature="0"
           style="fill:#000000;stroke-width:0" /><path
           id="path4291"
           d="m 229.53,710.13 0,0.03 0.01,0.03 0.01,0.03 0.01,0.04 0.01,0.03 0.01,0.05 0.01,0.04 0.02,0.04 0.01,0.05 0.02,0.05 0.02,0.05 0.02,0.05 0.02,0.05 0.03,0.05 0.02,0.05 0.03,0.05 0.03,0.04 0.03,0.05 0.04,0.05 0.03,0.04 0.04,0.05 0.04,0.04 0.04,0.03 0.04,0.04 0.05,0.03 0.05,0.03 0.02,0.01 0.03,0.02 0.03,0.01 0.02,0.01 0.03,0.01 0.03,0 0.03,0.01 0.03,0.01 0.03,0 0.03,0 0.03,0.01 0.03,0 c 0.05,0 0.29,0 0.5,-0.13 -0.28,-0.05 -0.48,-0.3 -0.48,-0.54 0,-0.16 0.11,-0.35 0.38,-0.35 0.22,0 0.54,0.18 0.54,0.58 0,0.52 -0.59,0.66 -0.93,0.66 -0.57,0 -0.92,-0.53 -1.04,-0.76 -0.25,0.66 -0.79,0.76 -1.08,0.76 -1.03,0 -1.6,-1.29 -1.6,-1.54 0,-0.1 0.1,-0.1 0.12,-0.1 0.08,0 0.11,0.02 0.13,0.11 0.34,1.06 0.99,1.31 1.33,1.31 0.19,0 0.54,-0.09 0.54,-0.67 0,-0.31 -0.17,-0.98 -0.54,-2.37 -0.16,-0.62 -0.51,-1.04 -0.95,-1.04 -0.05,0 -0.28,0 -0.49,0.13 0.25,0.05 0.46,0.26 0.46,0.54 0,0.27 -0.21,0.35 -0.36,0.35 -0.3,0 -0.55,-0.26 -0.55,-0.58 0,-0.46 0.5,-0.66 0.94,-0.66 0.65,0 1.01,0.7 1.04,0.76 0.12,-0.37 0.48,-0.76 1.08,-0.76 1.02,0 1.59,1.29 1.59,1.54 0,0.1 -0.09,0.1 -0.12,0.1 -0.09,0 -0.11,-0.04 -0.13,-0.11 -0.33,-1.07 -1,-1.31 -1.32,-1.31 -0.39,0 -0.55,0.32 -0.55,0.66 0,0.22 0.06,0.44 0.17,0.88 z"
           inkscape:connector-curvature="0"
           style="fill:#000000;stroke-width:0" /><path
           id="path4293"
           d="m 234.61,709.44 0,0.01 0.01,0 0,0.01 0,0.01 0,0 0,0 0.01,0.01 0,0 0,0.01 0,0 0,0.01 0.01,0 0,0.01 0,0.01 0,0 0.01,0.01 0,0.01 0,0 0,0.01 0,0 0,0.01 0.01,0 0,0.01 0,0 0,0 0,0.01 0,0 0,0 0,0.01 0,0 0,0.01 0,0 0,0.01 0,0 c 0,0.03 0,0.05 -0.05,0.17 l -1.74,4.58 c -0.06,0.17 -0.12,0.23 -0.23,0.23 -0.11,0 -0.2,-0.08 -0.2,-0.19 0,-0.04 0,-0.06 0.05,-0.16 l 1.76,-4.63 -1.76,-4.6 c -0.05,-0.11 -0.05,-0.13 -0.05,-0.18 0,-0.11 0.09,-0.2 0.2,-0.2 0.13,0 0.17,0.1 0.21,0.2 z"
           inkscape:connector-curvature="0"
           style="fill:#000000;stroke-width:0" /></g>      <g
         id="g5011">
        <path
           style="fill:none;fill-rule:evenodd;stroke:#000000;stroke-width:3;stroke-linecap:butt;stroke-linejoin:miter;stroke-miterlimit:4;stroke-dasharray:12, 12;stroke-dashoffset:0;stroke-opacity:1"
           d="m -64.9286,849.42947 0,327.14283"
           id="path4325"
           inkscape:connector-curvature="0"
           sodipodi:nodetypes="cc" />
        <g
           style="font-style:normal;font-variant:normal;font-weight:normal;font-stretch:normal;letter-spacing:normal;word-spacing:normal;text-anchor:start;fill:none;fill-opacity:1;fill-rule:evenodd;stroke:#000000;stroke-linecap:butt;stroke-linejoin:miter;stroke-miterlimit:10.43299961;stroke-dasharray:none;stroke-dashoffset:0;stroke-opacity:1"
           id="g4333"
           transform="matrix(5,0,0,-5,-1195.4786,4367.4794)"
           xml:space="preserve"
           stroke-miterlimit="10.433"
           font-style="normal"
           font-variant="normal"
           font-weight="normal"
           font-stretch="normal"
           font-size-adjust="none"
           letter-spacing="normal"
           word-spacing="normal"
           ns0:text="$a$"
           ns0:preamble="/home/ngarcia/.config/inkscape/preamble.tex"><path
             style="fill:#000000;stroke-width:0"
             inkscape:connector-curvature="0"
             d="m 227.15,710.89 -0.02,0.03 -0.02,0.04 -0.01,0.03 -0.02,0.03 -0.02,0.03 -0.02,0.03 -0.03,0.03 -0.02,0.03 -0.02,0.03 -0.02,0.03 -0.03,0.03 -0.02,0.02 -0.03,0.03 -0.02,0.02 -0.03,0.02 -0.03,0.03 -0.03,0.02 -0.03,0.02 -0.03,0.01 -0.03,0.02 -0.03,0.02 -0.03,0.01 -0.04,0.02 -0.03,0.01 -0.04,0.01 -0.03,0.01 -0.04,0.01 -0.04,0 -0.04,0.01 -0.04,0 -0.04,0.01 -0.04,0 0.01,-0.22 c 0.65,0 0.79,-0.82 0.79,-0.88 0,-0.06 -0.02,-0.12 -0.03,-0.17 l -0.5,-1.95 c -0.05,-0.18 -0.05,-0.2 -0.2,-0.37 -0.44,-0.55 -0.84,-0.71 -1.12,-0.71 -0.5,0 -0.64,0.55 -0.64,0.94 0,0.5 0.32,1.72 0.55,2.18 0.31,0.59 0.75,0.96 1.15,0.96 l -0.01,0.22 c -1.16,0 -2.4,-1.47 -2.4,-2.92 0,-0.94 0.55,-1.6 1.33,-1.6 0.19,0 0.69,0.04 1.29,0.75 0.08,-0.42 0.43,-0.75 0.91,-0.75 0.35,0 0.58,0.23 0.74,0.55 0.16,0.36 0.29,0.97 0.29,0.99 0,0.1 -0.09,0.1 -0.12,0.1 -0.09,0 -0.11,-0.04 -0.14,-0.18 -0.17,-0.65 -0.34,-1.24 -0.75,-1.24 -0.27,0 -0.3,0.26 -0.3,0.46 0,0.22 0.02,0.3 0.13,0.74 0.11,0.42 0.13,0.52 0.22,0.89 l 0.36,1.4 c 0.07,0.28 0.07,0.3 0.07,0.34 0,0.17 -0.12,0.27 -0.29,0.27 -0.24,0 -0.39,-0.22 -0.42,-0.44 z"
             id="path4335" /></g>      </g>
      <g
         transform="translate(-16.447887,0)"
         id="g5006">
        <path
           inkscape:connector-curvature="0"
           id="path4327"
           d="m 122.97847,849.42947 0,327.14283"
           style="fill:none;fill-rule:evenodd;stroke:#000000;stroke-width:3;stroke-linecap:butt;stroke-linejoin:miter;stroke-miterlimit:4;stroke-dasharray:12, 12;stroke-dashoffset:0;stroke-opacity:1"
           sodipodi:nodetypes="cc" />
        <g
           style="font-style:normal;font-variant:normal;font-weight:normal;font-stretch:normal;letter-spacing:normal;word-spacing:normal;text-anchor:start;fill:none;fill-opacity:1;fill-rule:evenodd;stroke:#000000;stroke-linecap:butt;stroke-linejoin:miter;stroke-miterlimit:10.43299961;stroke-dasharray:none;stroke-dashoffset:0;stroke-opacity:1"
           ns0:preamble="/home/ngarcia/.config/inkscape/preamble.tex"
           ns0:text="$b$"
           word-spacing="normal"
           letter-spacing="normal"
           font-size-adjust="none"
           font-stretch="normal"
           font-weight="normal"
           font-variant="normal"
           font-style="normal"
           stroke-miterlimit="10.433"
           xml:space="preserve"
           transform="matrix(5,0,0,-5,-1005.6965,4367.4794)"
           id="g4337"><path
             id="path4339"
             d="m 225.81,713.93 0,0 0,0 0,0 0,0 0,0 0,0.01 0,0 0,0 0,0.01 0,0 0,0.01 0,0 0,0.01 0,0 -0.01,0.01 0,0 0,0.01 -0.01,0 0,0.01 0,0 -0.01,0 0,0.01 0,0 -0.01,0 0,0 0,0.01 0,0 -0.01,0 0,0 0,0 -0.01,0 0,0.01 -0.01,0 0,0 0,0 -0.01,0 0,0 -0.01,0 0,0 -0.01,0.01 0,0 -0.01,0 0,0 -0.01,0 -0.01,0 c -0.22,0 -0.95,-0.08 -1.21,-0.1 -0.08,-0.01 -0.19,-0.02 -0.19,-0.2 0,-0.12 0.09,-0.12 0.24,-0.12 0.48,0 0.5,-0.07 0.5,-0.17 0,-0.07 -0.09,-0.41 -0.14,-0.62 l -0.82,-3.25 c -0.12,-0.49 -0.16,-0.65 -0.16,-1 0,-0.95 0.53,-1.57 1.27,-1.57 l 0,0.22 c -0.34,0 -0.67,0.27 -0.67,1.01 0,0.19 0,0.38 0.16,1 l 0.22,0.92 c 0.06,0.22 0.06,0.24 0.15,0.35 0.48,0.65 0.93,0.8 1.19,0.8 0.36,0 0.63,-0.3 0.63,-0.94 0,-0.59 -0.33,-1.73 -0.51,-2.11 -0.33,-0.67 -0.79,-1.03 -1.17,-1.03 l 0,-0.22 c 1.17,0 2.4,1.49 2.4,2.92 0,0.91 -0.53,1.6 -1.33,1.6 -0.46,0 -0.86,-0.29 -1.16,-0.6 z"
             inkscape:connector-curvature="0"
             style="fill:#000000;stroke-width:0" /></g>      </g>
      <path
         style="fill:none;fill-rule:evenodd;stroke:#000000;stroke-width:4;stroke-linecap:butt;stroke-linejoin:miter;stroke-miterlimit:4;stroke-dasharray:none;stroke-opacity:1"
         d="m -89.1671,910.9311 807.57826,0"
         id="path4519"
         inkscape:connector-curvature="0" />
      <path
         inkscape:connector-curvature="0"
         id="path4521"
         d="m -89.1671,1115.0707 807.57826,0"
         style="fill:none;fill-rule:evenodd;stroke:#000000;stroke-width:4;stroke-linecap:butt;stroke-linejoin:miter;stroke-miterlimit:4;stroke-dasharray:none;stroke-opacity:1" />
      <g
         transform="translate(-239.45564,-250.51161)"
         id="g4608">
        <rect
           style="opacity:1;fill:#ffffff;fill-opacity:1;stroke:#000000;stroke-width:4;stroke-linecap:round;stroke-miterlimit:4;stroke-dasharray:none;stroke-dashoffset:0;stroke-opacity:1"
           id="rect4610"
           width="67.712082"
           height="67.712082"
           x="208.0845"
           y="1127.3367" />
        <g
           ns0:preamble="/home/ngarcia/.config/inkscape/preamble.tex"
           ns0:text="H"
           word-spacing="normal"
           letter-spacing="normal"
           font-size-adjust="none"
           font-stretch="normal"
           font-weight="normal"
           font-variant="normal"
           font-style="normal"
           stroke-miterlimit="10.433"
           xml:space="preserve"
           transform="matrix(5,0,0,-5,-893.88445,4713.8177)"
           id="g4612"
           style="font-style:normal;font-variant:normal;font-weight:normal;font-stretch:normal;letter-spacing:normal;word-spacing:normal;text-anchor:start;fill:none;fill-opacity:1;fill-rule:evenodd;stroke:#000000;stroke-linecap:butt;stroke-linejoin:miter;stroke-miterlimit:10.43299961;stroke-dasharray:none;stroke-dashoffset:0;stroke-opacity:1"><path
             id="path4614"
             d="m 229.54,713.15 0,0.03 0,0.03 0,0.03 0,0.03 0,0.03 0.01,0.03 0,0.02 0.01,0.02 0,0.03 0.01,0.02 0.01,0.02 0.01,0.02 0.01,0.01 0.01,0.02 0.02,0.01 0.02,0.02 0.02,0.01 0.02,0.01 0.01,0.01 0.01,0 0.02,0.01 0.01,0 0.02,0.01 0.01,0 0.02,0.01 0.01,0 0.02,0.01 0.02,0 0.02,0 0.02,0.01 0.02,0 0.02,0 0.03,0 0.02,0.01 0.02,0 0.03,0 0.03,0 0.02,0 0.03,0 0.03,0 0.03,0.01 0.03,0 0.03,0 0.04,0 0.03,0 0.04,0 0.24,0 0,0.31 c -0.35,-0.03 -1.09,-0.03 -1.47,-0.03 -0.38,0 -1.12,0 -1.47,0.03 l 0,-0.31 0.24,0 c 0.76,0 0.78,-0.11 0.78,-0.47 l 0,-2.33 -2.98,0 0,2.33 c 0,0.36 0.02,0.47 0.79,0.47 l 0.24,0 0,0.31 c -0.35,-0.03 -1.09,-0.03 -1.46,-0.03 -0.38,0 -1.13,0 -1.48,0.03 l 0,-0.31 0.24,0 c 0.77,0 0.79,-0.11 0.79,-0.47 l 0,-5.25 c 0,-0.36 -0.02,-0.47 -0.79,-0.47 l -0.24,0 0,-0.31 c 0.35,0.03 1.09,0.03 1.47,0.03 0.37,0 1.12,0 1.47,-0.03 l 0,0.31 -0.24,0 c -0.77,0 -0.79,0.11 -0.79,0.47 l 0,2.61 2.98,0 0,-2.61 c 0,-0.36 -0.02,-0.47 -0.78,-0.47 l -0.24,0 0,-0.31 c 0.35,0.03 1.08,0.03 1.46,0.03 0.38,0 1.13,0 1.48,-0.03 l 0,0.31 -0.24,0 c -0.77,0 -0.79,0.11 -0.79,0.47 z"
             inkscape:connector-curvature="0"
             style="fill:#000000;stroke-width:0" /></g>      </g>
      <g
         id="g4600"
         transform="translate(-239.45564,-45.871911)">
        <rect
           style="opacity:1;fill:#ffffff;fill-opacity:1;stroke:#000000;stroke-width:4;stroke-linecap:round;stroke-miterlimit:4;stroke-dasharray:none;stroke-dashoffset:0;stroke-opacity:1"
           id="rect4602"
           width="67.712082"
           height="67.712082"
           x="208.0845"
           y="1127.3367" />
        <g
           ns0:preamble="/home/ngarcia/.config/inkscape/preamble.tex"
           ns0:text="H"
           word-spacing="normal"
           letter-spacing="normal"
           font-size-adjust="none"
           font-stretch="normal"
           font-weight="normal"
           font-variant="normal"
           font-style="normal"
           stroke-miterlimit="10.433"
           xml:space="preserve"
           transform="matrix(5,0,0,-5,-893.88445,4713.8177)"
           id="g4604"
           style="font-style:normal;font-variant:normal;font-weight:normal;font-stretch:normal;letter-spacing:normal;word-spacing:normal;text-anchor:start;fill:none;fill-opacity:1;fill-rule:evenodd;stroke:#000000;stroke-linecap:butt;stroke-linejoin:miter;stroke-miterlimit:10.43299961;stroke-dasharray:none;stroke-dashoffset:0;stroke-opacity:1"><path
             id="path4606"
             d="m 229.54,713.15 0,0.03 0,0.03 0,0.03 0,0.03 0,0.03 0.01,0.03 0,0.02 0.01,0.02 0,0.03 0.01,0.02 0.01,0.02 0.01,0.02 0.01,0.01 0.01,0.02 0.02,0.01 0.02,0.02 0.02,0.01 0.02,0.01 0.01,0.01 0.01,0 0.02,0.01 0.01,0 0.02,0.01 0.01,0 0.02,0.01 0.01,0 0.02,0.01 0.02,0 0.02,0 0.02,0.01 0.02,0 0.02,0 0.03,0 0.02,0.01 0.02,0 0.03,0 0.03,0 0.02,0 0.03,0 0.03,0 0.03,0.01 0.03,0 0.03,0 0.04,0 0.03,0 0.04,0 0.24,0 0,0.31 c -0.35,-0.03 -1.09,-0.03 -1.47,-0.03 -0.38,0 -1.12,0 -1.47,0.03 l 0,-0.31 0.24,0 c 0.76,0 0.78,-0.11 0.78,-0.47 l 0,-2.33 -2.98,0 0,2.33 c 0,0.36 0.02,0.47 0.79,0.47 l 0.24,0 0,0.31 c -0.35,-0.03 -1.09,-0.03 -1.46,-0.03 -0.38,0 -1.13,0 -1.48,0.03 l 0,-0.31 0.24,0 c 0.77,0 0.79,-0.11 0.79,-0.47 l 0,-5.25 c 0,-0.36 -0.02,-0.47 -0.79,-0.47 l -0.24,0 0,-0.31 c 0.35,0.03 1.09,0.03 1.47,0.03 0.37,0 1.12,0 1.47,-0.03 l 0,0.31 -0.24,0 c -0.77,0 -0.79,0.11 -0.79,0.47 l 0,2.61 2.98,0 0,-2.61 c 0,-0.36 -0.02,-0.47 -0.78,-0.47 l -0.24,0 0,-0.31 c 0.35,0.03 1.08,0.03 1.46,0.03 0.38,0 1.13,0 1.48,-0.03 l 0,0.31 -0.24,0 c -0.77,0 -0.79,0.11 -0.79,0.47 z"
             inkscape:connector-curvature="0"
             style="fill:#000000;stroke-width:0" /></g>      </g>
      <g
         transform="translate(-22.919687,-126.47201)"
         id="g4966">
        <rect
           style="opacity:1;fill:#ffffff;fill-opacity:1;stroke:#000000;stroke-width:4;stroke-linecap:round;stroke-miterlimit:4;stroke-dasharray:none;stroke-dashoffset:0;stroke-opacity:1"
           id="rect4618"
           width="67.712082"
           height="67.712082"
           x="199.63997"
           y="1207.9368" />
        <path
           style="font-style:normal;font-variant:normal;font-weight:normal;font-stretch:normal;letter-spacing:normal;word-spacing:normal;text-anchor:start;fill:#000000;fill-opacity:1;fill-rule:evenodd;stroke:#000000;stroke-width:0;stroke-linecap:butt;stroke-linejoin:miter;stroke-miterlimit:10.43299961;stroke-dasharray:none;stroke-dashoffset:0;stroke-opacity:1"
           inkscape:connector-curvature="0"
           d="m 232.52101,1237.8678 0,-5.75 c 0,-4.4 2.35,-6.8 4.55,-6.8 0.15,0 0.9,0 1.65,0.35 -0.6,0.2 -1.5,0.85 -1.5,2.1 0,1.15 0.8,2.15 2.15,2.15 1.45,0 2.2,-1 2.2,-2.2 0,-1.85 -1.85,-3.5 -4.5,-3.5 -3.45,0 -7.7,2.65 -7.7,7.95 l 0,5.7 -3.95,0 0,1.55 3.95,0 0,16.15 c 0,2.25 -0.55,2.25 -3.9,2.25 l 0,1.55 c 1.95,-0.05 4.3,-0.15 5.7,-0.15 1.95,0 4.3,0 6.3,0.15 l 0,-1.55 -1.05,0 c -3.65,0 -3.75,-0.55 -3.75,-2.35 l 0,-16.05 5.65,0 0,-1.55 z"
           id="path4796" />
      </g>
      <g
         transform="translate(384.81864,-250.51161)"
         id="g4970">
        <rect
           style="opacity:1;fill:#ffffff;fill-opacity:1;stroke:#000000;stroke-width:4;stroke-linecap:round;stroke-miterlimit:4;stroke-dasharray:none;stroke-dashoffset:0;stroke-opacity:1"
           id="rect4972"
           width="67.712082"
           height="67.712082"
           x="208.0845"
           y="1127.3367" />
        <g
           ns0:preamble="/home/ngarcia/.config/inkscape/preamble.tex"
           ns0:text="H"
           word-spacing="normal"
           letter-spacing="normal"
           font-size-adjust="none"
           font-stretch="normal"
           font-weight="normal"
           font-variant="normal"
           font-style="normal"
           stroke-miterlimit="10.433"
           xml:space="preserve"
           transform="matrix(5,0,0,-5,-893.88445,4713.8177)"
           id="g4974"
           style="font-style:normal;font-variant:normal;font-weight:normal;font-stretch:normal;letter-spacing:normal;word-spacing:normal;text-anchor:start;fill:none;fill-opacity:1;fill-rule:evenodd;stroke:#000000;stroke-linecap:butt;stroke-linejoin:miter;stroke-miterlimit:10.43299961;stroke-dasharray:none;stroke-dashoffset:0;stroke-opacity:1"><path
             id="path4976"
             d="m 229.54,713.15 0,0.03 0,0.03 0,0.03 0,0.03 0,0.03 0.01,0.03 0,0.02 0.01,0.02 0,0.03 0.01,0.02 0.01,0.02 0.01,0.02 0.01,0.01 0.01,0.02 0.02,0.01 0.02,0.02 0.02,0.01 0.02,0.01 0.01,0.01 0.01,0 0.02,0.01 0.01,0 0.02,0.01 0.01,0 0.02,0.01 0.01,0 0.02,0.01 0.02,0 0.02,0 0.02,0.01 0.02,0 0.02,0 0.03,0 0.02,0.01 0.02,0 0.03,0 0.03,0 0.02,0 0.03,0 0.03,0 0.03,0.01 0.03,0 0.03,0 0.04,0 0.03,0 0.04,0 0.24,0 0,0.31 c -0.35,-0.03 -1.09,-0.03 -1.47,-0.03 -0.38,0 -1.12,0 -1.47,0.03 l 0,-0.31 0.24,0 c 0.76,0 0.78,-0.11 0.78,-0.47 l 0,-2.33 -2.98,0 0,2.33 c 0,0.36 0.02,0.47 0.79,0.47 l 0.24,0 0,0.31 c -0.35,-0.03 -1.09,-0.03 -1.46,-0.03 -0.38,0 -1.13,0 -1.48,0.03 l 0,-0.31 0.24,0 c 0.77,0 0.79,-0.11 0.79,-0.47 l 0,-5.25 c 0,-0.36 -0.02,-0.47 -0.79,-0.47 l -0.24,0 0,-0.31 c 0.35,0.03 1.09,0.03 1.47,0.03 0.37,0 1.12,0 1.47,-0.03 l 0,0.31 -0.24,0 c -0.77,0 -0.79,0.11 -0.79,0.47 l 0,2.61 2.98,0 0,-2.61 c 0,-0.36 -0.02,-0.47 -0.78,-0.47 l -0.24,0 0,-0.31 c 0.35,0.03 1.08,0.03 1.46,0.03 0.38,0 1.13,0 1.48,-0.03 l 0,0.31 -0.24,0 c -0.77,0 -0.79,0.11 -0.79,0.47 z"
             inkscape:connector-curvature="0"
             style="fill:#000000;stroke-width:0" /></g>      </g>
      <g
         transform="translate(45.667388,0)"
         id="g4988">
        <path
           style="fill:none;fill-rule:evenodd;stroke:#000000;stroke-width:4;stroke-linecap:butt;stroke-linejoin:miter;stroke-miterlimit:4;stroke-dasharray:none;stroke-opacity:1"
           d="m 373.00037,1115.3209 0,-204.3898"
           id="path4984"
           inkscape:connector-curvature="0" />
        <circle
           style="opacity:1;fill:#ffffff;fill-opacity:1;stroke:#000000;stroke-width:4;stroke-linecap:round;stroke-miterlimit:4;stroke-dasharray:none;stroke-dashoffset:0;stroke-opacity:1"
           id="path4978"
           cx="373.00037"
           cy="1115.3208"
           r="33.856041" />
        <path
           style="fill:none;fill-rule:evenodd;stroke:#000000;stroke-width:4;stroke-linecap:round;stroke-linejoin:miter;stroke-miterlimit:4;stroke-dasharray:none;stroke-opacity:1"
           d="m 373.00037,1088.236 0,54.1697"
           id="path4980"
           inkscape:connector-curvature="0" />
        <path
           inkscape:connector-curvature="0"
           id="path4982"
           d="m 400.08521,1115.3209 -54.16968,0"
           style="fill:none;fill-rule:evenodd;stroke:#000000;stroke-width:4;stroke-linecap:round;stroke-linejoin:miter;stroke-miterlimit:4;stroke-dasharray:none;stroke-opacity:1" />
        <circle
           style="opacity:1;fill:#000000;fill-opacity:1;stroke:#000000;stroke-width:4;stroke-linecap:round;stroke-miterlimit:4;stroke-dasharray:none;stroke-dashoffset:0;stroke-opacity:1"
           id="path4986"
           cx="373.00037"
           cy="910.93109"
           r="5.7142859" />
      </g>
      <g
         transform="translate(-191.64353,0)"
         id="g5021">
        <path
           sodipodi:nodetypes="cc"
           style="fill:none;fill-rule:evenodd;stroke:#000000;stroke-width:3;stroke-linecap:butt;stroke-linejoin:miter;stroke-miterlimit:4;stroke-dasharray:12, 12;stroke-dashoffset:0;stroke-opacity:1"
           d="m 506.26559,849.42947 0,327.14283"
           id="path5023"
           inkscape:connector-curvature="0" />
        <g
           style="font-style:normal;font-variant:normal;font-weight:normal;font-stretch:normal;letter-spacing:normal;word-spacing:normal;text-anchor:start;fill:none;fill-opacity:1;fill-rule:evenodd;stroke:#000000;stroke-linecap:butt;stroke-linejoin:miter;stroke-miterlimit:10.43299961;stroke-dasharray:none;stroke-dashoffset:0;stroke-opacity:1"
           ns0:preamble="/home/ngarcia/.config/inkscape/preamble.tex"
           ns0:text="$c$"
           word-spacing="normal"
           letter-spacing="normal"
           font-size-adjust="none"
           font-stretch="normal"
           font-weight="normal"
           font-variant="normal"
           font-style="normal"
           stroke-miterlimit="10.433"
           xml:space="preserve"
           transform="matrix(5,0,0,-5,-622.63441,4367.4794)"
           id="g5025"><path
             style="fill:#000000;stroke-width:0"
             inkscape:connector-curvature="0"
             id="path5027"
             d="m 227.38,710.91 -0.03,0 -0.03,0 -0.03,0 -0.03,0 -0.03,-0.01 -0.02,0 -0.02,0 -0.01,0 -0.02,-0.01 -0.01,0 -0.01,0 -0.02,-0.01 -0.01,0 -0.01,-0.01 -0.02,0 -0.01,-0.01 -0.01,0 -0.02,-0.01 -0.01,-0.01 -0.01,-0.01 -0.02,-0.01 -0.01,-0.01 -0.01,-0.01 -0.01,-0.01 -0.02,-0.01 -0.01,-0.01 c -0.16,-0.15 -0.18,-0.32 -0.18,-0.39 0,-0.24 0.18,-0.35 0.37,-0.35 0.29,0 0.56,0.24 0.56,0.64 0,0.49 -0.47,0.86 -1.18,0.86 -1.34,0 -2.67,-1.43 -2.67,-2.83 0,-0.9 0.58,-1.69 1.62,-1.69 1.42,0 2.26,1.06 2.26,1.18 0,0.06 -0.06,0.13 -0.12,0.13 -0.05,0 -0.07,-0.02 -0.13,-0.1 -0.79,-0.99 -1.88,-0.99 -1.99,-0.99 -0.63,0 -0.9,0.49 -0.9,1.09 0,0.41 0.2,1.37 0.54,1.99 0.31,0.57 0.85,1 1.4,1 0.34,0 0.72,-0.13 0.86,-0.4 z" /></g>      </g>
      <g
         transform="translate(14.347876,0)"
         id="g5378">
        <path
           inkscape:connector-curvature="0"
           id="path4331"
           d="m 506.26559,849.42947 0,327.14283"
           style="fill:none;fill-rule:evenodd;stroke:#000000;stroke-width:3;stroke-linecap:butt;stroke-linejoin:miter;stroke-miterlimit:4;stroke-dasharray:12, 12;stroke-dashoffset:0;stroke-opacity:1"
           sodipodi:nodetypes="cc" />
        <g
           id="g5221"
           transform="matrix(5,0,0,-5,-622.63441,4367.4794)"
           xml:space="preserve"
           stroke-miterlimit="10.433"
           font-style="normal"
           font-variant="normal"
           font-weight="normal"
           font-stretch="normal"
           font-size-adjust="none"
           letter-spacing="normal"
           word-spacing="normal"
           ns0:text="$d$"
           ns0:preamble="/home/ngarcia/.config/inkscape/preamble.tex"
           style="font-style:normal;font-variant:normal;font-weight:normal;font-stretch:normal;letter-spacing:normal;word-spacing:normal;text-anchor:start;fill:none;fill-opacity:1;fill-rule:evenodd;stroke:#000000;stroke-linecap:butt;stroke-linejoin:miter;stroke-miterlimit:10.43299961;stroke-dasharray:none;stroke-dashoffset:0;stroke-opacity:1"><path
             style="fill:#000000;stroke-width:0"
             inkscape:connector-curvature="0"
             d="m 228.57,713.93 0,0 0,0 0,0 0,0 0,0 0,0.01 0,0 0,0 0,0.01 0,0 0,0.01 0,0 0,0.01 -0.01,0 0,0.01 0,0 0,0.01 -0.01,0 0,0.01 0,0 -0.01,0 0,0.01 0,0 -0.01,0 0,0 0,0.01 0,0 -0.01,0 0,0 0,0 -0.01,0 0,0.01 -0.01,0 0,0 0,0 -0.01,0 0,0 -0.01,0 0,0 -0.01,0.01 0,0 -0.01,0 0,0 -0.01,0 -0.01,0 c -0.15,0 -1.09,-0.09 -1.26,-0.11 -0.08,-0.01 -0.14,-0.06 -0.14,-0.19 0,-0.12 0.09,-0.12 0.24,-0.12 0.48,0 0.5,-0.07 0.5,-0.17 l -0.03,-0.2 -0.6,-2.36 c -0.18,0.37 -0.47,0.64 -0.92,0.64 l 0.01,-0.22 c 0.65,0 0.79,-0.82 0.79,-0.88 0,-0.06 -0.02,-0.12 -0.03,-0.17 l -0.5,-1.95 c -0.05,-0.18 -0.05,-0.2 -0.2,-0.37 -0.44,-0.55 -0.84,-0.71 -1.12,-0.71 -0.5,0 -0.64,0.55 -0.64,0.94 0,0.5 0.32,1.72 0.55,2.18 0.31,0.59 0.75,0.96 1.15,0.96 l -0.01,0.22 c -1.16,0 -2.4,-1.47 -2.4,-2.92 0,-0.94 0.55,-1.6 1.33,-1.6 0.19,0 0.69,0.04 1.29,0.75 0.08,-0.42 0.43,-0.75 0.91,-0.75 0.35,0 0.58,0.23 0.74,0.55 0.16,0.36 0.29,0.97 0.29,0.99 0,0.1 -0.09,0.1 -0.12,0.1 -0.09,0 -0.11,-0.04 -0.14,-0.18 -0.17,-0.65 -0.34,-1.24 -0.75,-1.24 -0.27,0 -0.3,0.26 -0.3,0.46 0,0.24 0.02,0.31 0.06,0.48 z"
             id="path5223" /></g>      </g>
      <g
         transform="translate(3.3155329,0)"
         id="g5717">
        <path
           style="fill:none;fill-rule:evenodd;stroke:#000000;stroke-width:3;stroke-linecap:butt;stroke-linejoin:miter;stroke-miterlimit:4;stroke-dasharray:12, 12;stroke-dashoffset:0;stroke-opacity:1"
           d="m 694.17267,849.42947 0,327.14283"
           id="path4329"
           inkscape:connector-curvature="0"
           sodipodi:nodetypes="cc" />
        <g
           style="font-style:normal;font-variant:normal;font-weight:normal;font-stretch:normal;letter-spacing:normal;word-spacing:normal;text-anchor:start;fill:none;fill-opacity:1;fill-rule:evenodd;stroke:#000000;stroke-linecap:butt;stroke-linejoin:miter;stroke-miterlimit:10.43299961;stroke-dasharray:none;stroke-dashoffset:0;stroke-opacity:1"
           ns0:preamble="/home/ngarcia/.config/inkscape/preamble.tex"
           ns0:text="$e$"
           word-spacing="normal"
           letter-spacing="normal"
           font-size-adjust="none"
           font-stretch="normal"
           font-weight="normal"
           font-variant="normal"
           font-style="normal"
           stroke-miterlimit="10.433"
           xml:space="preserve"
           transform="matrix(5,0,0,-5,-436.82733,4367.4794)"
           id="g5537"><path
             style="fill:#000000;stroke-width:0"
             inkscape:connector-curvature="0"
             id="path5539"
             d="m 225.3,709.42 0.02,0 0.04,0 0.03,0 0.03,0.01 0.04,0 0.04,0 0.04,0 0.05,0 0.04,0 0.05,0.01 0.04,0 0.05,0 0.05,0.01 0.05,0 0.11,0.01 0.11,0.01 0.1,0.02 0.11,0.02 0.11,0.02 0.11,0.02 0.05,0.02 0.05,0.01 0.05,0.02 0.05,0.02 0.05,0.01 0.05,0.02 c 0.7,0.3 0.75,0.89 0.75,1.03 0,0.44 -0.38,0.85 -1.07,0.85 l 0,-0.22 c 0.47,0 0.74,-0.29 0.74,-0.63 0,-1.04 -1.6,-1.04 -2,-1.04 l -0.41,0 c 0.39,1.52 1.41,1.67 1.67,1.67 l 0,0.22 c -1.1,0 -2.61,-0.97 -2.61,-2.71 0,-1.02 0.59,-1.81 1.57,-1.81 1.42,0 2.26,1.06 2.26,1.18 0,0.06 -0.06,0.13 -0.12,0.13 -0.05,0 -0.07,-0.02 -0.13,-0.1 -0.79,-0.99 -1.88,-0.99 -1.99,-0.99 -0.78,0 -0.87,0.84 -0.87,1.16 0,0.12 0.01,0.43 0.16,1.03 z" /></g>      </g>
    </g>
  </g>
</svg>
