<?xml version="1.0" standalone="no"?>
<!DOCTYPE svg PUBLIC "-//W3C//DTD SVG 1.1//EN"
  "http://www.w3.org/Graphics/SVG/1.1/DTD/svg11.dtd">
<svg width="566.92px" height="566.92px" version="1.1"
    xmlns="http://www.w3.org/2000/svg"
    xmlns:xlink="http://www.w3.org/1999/xlink">
<desc>Veusz output document</desc>
<defs>
<clipPath id="c0">
<path d="m0,0l566.92,0l0,566.92l-566.92,0l0,-566.92"/>
</clipPath>
<clipPath id="c1">
<path d="m66.14,7.55l493.22,0l0,495.11l-493.22,0l0,-495.11"/>
</clipPath>
</defs>
<g stroke-linejoin="bevel" stroke-linecap="square" stroke="#000000" fill-rule="evenodd">
<g clip-path="url(#c0)">
<g fill="#ffffff" stroke-width="0.66">
<path d="m66.14,7.55l493.22,0l0,495.11l-493.22,0l0,-495.11"/>
</g>
</g>
<g clip-path="url(#c1)">
<g fill="none" stroke="#ff7f00" stroke-dasharray="13.33,13.33" stroke-width="3.33">
<polyline fill="none" points="71.56,4.22 76.2,8.82 86.27,18.81 96.33,28.79 106.4,38.77 116.47,48.75 126.53,58.74 136.6,68.72 146.66,78.7 156.73,88.68 166.8,98.67 176.86,108.65 186.93,118.63 196.99,128.61 207.06,138.6 217.13,148.58 227.19,158.56 237.26,168.54 247.32,178.53 257.39,188.51 267.45,198.49 277.52,208.47 287.59,218.46 297.65,228.44 307.72,238.42 317.78,248.4 327.85,258.39 337.92,268.37 347.98,278.35 358.05,288.33 368.11,298.32 378.18,308.3 388.25,318.28 398.31,328.26 408.38,338.25 418.44,348.23 428.51,358.21 438.57,368.19 448.64,378.18 458.71,388.16 468.77,398.14 478.84,408.12 488.9,418.11 498.97,428.09 509.04,438.07 519.1,448.05 529.17,458.04 539.23,468.02 549.3,478 559.37,487.98"/>
</g>
<g fill="none" stroke="#377eb8" stroke-width="3.33">
<polyline fill="none" points="79.78,54.54 177.41,111.23 228.94,148.15 263.48,175.12 289.43,196.75 310.2,215.07 327.52,231.08 342.37,245.38 355.36,258.34 366.91,270.22 377.3,281.2 386.76,291.4 395.42,300.94 403.42,309.9 410.84,318.34 417.78,326.32 424.27,333.89 430.39,341.08 436.17,347.94 441.64,354.48 446.84,360.74 451.79,366.74 456.52,372.5 461.04,378.03 465.37,383.36 469.53,388.5 473.53,393.45 477.38,398.24 481.09,402.87 484.68,407.36 488.15,411.7 491.5,415.92 494.75,420.01 497.9,423.99 500.96,427.86 503.93,431.62 506.82,435.28 509.63,438.85 512.37,442.33 515.03,445.73 517.63,449.04 520.17,452.28 522.64,455.45 525.06,458.54 527.43,461.56 529.74,464.52 532,467.42 534.21,470.26 536.38,473.05 538.5,475.77 540.58,478.45 542.62,481.07 544.62,483.64 546.58,486.17 548.5,488.65 550.4,491.09 552.25,493.49 554.08,495.84 555.87,498.16 557.63,500.43 559.37,502.67"/>
</g>
</g>
<g clip-path="url(#c0)">
<g fill="none" stroke-linecap="butt" stroke-width="0.66">
<path d="M66.14,502.67l0,-495.11"/>
<path d="M66.14,502.14l4,0M66.14,493.05l4,0M66.14,485.03l4,0M66.14,430.66l4,0M66.14,403.06l4,0M66.14,383.47l4,0M66.14,368.28l4,0M66.14,355.87l4,0M66.14,345.37l4,0M66.14,336.28l4,0M66.14,328.26l4,0M66.14,273.9l4,0M66.14,246.29l4,0M66.14,226.71l4,0M66.14,211.51l4,0M66.14,199.1l4,0M66.14,188.6l4,0M66.14,179.51l4,0M66.14,171.49l4,0M66.14,117.13l4,0M66.14,89.52l4,0M66.14,69.94l4,0M66.14,54.75l4,0M66.14,42.33l4,0M66.14,31.84l4,0M66.14,22.75l4,0M66.14,14.73l4,0"/>
<path d="M66.14,477.86l8,0M66.14,321.09l8,0M66.14,164.32l8,0M66.14,7.55l8,0"/>
</g>
<g fill="none" stroke-width="0.1">
<path d="m8.88,487.09c1.32,0,2.32,-0.73,2.98,-2.19c0.66,-1.46,0.99,-3.66,0.99,-6.6c0,-2.95,-0.33,-5.16,-0.99,-6.62c-0.66,-1.45,-1.65,-2.18,-2.98,-2.18c-1.33,0,-2.32,0.72,-2.98,2.18c-0.66,1.45,-0.99,3.66,-0.99,6.62c0,2.94,0.33,5.14,0.99,6.6c0.66,1.46,1.65,2.19,2.98,2.19m0,1.29c-2.11,0,-3.76,-0.88,-4.94,-2.65c-1.18,-1.77,-1.77,-4.25,-1.77,-7.43c0,-3.18,0.59,-5.67,1.77,-7.44c1.18,-1.77,2.83,-2.66,4.94,-2.66c2.12,0,3.77,0.88,4.95,2.66c1.18,1.77,1.77,4.25,1.77,7.44c0,3.18,-0.59,5.65,-1.77,7.43c-1.18,1.77,-2.83,2.65,-4.95,2.65m9.46,2.21c0.81,-0.59,1.41,-1.3,1.8,-2.11c0.38,-0.81,0.57,-1.79,0.57,-2.95l0,-0.48l2.56,0c-0.06,1.48,-0.41,2.76,-1.05,3.82c-0.63,1.06,-1.57,1.98,-2.84,2.77l-1.04,-1.04m16,-3.5c1.32,0,2.32,-0.73,2.98,-2.19c0.66,-1.46,0.99,-3.66,0.99,-6.6c0,-2.95,-0.33,-5.16,-0.99,-6.62c-0.66,-1.45,-1.65,-2.18,-2.98,-2.18c-1.33,0,-2.32,0.72,-2.98,2.18c-0.66,1.45,-0.99,3.66,-0.99,6.62c0,2.94,0.33,5.14,0.99,6.6c0.66,1.46,1.65,2.19,2.98,2.19m0,1.29c-2.11,0,-3.76,-0.88,-4.94,-2.65c-1.18,-1.77,-1.77,-4.25,-1.77,-7.43c0,-3.18,0.59,-5.67,1.77,-7.44c1.18,-1.77,2.83,-2.66,4.94,-2.66c2.12,0,3.77,0.88,4.95,2.66c1.18,1.77,1.77,4.25,1.77,7.44c0,3.18,-0.59,5.65,-1.77,7.43c-1.18,1.77,-2.83,2.65,-4.95,2.65m12.29,-0.37l0,-1.38l3.38,0l0,-16.19l-3.92,2.54l0,-1.7l4.74,-3.07l1.8,0l0,18.43l3.38,0l0,1.38l-9.4,0" fill="#000000" stroke="none" fill-opacity="1"/>
<path d="m25.87,330.32c1.32,0,2.32,-0.73,2.98,-2.19c0.66,-1.46,0.99,-3.66,0.99,-6.6c0,-2.95,-0.33,-5.16,-0.99,-6.62c-0.66,-1.45,-1.65,-2.18,-2.98,-2.18c-1.33,0,-2.32,0.72,-2.98,2.18c-0.66,1.45,-0.99,3.66,-0.99,6.62c0,2.94,0.33,5.14,0.99,6.6c0.66,1.46,1.65,2.19,2.98,2.19m0,1.29c-2.11,0,-3.76,-0.88,-4.94,-2.65c-1.18,-1.77,-1.77,-4.25,-1.77,-7.43c0,-3.18,0.59,-5.67,1.77,-7.44c1.18,-1.77,2.83,-2.66,4.94,-2.66c2.12,0,3.77,0.88,4.95,2.66c1.18,1.77,1.77,4.25,1.77,7.44c0,3.18,-0.59,5.65,-1.77,7.43c-1.18,1.77,-2.83,2.65,-4.95,2.65m9.46,2.21c0.81,-0.59,1.41,-1.3,1.8,-2.11c0.38,-0.81,0.57,-1.79,0.57,-2.95l0,-0.48l2.56,0c-0.06,1.48,-0.41,2.76,-1.05,3.82c-0.63,1.06,-1.57,1.98,-2.84,2.77l-1.04,-1.04m11.31,-2.59l0,-1.38l3.38,0l0,-16.19l-3.92,2.54l0,-1.7l4.74,-3.07l1.8,0l0,18.43l3.38,0l0,1.38l-9.4,0" fill="#000000" stroke="none" fill-opacity="1"/>
<path d="m46.64,174.47l0,-1.38l3.38,0l0,-16.19l-3.92,2.54l0,-1.7l4.74,-3.07l1.8,0l0,18.43l3.38,0l0,1.38l-9.4,0" fill="#000000" stroke="none" fill-opacity="1"/>
<path d="m29.66,26.51l0,-1.38l3.38,0l0,-16.19l-3.92,2.54l0,-1.7l4.74,-3.07l1.8,0l0,18.43l3.38,0l0,1.38l-9.4,0m21.67,-0.91c1.32,0,2.32,-0.73,2.98,-2.19c0.66,-1.46,0.99,-3.66,0.99,-6.6c0,-2.95,-0.33,-5.16,-0.99,-6.62c-0.66,-1.45,-1.65,-2.18,-2.98,-2.18c-1.33,0,-2.32,0.72,-2.98,2.18c-0.66,1.45,-0.99,3.66,-0.99,6.62c0,2.94,0.33,5.14,0.99,6.6c0.66,1.46,1.65,2.19,2.98,2.19m0,1.29c-2.11,0,-3.76,-0.88,-4.94,-2.65c-1.18,-1.77,-1.77,-4.25,-1.77,-7.43c0,-3.18,0.59,-5.67,1.77,-7.44c1.18,-1.77,2.83,-2.66,4.94,-2.66c2.12,0,3.77,0.88,4.95,2.66c1.18,1.77,1.77,4.25,1.77,7.44c0,3.18,-0.59,5.65,-1.77,7.43c-1.18,1.77,-2.83,2.65,-4.95,2.65" fill="#000000" stroke="none" fill-opacity="1"/>
</g>
<g fill="none" stroke-linecap="butt" stroke-width="0.66">
<path d="M66.14,502.67l493.22,0"/>
<path d="M102.18,502.67l0,-4M123.26,502.67l0,-4M138.22,502.67l0,-4M149.82,502.67l0,-4M159.3,502.67l0,-4M167.31,502.67l0,-4M174.26,502.67l0,-4M180.38,502.67l0,-4M221.9,502.67l0,-4M242.98,502.67l0,-4M257.94,502.67l0,-4M269.54,502.67l0,-4M279.02,502.67l0,-4M287.03,502.67l0,-4M293.98,502.67l0,-4M300.1,502.67l0,-4M341.62,502.67l0,-4M362.7,502.67l0,-4M377.66,502.67l0,-4M389.26,502.67l0,-4M398.74,502.67l0,-4M406.75,502.67l0,-4M413.7,502.67l0,-4M419.82,502.67l0,-4M461.34,502.67l0,-4M482.42,502.67l0,-4M497.38,502.67l0,-4M508.98,502.67l0,-4M518.46,502.67l0,-4M526.47,502.67l0,-4M533.42,502.67l0,-4M539.54,502.67l0,-4"/>
<path d="M66.14,502.67l0,-8M185.86,502.67l0,-8M305.58,502.67l0,-8M425.3,502.67l0,-8M545.02,502.67l0,-8"/>
</g>
<g fill="none" stroke-width="0.1">
<path d="m52.94,533.77l0,-1.38l3.38,0l0,-16.19l-3.92,2.54l0,-1.7l4.74,-3.07l1.8,0l0,18.43l3.38,0l0,1.38l-9.4,0m21.67,-0.91c1.32,0,2.32,-0.73,2.98,-2.19c0.66,-1.46,0.99,-3.66,0.99,-6.6c0,-2.95,-0.33,-5.16,-0.99,-6.62c-0.66,-1.45,-1.65,-2.18,-2.98,-2.18c-1.33,0,-2.32,0.72,-2.98,2.18c-0.66,1.45,-0.99,3.66,-0.99,6.62c0,2.94,0.33,5.14,0.99,6.6c0.66,1.46,1.65,2.19,2.98,2.19m0,1.29c-2.11,0,-3.76,-0.88,-4.94,-2.65c-1.18,-1.77,-1.77,-4.25,-1.77,-7.43c0,-3.18,0.59,-5.67,1.77,-7.44c1.18,-1.77,2.83,-2.66,4.94,-2.66c2.12,0,3.77,0.88,4.95,2.66c1.18,1.77,1.77,4.25,1.77,7.44c0,3.18,-0.59,5.65,-1.77,7.43c-1.18,1.77,-2.83,2.65,-4.95,2.65" fill="#000000" stroke="none" fill-opacity="1"/>
<path d="m164.17,533.77l0,-1.38l3.38,0l0,-16.19l-3.92,2.54l0,-1.7l4.74,-3.07l1.8,0l0,18.43l3.38,0l0,1.38l-9.4,0m21.67,-0.91c1.32,0,2.32,-0.73,2.98,-2.19c0.66,-1.46,0.99,-3.66,0.99,-6.6c0,-2.95,-0.33,-5.16,-0.99,-6.62c-0.66,-1.45,-1.65,-2.18,-2.98,-2.18c-1.33,0,-2.32,0.72,-2.98,2.18c-0.66,1.45,-0.99,3.66,-0.99,6.62c0,2.94,0.33,5.14,0.99,6.6c0.66,1.46,1.65,2.19,2.98,2.19m0,1.29c-2.11,0,-3.76,-0.88,-4.94,-2.65c-1.18,-1.77,-1.77,-4.25,-1.77,-7.43c0,-3.18,0.59,-5.67,1.77,-7.44c1.18,-1.77,2.83,-2.66,4.94,-2.66c2.12,0,3.77,0.88,4.95,2.66c1.18,1.77,1.77,4.25,1.77,7.44c0,3.18,-0.59,5.65,-1.77,7.43c-1.18,1.77,-2.83,2.65,-4.95,2.65m16.98,-1.29c1.32,0,2.32,-0.73,2.98,-2.19c0.66,-1.46,0.99,-3.66,0.99,-6.6c0,-2.95,-0.33,-5.16,-0.99,-6.62c-0.66,-1.45,-1.65,-2.18,-2.98,-2.18c-1.33,0,-2.32,0.72,-2.98,2.18c-0.66,1.45,-0.99,3.66,-0.99,6.62c0,2.94,0.33,5.14,0.99,6.6c0.66,1.46,1.65,2.19,2.98,2.19m0,1.29c-2.11,0,-3.76,-0.88,-4.94,-2.65c-1.18,-1.77,-1.77,-4.25,-1.77,-7.43c0,-3.18,0.59,-5.67,1.77,-7.44c1.18,-1.77,2.83,-2.66,4.94,-2.66c2.12,0,3.77,0.88,4.95,2.66c1.18,1.77,1.77,4.25,1.77,7.44c0,3.18,-0.59,5.65,-1.77,7.43c-1.18,1.77,-2.83,2.65,-4.95,2.65" fill="#000000" stroke="none" fill-opacity="1"/>
<path d="m275.4,533.77l0,-1.38l3.38,0l0,-16.19l-3.92,2.54l0,-1.7l4.74,-3.07l1.8,0l0,18.43l3.38,0l0,1.38l-9.4,0m21.67,-0.91c1.32,0,2.32,-0.73,2.98,-2.19c0.66,-1.46,0.99,-3.66,0.99,-6.6c0,-2.95,-0.33,-5.16,-0.99,-6.62c-0.66,-1.45,-1.65,-2.18,-2.98,-2.18c-1.33,0,-2.32,0.72,-2.98,2.18c-0.66,1.45,-0.99,3.66,-0.99,6.62c0,2.94,0.33,5.14,0.99,6.6c0.66,1.46,1.65,2.19,2.98,2.19m0,1.29c-2.11,0,-3.76,-0.88,-4.94,-2.65c-1.18,-1.77,-1.77,-4.25,-1.77,-7.43c0,-3.18,0.59,-5.67,1.77,-7.44c1.18,-1.77,2.83,-2.66,4.94,-2.66c2.12,0,3.77,0.88,4.95,2.66c1.18,1.77,1.77,4.25,1.77,7.44c0,3.18,-0.59,5.65,-1.77,7.43c-1.18,1.77,-2.83,2.65,-4.95,2.65m16.98,-1.29c1.32,0,2.32,-0.73,2.98,-2.19c0.66,-1.46,0.99,-3.66,0.99,-6.6c0,-2.95,-0.33,-5.16,-0.99,-6.62c-0.66,-1.45,-1.65,-2.18,-2.98,-2.18c-1.33,0,-2.32,0.72,-2.98,2.18c-0.66,1.45,-0.99,3.66,-0.99,6.62c0,2.94,0.33,5.14,0.99,6.6c0.66,1.46,1.65,2.19,2.98,2.19m0,1.29c-2.11,0,-3.76,-0.88,-4.94,-2.65c-1.18,-1.77,-1.77,-4.25,-1.77,-7.43c0,-3.18,0.59,-5.67,1.77,-7.44c1.18,-1.77,2.83,-2.66,4.94,-2.66c2.12,0,3.77,0.88,4.95,2.66c1.18,1.77,1.77,4.25,1.77,7.44c0,3.18,-0.59,5.65,-1.77,7.43c-1.18,1.77,-2.83,2.65,-4.95,2.65m16.98,-1.29c1.32,0,2.32,-0.73,2.98,-2.19c0.66,-1.46,0.99,-3.66,0.99,-6.6c0,-2.95,-0.33,-5.16,-0.99,-6.62c-0.66,-1.45,-1.65,-2.18,-2.98,-2.18c-1.33,0,-2.32,0.72,-2.98,2.18c-0.66,1.45,-0.99,3.66,-0.99,6.62c0,2.94,0.33,5.14,0.99,6.6c0.66,1.46,1.65,2.19,2.98,2.19m0,1.29c-2.11,0,-3.76,-0.88,-4.94,-2.65c-1.18,-1.77,-1.77,-4.25,-1.77,-7.43c0,-3.18,0.59,-5.67,1.77,-7.44c1.18,-1.77,2.83,-2.66,4.94,-2.66c2.12,0,3.77,0.88,4.95,2.66c1.18,1.77,1.77,4.25,1.77,7.44c0,3.18,-0.59,5.65,-1.77,7.43c-1.18,1.77,-2.83,2.65,-4.95,2.65" fill="#000000" stroke="none" fill-opacity="1"/>
<path d="m407.02,533.77l0,-1.38l3.38,0l0,-16.19l-3.92,2.54l0,-1.7l4.74,-3.07l1.8,0l0,18.43l3.38,0l0,1.38l-9.4,0m21.67,-0.91c1.32,0,2.32,-0.73,2.98,-2.19c0.66,-1.46,0.99,-3.66,0.99,-6.6c0,-2.95,-0.33,-5.16,-0.99,-6.62c-0.66,-1.45,-1.65,-2.18,-2.98,-2.18c-1.33,0,-2.32,0.72,-2.98,2.18c-0.66,1.45,-0.99,3.66,-0.99,6.62c0,2.94,0.33,5.14,0.99,6.6c0.66,1.46,1.65,2.19,2.98,2.19m0,1.29c-2.11,0,-3.76,-0.88,-4.94,-2.65c-1.18,-1.77,-1.77,-4.25,-1.77,-7.43c0,-3.18,0.59,-5.67,1.77,-7.44c1.18,-1.77,2.83,-2.66,4.94,-2.66c2.12,0,3.77,0.88,4.95,2.66c1.18,1.77,1.77,4.25,1.77,7.44c0,3.18,-0.59,5.65,-1.77,7.43c-1.18,1.77,-2.83,2.65,-4.95,2.65" fill="#000000" stroke="none" fill-opacity="1"/>
<path d="m442.78,517.38l0,-6.2l-3.98,6.2l3.98,0m3.43,3.95l-5.31,0l0,-0.82l1.87,0l0,-2.28l-5.09,0l0,-0.85l5.1,-7.9l1.54,0l0,7.92l2.22,0l0,0.83l-2.22,0l0,2.28l1.87,0l0,0.82" fill="#000000" stroke="none" fill-opacity="1"/>
<path d="m526.57,533.77l0,-1.38l3.38,0l0,-16.19l-3.92,2.54l0,-1.7l4.74,-3.07l1.8,0l0,18.43l3.38,0l0,1.38l-9.4,0m21.67,-0.91c1.32,0,2.32,-0.73,2.98,-2.19c0.66,-1.46,0.99,-3.66,0.99,-6.6c0,-2.95,-0.33,-5.16,-0.99,-6.62c-0.66,-1.45,-1.65,-2.18,-2.98,-2.18c-1.33,0,-2.32,0.72,-2.98,2.18c-0.66,1.45,-0.99,3.66,-0.99,6.62c0,2.94,0.33,5.14,0.99,6.6c0.66,1.46,1.65,2.19,2.98,2.19m0,1.29c-2.11,0,-3.76,-0.88,-4.94,-2.65c-1.18,-1.77,-1.77,-4.25,-1.77,-7.43c0,-3.18,0.59,-5.67,1.77,-7.44c1.18,-1.77,2.83,-2.66,4.94,-2.66c2.12,0,3.77,0.88,4.95,2.66c1.18,1.77,1.77,4.25,1.77,7.44c0,3.18,-0.59,5.65,-1.77,7.43c-1.18,1.77,-2.83,2.65,-4.95,2.65" fill="#000000" stroke="none" fill-opacity="1"/>
<path d="m564.79,509.67l0,1.28l-5.34,0l0,3.34c0.27,-0.18,0.58,-0.32,0.94,-0.42c0.36,-0.09,0.76,-0.14,1.21,-0.14c1.26,0,2.25,0.34,2.98,1.04c0.72,0.69,1.09,1.65,1.09,2.85c0,1.23,-0.36,2.19,-1.1,2.88c-0.73,0.69,-1.77,1.03,-3.1,1.03c-0.53,0,-1.08,-0.06,-1.64,-0.19c-0.56,-0.13,-1.13,-0.32,-1.72,-0.59l0,-2.26l0.88,0c0.04,0.73,0.28,1.3,0.7,1.69c0.42,0.39,1.01,0.58,1.78,0.58c0.82,0,1.45,-0.27,1.89,-0.81c0.44,-0.54,0.66,-1.32,0.66,-2.33c0,-1.01,-0.22,-1.78,-0.66,-2.32c-0.44,-0.53,-1.07,-0.8,-1.9,-0.8c-0.46,0,-0.88,0.08,-1.23,0.25c-0.35,0.16,-0.67,0.42,-0.94,0.77l-0.67,0l0,-5.85l6.17,0" fill="#000000" stroke="none" fill-opacity="1"/>
</g>
<g fill="none" stroke-linecap="butt" stroke-width="0.66">
<path d="M559.37,502.67l0,-495.11"/>
<path d="M559.37,502.14l-4,0M559.37,493.05l-4,0M559.37,485.03l-4,0M559.37,430.66l-4,0M559.37,403.06l-4,0M559.37,383.47l-4,0M559.37,368.28l-4,0M559.37,355.87l-4,0M559.37,345.37l-4,0M559.37,336.28l-4,0M559.37,328.26l-4,0M559.37,273.9l-4,0M559.37,246.29l-4,0M559.37,226.71l-4,0M559.37,211.51l-4,0M559.37,199.1l-4,0M559.37,188.6l-4,0M559.37,179.51l-4,0M559.37,171.49l-4,0M559.37,117.13l-4,0M559.37,89.52l-4,0M559.37,69.94l-4,0M559.37,54.75l-4,0M559.37,42.33l-4,0M559.37,31.84l-4,0M559.37,22.75l-4,0M559.37,14.73l-4,0"/>
<path d="M559.37,477.86l-8,0M559.37,321.09l-8,0M559.37,164.32l-8,0M559.37,7.55l-8,0"/>
<path d="M66.14,7.55l493.22,0"/>
<path d="M102.18,7.55l0,4M123.26,7.55l0,4M138.22,7.55l0,4M149.82,7.55l0,4M159.3,7.55l0,4M167.31,7.55l0,4M174.26,7.55l0,4M180.38,7.55l0,4M221.9,7.55l0,4M242.98,7.55l0,4M257.94,7.55l0,4M269.54,7.55l0,4M279.02,7.55l0,4M287.03,7.55l0,4M293.98,7.55l0,4M300.1,7.55l0,4M341.62,7.55l0,4M362.7,7.55l0,4M377.66,7.55l0,4M389.26,7.55l0,4M398.74,7.55l0,4M406.75,7.55l0,4M413.7,7.55l0,4M419.82,7.55l0,4M461.34,7.55l0,4M482.42,7.55l0,4M497.38,7.55l0,4M508.98,7.55l0,4M518.46,7.55l0,4M526.47,7.55l0,4M533.42,7.55l0,4M539.54,7.55l0,4"/>
<path d="M66.14,7.55l0,8M185.86,7.55l0,8M305.58,7.55l0,8M425.3,7.55l0,8M545.02,7.55l0,8"/>
</g>
</g>
</g>
</svg>
