<?xml version="1.0" encoding="UTF-8" standalone="no"?>
<!-- Created with Inkscape (http://www.inkscape.org/) -->

<svg
   xmlns:ns0="http://www.iki.fi/pav/software/textext/"
   xmlns:dc="http://purl.org/dc/elements/1.1/"
   xmlns:cc="http://creativecommons.org/ns#"
   xmlns:rdf="http://www.w3.org/1999/02/22-rdf-syntax-ns#"
   xmlns:svg="http://www.w3.org/2000/svg"
   xmlns="http://www.w3.org/2000/svg"
   xmlns:sodipodi="http://sodipodi.sourceforge.net/DTD/sodipodi-0.dtd"
   xmlns:inkscape="http://www.inkscape.org/namespaces/inkscape"
   width="979.16528"
   height="1149.6295"
   viewBox="0 0 979.16526 1149.6296"
   id="svg2"
   version="1.1"
   inkscape:version="0.91 r13725"
   sodipodi:docname="sketch_1Qbit.svg">
  <sodipodi:namedview
     id="base"
     pagecolor="#ffffff"
     bordercolor="#666666"
     borderopacity="1.0"
     inkscape:pageopacity="0.0"
     inkscape:pageshadow="2"
     inkscape:zoom="0.5"
     inkscape:cx="539.69777"
     inkscape:cy="576.03041"
     inkscape:document-units="px"
     inkscape:current-layer="layer1"
     showgrid="false"
     inkscape:snap-bbox="true"
     inkscape:bbox-paths="true"
     inkscape:bbox-nodes="true"
     inkscape:snap-bbox-edge-midpoints="true"
     inkscape:snap-bbox-midpoints="true"
     inkscape:object-paths="true"
     inkscape:snap-intersection-paths="true"
     inkscape:object-nodes="true"
     inkscape:snap-smooth-nodes="true"
     inkscape:snap-midpoints="true"
     inkscape:snap-object-midpoints="true"
     inkscape:snap-center="true"
     showguides="true"
     inkscape:guide-bbox="true"
     inkscape:window-width="1920"
     inkscape:window-height="1136"
     inkscape:window-x="0"
     inkscape:window-y="27"
     inkscape:window-maximized="1"
     inkscape:snap-global="false"
     units="px"
     fit-margin-top="10"
     fit-margin-left="10"
     fit-margin-right="10"
     fit-margin-bottom="10" />
  <defs
     id="defs4">
    <marker
       inkscape:isstock="true"
       style="overflow:visible"
       id="marker5150"
       refX="0"
       refY="0"
       orient="auto"
       inkscape:stockid="Arrow2Mend">
      <path
         transform="scale(-0.6,-0.6)"
         d="M 8.7185878,4.0337352 -2.2072895,0.01601326 8.7185884,-4.0017078 c -1.7454984,2.3720609 -1.7354408,5.6174519 -6e-7,8.035443 z"
         style="fill:#000000;fill-opacity:1;fill-rule:evenodd;stroke:#000000;stroke-width:0.625;stroke-linejoin:round;stroke-opacity:1"
         id="path5153"
         inkscape:connector-curvature="0" />
    </marker>
    <marker
       inkscape:stockid="Arrow2Mstart"
       orient="auto"
       refY="0"
       refX="0"
       id="marker5140"
       style="overflow:visible"
       inkscape:isstock="true">
      <path
         id="path5142"
         style="fill:#000000;fill-opacity:1;fill-rule:evenodd;stroke:#000000;stroke-width:0.625;stroke-linejoin:round;stroke-opacity:1"
         d="M 8.7185878,4.0337352 -2.2072895,0.01601326 8.7185884,-4.0017078 c -1.7454984,2.3720609 -1.7354408,5.6174519 -6e-7,8.035443 z"
         transform="scale(0.6,0.6)"
         inkscape:connector-curvature="0" />
    </marker>
    <marker
       inkscape:collect="always"
       inkscape:isstock="true"
       style="overflow:visible"
       id="marker4747"
       refX="0"
       refY="0"
       orient="auto"
       inkscape:stockid="Arrow2Mstart">
      <path
         inkscape:connector-curvature="0"
         transform="scale(0.6,0.6)"
         d="M 8.7185878,4.0337352 -2.2072895,0.01601326 8.7185884,-4.0017078 c -1.7454984,2.3720609 -1.7354408,5.6174519 -6e-7,8.035443 z"
         style="fill:#000000;fill-opacity:1;fill-rule:evenodd;stroke:#000000;stroke-width:0.625;stroke-linejoin:round;stroke-opacity:1"
         id="path4749" />
    </marker>
    <marker
       inkscape:stockid="Arrow2Mend"
       orient="auto"
       refY="0"
       refX="0"
       id="marker4683"
       style="overflow:visible"
       inkscape:isstock="true">
      <path
         inkscape:connector-curvature="0"
         id="path4685"
         style="fill:#000000;fill-opacity:1;fill-rule:evenodd;stroke:#000000;stroke-width:0.625;stroke-linejoin:round;stroke-opacity:1"
         d="M 8.7185878,4.0337352 -2.2072895,0.01601326 8.7185884,-4.0017078 c -1.7454984,2.3720609 -1.7354408,5.6174519 -6e-7,8.035443 z"
         transform="scale(-0.6,-0.6)" />
    </marker>
    <marker
       inkscape:collect="always"
       inkscape:stockid="Arrow2Mend"
       orient="auto"
       refY="0"
       refX="0"
       id="marker4643"
       style="overflow:visible"
       inkscape:isstock="true">
      <path
         inkscape:connector-curvature="0"
         id="path4645"
         style="fill:#000000;fill-opacity:1;fill-rule:evenodd;stroke:#000000;stroke-width:0.625;stroke-linejoin:round;stroke-opacity:1"
         d="M 8.7185878,4.0337352 -2.2072895,0.01601326 8.7185884,-4.0017078 c -1.7454984,2.3720609 -1.7354408,5.6174519 -6e-7,8.035443 z"
         transform="scale(-0.6,-0.6)" />
    </marker>
    <marker
       inkscape:isstock="true"
       style="overflow:visible"
       id="marker12248"
       refX="0"
       refY="0"
       orient="auto"
       inkscape:stockid="Arrow2Mend"
       inkscape:collect="always">
      <path
         transform="scale(-0.6,-0.6)"
         d="M 8.7185878,4.0337352 -2.2072895,0.01601326 8.7185884,-4.0017078 c -1.7454984,2.3720609 -1.7354408,5.6174519 -6e-7,8.035443 z"
         style="fill:#000000;fill-opacity:1;fill-rule:evenodd;stroke:#000000;stroke-width:0.625;stroke-linejoin:round;stroke-opacity:1"
         id="path12250"
         inkscape:connector-curvature="0" />
    </marker>
    <marker
       inkscape:isstock="true"
       style="overflow:visible"
       id="marker12238"
       refX="0"
       refY="0"
       orient="auto"
       inkscape:stockid="Arrow2Mend">
      <path
         transform="scale(-0.6,-0.6)"
         d="M 8.7185878,4.0337352 -2.2072895,0.01601326 8.7185884,-4.0017078 c -1.7454984,2.3720609 -1.7354408,5.6174519 -6e-7,8.035443 z"
         style="fill:#000000;fill-opacity:1;fill-rule:evenodd;stroke:#000000;stroke-width:0.625;stroke-linejoin:round;stroke-opacity:1"
         id="path12240"
         inkscape:connector-curvature="0" />
    </marker>
    <marker
       inkscape:stockid="Arrow2Mend"
       orient="auto"
       refY="0"
       refX="0"
       id="marker4874"
       style="overflow:visible"
       inkscape:isstock="true">
      <path
         id="path4876"
         style="fill:#000000;fill-opacity:1;fill-rule:evenodd;stroke:#000000;stroke-width:0.625;stroke-linejoin:round;stroke-opacity:1"
         d="M 8.7185878,4.0337352 -2.2072895,0.01601326 8.7185884,-4.0017078 c -1.7454984,2.3720609 -1.7354408,5.6174519 -6e-7,8.035443 z"
         transform="scale(-0.6,-0.6)"
         inkscape:connector-curvature="0" />
    </marker>
    <filter
       inkscape:collect="always"
       style="color-interpolation-filters:sRGB"
       id="filter4910"
       x="-0.073284936"
       width="1.1465699"
       y="-0.33098361"
       height="1.6619672">
      <feGaussianBlur
         inkscape:collect="always"
         stdDeviation="8.4125"
         id="feGaussianBlur4912" />
    </filter>
  </defs>
  <metadata
     id="metadata7">
    <rdf:RDF>
      <cc:Work
         rdf:about="">
        <dc:format>image/svg+xml</dc:format>
        <dc:type
           rdf:resource="http://purl.org/dc/dcmitype/StillImage" />
        <dc:title></dc:title>
      </cc:Work>
    </rdf:RDF>
  </metadata>
  <g
     inkscape:label="Layer 1"
     inkscape:groupmode="layer"
     id="layer1"
     transform="translate(-1943.9752,330.99415)">
    <path
       sodipodi:nodetypes="cc"
       inkscape:connector-curvature="0"
       id="path4984"
       d="m 2164.5752,192.05958 679.0663,0"
       style="fill:none;fill-rule:evenodd;stroke:#9f9f9f;stroke-width:2;stroke-linecap:butt;stroke-linejoin:miter;stroke-miterlimit:4;stroke-dasharray:8, 8;stroke-dashoffset:0;stroke-opacity:1" />
    <path
       style="fill:none;fill-rule:evenodd;stroke:#9f9f9f;stroke-width:2.00000024;stroke-linecap:butt;stroke-linejoin:miter;stroke-miterlimit:4;stroke-dasharray:8.00000095,8.00000095;stroke-dashoffset:0;stroke-opacity:1"
       d="m 2164.5752,466.8319 679.0663,0"
       id="path6864"
       inkscape:connector-curvature="0"
       sodipodi:nodetypes="cc" />
    <path
       sodipodi:nodetypes="cc"
       inkscape:connector-curvature="0"
       id="path6866"
       d="m 2164.5752,-82.7126 679.0663,0"
       style="fill:none;fill-rule:evenodd;stroke:#9f9f9f;stroke-width:2;stroke-linecap:butt;stroke-linejoin:miter;stroke-miterlimit:4;stroke-dasharray:8, 8;stroke-dashoffset:0;stroke-opacity:1" />
    <path
       sodipodi:nodetypes="cc"
       inkscape:connector-curvature="0"
       id="path12228"
       d="m 2164.5752,714.18138 742.518,0"
       style="fill:none;fill-rule:evenodd;stroke:#000000;stroke-width:4;stroke-linecap:round;stroke-linejoin:miter;stroke-miterlimit:4;stroke-dasharray:none;stroke-opacity:1;marker-end:url(#marker12248)" />
    <path
       sodipodi:nodetypes="cc"
       style="fill:none;fill-rule:evenodd;stroke:#000000;stroke-width:4;stroke-linecap:round;stroke-linejoin:miter;stroke-miterlimit:4;stroke-dasharray:none;stroke-opacity:1;marker-end:url(#marker12238)"
       d="m 2164.5752,714.18138 0,-1029.12818"
       id="path12230"
       inkscape:connector-curvature="0" />
    <g
       style="font-style:normal;font-variant:normal;font-weight:normal;font-stretch:normal;letter-spacing:normal;word-spacing:normal;text-anchor:start;fill:none;fill-opacity:1;fill-rule:evenodd;stroke:#000000;stroke-linecap:butt;stroke-linejoin:miter;stroke-miterlimit:10.43299961;stroke-dasharray:none;stroke-dashoffset:0;stroke-opacity:1"
       ns0:preamble="/home/ngarcia/.config/inkscape/preamble.tex"
       ns0:text="$\\mathcal{A}$ $(MHz)$"
       word-spacing="normal"
       letter-spacing="normal"
       font-size-adjust="none"
       font-stretch="normal"
       font-weight="normal"
       font-variant="normal"
       font-style="normal"
       stroke-miterlimit="10.433"
       xml:space="preserve"
       transform="matrix(5,0,0,-5,1312.6436,4311.7855)"
       id="g13743"><path
         id="path13745"
         d="m 229.36,708.77 0,-0.06 0.01,-0.06 0.01,-0.06 0,-0.05 0.01,-0.06 0,-0.05 0.01,-0.05 0.01,-0.05 0.01,-0.05 0,-0.05 0.01,-0.05 0.01,-0.04 0.01,-0.05 0,-0.04 0.01,-0.04 0.01,-0.05 0.01,-0.04 0.01,-0.03 0,-0.04 0.01,-0.04 0.01,-0.03 0.01,-0.04 0,-0.03 0.01,-0.03 0.01,-0.03 0,-0.02 0.01,-0.03 0.01,-0.03 0,-0.02 0.01,-0.02 0,-0.02 0.01,-0.02 c 0.11,-0.45 0.16,-0.67 0.59,-0.67 0.45,0 1.21,0.45 1.21,0.65 0,0.05 -0.04,0.07 -0.09,0.07 -0.13,0 -0.34,-0.11 -0.37,-0.13 -0.07,-0.04 -0.08,-0.04 -0.1,-0.04 -0.28,0 -0.34,0.27 -0.46,0.87 -0.07,0.33 -0.16,0.73 -0.24,2.09 -0.07,1.02 -0.11,2.03 -0.11,3.05 0,0.24 0.01,0.5 0.01,0.74 0,0.16 0,0.2 -0.11,0.2 -0.14,0 -0.55,-0.17 -0.73,-0.44 l -0.07,-0.11 c -0.79,-1.69 -1.52,-2.89 -2.04,-3.7 -0.59,-0.91 -1.62,-2.53 -2.16,-2.53 -0.37,0 -0.68,0.24 -0.77,0.6 -0.01,0.02 -0.03,0.08 -0.07,0.08 -0.15,0 -0.37,-0.48 -0.37,-0.76 0,-0.4 0.43,-0.84 0.9,-0.84 0.69,0 1.83,1.8 2.05,2.15 l 0.27,0.39 c 0.7,1.07 1.28,2.11 1.33,2.22 0.5,0.88 0.77,1.46 0.9,1.71 l 0.01,0 0,-0.58 c 0,-0.58 0.02,-1.15 0.05,-1.73 0.01,-0.2 0.05,-0.95 0.1,-1.47 l -1.82,0 c -0.16,0 -0.31,0 -0.57,-0.15 l -0.27,-0.39 z"
         inkscape:connector-curvature="0"
         style="fill:#000000;stroke-width:0" /><path
         id="path13747"
         d="m 238,704.73 0,0.01 0,0 0,0.01 0,0 0,0 0,0 0,0.01 0,0 0,0.01 -0.01,0 0,0 0,0.01 0,0 -0.01,0.01 0,0 -0.01,0.01 0,0.01 -0.01,0 0,0.01 -0.01,0 0,0.01 0,0 -0.01,0.01 0,0 0,0 -0.01,0.01 0,0 -0.01,0.01 0,0 -0.01,0.01 0,0.01 -0.01,0 0,0.01 -0.01,0 -0.01,0.01 0,0.01 -0.01,0 -0.01,0.01 0,0.01 -0.01,0.01 -0.01,0 -0.01,0.01 c -1.24,1.26 -1.56,3.14 -1.56,4.66 0,1.74 0.38,3.47 1.6,4.72 0.13,0.12 0.13,0.14 0.13,0.16 0,0.08 -0.04,0.1 -0.1,0.1 -0.1,0 -0.99,-0.67 -1.58,-1.94 -0.51,-1.09 -0.63,-2.2 -0.63,-3.04 0,-0.77 0.11,-1.98 0.66,-3.1 0.6,-1.23 1.45,-1.88 1.55,-1.88 0.06,0 0.1,0.03 0.1,0.1 z"
         inkscape:connector-curvature="0"
         style="fill:#000000;stroke-width:0" /><path
         id="path13749"
         d="m 247.81,713.16 0.01,0.03 0,0.03 0.01,0.03 0.01,0.03 0.01,0.03 0.01,0.03 0.01,0.02 0,0.02 0.01,0.02 0.02,0.02 0.01,0.02 0.01,0.02 0.02,0.02 0.01,0.01 0.02,0.02 0.02,0.01 0.02,0.02 0.02,0.01 0.03,0.01 0.03,0.01 0.03,0.01 0.02,0 0.01,0 0.02,0.01 0.02,0 0.02,0 0.02,0.01 0.02,0 0.02,0 0.02,0 0.03,0.01 0.02,0 0.02,0 0.03,0 0.03,0 0.02,0 0.03,0.01 0.03,0 0.03,0 0.03,0 0.04,0 0.03,0 0.03,0 c 0.23,0 0.32,0 0.32,0.2 0,0.11 -0.1,0.11 -0.27,0.11 l -1.31,0 c -0.26,0 -0.27,0 -0.39,-0.19 l -3.63,-5.68 -0.78,5.64 c -0.03,0.23 -0.05,0.23 -0.31,0.23 l -1.37,0 c -0.19,0 -0.3,0 -0.3,-0.19 0,-0.12 0.09,-0.12 0.29,-0.12 0.13,0 0.31,-0.01 0.43,-0.02 0.16,-0.02 0.22,-0.05 0.22,-0.16 0,-0.04 -0.01,-0.07 -0.04,-0.19 l -1.26,-5.07 c -0.1,-0.4 -0.27,-0.72 -1.08,-0.75 -0.05,0 -0.18,-0.01 -0.18,-0.19 0,-0.09 0.06,-0.12 0.14,-0.12 0.32,0 0.67,0.03 1,0.03 0.34,0 0.69,-0.03 1.02,-0.03 0.05,0 0.18,0 0.18,0.2 0,0.11 -0.11,0.11 -0.18,0.11 -0.56,0.01 -0.67,0.21 -0.67,0.44 0,0.07 0,0.12 0.03,0.23 l 1.36,5.43 0.01,0 0.86,-6.18 c 0.02,-0.12 0.03,-0.23 0.15,-0.23 0.11,0 0.17,0.11 0.22,0.18 l 4.02,6.31 0.01,0 -1.42,-5.71 c -0.1,-0.39 -0.12,-0.47 -0.91,-0.47 -0.17,0 -0.28,0 -0.28,-0.19 0,-0.12 0.12,-0.12 0.15,-0.12 0.28,0 0.96,0.03 1.24,0.03 0.4,0 0.83,-0.03 1.24,-0.03 0.06,0 0.19,0 0.19,0.2 0,0.11 -0.09,0.11 -0.28,0.11 -0.37,0 -0.65,0 -0.65,0.18 0,0.04 0,0.06 0.05,0.24 z"
         inkscape:connector-curvature="0"
         style="fill:#000000;stroke-width:0" /><path
         id="path13751"
         d="m 256.93,713.16 0.01,0.03 0.01,0.03 0.01,0.03 0,0.03 0.01,0.03 0.01,0.03 0.01,0.02 0.01,0.02 0.01,0.02 0.01,0.02 0.01,0.02 0.01,0.02 0.02,0.02 0.01,0.01 0.02,0.02 0.02,0.01 0.02,0.02 0.02,0.01 0.03,0.01 0.03,0.01 0.03,0.01 0.03,0 0.02,0.01 0.02,0 0.01,0 0.02,0.01 0.02,0 0.02,0 0.03,0 0.02,0.01 0.02,0 0.03,0 0.02,0 0.03,0 0.02,0 0.03,0.01 0.03,0 0.03,0 0.03,0 0.03,0 0.03,0 0.04,0 c 0.26,0 0.34,0 0.34,0.2 0,0.11 -0.11,0.11 -0.14,0.11 -0.28,0 -1,-0.03 -1.28,-0.03 -0.29,0 -0.99,0.03 -1.28,0.03 -0.08,0 -0.19,0 -0.19,-0.2 0,-0.11 0.09,-0.11 0.28,-0.11 0.02,0 0.21,0 0.38,-0.02 0.17,-0.02 0.26,-0.03 0.26,-0.16 0,-0.04 -0.01,-0.06 -0.03,-0.19 l -0.6,-2.43 -3.04,0 0.59,2.34 c 0.09,0.36 0.12,0.46 0.83,0.46 0.26,0 0.34,0 0.34,0.2 0,0.11 -0.11,0.11 -0.14,0.11 -0.28,0 -0.99,-0.03 -1.27,-0.03 -0.29,0 -1,0.03 -1.29,0.03 -0.08,0 -0.19,0 -0.19,-0.2 0,-0.11 0.09,-0.11 0.28,-0.11 0.02,0 0.21,0 0.38,-0.02 0.18,-0.02 0.27,-0.03 0.27,-0.16 0,-0.04 -0.01,-0.07 -0.04,-0.19 l -1.34,-5.35 c -0.1,-0.39 -0.12,-0.47 -0.9,-0.47 -0.18,0 -0.27,0 -0.27,-0.2 0,-0.11 0.12,-0.11 0.14,-0.11 0.28,0 0.98,0.03 1.26,0.03 0.21,0 0.43,-0.01 0.64,-0.01 0.22,0 0.44,-0.02 0.65,-0.02 0.08,0 0.2,0 0.2,0.2 0,0.11 -0.09,0.11 -0.28,0.11 -0.37,0 -0.65,0 -0.65,0.18 0,0.06 0.02,0.11 0.03,0.17 l 0.68,2.73 3.04,0 c -0.42,-1.65 -0.65,-2.6 -0.69,-2.75 -0.1,-0.32 -0.29,-0.33 -0.91,-0.33 -0.15,0 -0.24,0 -0.24,-0.2 0,-0.11 0.12,-0.11 0.14,-0.11 0.28,0 0.99,0.03 1.27,0.03 0.21,0 0.43,-0.01 0.64,-0.01 0.22,0 0.44,-0.02 0.64,-0.02 0.08,0 0.2,0 0.2,0.2 0,0.11 -0.09,0.11 -0.28,0.11 -0.36,0 -0.64,0 -0.64,0.18 0,0.06 0.02,0.11 0.03,0.17 z"
         inkscape:connector-curvature="0"
         style="fill:#000000;stroke-width:0" /><path
         id="path13753"
         d="m 259.74,707.95 0.05,0.05 0.05,0.05 0.05,0.05 0.05,0.05 0.04,0.05 0.04,0.04 0.05,0.05 0.04,0.04 0.04,0.04 0.04,0.04 0.03,0.03 0.04,0.04 0.04,0.04 0.03,0.03 0.08,0.07 0.06,0.06 0.07,0.06 0.07,0.06 0.06,0.06 0.13,0.11 0.06,0.06 0.07,0.06 c 0,0 0.62,0.53 0.98,0.89 0.94,0.93 1.16,1.41 1.16,1.45 0,0.1 -0.09,0.1 -0.11,0.1 -0.07,0 -0.1,-0.02 -0.15,-0.11 -0.29,-0.48 -0.51,-0.64 -0.74,-0.64 -0.24,0 -0.36,0.15 -0.51,0.32 -0.19,0.23 -0.36,0.43 -0.69,0.43 -0.75,0 -1.2,-0.93 -1.2,-1.14 0,-0.05 0.03,-0.11 0.12,-0.11 0.09,0 0.1,0.05 0.12,0.11 0.19,0.46 0.77,0.47 0.85,0.47 0.21,0 0.4,-0.07 0.63,-0.15 0.4,-0.15 0.51,-0.15 0.77,-0.15 -0.36,-0.43 -1.2,-1.15 -1.39,-1.3 l -0.89,-0.84 c -0.68,-0.67 -1.03,-1.24 -1.03,-1.31 0,-0.1 0.1,-0.1 0.12,-0.1 0.08,0 0.1,0.02 0.16,0.13 0.23,0.35 0.52,0.62 0.84,0.62 0.23,0 0.33,-0.09 0.58,-0.38 0.17,-0.21 0.35,-0.37 0.64,-0.37 0.99,0 1.56,1.27 1.56,1.54 0,0.05 -0.04,0.1 -0.12,0.1 -0.08,0 -0.11,-0.06 -0.14,-0.13 -0.22,-0.65 -0.86,-0.84 -1.19,-0.84 -0.2,0 -0.38,0.06 -0.59,0.13 -0.34,0.13 -0.49,0.17 -0.7,0.17 -0.02,0 -0.18,0 -0.27,-0.03 z"
         inkscape:connector-curvature="0"
         style="fill:#000000;stroke-width:0" /><path
         id="path13755"
         d="m 266.38,709.61 0,0.08 0,0.07 -0.01,0.08 0,0.08 -0.01,0.17 -0.01,0.18 -0.02,0.18 -0.02,0.19 -0.02,0.2 -0.04,0.2 -0.04,0.2 -0.04,0.21 -0.06,0.21 -0.06,0.21 -0.07,0.21 -0.08,0.22 -0.04,0.1 -0.04,0.11 -0.05,0.11 -0.05,0.1 c -0.6,1.23 -1.45,1.87 -1.55,1.87 -0.06,0 -0.1,-0.04 -0.1,-0.1 0,-0.02 0,-0.04 0.19,-0.22 0.97,-0.99 1.54,-2.57 1.54,-4.66 0,-1.7 -0.37,-3.45 -1.6,-4.71 -0.13,-0.12 -0.13,-0.14 -0.13,-0.17 0,-0.06 0.04,-0.1 0.1,-0.1 0.1,0 0.99,0.68 1.58,1.95 0.51,1.09 0.63,2.2 0.63,3.03 z"
         inkscape:connector-curvature="0"
         style="fill:#000000;stroke-width:0" /></g>    <g
       style="font-style:normal;font-variant:normal;font-weight:normal;font-stretch:normal;letter-spacing:normal;word-spacing:normal;text-anchor:start;fill:none;fill-opacity:1;fill-rule:evenodd;stroke:#000000;stroke-linecap:butt;stroke-linejoin:miter;stroke-miterlimit:10.43299961;stroke-dasharray:none;stroke-dashoffset:0;stroke-opacity:1"
       id="g14354"
       transform="matrix(0,-5,-5,0,5588.4693,1386.8346)"
       xml:space="preserve"
       stroke-miterlimit="10.433"
       font-style="normal"
       font-variant="normal"
       font-weight="normal"
       font-stretch="normal"
       font-size-adjust="none"
       letter-spacing="normal"
       word-spacing="normal"
       ns0:text="$E$ $(eV)$"
       ns0:preamble="/home/ngarcia/.config/inkscape/preamble.tex"><path
         style="fill:#000000;stroke-width:0"
         inkscape:connector-curvature="0"
         d="m 230.49,709.44 0,0.01 0,0 0,0.01 0.01,0.01 0,0.01 0.01,0.01 0,0.01 0,0.01 0.01,0.01 0,0.01 0,0 0,0.01 0.01,0 0,0.01 0,0 0,0.01 0,0 0,0 0,0.01 0,0 0,0 0.01,0.01 0,0 0,0 0,0 c 0,0.01 0,0.11 -0.12,0.11 -0.09,0 -0.11,-0.06 -0.13,-0.12 -0.65,-1.47 -1.02,-2.14 -2.72,-2.14 l -1.46,0 c -0.14,0 -0.16,0 -0.22,0.01 -0.1,0.01 -0.13,0.02 -0.13,0.1 0,0.03 0,0.05 0.05,0.23 l 0.68,2.72 0.99,0 c 0.84,0 0.84,-0.21 0.84,-0.46 0,-0.07 0,-0.19 -0.07,-0.49 -0.02,-0.05 -0.02,-0.08 -0.02,-0.11 0,-0.05 0.03,-0.11 0.12,-0.11 0.08,0 0.11,0.05 0.15,0.2 l 0.57,2.33 c 0,0.06 -0.05,0.11 -0.12,0.11 -0.09,0 -0.11,-0.05 -0.14,-0.18 -0.21,-0.75 -0.39,-0.98 -1.3,-0.98 l -0.94,0 0.6,2.4 c 0.09,0.35 0.1,0.39 0.54,0.39 l 1.4,0 c 1.22,0 1.52,-0.29 1.52,-1.11 0,-0.24 0,-0.26 -0.04,-0.53 0,-0.05 -0.01,-0.12 -0.01,-0.17 0,-0.06 0.03,-0.12 0.12,-0.12 0.1,0 0.12,0.06 0.14,0.25 l 0.19,1.72 c 0.03,0.27 -0.02,0.27 -0.27,0.27 l -5.03,0 c -0.19,0 -0.3,0 -0.3,-0.2 0,-0.11 0.09,-0.11 0.28,-0.11 0.37,0 0.65,0 0.65,-0.18 0,-0.04 0,-0.06 -0.05,-0.24 L 225,707.9 c -0.1,-0.39 -0.12,-0.47 -0.91,-0.47 -0.17,0 -0.28,0 -0.28,-0.19 0,-0.12 0.09,-0.12 0.28,-0.12 l 5.17,0 c 0.23,0 0.24,0.01 0.31,0.17 z"
         id="path14356" /><path
         style="fill:#000000;stroke-width:0"
         inkscape:connector-curvature="0"
         d="m 237.98,704.73 0,0.01 0,0 0,0.01 0,0 0,0 0,0 0,0.01 -0.01,0 0,0.01 0,0 0,0 0,0.01 -0.01,0 0,0.01 -0.01,0 0,0.01 -0.01,0.01 0,0 0,0.01 -0.01,0 0,0.01 0,0 -0.01,0.01 0,0 -0.01,0 0,0.01 -0.01,0 0,0.01 -0.01,0 0,0.01 -0.01,0.01 0,0 -0.01,0.01 0,0 -0.01,0.01 -0.01,0.01 0,0 -0.01,0.01 -0.01,0.01 0,0.01 -0.01,0 -0.01,0.01 c -1.24,1.26 -1.56,3.14 -1.56,4.66 0,1.74 0.37,3.47 1.6,4.72 0.13,0.12 0.13,0.14 0.13,0.16 0,0.08 -0.04,0.1 -0.1,0.1 -0.1,0 -1,-0.67 -1.58,-1.94 -0.51,-1.09 -0.63,-2.2 -0.63,-3.04 0,-0.77 0.11,-1.98 0.66,-3.1 0.59,-1.23 1.45,-1.88 1.55,-1.88 0.06,0 0.1,0.03 0.1,0.1 z"
         id="path14358" /><path
         style="fill:#000000;stroke-width:0"
         inkscape:connector-curvature="0"
         d="m 240.42,709.42 0.02,0 0.04,0 0.03,0 0.03,0.01 0.04,0 0.04,0 0.04,0 0.05,0 0.04,0 0.05,0.01 0.04,0 0.05,0 0.05,0.01 0.05,0 0.11,0.01 0.11,0.01 0.1,0.02 0.11,0.02 0.11,0.02 0.11,0.02 0.05,0.02 0.05,0.01 0.05,0.02 0.05,0.02 0.05,0.01 0.05,0.02 c 0.7,0.3 0.75,0.89 0.75,1.03 0,0.44 -0.38,0.85 -1.07,0.85 l 0,-0.22 c 0.47,0 0.74,-0.29 0.74,-0.63 0,-1.04 -1.6,-1.04 -2,-1.04 l -0.41,0 c 0.39,1.52 1.41,1.67 1.67,1.67 l 0,0.22 c -1.11,0 -2.61,-0.97 -2.61,-2.71 0,-1.02 0.59,-1.81 1.56,-1.81 1.43,0 2.27,1.06 2.27,1.18 0,0.06 -0.06,0.13 -0.12,0.13 -0.05,0 -0.07,-0.02 -0.13,-0.1 -0.79,-0.99 -1.88,-0.99 -1.99,-0.99 -0.78,0 -0.87,0.84 -0.87,1.16 0,0.12 0.01,0.43 0.16,1.03 z"
         id="path14360" /><path
         style="fill:#000000;stroke-width:0"
         inkscape:connector-curvature="0"
         d="m 249.45,712.79 0.05,0.07 0.04,0.07 0.05,0.06 0.04,0.06 0.05,0.05 0.04,0.05 0.04,0.05 0.05,0.05 0.04,0.04 0.04,0.03 0.04,0.04 0.04,0.03 0.04,0.03 0.04,0.02 0.04,0.03 0.04,0.02 0.04,0.02 0.04,0.01 0.04,0.02 0.04,0.01 0.04,0.01 0.04,0.01 0.03,0.01 0.04,0.01 0.04,0.01 0.03,0 0.08,0.01 0.07,0 0.07,0.01 c 0.12,0.01 0.13,0.18 0.13,0.19 0,0.08 -0.05,0.12 -0.13,0.12 -0.26,0 -0.55,-0.03 -0.82,-0.03 -0.33,0 -0.67,0.03 -0.99,0.03 -0.06,0 -0.19,0 -0.19,-0.19 0,-0.11 0.09,-0.12 0.16,-0.12 0.27,-0.02 0.46,-0.12 0.46,-0.33 0,-0.15 -0.15,-0.37 -0.15,-0.38 l -3.06,-4.86 -0.67,5.27 c 0,0.17 0.23,0.3 0.68,0.3 0.14,0 0.25,0 0.25,0.2 0,0.09 -0.08,0.11 -0.14,0.11 -0.39,0 -0.82,-0.03 -1.23,-0.03 -0.18,0 -0.37,0.01 -0.55,0.01 -0.18,0 -0.37,0.02 -0.54,0.02 -0.07,0 -0.19,0 -0.19,-0.19 0,-0.12 0.09,-0.12 0.25,-0.12 0.56,0 0.57,-0.09 0.6,-0.34 l 0.79,-6.15 c 0.03,-0.2 0.07,-0.23 0.2,-0.23 0.15,0 0.2,0.05 0.28,0.18 z"
         id="path14362" /><path
         style="fill:#000000;stroke-width:0"
         inkscape:connector-curvature="0"
         d="m 254.1,709.61 0,0.08 0,0.07 0,0.08 -0.01,0.08 0,0.17 -0.02,0.18 -0.01,0.18 -0.02,0.19 -0.03,0.2 -0.03,0.2 -0.04,0.2 -0.05,0.21 -0.05,0.21 -0.06,0.21 -0.07,0.21 -0.08,0.22 -0.05,0.1 -0.04,0.11 -0.05,0.11 -0.05,0.1 c -0.6,1.23 -1.45,1.87 -1.55,1.87 -0.06,0 -0.1,-0.04 -0.1,-0.1 0,-0.02 0,-0.04 0.19,-0.22 0.97,-0.99 1.54,-2.57 1.54,-4.66 0,-1.7 -0.37,-3.45 -1.6,-4.71 -0.13,-0.12 -0.13,-0.14 -0.13,-0.17 0,-0.06 0.04,-0.1 0.1,-0.1 0.1,0 0.99,0.68 1.58,1.95 0.51,1.09 0.63,2.2 0.63,3.03 z"
         id="path14364" /></g>    <g
       style="font-style:normal;font-variant:normal;font-weight:normal;font-stretch:normal;letter-spacing:normal;word-spacing:normal;text-anchor:start;fill:none;fill-opacity:1;fill-rule:evenodd;stroke:#000000;stroke-linecap:butt;stroke-linejoin:miter;stroke-miterlimit:10.43299961;stroke-dasharray:none;stroke-dashoffset:0;stroke-opacity:1"
       id="content"
       transform="matrix(5,0,0,-5,1014.5252,3743.7096)"
       xml:space="preserve"
       stroke-miterlimit="10.433"
       font-style="normal"
       font-variant="normal"
       font-weight="normal"
       font-stretch="normal"
       font-size-adjust="none"
       letter-spacing="normal"
       word-spacing="normal"
       ns0:text="$0$"
       ns0:preamble="/home/ngarcia/.config/inkscape/preamble.tex"><path
         style="fill:#000000;stroke-width:0"
         inkscape:connector-curvature="0"
         d="m 228.01,710.31 0,0.15 0,0.15 0,0.15 -0.01,0.15 -0.01,0.15 -0.01,0.14 -0.01,0.15 -0.02,0.15 -0.03,0.15 -0.02,0.14 -0.04,0.15 -0.03,0.14 -0.05,0.14 -0.05,0.14 -0.05,0.14 -0.03,0.07 -0.03,0.07 c -0.46,0.96 -1.28,1.12 -1.7,1.12 -0.6,0 -1.32,-0.26 -1.73,-1.19 -0.32,-0.68 -0.37,-1.46 -0.37,-2.26 0,-0.75 0.04,-1.64 0.45,-2.4 0.43,-0.81 1.16,-1.01 1.64,-1.01 l 0,0.22 c -0.39,0 -0.97,0.25 -1.15,1.21 -0.11,0.6 -0.11,1.51 -0.11,2.1 0,0.64 0,1.29 0.08,1.83 0.19,1.19 0.93,1.28 1.18,1.28 0.33,0 0.99,-0.18 1.18,-1.17 0.1,-0.55 0.1,-1.31 0.1,-1.94 0,-0.75 0,-1.42 -0.11,-2.06 -0.15,-0.95 -0.72,-1.25 -1.17,-1.25 l 0,0 0,-0.22 c 0.54,0 1.3,0.21 1.74,1.16 0.31,0.69 0.36,1.46 0.36,2.25 z"
         id="path5152" /></g>    <g
       style="font-style:normal;font-variant:normal;font-weight:normal;font-stretch:normal;letter-spacing:normal;word-spacing:normal;text-anchor:start;fill:none;fill-opacity:1;fill-rule:evenodd;stroke:#000000;stroke-linecap:butt;stroke-linejoin:miter;stroke-miterlimit:10.43299961;stroke-dasharray:none;stroke-dashoffset:0;stroke-opacity:1"
       ns0:preamble="/home/ngarcia/.config/inkscape/preamble.tex"
       ns0:text="$-\\tfrac{1}{2} g_e\\mu_e B$"
       word-spacing="normal"
       letter-spacing="normal"
       font-size-adjust="none"
       font-stretch="normal"
       font-weight="normal"
       font-variant="normal"
       font-style="normal"
       stroke-miterlimit="10.433"
       xml:space="preserve"
       transform="matrix(5,0,0,-5,832.6752,4015.2569)"
       id="g4543"><path
         id="path4545"
         d="m 230,709.41 0.03,0 0.03,0 0.03,0.01 0.02,0 0.01,0 0.02,0 0.01,0 0.02,0 0.01,0 0.02,0.01 0.01,0 0.01,0 0.02,0.01 0.01,0 0.01,0.01 0.01,0.01 0.01,0 0.01,0.01 0.01,0.01 0.01,0.01 0.01,0.01 0,0 0,0.01 0.01,0 0,0.01 0,0.01 0,0 0.01,0.01 0,0.01 0,0 0,0.01 0,0.01 0,0.01 0.01,0.01 0,0 0,0.01 0,0.01 c 0,0.2 -0.18,0.2 -0.35,0.2 l -5.39,0 c -0.17,0 -0.35,0 -0.35,-0.2 0,-0.2 0.18,-0.2 0.35,-0.2 z"
         inkscape:connector-curvature="0"
         style="fill:#000000;stroke-width:0" /><path
         id="path4547"
         d="m 234.71,715.48 0,0.01 0,0.01 0,0.01 0,0 0,0.01 0,0.01 0,0.01 0,0 0,0.01 0,0.01 0,0 0,0.01 0,0 0,0.01 -0.01,0.01 0,0 0,0.01 0,0 0,0.01 0,0.01 -0.01,0.01 0,0 0,0.01 -0.01,0 0,0.01 -0.01,0 0,0.01 -0.01,0 -0.01,0 -0.01,0.01 -0.01,0 0,0 -0.01,0 -0.01,0 0,0 -0.01,0 0,0 -0.01,0 0,0 -0.01,0 -0.01,0.01 -0.01,0 0,0 -0.01,0 -0.01,0 -0.01,0 0,0 -0.01,0 -0.01,0 -0.01,0 c -0.45,-0.44 -1.08,-0.45 -1.37,-0.45 l 0,-0.25 c 0.17,0 0.63,0 1.01,0.19 l 0,-3.55 c 0,-0.23 0,-0.32 -0.69,-0.32 l -0.27,0 0,-0.26 c 0.13,0.01 0.98,0.03 1.24,0.03 0.22,0 1.1,-0.02 1.25,-0.03 l 0,0.26 -0.26,0 c -0.7,0 -0.7,0.09 -0.7,0.32 z"
         inkscape:connector-curvature="0"
         style="fill:#000000;stroke-width:0" /><line
         id="line4549"
         y2="709.62"
         x2="236.35001"
         y1="709.62"
         x1="232.38"
         style="stroke-width:0.398" /><path
         id="path4551"
         d="m 235.89,704.96 -0.23,0 c -0.02,-0.16 -0.09,-0.57 -0.18,-0.64 -0.06,-0.04 -0.6,-0.04 -0.69,-0.04 l -1.29,0 c 0.73,0.65 0.98,0.84 1.4,1.17 0.51,0.41 0.99,0.85 0.99,1.51 0,0.84 -0.74,1.36 -1.63,1.36 -0.86,0 -1.45,-0.61 -1.45,-1.25 0,-0.36 0.3,-0.39 0.37,-0.39 0.17,0 0.37,0.12 0.37,0.37 0,0.12 -0.05,0.37 -0.41,0.37 0.22,0.49 0.69,0.65 1.02,0.65 0.69,0 1.06,-0.55 1.06,-1.11 0,-0.61 -0.43,-1.09 -0.66,-1.34 l -1.68,-1.66 c -0.07,-0.06 -0.07,-0.08 -0.07,-0.27 l 2.87,0 z"
         inkscape:connector-curvature="0"
         style="fill:#000000;stroke-width:0" /><path
         id="path4553"
         d="m 242.23,710.88 0,0.01 0.01,0.01 0,0.01 0,0.01 0.01,0.02 0,0.01 0,0.01 0,0.02 0.01,0.01 0,0.01 0,0.01 0,0.01 0,0.01 0,0.01 0,0.01 0,0 0,0.01 c 0,0.17 -0.12,0.27 -0.29,0.27 -0.1,0 -0.37,-0.07 -0.4,-0.43 -0.18,0.37 -0.53,0.63 -0.93,0.63 l 0.01,-0.22 c 0.66,0 0.8,-0.81 0.8,-0.86 0,-0.05 -0.02,-0.11 -0.04,-0.15 l -0.47,-1.9 c -0.06,-0.26 -0.29,-0.51 -0.51,-0.7 -0.21,-0.18 -0.52,-0.36 -0.81,-0.36 -0.5,0 -0.64,0.52 -0.64,0.92 0,0.48 0.28,1.65 0.55,2.16 0.27,0.49 0.7,0.89 1.12,0.89 l -0.01,0.22 c -1.14,0 -2.37,-1.4 -2.37,-2.83 0,-0.99 0.61,-1.58 1.32,-1.58 0.59,0 1.06,0.47 1.16,0.58 l 0.01,-0.01 c -0.21,-0.89 -0.33,-1.29 -0.33,-1.31 -0.04,-0.09 -0.38,-1.08 -1.44,-1.08 -0.19,0 -0.51,0.01 -0.79,0.1 0.3,0.09 0.41,0.35 0.41,0.52 0,0.16 -0.11,0.35 -0.38,0.35 -0.22,0 -0.54,-0.18 -0.54,-0.58 0,-0.41 0.37,-0.61 1.32,-0.61 1.25,0 1.97,0.78 2.12,1.38 z"
         inkscape:connector-curvature="0"
         style="fill:#000000;stroke-width:0" /><path
         id="path4555"
         d="m 243.86,707.22 0.02,0 0.02,0 0.02,0 0.03,0 0.02,0 0.03,0 0.03,0 0.03,0 0.03,0.01 0.04,0 0.03,0 0.04,0 0.04,0 0.03,0.01 0.08,0 0.08,0.01 0.08,0.01 0.08,0.01 0.08,0.02 0.08,0.01 0.04,0.01 0.04,0.01 0.04,0.01 0.04,0.01 0.03,0.01 0.04,0.02 c 0.52,0.18 0.61,0.51 0.61,0.72 0,0.38 -0.38,0.62 -0.86,0.62 l 0,-0.2 c 0.31,0 0.56,-0.15 0.56,-0.42 0,-0.68 -1.17,-0.68 -1.47,-0.68 l -0.35,0 c 0.29,1.02 1.06,1.1 1.26,1.1 l 0,0.2 c -0.84,0 -1.97,-0.65 -1.97,-1.84 0,-0.7 0.44,-1.31 1.26,-1.31 1.18,0 1.73,0.69 1.73,0.79 0,0.04 -0.07,0.12 -0.12,0.12 -0.04,0 -0.06,-0.02 -0.11,-0.07 -0.55,-0.64 -1.36,-0.64 -1.49,-0.64 -0.42,0 -0.7,0.27 -0.7,0.84 0,0.1 0,0.24 0.09,0.62 z"
         inkscape:connector-curvature="0"
         style="fill:#000000;stroke-width:0" /><path
         id="path4557"
         d="m 248.87,710.62 0.01,0.02 0,0.02 0.01,0.02 0,0.02 0.01,0.03 0,0.02 0.02,0.05 0.01,0.05 0.01,0.05 0.01,0.05 0.01,0.05 0.01,0.02 0.01,0.02 0,0.03 0.01,0.02 0,0.02 0.01,0.02 0,0.02 0,0.02 0.01,0.01 0,0.02 0,0.01 0.01,0.01 0,0.01 0,0.01 0,0.01 0,0 0,0.01 c 0,0.17 -0.12,0.27 -0.29,0.27 -0.03,0 -0.31,-0.01 -0.4,-0.36 l -1.43,-5.77 c -0.03,-0.12 -0.03,-0.14 -0.03,-0.16 0,-0.15 0.11,-0.27 0.28,-0.27 0.21,0 0.33,0.18 0.35,0.21 0.04,0.09 0.17,0.61 0.54,2.14 0.32,-0.27 0.77,-0.31 0.97,-0.31 0.7,0 1.09,0.45 1.33,0.73 0.09,-0.45 0.45,-0.73 0.89,-0.73 0.35,0 0.58,0.23 0.74,0.55 0.17,0.36 0.3,0.97 0.3,0.99 0,0.1 -0.09,0.1 -0.12,0.1 -0.1,0 -0.11,-0.04 -0.14,-0.18 -0.17,-0.65 -0.35,-1.24 -0.76,-1.24 -0.27,0 -0.3,0.26 -0.3,0.46 0,0.22 0.12,0.69 0.2,1.04 l 0.28,1.07 c 0.03,0.15 0.13,0.53 0.17,0.68 0.05,0.23 0.15,0.61 0.15,0.67 0,0.18 -0.14,0.27 -0.29,0.27 -0.05,0 -0.31,-0.01 -0.39,-0.35 l -0.47,-1.86 c -0.11,-0.5 -0.22,-0.92 -0.25,-1.02 -0.01,-0.05 -0.49,-0.96 -1.3,-0.96 -0.5,0 -0.74,0.33 -0.74,0.87 0,0.29 0.07,0.57 0.14,0.85 z"
         inkscape:connector-curvature="0"
         style="fill:#000000;stroke-width:0" /><path
         id="path4559"
         d="m 254.14,707.22 0.02,0 0.02,0 0.02,0 0.03,0 0.03,0 0.02,0 0.03,0 0.03,0 0.04,0.01 0.03,0 0.04,0 0.03,0 0.04,0 0.04,0.01 0.07,0 0.08,0.01 0.08,0.01 0.08,0.01 0.09,0.02 0.08,0.01 0.03,0.01 0.04,0.01 0.04,0.01 0.04,0.01 0.04,0.01 0.03,0.02 c 0.52,0.18 0.62,0.51 0.62,0.72 0,0.38 -0.39,0.62 -0.87,0.62 l 0,-0.2 c 0.31,0 0.57,-0.15 0.57,-0.42 0,-0.68 -1.18,-0.68 -1.48,-0.68 l -0.34,0 c 0.28,1.02 1.06,1.1 1.25,1.1 l 0,0.2 c -0.83,0 -1.97,-0.65 -1.97,-1.84 0,-0.7 0.44,-1.31 1.26,-1.31 1.18,0 1.73,0.69 1.73,0.79 0,0.04 -0.06,0.12 -0.12,0.12 -0.04,0 -0.06,-0.02 -0.11,-0.07 -0.54,-0.64 -1.36,-0.64 -1.49,-0.64 -0.41,0 -0.69,0.27 -0.69,0.84 0,0.1 0,0.24 0.08,0.62 z"
         inkscape:connector-curvature="0"
         style="fill:#000000;stroke-width:0" /><path
         id="path4561"
         d="m 258.45,707.9 -0.01,-0.04 -0.01,-0.03 -0.01,-0.03 -0.01,-0.03 -0.01,-0.03 -0.01,-0.03 -0.01,-0.02 -0.01,-0.03 -0.01,-0.02 -0.01,-0.02 -0.01,-0.02 -0.02,-0.02 -0.01,-0.02 -0.02,-0.01 -0.02,-0.02 -0.02,-0.01 -0.02,-0.01 -0.03,-0.01 -0.02,-0.01 -0.03,-0.01 -0.04,-0.01 -0.01,-0.01 -0.02,0 -0.02,0 -0.02,0 -0.02,-0.01 -0.02,0 -0.02,0 -0.02,-0.01 -0.03,0 -0.02,0 -0.03,0 -0.02,0 -0.03,0 -0.03,0 -0.03,-0.01 -0.03,0 -0.03,0 -0.03,0 -0.03,0 -0.04,0 -0.03,0 -0.04,0 c -0.17,0 -0.27,0 -0.27,-0.2 0,-0.11 0.09,-0.11 0.27,-0.11 l 3.56,0 c 1.57,0 2.75,1.18 2.75,2.15 0,0.72 -0.58,1.3 -1.55,1.41 1.04,0.19 2.08,0.93 2.08,1.87 0,0.74 -0.65,1.38 -1.85,1.38 l -0.14,-0.31 c 0.88,0 1.09,-0.59 1.09,-1.03 0,-0.87 -0.86,-1.82 -2.08,-1.82 l -1.45,0 -0.06,-0.22 1.88,0 c 0.96,0 1.15,-0.74 1.15,-1.17 0,-0.98 -0.89,-1.95 -2.06,-1.95 l -1.36,0 c -0.14,0 -0.16,0 -0.22,0.01 -0.1,0.01 -0.13,0.02 -0.13,0.1 0,0.03 0,0.05 0.05,0.23 l 0.69,2.78 0.06,0.22 0.62,2.47 c 0.09,0.35 0.11,0.38 0.54,0.38 l 1.28,0 0.14,0.31 -3.35,0 c -0.19,0 -0.29,0 -0.29,-0.2 0,-0.11 0.09,-0.11 0.28,-0.11 0.02,0 0.21,0 0.38,-0.02 0.18,-0.02 0.27,-0.03 0.27,-0.16 0,-0.04 -0.01,-0.07 -0.04,-0.19 z"
         inkscape:connector-curvature="0"
         style="fill:#000000;stroke-width:0" /></g>    <g
       id="g4881"
       transform="matrix(5,0,0,-5,871.3752,3465.7124)"
       xml:space="preserve"
       stroke-miterlimit="10.433"
       font-style="normal"
       font-variant="normal"
       font-weight="normal"
       font-stretch="normal"
       font-size-adjust="none"
       letter-spacing="normal"
       word-spacing="normal"
       ns0:text="$\\tfrac{1}{2} g_e\\mu_e B$"
       ns0:preamble="/home/ngarcia/.config/inkscape/preamble.tex"
       style="font-style:normal;font-variant:normal;font-weight:normal;font-stretch:normal;letter-spacing:normal;word-spacing:normal;text-anchor:start;fill:none;fill-opacity:1;fill-rule:evenodd;stroke:#000000;stroke-linecap:butt;stroke-linejoin:miter;stroke-miterlimit:10.43299961;stroke-dasharray:none;stroke-dashoffset:0;stroke-opacity:1"><path
         style="fill:#000000;stroke-width:0"
         inkscape:connector-curvature="0"
         d="m 226.96,715.48 0,0.01 0,0.01 0,0.01 0,0 0,0.01 0,0.01 0,0.01 0,0 0,0.01 0,0.01 0,0 0,0.01 0,0 0,0.01 0,0.01 0,0 -0.01,0.01 0,0 0,0.01 0,0.01 0,0.01 -0.01,0 0,0.01 -0.01,0 0,0.01 -0.01,0 0,0.01 -0.01,0 -0.01,0 0,0.01 -0.01,0 -0.01,0 -0.01,0 0,0 -0.01,0 0,0 -0.01,0 -0.01,0 0,0 -0.01,0 -0.01,0.01 0,0 -0.01,0 -0.01,0 -0.01,0 0,0 -0.01,0 -0.01,0 -0.01,0 -0.01,0 c -0.44,-0.44 -1.08,-0.45 -1.37,-0.45 l 0,-0.25 c 0.17,0 0.63,0 1.02,0.19 l 0,-3.55 c 0,-0.23 0,-0.32 -0.7,-0.32 l -0.27,0 0,-0.26 c 0.13,0.01 0.99,0.03 1.25,0.03 0.21,0 1.09,-0.02 1.24,-0.03 l 0,0.26 -0.26,0 c -0.7,0 -0.7,0.09 -0.7,0.32 z"
         id="path4883" /><line
         style="stroke-width:0.398"
         x1="224.63"
         y1="709.62"
         x2="228.60001"
         y2="709.62"
         id="line4885" /><path
         style="fill:#000000;stroke-width:0"
         inkscape:connector-curvature="0"
         d="m 228.15,704.96 -0.24,0 c -0.02,-0.16 -0.09,-0.57 -0.18,-0.64 -0.06,-0.04 -0.59,-0.04 -0.69,-0.04 l -1.28,0 c 0.73,0.65 0.97,0.84 1.39,1.17 0.52,0.41 1,0.85 1,1.51 0,0.84 -0.74,1.36 -1.64,1.36 -0.86,0 -1.45,-0.61 -1.45,-1.25 0,-0.36 0.3,-0.39 0.37,-0.39 0.17,0 0.37,0.12 0.37,0.37 0,0.12 -0.04,0.37 -0.41,0.37 0.22,0.49 0.69,0.65 1.02,0.65 0.7,0 1.06,-0.55 1.06,-1.11 0,-0.61 -0.43,-1.09 -0.65,-1.34 l -1.69,-1.66 c -0.07,-0.06 -0.07,-0.08 -0.07,-0.27 l 2.88,0 z"
         id="path4887" /><path
         style="fill:#000000;stroke-width:0"
         inkscape:connector-curvature="0"
         d="m 234.49,710.88 0,0.01 0,0.01 0,0.01 0,0.01 0.01,0.02 0,0.01 0,0.01 0.01,0.02 0,0.01 0,0.01 0,0.01 0,0.01 0,0.01 0,0.01 0,0.01 0,0 0,0.01 c 0,0.17 -0.11,0.27 -0.28,0.27 -0.1,0 -0.37,-0.07 -0.41,-0.43 -0.18,0.37 -0.53,0.63 -0.93,0.63 l 0.01,-0.22 c 0.66,0 0.8,-0.81 0.8,-0.86 0,-0.05 -0.02,-0.11 -0.03,-0.15 l -0.48,-1.9 c -0.06,-0.26 -0.29,-0.51 -0.51,-0.7 -0.21,-0.18 -0.52,-0.36 -0.8,-0.36 -0.5,0 -0.65,0.52 -0.65,0.92 0,0.48 0.29,1.65 0.56,2.16 0.26,0.49 0.69,0.89 1.11,0.89 l -0.01,0.22 c -1.13,0 -2.37,-1.4 -2.37,-2.83 0,-0.99 0.61,-1.58 1.33,-1.58 0.58,0 1.05,0.47 1.15,0.58 l 0.01,-0.01 c -0.21,-0.89 -0.33,-1.29 -0.33,-1.31 -0.04,-0.09 -0.38,-1.08 -1.43,-1.08 -0.19,0 -0.52,0.01 -0.8,0.1 0.3,0.09 0.41,0.35 0.41,0.52 0,0.16 -0.11,0.35 -0.38,0.35 -0.22,0 -0.54,-0.18 -0.54,-0.58 0,-0.41 0.37,-0.61 1.33,-0.61 1.24,0 1.96,0.78 2.11,1.38 z"
         id="path4889" /><path
         style="fill:#000000;stroke-width:0"
         inkscape:connector-curvature="0"
         d="m 236.11,707.22 0.02,0 0.02,0 0.02,0 0.03,0 0.03,0 0.02,0 0.03,0 0.03,0 0.04,0.01 0.03,0 0.04,0 0.03,0 0.04,0 0.04,0.01 0.07,0 0.08,0.01 0.08,0.01 0.08,0.01 0.09,0.02 0.08,0.01 0.03,0.01 0.04,0.01 0.04,0.01 0.04,0.01 0.04,0.01 0.03,0.02 c 0.52,0.18 0.62,0.51 0.62,0.72 0,0.38 -0.39,0.62 -0.87,0.62 l 0,-0.2 c 0.31,0 0.57,-0.15 0.57,-0.42 0,-0.68 -1.18,-0.68 -1.48,-0.68 l -0.34,0 c 0.28,1.02 1.06,1.1 1.25,1.1 l 0,0.2 c -0.83,0 -1.97,-0.65 -1.97,-1.84 0,-0.7 0.44,-1.31 1.26,-1.31 1.18,0 1.73,0.69 1.73,0.79 0,0.04 -0.06,0.12 -0.12,0.12 -0.04,0 -0.06,-0.02 -0.11,-0.07 -0.54,-0.64 -1.36,-0.64 -1.49,-0.64 -0.41,0 -0.69,0.27 -0.69,0.84 0,0.1 0,0.24 0.08,0.62 z"
         id="path4891" /><path
         style="fill:#000000;stroke-width:0"
         inkscape:connector-curvature="0"
         d="m 241.12,710.62 0.01,0.02 0,0.02 0.01,0.02 0,0.02 0.01,0.03 0.01,0.02 0.01,0.05 0.01,0.05 0.01,0.05 0.02,0.05 0.01,0.05 0,0.02 0.01,0.02 0,0.03 0.01,0.02 0,0.02 0.01,0.02 0,0.02 0.01,0.02 0,0.01 0,0.02 0.01,0.01 0,0.01 0,0.01 0,0.01 0,0.01 0,0 0,0.01 c 0,0.17 -0.12,0.27 -0.29,0.27 -0.03,0 -0.3,-0.01 -0.39,-0.36 l -1.44,-5.77 c -0.03,-0.12 -0.03,-0.14 -0.03,-0.16 0,-0.15 0.11,-0.27 0.28,-0.27 0.21,0 0.33,0.18 0.35,0.21 0.04,0.09 0.17,0.61 0.55,2.14 0.32,-0.27 0.76,-0.31 0.96,-0.31 0.7,0 1.09,0.45 1.33,0.73 0.09,-0.45 0.46,-0.73 0.9,-0.73 0.34,0 0.57,0.23 0.73,0.55 0.17,0.36 0.3,0.97 0.3,0.99 0,0.1 -0.09,0.1 -0.12,0.1 -0.1,0 -0.11,-0.04 -0.14,-0.18 -0.17,-0.65 -0.35,-1.24 -0.75,-1.24 -0.27,0 -0.3,0.26 -0.3,0.46 0,0.22 0.12,0.69 0.19,1.04 l 0.28,1.07 c 0.03,0.15 0.13,0.53 0.17,0.68 0.05,0.23 0.15,0.61 0.15,0.67 0,0.18 -0.14,0.27 -0.29,0.27 -0.05,0 -0.31,-0.01 -0.38,-0.35 l -0.47,-1.86 c -0.12,-0.5 -0.23,-0.92 -0.26,-1.02 -0.01,-0.05 -0.49,-0.96 -1.3,-0.96 -0.5,0 -0.73,0.33 -0.73,0.87 0,0.29 0.07,0.57 0.14,0.85 z"
         id="path4893" /><path
         style="fill:#000000;stroke-width:0"
         inkscape:connector-curvature="0"
         d="m 246.39,707.22 0.02,0 0.02,0 0.03,0 0.02,0 0.03,0 0.03,0 0.03,0 0.03,0 0.03,0.01 0.03,0 0.04,0 0.03,0 0.04,0 0.04,0.01 0.08,0 0.07,0.01 0.09,0.01 0.08,0.01 0.08,0.02 0.08,0.01 0.04,0.01 0.04,0.01 0.03,0.01 0.04,0.01 0.04,0.01 0.03,0.02 c 0.52,0.18 0.62,0.51 0.62,0.72 0,0.38 -0.39,0.62 -0.87,0.62 l 0,-0.2 c 0.31,0 0.57,-0.15 0.57,-0.42 0,-0.68 -1.18,-0.68 -1.48,-0.68 l -0.34,0 c 0.28,1.02 1.06,1.1 1.25,1.1 l 0,0.2 c -0.83,0 -1.96,-0.65 -1.96,-1.84 0,-0.7 0.44,-1.31 1.25,-1.31 1.18,0 1.73,0.69 1.73,0.79 0,0.04 -0.06,0.12 -0.12,0.12 -0.04,0 -0.05,-0.02 -0.11,-0.07 -0.54,-0.64 -1.36,-0.64 -1.48,-0.64 -0.42,0 -0.7,0.27 -0.7,0.84 0,0.1 0,0.24 0.08,0.62 z"
         id="path4895" /><path
         style="fill:#000000;stroke-width:0"
         inkscape:connector-curvature="0"
         d="m 250.7,707.9 -0.01,-0.04 -0.01,-0.03 -0.01,-0.03 -0.01,-0.03 -0.01,-0.03 0,-0.03 -0.01,-0.02 -0.01,-0.03 -0.02,-0.02 -0.01,-0.02 -0.01,-0.02 -0.01,-0.02 -0.02,-0.02 -0.02,-0.01 -0.02,-0.02 -0.02,-0.01 -0.02,-0.01 -0.02,-0.01 -0.03,-0.01 -0.03,-0.01 -0.03,-0.01 -0.02,-0.01 -0.02,0 -0.02,0 -0.02,0 -0.02,-0.01 -0.02,0 -0.02,0 -0.02,-0.01 -0.03,0 -0.02,0 -0.03,0 -0.02,0 -0.03,0 -0.03,0 -0.03,-0.01 -0.03,0 -0.03,0 -0.03,0 -0.03,0 -0.04,0 -0.03,0 -0.04,0 c -0.17,0 -0.27,0 -0.27,-0.2 0,-0.11 0.09,-0.11 0.27,-0.11 l 3.56,0 c 1.57,0 2.75,1.18 2.75,2.15 0,0.72 -0.58,1.3 -1.55,1.41 1.04,0.19 2.09,0.93 2.09,1.87 0,0.74 -0.66,1.38 -1.86,1.38 l -0.14,-0.31 c 0.88,0 1.09,-0.59 1.09,-1.03 0,-0.87 -0.86,-1.82 -2.07,-1.82 l -1.46,0 -0.06,-0.22 1.89,0 c 0.95,0 1.14,-0.74 1.14,-1.17 0,-0.98 -0.88,-1.95 -2.06,-1.95 l -1.35,0 c -0.14,0 -0.16,0 -0.22,0.01 -0.1,0.01 -0.13,0.02 -0.13,0.1 0,0.03 0,0.05 0.05,0.23 l 0.68,2.78 0.06,0.22 0.62,2.47 c 0.09,0.35 0.11,0.38 0.54,0.38 l 1.28,0 0.14,0.31 -3.34,0 c -0.19,0 -0.29,0 -0.29,-0.2 0,-0.11 0.09,-0.11 0.28,-0.11 0.02,0 0.2,0 0.37,-0.02 0.18,-0.02 0.27,-0.03 0.27,-0.16 0,-0.04 -0.01,-0.07 -0.04,-0.19 z"
         id="path4897" /></g>    <g
       style="font-style:normal;font-variant:normal;font-weight:normal;font-stretch:normal;letter-spacing:normal;word-spacing:normal;text-anchor:start;fill:none;fill-opacity:1;fill-rule:evenodd;stroke:#000000;stroke-linecap:butt;stroke-linejoin:miter;stroke-miterlimit:10.43299961;stroke-dasharray:none;stroke-dashoffset:0;stroke-opacity:1"
       ns0:preamble="/home/ngarcia/.config/inkscape/preamble.tex"
       ns0:text="$\\ket{\\daw\\Uaw}$"
       word-spacing="normal"
       letter-spacing="normal"
       font-size-adjust="none"
       font-stretch="normal"
       font-weight="normal"
       font-variant="normal"
       font-style="normal"
       stroke-miterlimit="10.433"
       xml:space="preserve"
       transform="matrix(3,0,0,-3,2074.4271,2660.5496)"
       id="g5278"><path
         style="fill:#000000;stroke-width:0"
         inkscape:connector-curvature="0"
         id="path5280"
         d="m 225.02,714.24 0,0.03 0,0.03 0,0.04 -0.01,0.01 0,0.02 0,0.01 0,0.02 0,0.01 0,0.02 -0.01,0.01 0,0.02 0,0.01 -0.01,0.01 0,0.01 -0.01,0.02 0,0.01 -0.01,0.01 -0.01,0.01 -0.01,0.01 -0.01,0.01 -0.01,0 -0.01,0.01 0,0 -0.01,0.01 -0.01,0 0,0 -0.01,0 -0.01,0.01 0,0 -0.01,0 -0.01,0 -0.01,0 -0.01,0 0,0 -0.01,0 -0.01,0 c -0.2,0 -0.2,-0.18 -0.2,-0.35 l 0,-9.25 c 0,-0.18 0,-0.36 0.2,-0.36 0.2,0 0.2,0.18 0.2,0.36 z" /><path
         style="fill:#000000;stroke-width:0"
         inkscape:connector-curvature="0"
         id="path5282"
         d="m 231.66,713.68 0,0.03 0,0.03 0,0.04 -0.01,0.01 0,0.02 0,0.02 0,0.01 0,0.02 0,0.01 -0.01,0.01 0,0.02 0,0.01 -0.01,0.01 0,0.02 -0.01,0.01 0,0.01 -0.01,0.01 -0.01,0.01 -0.01,0.01 -0.01,0.01 -0.01,0.01 -0.01,0 0,0.01 -0.01,0 -0.01,0 0,0 -0.01,0.01 -0.01,0 0,0 -0.01,0 -0.01,0 -0.01,0 -0.01,0.01 0,0 -0.01,0 -0.01,0 c -0.2,0 -0.2,-0.18 -0.2,-0.36 l 0,-7.1 c -0.24,0.37 -0.52,0.65 -0.77,0.84 -0.61,0.46 -1.21,0.56 -1.23,0.56 -0.12,0 -0.12,-0.11 -0.12,-0.19 0,-0.16 0.01,-0.17 0.23,-0.24 0.67,-0.19 1.06,-0.55 1.29,-0.8 0.51,-0.54 0.63,-1.14 0.69,-1.45 0.01,-0.05 0.04,-0.1 0.11,-0.1 0.09,0 0.1,0.07 0.12,0.16 0.22,1.12 0.93,1.9 2.03,2.21 0.15,0.05 0.17,0.05 0.17,0.22 0,0.08 0,0.19 -0.12,0.19 -0.03,0 -0.62,-0.11 -1.19,-0.52 -0.32,-0.25 -0.59,-0.55 -0.81,-0.88 z" /><path
         style="fill:#000000;stroke-width:0"
         inkscape:connector-curvature="0"
         id="path5284"
         d="m 238.15,711.41 0.04,-0.04 0.03,-0.03 0.03,-0.03 0.04,-0.03 0.03,-0.02 0.03,-0.03 0.02,-0.02 0.03,-0.03 0.03,-0.02 0.02,-0.02 0.03,-0.02 0.02,-0.02 0.02,-0.02 0.02,-0.01 0.02,-0.02 0.02,-0.02 0.02,-0.01 0.02,-0.01 0.02,-0.02 0.01,-0.01 0.02,-0.01 0.02,-0.02 0.03,-0.02 0.03,-0.02 0.03,-0.02 0.06,-0.04 c 0.33,-0.23 0.71,-0.44 0.77,-0.44 0.11,0 0.11,0.11 0.11,0.2 0,0.14 0,0.16 -0.12,0.22 -1.6,0.82 -2.2,2.06 -2.51,3.12 -0.01,0.06 -0.06,0.08 -0.1,0.08 -0.08,0 -0.1,-0.07 -0.11,-0.11 -0.35,-1.2 -1.03,-2.33 -2.54,-3.11 -0.08,-0.04 -0.08,-0.09 -0.08,-0.2 0,-0.09 0,-0.2 0.11,-0.2 0.06,0 0.45,0.22 0.76,0.43 0.21,0.15 0.35,0.26 0.69,0.57 l 0,-5.86 c 0,-0.18 0,-0.36 0.2,-0.36 0.2,0 0.2,0.18 0.2,0.36 l 0,6.31 c 0.39,0.46 0.66,1.01 0.77,1.26 0.12,-0.27 0.39,-0.81 0.76,-1.26 l 0,-6.31 c 0,-0.17 0,-0.36 0.2,-0.36 0.2,0 0.2,0.18 0.2,0.36 z" /><path
         style="fill:#000000;stroke-width:0"
         inkscape:connector-curvature="0"
         id="path5286"
         d="m 242.76,709.44 0,0.01 0,0 0,0.01 0.01,0.01 0,0 0,0 0,0.01 0,0 0.01,0.01 0,0 0,0.01 0,0 0,0.01 0.01,0.01 0,0 0,0.01 0,0.01 0,0 0.01,0.01 0,0 0,0.01 0,0 0,0.01 0,0 0,0 0,0.01 0,0 0.01,0 0,0.01 0,0 0,0.01 0,0 0,0.01 0,0 c 0,0.03 0,0.05 -0.05,0.17 l -1.75,4.58 c -0.06,0.17 -0.12,0.23 -0.22,0.23 -0.11,0 -0.2,-0.08 -0.2,-0.19 0,-0.04 0,-0.06 0.04,-0.16 l 1.77,-4.63 -1.77,-4.6 c -0.04,-0.11 -0.04,-0.13 -0.04,-0.18 0,-0.11 0.09,-0.2 0.2,-0.2 0.12,0 0.16,0.1 0.2,0.2 z" /></g>    <g
       id="g5461"
       transform="matrix(3,0,0,-3,2074.4271,2530.7742)"
       xml:space="preserve"
       stroke-miterlimit="10.433"
       font-style="normal"
       font-variant="normal"
       font-weight="normal"
       font-stretch="normal"
       font-size-adjust="none"
       letter-spacing="normal"
       word-spacing="normal"
       ns0:text="$\\ket{\\daw\\Daw}$"
       ns0:preamble="/home/ngarcia/.config/inkscape/preamble.tex"
       style="font-style:normal;font-variant:normal;font-weight:normal;font-stretch:normal;letter-spacing:normal;word-spacing:normal;text-anchor:start;fill:none;fill-opacity:1;fill-rule:evenodd;stroke:#000000;stroke-linecap:butt;stroke-linejoin:miter;stroke-miterlimit:10.43299961;stroke-dasharray:none;stroke-dashoffset:0;stroke-opacity:1"><path
         style="fill:#000000;stroke-width:0"
         inkscape:connector-curvature="0"
         d="m 225.02,714.24 0,0.03 0,0.03 0,0.04 -0.01,0.01 0,0.02 0,0.01 0,0.02 0,0.01 0,0.02 -0.01,0.01 0,0.02 0,0.01 -0.01,0.01 0,0.01 -0.01,0.02 0,0.01 -0.01,0.01 -0.01,0.01 -0.01,0.01 -0.01,0.01 -0.01,0 -0.01,0.01 0,0 -0.01,0.01 -0.01,0 0,0 -0.01,0 -0.01,0.01 0,0 -0.01,0 -0.01,0 -0.01,0 -0.01,0 0,0 -0.01,0 -0.01,0 c -0.2,0 -0.2,-0.18 -0.2,-0.35 l 0,-9.25 c 0,-0.18 0,-0.36 0.2,-0.36 0.2,0 0.2,0.18 0.2,0.36 z"
         id="path5463" /><path
         style="fill:#000000;stroke-width:0"
         inkscape:connector-curvature="0"
         d="m 231.66,713.68 0,0.03 0,0.03 0,0.04 -0.01,0.01 0,0.02 0,0.02 0,0.01 0,0.02 0,0.01 -0.01,0.01 0,0.02 0,0.01 -0.01,0.01 0,0.02 -0.01,0.01 0,0.01 -0.01,0.01 -0.01,0.01 -0.01,0.01 -0.01,0.01 -0.01,0.01 -0.01,0 0,0.01 -0.01,0 -0.01,0 0,0 -0.01,0.01 -0.01,0 0,0 -0.01,0 -0.01,0 -0.01,0 -0.01,0.01 0,0 -0.01,0 -0.01,0 c -0.2,0 -0.2,-0.18 -0.2,-0.36 l 0,-7.1 c -0.24,0.37 -0.52,0.65 -0.77,0.84 -0.61,0.46 -1.21,0.56 -1.23,0.56 -0.12,0 -0.12,-0.11 -0.12,-0.19 0,-0.16 0.01,-0.17 0.23,-0.24 0.67,-0.19 1.06,-0.55 1.29,-0.8 0.51,-0.54 0.63,-1.14 0.69,-1.45 0.01,-0.05 0.04,-0.1 0.11,-0.1 0.09,0 0.1,0.07 0.12,0.16 0.22,1.12 0.93,1.9 2.03,2.21 0.15,0.05 0.17,0.05 0.17,0.22 0,0.08 0,0.19 -0.12,0.19 -0.03,0 -0.62,-0.11 -1.19,-0.52 -0.32,-0.25 -0.59,-0.55 -0.81,-0.88 z"
         id="path5465" /><path
         style="fill:#000000;stroke-width:0"
         inkscape:connector-curvature="0"
         d="m 238.15,713.68 0,0.03 0,0.03 0,0.04 0,0.01 0,0.02 0,0.02 0,0.01 -0.01,0.02 0,0.01 0,0.01 0,0.02 -0.01,0.01 0,0.01 -0.01,0.02 0,0.01 -0.01,0.01 -0.01,0.01 0,0.01 -0.01,0.01 -0.01,0.01 -0.01,0.01 -0.01,0 -0.01,0.01 -0.01,0 0,0 -0.01,0 0,0.01 -0.01,0 -0.01,0 -0.01,0 0,0 -0.01,0 -0.01,0.01 -0.01,0 -0.01,0 -0.01,0 c -0.2,0 -0.2,-0.19 -0.2,-0.36 l 0,-6.32 c -0.38,-0.46 -0.65,-1.01 -0.76,-1.25 -0.12,0.27 -0.39,0.8 -0.77,1.25 l 0,6.32 c 0,0.18 0,0.36 -0.2,0.36 -0.2,0 -0.2,-0.18 -0.2,-0.36 l 0,-5.86 c -0.39,0.36 -0.53,0.45 -0.69,0.56 -0.33,0.23 -0.7,0.44 -0.76,0.44 -0.11,0 -0.11,-0.11 -0.11,-0.2 0,-0.14 0,-0.16 0.12,-0.22 1.54,-0.8 2.19,-2 2.51,-3.12 0.01,-0.06 0.06,-0.08 0.1,-0.08 0.08,0 0.1,0.07 0.11,0.11 0.37,1.3 1.11,2.37 2.54,3.11 0.08,0.04 0.08,0.09 0.08,0.2 0,0.09 0,0.2 -0.11,0.2 -0.06,0 -0.46,-0.22 -0.77,-0.43 -0.21,-0.15 -0.35,-0.26 -0.69,-0.57 z"
         id="path5467" /><path
         style="fill:#000000;stroke-width:0"
         inkscape:connector-curvature="0"
         d="m 242.76,709.44 0,0.01 0,0 0,0.01 0.01,0.01 0,0 0,0 0,0.01 0,0 0.01,0.01 0,0 0,0.01 0,0 0,0.01 0.01,0.01 0,0 0,0.01 0,0.01 0,0 0.01,0.01 0,0 0,0.01 0,0 0,0.01 0,0 0,0 0,0.01 0,0 0.01,0 0,0.01 0,0 0,0.01 0,0 0,0.01 0,0 c 0,0.03 0,0.05 -0.05,0.17 l -1.75,4.58 c -0.06,0.17 -0.12,0.23 -0.22,0.23 -0.11,0 -0.2,-0.08 -0.2,-0.19 0,-0.04 0,-0.06 0.04,-0.16 l 1.77,-4.63 -1.77,-4.6 c -0.04,-0.11 -0.04,-0.13 -0.04,-0.18 0,-0.11 0.09,-0.2 0.2,-0.2 0.12,0 0.16,0.1 0.2,0.2 z"
         id="path5469" /></g>    <path
       style="fill:none;fill-rule:evenodd;stroke:#000000;stroke-width:3;stroke-linecap:butt;stroke-linejoin:miter;stroke-miterlimit:4;stroke-dasharray:none;stroke-opacity:1"
       d="M 2165.3182,-64.511531 2802.7026,1.4884701"
       id="path7421"
       inkscape:connector-curvature="0" />
    <path
       inkscape:connector-curvature="0"
       id="path7419"
       d="m 2165.3182,-100.9137 637.3844,-66"
       style="fill:none;fill-rule:evenodd;stroke:#000000;stroke-width:3;stroke-linecap:butt;stroke-linejoin:miter;stroke-miterlimit:4;stroke-dasharray:none;stroke-opacity:1" />
    <g
       style="font-style:normal;font-variant:normal;font-weight:normal;font-stretch:normal;letter-spacing:normal;word-spacing:normal;text-anchor:start;fill:none;fill-opacity:1;fill-rule:evenodd;stroke:#000000;stroke-linecap:butt;stroke-linejoin:miter;stroke-miterlimit:10.43299961;stroke-dasharray:none;stroke-dashoffset:0;stroke-opacity:1"
       ns0:preamble="/home/ngarcia/.config/inkscape/preamble.tex"
       ns0:text="$\\ket{\\uaw\\Daw}$"
       word-spacing="normal"
       letter-spacing="normal"
       font-size-adjust="none"
       font-stretch="normal"
       font-weight="normal"
       font-variant="normal"
       font-style="normal"
       stroke-miterlimit="10.433"
       xml:space="preserve"
       transform="matrix(3,0,0,-3,2074.4271,2146.7505)"
       id="g5642"><path
         id="path5644"
         d="m 225.02,714.24 0,0.03 0,0.03 0,0.04 -0.01,0.01 0,0.02 0,0.01 0,0.02 0,0.01 0,0.02 -0.01,0.01 0,0.02 0,0.01 -0.01,0.01 0,0.01 -0.01,0.02 0,0.01 -0.01,0.01 -0.01,0.01 -0.01,0.01 -0.01,0.01 -0.01,0 -0.01,0.01 0,0 -0.01,0.01 -0.01,0 0,0 -0.01,0 -0.01,0.01 0,0 -0.01,0 -0.01,0 -0.01,0 -0.01,0 0,0 -0.01,0 -0.01,0 c -0.2,0 -0.2,-0.18 -0.2,-0.35 l 0,-9.25 c 0,-0.18 0,-0.36 0.2,-0.36 0.2,0 0.2,0.18 0.2,0.36 z"
         inkscape:connector-curvature="0"
         style="fill:#000000;stroke-width:0" /><path
         id="path5646"
         d="m 231.66,712.65 0.04,-0.07 0.05,-0.07 0.05,-0.06 0.04,-0.06 0.05,-0.06 0.05,-0.06 0.05,-0.06 0.05,-0.05 0.05,-0.05 0.05,-0.05 0.04,-0.05 0.05,-0.05 0.05,-0.04 0.05,-0.04 0.05,-0.04 0.05,-0.04 c 0.6,-0.45 1.21,-0.55 1.23,-0.55 0.12,0 0.12,0.11 0.12,0.19 0,0.16 -0.01,0.17 -0.23,0.23 -0.68,0.19 -1.07,0.55 -1.29,0.8 -0.51,0.55 -0.63,1.15 -0.69,1.47 -0.01,0.05 -0.05,0.09 -0.11,0.09 -0.09,0 -0.1,-0.06 -0.12,-0.18 -0.23,-1.11 -0.94,-1.89 -2.03,-2.19 -0.15,-0.05 -0.17,-0.05 -0.17,-0.22 0,-0.08 0,-0.19 0.12,-0.19 0.03,0 0.61,0.11 1.18,0.52 0.33,0.24 0.6,0.54 0.82,0.88 l 0,-7.1 c 0,-0.18 0,-0.36 0.2,-0.36 0.2,0 0.2,0.18 0.2,0.36 z"
         inkscape:connector-curvature="0"
         style="fill:#000000;stroke-width:0" /><path
         id="path5648"
         d="m 238.15,713.68 0,0.03 0,0.03 0,0.04 0,0.01 0,0.02 0,0.02 0,0.01 -0.01,0.02 0,0.01 0,0.01 0,0.02 -0.01,0.01 0,0.01 -0.01,0.02 0,0.01 -0.01,0.01 -0.01,0.01 0,0.01 -0.01,0.01 -0.01,0.01 -0.01,0.01 -0.01,0 -0.01,0.01 -0.01,0 0,0 -0.01,0 0,0.01 -0.01,0 -0.01,0 -0.01,0 0,0 -0.01,0 -0.01,0.01 -0.01,0 -0.01,0 -0.01,0 c -0.2,0 -0.2,-0.19 -0.2,-0.36 l 0,-6.32 c -0.38,-0.46 -0.65,-1.01 -0.76,-1.25 -0.12,0.27 -0.39,0.8 -0.77,1.25 l 0,6.32 c 0,0.18 0,0.36 -0.2,0.36 -0.2,0 -0.2,-0.18 -0.2,-0.36 l 0,-5.86 c -0.39,0.36 -0.53,0.45 -0.69,0.56 -0.33,0.23 -0.7,0.44 -0.76,0.44 -0.11,0 -0.11,-0.11 -0.11,-0.2 0,-0.14 0,-0.16 0.12,-0.22 1.54,-0.8 2.19,-2 2.51,-3.12 0.01,-0.06 0.06,-0.08 0.1,-0.08 0.08,0 0.1,0.07 0.11,0.11 0.37,1.3 1.11,2.37 2.54,3.11 0.08,0.04 0.08,0.09 0.08,0.2 0,0.09 0,0.2 -0.11,0.2 -0.06,0 -0.46,-0.22 -0.77,-0.43 -0.21,-0.15 -0.35,-0.26 -0.69,-0.57 z"
         inkscape:connector-curvature="0"
         style="fill:#000000;stroke-width:0" /><path
         id="path5650"
         d="m 242.76,709.44 0,0.01 0,0 0,0.01 0.01,0.01 0,0 0,0 0,0.01 0,0 0.01,0.01 0,0 0,0.01 0,0 0,0.01 0.01,0.01 0,0 0,0.01 0,0.01 0,0 0.01,0.01 0,0 0,0.01 0,0 0,0.01 0,0 0,0 0,0.01 0,0 0.01,0 0,0.01 0,0 0,0.01 0,0 0,0.01 0,0 c 0,0.03 0,0.05 -0.05,0.17 l -1.75,4.58 c -0.06,0.17 -0.12,0.23 -0.22,0.23 -0.11,0 -0.2,-0.08 -0.2,-0.19 0,-0.04 0,-0.06 0.04,-0.16 l 1.77,-4.63 -1.77,-4.6 c -0.04,-0.11 -0.04,-0.13 -0.04,-0.18 0,-0.11 0.09,-0.2 0.2,-0.2 0.12,0 0.16,0.1 0.2,0.2 z"
         inkscape:connector-curvature="0"
         style="fill:#000000;stroke-width:0" /></g>    <g
       id="g5809"
       transform="matrix(3,0,0,-3,2074.4271,1945.4843)"
       xml:space="preserve"
       stroke-miterlimit="10.433"
       font-style="normal"
       font-variant="normal"
       font-weight="normal"
       font-stretch="normal"
       font-size-adjust="none"
       letter-spacing="normal"
       word-spacing="normal"
       ns0:text="$\\ket{\\uaw\\Uaw}$"
       ns0:preamble="/home/ngarcia/.config/inkscape/preamble.tex"
       style="font-style:normal;font-variant:normal;font-weight:normal;font-stretch:normal;letter-spacing:normal;word-spacing:normal;text-anchor:start;fill:none;fill-opacity:1;fill-rule:evenodd;stroke:#000000;stroke-linecap:butt;stroke-linejoin:miter;stroke-miterlimit:10.43299961;stroke-dasharray:none;stroke-dashoffset:0;stroke-opacity:1"><path
         style="fill:#000000;stroke-width:0"
         inkscape:connector-curvature="0"
         d="m 225.02,714.24 0,0.03 0,0.03 0,0.04 -0.01,0.01 0,0.02 0,0.01 0,0.02 0,0.01 0,0.02 -0.01,0.01 0,0.02 0,0.01 -0.01,0.01 0,0.01 -0.01,0.02 0,0.01 -0.01,0.01 -0.01,0.01 -0.01,0.01 -0.01,0.01 -0.01,0 -0.01,0.01 0,0 -0.01,0.01 -0.01,0 0,0 -0.01,0 -0.01,0.01 0,0 -0.01,0 -0.01,0 -0.01,0 -0.01,0 0,0 -0.01,0 -0.01,0 c -0.2,0 -0.2,-0.18 -0.2,-0.35 l 0,-9.25 c 0,-0.18 0,-0.36 0.2,-0.36 0.2,0 0.2,0.18 0.2,0.36 z"
         id="path5811" /><path
         style="fill:#000000;stroke-width:0"
         inkscape:connector-curvature="0"
         d="m 231.66,712.65 0.04,-0.07 0.05,-0.07 0.05,-0.06 0.04,-0.06 0.05,-0.06 0.05,-0.06 0.05,-0.06 0.05,-0.05 0.05,-0.05 0.05,-0.05 0.04,-0.05 0.05,-0.05 0.05,-0.04 0.05,-0.04 0.05,-0.04 0.05,-0.04 c 0.6,-0.45 1.21,-0.55 1.23,-0.55 0.12,0 0.12,0.11 0.12,0.19 0,0.16 -0.01,0.17 -0.23,0.23 -0.68,0.19 -1.07,0.55 -1.29,0.8 -0.51,0.55 -0.63,1.15 -0.69,1.47 -0.01,0.05 -0.05,0.09 -0.11,0.09 -0.09,0 -0.1,-0.06 -0.12,-0.18 -0.23,-1.11 -0.94,-1.89 -2.03,-2.19 -0.15,-0.05 -0.17,-0.05 -0.17,-0.22 0,-0.08 0,-0.19 0.12,-0.19 0.03,0 0.61,0.11 1.18,0.52 0.33,0.24 0.6,0.54 0.82,0.88 l 0,-7.1 c 0,-0.18 0,-0.36 0.2,-0.36 0.2,0 0.2,0.18 0.2,0.36 z"
         id="path5813" /><path
         style="fill:#000000;stroke-width:0"
         inkscape:connector-curvature="0"
         d="m 238.15,711.41 0.04,-0.04 0.03,-0.03 0.03,-0.03 0.04,-0.03 0.03,-0.02 0.03,-0.03 0.02,-0.02 0.03,-0.03 0.03,-0.02 0.02,-0.02 0.03,-0.02 0.02,-0.02 0.02,-0.02 0.02,-0.01 0.02,-0.02 0.02,-0.02 0.02,-0.01 0.02,-0.01 0.02,-0.02 0.01,-0.01 0.02,-0.01 0.02,-0.02 0.03,-0.02 0.03,-0.02 0.03,-0.02 0.06,-0.04 c 0.33,-0.23 0.71,-0.44 0.77,-0.44 0.11,0 0.11,0.11 0.11,0.2 0,0.14 0,0.16 -0.12,0.22 -1.6,0.82 -2.2,2.06 -2.51,3.12 -0.01,0.06 -0.06,0.08 -0.1,0.08 -0.08,0 -0.1,-0.07 -0.11,-0.11 -0.35,-1.2 -1.03,-2.33 -2.54,-3.11 -0.08,-0.04 -0.08,-0.09 -0.08,-0.2 0,-0.09 0,-0.2 0.11,-0.2 0.06,0 0.45,0.22 0.76,0.43 0.21,0.15 0.35,0.26 0.69,0.57 l 0,-5.86 c 0,-0.18 0,-0.36 0.2,-0.36 0.2,0 0.2,0.18 0.2,0.36 l 0,6.31 c 0.39,0.46 0.66,1.01 0.77,1.26 0.12,-0.27 0.39,-0.81 0.76,-1.26 l 0,-6.31 c 0,-0.17 0,-0.36 0.2,-0.36 0.2,0 0.2,0.18 0.2,0.36 z"
         id="path5815" /><path
         style="fill:#000000;stroke-width:0"
         inkscape:connector-curvature="0"
         d="m 242.76,709.44 0,0.01 0,0 0,0.01 0.01,0.01 0,0 0,0 0,0.01 0,0 0.01,0.01 0,0 0,0.01 0,0 0,0.01 0.01,0.01 0,0 0,0.01 0,0.01 0,0 0.01,0.01 0,0 0,0.01 0,0 0,0.01 0,0 0,0 0,0.01 0,0 0.01,0 0,0.01 0,0 0,0.01 0,0 0,0.01 0,0 c 0,0.03 0,0.05 -0.05,0.17 l -1.75,4.58 c -0.06,0.17 -0.12,0.23 -0.22,0.23 -0.11,0 -0.2,-0.08 -0.2,-0.19 0,-0.04 0,-0.06 0.04,-0.16 l 1.77,-4.63 -1.77,-4.6 c -0.04,-0.11 -0.04,-0.13 -0.04,-0.18 0,-0.11 0.09,-0.2 0.2,-0.2 0.12,0 0.16,0.1 0.2,0.2 z"
         id="path5817" /></g>    <path
       inkscape:connector-curvature="0"
       id="path4274"
       d="m 2227.9751,466.8318 0,-549.54443"
       style="fill:none;fill-rule:evenodd;stroke:#000000;stroke-width:3.00000036;stroke-linecap:butt;stroke-linejoin:miter;stroke-opacity:1;stroke-miterlimit:4;stroke-dasharray:none;marker-end:url(#marker4643);marker-start:url(#marker4747)" />
    <rect
       style="opacity:1;fill:#ffffff;fill-opacity:1;stroke:none;stroke-width:3;stroke-linecap:round;stroke-miterlimit:4;stroke-dasharray:none;stroke-dashoffset:0;stroke-opacity:1;filter:url(#filter4910)"
       id="rect4900"
       width="275.5"
       height="61"
       x="2238.4751"
       y="161.55959" />
    <g
       id="g5012"
       transform="matrix(5,0,0,-5,1120.6001,3740.1096)"
       xml:space="preserve"
       stroke-miterlimit="10.433"
       font-style="normal"
       font-variant="normal"
       font-weight="normal"
       font-stretch="normal"
       font-size-adjust="none"
       letter-spacing="normal"
       word-spacing="normal"
       ns0:text="$\\sim 115\\si{\\micro\\eV/\\tesla}$"
       ns0:preamble="/home/ngarcia/.config/inkscape/preamble.tex"
       style="font-style:normal;font-variant:normal;font-weight:normal;font-stretch:normal;letter-spacing:normal;word-spacing:normal;text-anchor:start;fill:none;fill-opacity:1;fill-rule:evenodd;stroke:#000000;stroke-linecap:butt;stroke-linejoin:miter;stroke-miterlimit:10.43299961;stroke-dasharray:none;stroke-dashoffset:0;stroke-opacity:1"><path
         style="fill:#000000;stroke-width:0"
         inkscape:connector-curvature="0"
         d="m 230.63,710.45 0,0.02 0,0.02 -0.01,0.02 0,0.02 0,0.01 0,0.02 0,0.02 0,0.01 -0.01,0.02 0,0.01 0,0.01 -0.01,0.02 0,0.01 -0.01,0.01 0,0.01 0,0.01 -0.01,0.01 0,0.01 -0.01,0.01 0,0.01 -0.01,0 -0.01,0.01 0,0 -0.01,0.01 0,0 -0.01,0.01 -0.01,0 -0.01,0 0,0.01 -0.01,0 -0.01,0 0,0 c -0.05,0 -0.13,-0.07 -0.14,-0.26 -0.04,-0.96 -0.7,-1.5 -1.4,-1.5 -0.63,0 -1.1,0.42 -1.59,0.85 -0.51,0.46 -1.03,0.92 -1.71,0.92 -1.08,0 -1.67,-1.1 -1.67,-2 0,-0.32 0.13,-0.32 0.14,-0.32 0.11,0 0.14,0.2 0.14,0.23 0.04,1.09 0.79,1.53 1.39,1.53 0.63,0 1.11,-0.43 1.6,-0.86 0.51,-0.45 1.02,-0.91 1.7,-0.91 1.09,0 1.68,1.09 1.68,2 z"
         id="path5014" /><path
         style="fill:#000000;stroke-width:0"
         inkscape:connector-curvature="0"
         d="m 236.88,713.5 0,0.01 0,0.01 0,0.01 0,0.01 0,0.01 0,0.01 0,0.01 0,0.01 0,0.01 0,0.01 0,0 0,0.01 0,0.01 -0.01,0.01 0,0 0,0.01 0,0.01 0,0 0,0.01 0,0.02 -0.01,0.01 0,0.01 0,0 -0.01,0.01 0,0.01 -0.01,0 0,0.01 -0.01,0 -0.01,0.01 -0.01,0 0,0 -0.01,0.01 0,0 -0.01,0 0,0 -0.01,0 -0.01,0 0,0 -0.01,0 -0.01,0 0,0.01 -0.01,0 -0.01,0 -0.01,0 -0.01,0 0,0 -0.01,0 -0.01,0 -0.01,0 -0.01,0 -0.01,0 -0.01,0 c -0.62,-0.64 -1.5,-0.64 -1.82,-0.64 l 0,-0.31 c 0.2,0 0.79,0 1.31,0.26 l 0,-5.16 c 0,-0.36 -0.03,-0.48 -0.93,-0.48 l -0.32,0 0,-0.31 c 0.35,0.03 1.22,0.03 1.62,0.03 0.4,0 1.26,0 1.61,-0.03 l 0,0.31 -0.32,0 c -0.89,0 -0.92,0.11 -0.92,0.48 z"
         id="path5016" /><path
         style="fill:#000000;stroke-width:0"
         inkscape:connector-curvature="0"
         d="m 241.86,713.5 0,0.01 0,0.01 0,0.01 0,0.01 0,0.01 0,0.01 0,0.01 0,0.01 0,0.01 0,0.01 0,0 0,0.01 0,0.01 -0.01,0.01 0,0 0,0.01 0,0.01 0,0 0,0.01 0,0.02 -0.01,0.01 0,0.01 0,0 -0.01,0.01 0,0.01 -0.01,0 0,0.01 -0.01,0 -0.01,0.01 -0.01,0 0,0 -0.01,0.01 0,0 -0.01,0 0,0 -0.01,0 -0.01,0 0,0 -0.01,0 -0.01,0 0,0.01 -0.01,0 -0.01,0 -0.01,0 -0.01,0 0,0 -0.01,0 -0.01,0 -0.01,0 -0.01,0 -0.01,0 -0.01,0 c -0.62,-0.64 -1.5,-0.64 -1.82,-0.64 l 0,-0.31 c 0.2,0 0.79,0 1.31,0.26 l 0,-5.16 c 0,-0.36 -0.03,-0.48 -0.93,-0.48 l -0.32,0 0,-0.31 c 0.35,0.03 1.22,0.03 1.62,0.03 0.4,0 1.26,0 1.61,-0.03 l 0,0.31 -0.32,0 c -0.89,0 -0.92,0.11 -0.92,0.48 z"
         id="path5018" /><path
         style="fill:#000000;stroke-width:0"
         inkscape:connector-curvature="0"
         d="m 248.38,709.12 0,0.12 -0.01,0.1 -0.01,0.11 -0.02,0.11 -0.02,0.1 -0.02,0.11 -0.03,0.1 -0.03,0.1 -0.04,0.09 -0.04,0.1 -0.05,0.09 -0.04,0.09 -0.06,0.08 -0.05,0.09 -0.06,0.07 -0.06,0.08 -0.07,0.07 -0.07,0.07 -0.07,0.07 -0.07,0.06 -0.08,0.06 -0.08,0.05 -0.08,0.05 -0.08,0.04 -0.09,0.04 -0.09,0.04 -0.09,0.03 -0.09,0.02 -0.1,0.02 -0.09,0.02 -0.1,0 -0.1,0.01 c -0.48,0 -0.91,-0.16 -1.27,-0.51 l 0,1.94 c 0.2,-0.06 0.53,-0.13 0.85,-0.13 1.22,0 1.92,0.91 1.92,1.04 0,0.06 -0.03,0.11 -0.1,0.11 -0.01,0 -0.03,0 -0.08,-0.03 -0.2,-0.09 -0.69,-0.29 -1.35,-0.29 -0.4,0 -0.86,0.07 -1.33,0.28 -0.08,0.03 -0.1,0.03 -0.12,0.03 -0.1,0 -0.1,-0.08 -0.1,-0.24 l 0,-2.95 c 0,-0.18 0,-0.26 0.14,-0.26 0.07,0 0.09,0.03 0.13,0.09 0.11,0.16 0.48,0.7 1.29,0.7 0.52,0 0.77,-0.46 0.85,-0.64 0.15,-0.37 0.17,-0.76 0.17,-1.25 0,-0.35 0,-0.95 -0.23,-1.37 -0.24,-0.39 -0.61,-0.65 -1.07,-0.65 -0.73,0 -1.3,0.53 -1.47,1.12 0.03,-0.01 0.06,-0.02 0.17,-0.02 0.33,0 0.5,0.25 0.5,0.49 0,0.24 -0.17,0.49 -0.5,0.49 -0.14,0 -0.48,-0.08 -0.48,-0.53 0,-0.86 0.68,-1.83 1.8,-1.83 1.16,0 2.17,0.96 2.17,2.22 z"
         id="path5020" /><path
         style="fill:#000000;stroke-width:0"
         inkscape:connector-curvature="0"
         d="m 249.21,711.42 0,-0.31 0.17,0 c 0.31,0 0.61,-0.03 0.61,-0.49 l 0,-4.71 c 0,-0.36 -0.26,-0.4 -0.55,-0.4 l -0.23,0 0,-0.31 2.25,0 0,0.31 -0.25,0 c -0.28,0 -0.52,0.04 -0.52,0.39 l 0,1.25 c 0.24,-0.08 0.51,-0.14 0.77,-0.14 0.42,0 0.82,0.16 1.12,0.55 0.07,0.1 0.15,0.22 0.18,0.34 l 0.01,-0.88 1.44,0.11 0,0.31 -0.14,0 c -0.33,0 -0.63,0.03 -0.63,0.48 l 0,3.61 -1.48,-0.11 0,-0.31 0.15,0 c 0.33,0 0.63,-0.03 0.63,-0.5 l 0,-1.8 c 0,-0.72 -0.36,-1.56 -1.2,-1.56 -0.56,0 -0.85,0.14 -0.85,1.2 l 0,3.08 z"
         id="path5022" /><path
         style="fill:#000000;stroke-width:0"
         inkscape:connector-curvature="0"
         d="m 255.53,709.42 0.01,0.21 c 0.06,1.49 0.89,1.74 1.23,1.74 1.03,0 1.13,-1.35 1.13,-1.74 l -2.36,0 -0.01,-0.21 2.78,0 c 0.22,0 0.25,0 0.25,0.21 0,0.99 -0.54,1.96 -1.79,1.96 -1.15,0 -2.07,-1.03 -2.07,-2.28 0,-1.33 1.05,-2.3 2.19,-2.3 1.22,0 1.67,1.11 1.67,1.3 0,0.1 -0.08,0.12 -0.13,0.12 -0.09,0 -0.11,-0.06 -0.13,-0.14 -0.35,-1.03 -1.25,-1.03 -1.35,-1.03 -0.5,0 -0.89,0.3 -1.12,0.67 -0.3,0.48 -0.3,1.14 -0.3,1.49 z"
         id="path5024" /><path
         style="fill:#000000;stroke-width:0"
         inkscape:connector-curvature="0"
         d="m 265.04,712.95 0.02,0.04 0.01,0.03 0.01,0.03 0.02,0.03 0.02,0.04 0.02,0.03 0.01,0.03 0.02,0.03 0.03,0.03 0.02,0.03 0.02,0.02 0.03,0.03 0.02,0.03 0.03,0.02 0.03,0.03 0.03,0.02 0.04,0.02 0.03,0.02 0.04,0.02 0.03,0.02 0.04,0.02 0.04,0.01 0.05,0.02 0.04,0.01 0.05,0.01 0.05,0.01 0.05,0.01 0.05,0.01 0.06,0.01 0.06,0 0.06,0.01 0.06,0 0,0.31 c -0.31,-0.02 -0.71,-0.03 -0.97,-0.03 -0.3,0 -0.87,0.02 -1.13,0.03 l 0,-0.31 c 0.51,-0.01 0.72,-0.27 0.72,-0.5 0,-0.08 -0.03,-0.14 -0.05,-0.2 l -1.82,-4.8 -1.9,5.03 c -0.06,0.14 -0.06,0.16 -0.06,0.18 0,0.29 0.56,0.29 0.81,0.29 l 0,0.31 c -0.35,-0.03 -1.04,-0.03 -1.42,-0.03 -0.48,0 -0.91,0.02 -1.27,0.03 l 0,-0.31 c 0.65,0 0.84,0 0.98,-0.38 l 2.31,-6.12 c 0.07,-0.19 0.12,-0.22 0.25,-0.22 0.17,0 0.19,0.05 0.24,0.19 z"
         id="path5026" /><path
         style="fill:#000000;stroke-width:0"
         inkscape:connector-curvature="0"
         d="m 270.84,714.22 0,0 0.01,0.01 0,0 0,0.01 0,0 0,0.01 0.01,0.01 0,0.01 0,0.01 0.01,0.01 0,0.01 0,0.01 0,0 0.01,0.01 0,0.01 0,0 0,0.01 0,0 0,0.01 0.01,0.01 0,0 0,0 0,0.01 0,0 0,0.01 0,0 0,0 0,0 0,0.01 0,0 0,0 0,0 0,0 0,0 0,0.01 c 0,0.11 -0.09,0.19 -0.2,0.19 -0.07,0 -0.14,-0.02 -0.17,-0.08 l -3.45,-9.5 c -0.05,-0.13 -0.05,-0.17 -0.05,-0.18 0,-0.11 0.09,-0.2 0.19,-0.2 0.13,0 0.16,0.07 0.22,0.24 z"
         id="path5028" /><path
         style="fill:#000000;stroke-width:0"
         inkscape:connector-curvature="0"
         d="m 278.08,713.87 -6.09,0 -0.18,-2.24 0.24,0 c 0.15,1.6 0.29,1.93 1.8,1.93 0.18,0 0.44,0 0.54,-0.02 0.21,-0.04 0.21,-0.15 0.21,-0.38 l 0,-5.25 c 0,-0.34 0,-0.48 -1.05,-0.48 l -0.4,0 0,-0.31 c 0.41,0.03 1.43,0.03 1.88,0.03 0.46,0 1.49,0 1.9,-0.03 l 0,0.31 -0.4,0 c -1.05,0 -1.05,0.14 -1.05,0.48 l 0,5.25 c 0,0.2 0,0.34 0.18,0.38 0.11,0.02 0.38,0.02 0.57,0.02 1.5,0 1.65,-0.33 1.79,-1.93 l 0.25,0 z"
         id="path5030" /></g>    <rect
       y="436.3898"
       x="2636.0332"
       height="61"
       width="275.5"
       id="rect7695"
       style="opacity:1;fill:#ffffff;fill-opacity:1;stroke:none;stroke-width:3;stroke-linecap:round;stroke-miterlimit:4;stroke-dasharray:none;stroke-dashoffset:0;stroke-opacity:1;filter:url(#filter4910)" />
    <g
       style="font-style:normal;font-variant:normal;font-weight:normal;font-stretch:normal;letter-spacing:normal;word-spacing:normal;text-anchor:start;fill:none;fill-opacity:1;fill-rule:evenodd;stroke:#000000;stroke-linecap:butt;stroke-linejoin:miter;stroke-miterlimit:10.43299961;stroke-dasharray:none;stroke-dashoffset:0;stroke-opacity:1"
       ns0:preamble="/home/ngarcia/.config/inkscape/preamble.tex"
       ns0:text="$\\sim 0.004\\si{\\micro\\eV}$"
       word-spacing="normal"
       letter-spacing="normal"
       font-size-adjust="none"
       font-stretch="normal"
       font-weight="normal"
       font-variant="normal"
       font-style="normal"
       stroke-miterlimit="10.433"
       xml:space="preserve"
       transform="matrix(5,0,0,-5,1529.1332,4014.7148)"
       id="g7528"><path
         id="path7530"
         d="m 230.63,710.45 0,0.02 0,0.02 -0.01,0.02 0,0.02 0,0.01 0,0.02 0,0.02 0,0.01 -0.01,0.02 0,0.01 0,0.01 -0.01,0.02 0,0.01 -0.01,0.01 0,0.01 0,0.01 -0.01,0.01 0,0.01 -0.01,0.01 0,0.01 -0.01,0 -0.01,0.01 0,0 -0.01,0.01 0,0 -0.01,0.01 -0.01,0 -0.01,0 0,0.01 -0.01,0 -0.01,0 0,0 c -0.05,0 -0.13,-0.07 -0.14,-0.26 -0.04,-0.96 -0.7,-1.5 -1.4,-1.5 -0.63,0 -1.1,0.42 -1.59,0.85 -0.51,0.46 -1.03,0.92 -1.71,0.92 -1.08,0 -1.67,-1.1 -1.67,-2 0,-0.32 0.13,-0.32 0.14,-0.32 0.11,0 0.14,0.2 0.14,0.23 0.04,1.09 0.79,1.53 1.39,1.53 0.63,0 1.11,-0.43 1.6,-0.86 0.51,-0.45 1.02,-0.91 1.7,-0.91 1.09,0 1.68,1.09 1.68,2 z"
         inkscape:connector-curvature="0"
         style="fill:#000000;stroke-width:0" /><path
         id="path7532"
         d="m 238.53,710.31 0,0.15 0,0.15 -0.01,0.15 0,0.15 -0.01,0.15 -0.01,0.14 -0.02,0.15 -0.02,0.15 -0.02,0.15 -0.03,0.14 -0.03,0.15 -0.04,0.14 -0.04,0.14 -0.05,0.14 -0.06,0.14 -0.03,0.07 -0.03,0.07 c -0.46,0.96 -1.27,1.12 -1.69,1.12 -0.6,0 -1.33,-0.26 -1.73,-1.19 -0.32,-0.68 -0.37,-1.46 -0.37,-2.26 0,-0.75 0.04,-1.64 0.44,-2.4 0.43,-0.81 1.16,-1.01 1.65,-1.01 l 0,0.22 c -0.39,0 -0.98,0.25 -1.16,1.21 -0.11,0.6 -0.11,1.51 -0.11,2.1 0,0.64 0,1.29 0.08,1.83 0.19,1.19 0.94,1.28 1.19,1.28 0.33,0 0.98,-0.18 1.17,-1.17 0.1,-0.55 0.1,-1.31 0.1,-1.94 0,-0.75 0,-1.42 -0.11,-2.06 -0.15,-0.95 -0.71,-1.25 -1.16,-1.25 l 0,0 0,-0.22 c 0.54,0 1.29,0.21 1.73,1.16 0.32,0.69 0.37,1.46 0.37,2.25 z"
         inkscape:connector-curvature="0"
         style="fill:#000000;stroke-width:0" /><path
         id="path7534"
         d="m 240.84,707.65 0,0.03 0,0.02 -0.01,0.03 0,0.03 -0.01,0.02 0,0.03 -0.01,0.02 -0.01,0.03 -0.01,0.02 -0.01,0.02 -0.02,0.02 -0.01,0.02 -0.02,0.03 -0.01,0.02 -0.02,0.01 -0.02,0.02 -0.01,0.02 -0.02,0.02 -0.02,0.01 -0.02,0.02 -0.03,0.01 -0.02,0.01 -0.02,0.02 -0.02,0.01 -0.03,0.01 -0.02,0 -0.03,0.01 -0.02,0.01 -0.03,0 -0.02,0.01 -0.03,0 -0.03,0 c -0.29,0 -0.53,-0.24 -0.53,-0.53 0,-0.29 0.24,-0.53 0.53,-0.53 0.29,0 0.53,0.24 0.53,0.53 z"
         inkscape:connector-curvature="0"
         style="fill:#000000;stroke-width:0" /><path
         id="path7536"
         d="m 246.28,710.31 0,0.15 0,0.15 -0.01,0.15 -0.01,0.15 0,0.15 -0.02,0.14 -0.01,0.15 -0.02,0.15 -0.02,0.15 -0.03,0.14 -0.03,0.15 -0.04,0.14 -0.04,0.14 -0.05,0.14 -0.06,0.14 -0.03,0.07 -0.03,0.07 c -0.46,0.96 -1.28,1.12 -1.69,1.12 -0.6,0 -1.33,-0.26 -1.74,-1.19 -0.32,-0.68 -0.37,-1.46 -0.37,-2.26 0,-0.75 0.04,-1.64 0.45,-2.4 0.43,-0.81 1.16,-1.01 1.65,-1.01 l 0,0.22 c -0.39,0 -0.98,0.25 -1.16,1.21 -0.11,0.6 -0.11,1.51 -0.11,2.1 0,0.64 0,1.29 0.08,1.83 0.19,1.19 0.94,1.28 1.19,1.28 0.32,0 0.98,-0.18 1.17,-1.17 0.1,-0.55 0.1,-1.31 0.1,-1.94 0,-0.75 0,-1.42 -0.11,-2.06 -0.15,-0.95 -0.72,-1.25 -1.16,-1.25 l 0,0 0,-0.22 c 0.53,0 1.29,0.21 1.73,1.16 0.32,0.69 0.37,1.46 0.37,2.25 z"
         inkscape:connector-curvature="0"
         style="fill:#000000;stroke-width:0" /><path
         id="path7538"
         d="m 251.26,710.31 0,0.15 0,0.15 -0.01,0.15 -0.01,0.15 0,0.15 -0.02,0.14 -0.01,0.15 -0.02,0.15 -0.02,0.15 -0.03,0.14 -0.03,0.15 -0.04,0.14 -0.04,0.14 -0.05,0.14 -0.06,0.14 -0.03,0.07 -0.03,0.07 c -0.46,0.96 -1.28,1.12 -1.69,1.12 -0.6,0 -1.33,-0.26 -1.74,-1.19 -0.32,-0.68 -0.37,-1.46 -0.37,-2.26 0,-0.75 0.04,-1.64 0.45,-2.4 0.43,-0.81 1.16,-1.01 1.65,-1.01 l 0,0.22 c -0.39,0 -0.98,0.25 -1.16,1.21 -0.11,0.6 -0.11,1.51 -0.11,2.1 0,0.64 0,1.29 0.08,1.83 0.19,1.19 0.94,1.28 1.19,1.28 0.32,0 0.98,-0.18 1.17,-1.17 0.1,-0.55 0.1,-1.31 0.1,-1.94 0,-0.75 0,-1.42 -0.11,-2.06 -0.15,-0.95 -0.72,-1.25 -1.16,-1.25 l 0,0 0,-0.22 c 0.53,0 1.29,0.21 1.73,1.16 0.32,0.69 0.37,1.46 0.37,2.25 z"
         inkscape:connector-curvature="0"
         style="fill:#000000;stroke-width:0" /><path
         id="path7540"
         d="m 254.59,708.77 0,-0.87 c 0,-0.36 -0.02,-0.47 -0.76,-0.47 l -0.21,0 0,-0.31 c 0.41,0.03 0.93,0.03 1.35,0.03 0.42,0 0.95,0 1.36,-0.03 l 0,0.31 -0.21,0 c -0.74,0 -0.76,0.11 -0.76,0.47 l 0,0.87 1,0 0,0.31 -1,0 0,4.53 c 0,0.2 0,0.26 -0.16,0.26 -0.09,0 -0.12,0 -0.2,-0.12 l -3.06,-4.67 0.28,0 2.43,3.71 0,-3.71 -2.43,0 -0.28,0 0,-0.31 z"
         inkscape:connector-curvature="0"
         style="fill:#000000;stroke-width:0" /><path
         id="path7542"
         d="m 256.96,711.42 0,-0.31 0.17,0 c 0.31,0 0.61,-0.03 0.61,-0.49 l 0,-4.71 c 0,-0.36 -0.26,-0.4 -0.55,-0.4 l -0.23,0 0,-0.31 2.25,0 0,0.31 -0.26,0 c -0.28,0 -0.51,0.04 -0.51,0.39 l 0,1.25 c 0.23,-0.08 0.5,-0.14 0.76,-0.14 0.43,0 0.83,0.16 1.13,0.55 0.07,0.1 0.15,0.22 0.18,0.34 l 0.01,-0.88 1.44,0.11 0,0.31 -0.15,0 c -0.33,0 -0.63,0.03 -0.63,0.48 l 0,3.61 -1.47,-0.11 0,-0.31 0.15,0 c 0.33,0 0.63,-0.03 0.63,-0.5 l 0,-1.8 c 0,-0.72 -0.36,-1.56 -1.21,-1.56 -0.55,0 -0.84,0.14 -0.84,1.2 l 0,3.08 z"
         inkscape:connector-curvature="0"
         style="fill:#000000;stroke-width:0" /><path
         id="path7544"
         d="m 263.28,709.42 0.01,0.21 c 0.06,1.49 0.9,1.74 1.24,1.74 1.02,0 1.12,-1.35 1.12,-1.74 l -2.36,0 -0.01,-0.21 2.78,0 c 0.22,0 0.25,0 0.25,0.21 0,0.99 -0.54,1.96 -1.78,1.96 -1.16,0 -2.07,-1.03 -2.07,-2.28 0,-1.33 1.04,-2.3 2.19,-2.3 1.21,0 1.66,1.11 1.66,1.3 0,0.1 -0.08,0.12 -0.13,0.12 -0.09,0 -0.11,-0.06 -0.13,-0.14 -0.35,-1.03 -1.24,-1.03 -1.34,-1.03 -0.5,0 -0.9,0.3 -1.13,0.67 -0.3,0.48 -0.3,1.14 -0.3,1.49 z"
         inkscape:connector-curvature="0"
         style="fill:#000000;stroke-width:0" /><path
         id="path7546"
         d="m 272.79,712.95 0.01,0.04 0.02,0.03 0.01,0.03 0.02,0.03 0.02,0.04 0.01,0.03 0.02,0.03 0.02,0.03 0.02,0.03 0.03,0.03 0.02,0.02 0.03,0.03 0.02,0.03 0.03,0.02 0.03,0.03 0.03,0.02 0.03,0.02 0.04,0.02 0.03,0.02 0.04,0.02 0.04,0.02 0.04,0.01 0.04,0.02 0.05,0.01 0.05,0.01 0.05,0.01 0.05,0.01 0.05,0.01 0.06,0.01 0.05,0 0.06,0.01 0.07,0 0,0.31 c -0.31,-0.02 -0.71,-0.03 -0.97,-0.03 -0.3,0 -0.88,0.02 -1.14,0.03 l 0,-0.31 c 0.52,-0.01 0.73,-0.27 0.73,-0.5 0,-0.08 -0.03,-0.14 -0.05,-0.2 l -1.82,-4.8 -1.9,5.03 c -0.06,0.14 -0.06,0.16 -0.06,0.18 0,0.29 0.56,0.29 0.81,0.29 l 0,0.31 c -0.36,-0.03 -1.04,-0.03 -1.42,-0.03 -0.48,0 -0.91,0.02 -1.27,0.03 l 0,-0.31 c 0.65,0 0.84,0 0.98,-0.38 l 2.31,-6.12 c 0.07,-0.19 0.12,-0.22 0.25,-0.22 0.17,0 0.19,0.05 0.24,0.19 z"
         inkscape:connector-curvature="0"
         style="fill:#000000;stroke-width:0" /></g>    <g
       id="g4270">
      <path
         sodipodi:nodetypes="cc"
         inkscape:connector-curvature="0"
         id="path8702"
         d="m 2165.3167,448.62268 637.3844,66.66502"
         style="fill:none;fill-rule:evenodd;stroke:#000000;stroke-width:3;stroke-linecap:butt;stroke-linejoin:miter;stroke-miterlimit:4;stroke-dasharray:none;stroke-opacity:1" />
      <path
         style="fill:none;fill-rule:evenodd;stroke:#000000;stroke-width:3;stroke-linecap:butt;stroke-linejoin:miter;stroke-miterlimit:4;stroke-dasharray:none;stroke-opacity:1"
         d="M 2165.3167,485.04113 2802.7011,418.3761"
         id="path8765"
         inkscape:connector-curvature="0"
         sodipodi:nodetypes="cc" />
    </g>
    <path
       sodipodi:nodetypes="cc"
       style="fill:none;fill-rule:evenodd;stroke:#000000;stroke-width:3.00000048;stroke-linecap:butt;stroke-linejoin:miter;stroke-miterlimit:4;stroke-dasharray:none;stroke-opacity:1;marker-start:url(#marker5140);marker-end:url(#marker5150)"
       d="m 2641.21,509.77111 0,-86.21266"
       id="path5138"
       inkscape:connector-curvature="0" />
    <path
       inkscape:connector-curvature="0"
       id="path6081"
       d="m 2802.701,515.2876 -170.2259,0"
       style="fill:none;fill-rule:evenodd;stroke:#000000;stroke-width:2.00000024;stroke-linecap:butt;stroke-linejoin:miter;stroke-opacity:1;stroke-miterlimit:4;stroke-dasharray:8.00000095,8.00000095;stroke-dashoffset:0" />
    <path
       style="fill:none;fill-rule:evenodd;stroke:#000000;stroke-width:2.00000024;stroke-linecap:butt;stroke-linejoin:miter;stroke-miterlimit:4;stroke-dasharray:8.00000095, 8.00000095;stroke-dashoffset:0;stroke-opacity:1"
       d="m 2802.7011,418.3761 -170.2259,0"
       id="path6083"
       inkscape:connector-curvature="0" />
  </g>
</svg>
