<?xml version="1.0" encoding="UTF-8" standalone="no"?>
<!-- Created with Inkscape (http://www.inkscape.org/) -->

<svg
   xmlns:dc="http://purl.org/dc/elements/1.1/"
   xmlns:cc="http://creativecommons.org/ns#"
   xmlns:rdf="http://www.w3.org/1999/02/22-rdf-syntax-ns#"
   xmlns:svg="http://www.w3.org/2000/svg"
   xmlns="http://www.w3.org/2000/svg"
   xmlns:sodipodi="http://sodipodi.sourceforge.net/DTD/sodipodi-0.dtd"
   xmlns:inkscape="http://www.inkscape.org/namespaces/inkscape"
   version="1.1"
   id="svg2"
   xml:space="preserve"
   width="1755.9067"
   height="1200.3147"
   viewBox="0 0 1755.9067 1200.3147"
   sodipodi:docname="portada.svg"
   inkscape:version="0.92.3 (2405546, 2018-03-11)"><metadata
     id="metadata8"><rdf:RDF><cc:Work
         rdf:about=""><dc:format>image/svg+xml</dc:format><dc:type
           rdf:resource="http://purl.org/dc/dcmitype/StillImage" /><dc:title /></cc:Work></rdf:RDF></metadata><defs
     id="defs6"><clipPath
       clipPathUnits="userSpaceOnUse"
       id="clipPath40"><path
         d="M 6.496,6.496 H 1310.432 V 893.74 H 6.496 Z"
         id="path38"
         inkscape:connector-curvature="0" /></clipPath><clipPath
       clipPathUnits="userSpaceOnUse"
       id="clipPath162"><path
         d="M 6.496,6.496 H 1310.432 V 893.74 H 6.496 Z"
         id="path160"
         inkscape:connector-curvature="0" /></clipPath><clipPath
       clipPathUnits="userSpaceOnUse"
       id="clipPath316"><path
         d="M 0,0 H 1316.929 V 900.236 H 0 Z"
         id="path314"
         inkscape:connector-curvature="0" /></clipPath></defs><sodipodi:namedview
     pagecolor="#ffffff"
     bordercolor="#666666"
     borderopacity="1"
     objecttolerance="10"
     gridtolerance="10"
     guidetolerance="10"
     inkscape:pageopacity="0"
     inkscape:pageshadow="2"
     inkscape:window-width="3200"
     inkscape:window-height="1726"
     id="namedview4"
     showgrid="false"
     inkscape:zoom="0.55611148"
     inkscape:cx="950.82942"
     inkscape:cy="1064.3221"
     inkscape:window-x="0"
     inkscape:window-y="0"
     inkscape:window-maximized="1"
     inkscape:current-layer="g10"
     showguides="true"
     inkscape:guide-bbox="true" /><g
     id="g10"
     inkscape:groupmode="layer"
     inkscape:label="PLANTILLA PORTADA TESIS PARA DOCTORADO"
     transform="matrix(1.3333333,0,0,-1.3333333,0,1200.3147)"><path
   d="M 9.4305153,6.73441 H 1302.0285 v 212.598 H 9.4305153 Z"
   style="fill:#f36717;fill-opacity:1;fill-rule:nonzero;stroke:none"
   id="path12"
   inkscape:connector-curvature="0" />


<text
   transform="scale(0.94868328,-1.0540926)"
   style="font-variant:normal;font-weight:bold;font-stretch:normal;font-size:20.87103271px;font-family:'Libre Serif SSi';-inkscape-font-specification:LibreSerifSSiBold;writing-mode:lr-tb;fill:#ffffff;fill-opacity:1;fill-rule:nonzero;stroke:none;stroke-width:0.94868332"
   id="text24"
   x="978.21753"
   y="-123.50576"><tspan
     x="978.21753 989.04956 998.71289 1007.2283 1013.4269 1021.9423 1028.5167 1039.7454 1050.5774 1059.4685 1066.4393 1077.2715 1085.3903 1095.8467"
     y="-123.50576"
     sodipodi:role="line"
     id="tspan22"
     style="stroke-width:0.94868332">Tesis doctoral</tspan></text>




<g
   id="g1038"
   transform="translate(0,-0.5537)"><g
     transform="translate(859.8174,792.2407)"
     id="g30"><path
       inkscape:connector-curvature="0"
       id="path32"
       style="fill:#d9e1d8;fill-opacity:1;fill-rule:nonzero;stroke:none"
       d="M 0,0 42.729,0.006 42.72,-42.719 H -0.008 Z" /></g><g
     id="g34"><g
       clip-path="url(#clipPath40)"
       id="g36"><g
         transform="translate(871.8486,784.9155)"
         id="g42"><path
           inkscape:connector-curvature="0"
           id="path44"
           style="fill:#ffffff;fill-opacity:1;fill-rule:nonzero;stroke:none"
           d="m 0,0 30.687,-26.993 c 0.007,-2.13 -0.011,-4.933 0,-8.401 h -42.726 l 0.009,6.075 z" /></g><g
         transform="translate(879.5322,770.0078)"
         id="g46"><path
           inkscape:connector-curvature="0"
           id="path48"
           style="fill:#fccc2d;fill-opacity:1;fill-rule:nonzero;stroke:none"
           d="m 0,0 0.101,-0.263 c 0.174,-0.045 0.365,-0.059 0.545,-0.061 v -0.142 l 0.302,0.041 0.12,-0.365 0.161,-0.122 c 0.03,0.005 0.077,0.248 0.163,0.162 l 0.161,-0.466 c 0.152,0.067 0.794,-0.568 0.765,-0.648 l 0.162,-0.02 0.162,-0.264 0.323,-0.02 c 0.018,-0.473 0.908,-1.011 1.229,-1.378 l 0.102,-0.02 v -0.567 c -0.937,0.103 -5.623,0.13 -6.535,-0.061 l -0.02,0.061 -0.304,-0.061 -0.019,0.061 -0.061,-0.162 h -1.048 c 0.083,0.171 -0.28,0.13 -0.182,0 -0.22,0.119 -0.554,0.052 -0.786,0 l -0.021,0.162 -0.302,-0.122 -0.04,0.122 -0.141,-0.162 H -5.89 l -0.1,0.162 c -0.045,0 -0.256,-0.398 -0.222,-0.02 -0.406,-0.073 -0.82,-0.055 -1.23,-0.041 v 0.689 l 0.14,-0.061 c 0.159,0.244 0.239,0.624 0.182,0.912 h 0.141 c 0.177,0.457 0.386,0.958 0.342,1.459 l 0.143,-0.041 c 0.134,0.112 0.251,0.309 0.181,0.486 h 0.141 l 0.021,0.264 c 0.214,0.125 0.536,0.213 0.786,0.162 l 0.04,-0.162 0.081,0.223 c 0.279,-0.02 0.515,-0.302 0.685,-0.223 -0.013,0.263 0.929,0.234 1.11,0.223 l 0.019,-0.061 0.223,0.162 c 0.08,0.08 0.356,-0.147 0.141,-0.142 l 0.363,-0.182 0.081,0.162 c 0.398,0.273 0.729,0.045 1.197,0.152 l 0.028,-0.255 0.589,-0.059 0.081,0.162 0.182,-0.162 0.243,0.182 -0.061,0.081 0.14,0.122 0.062,-0.061 z" /></g><g
         transform="translate(889.5293,761.583)"
         id="g50"><path
           inkscape:connector-curvature="0"
           id="path52"
           style="fill:#f36717;fill-opacity:1;fill-rule:nonzero;stroke:none"
           d="m 0,0 c 0,0 -0.047,-0.191 0.087,-0.187 0.069,0.002 0.095,-0.114 0.188,-0.088 0.138,0.038 0.1,-0.073 0.1,-0.073 0,0 0.134,-0.024 0.067,-0.109 -0.046,-0.059 0.12,-0.132 0.12,-0.132 l 0.241,0.006 0.032,-0.138 c 0,0 0.147,-0.119 0.21,-0.282 0.063,-0.164 0.264,-0.306 0.264,-0.306 0,0 0.041,-0.04 0.104,0.041 0.064,0.08 0.089,0.064 0.089,0.064 0,0 0.09,-0.126 0.321,-0.278 C 1.893,-1.527 1.822,-1.67 2.012,-1.724 2.11,-1.752 2.282,-1.88 2.282,-1.88 L 2.167,-2.007 c 0.039,-0.058 0.226,-0.075 0.234,-0.145 0.052,-0.403 0.334,-0.232 0.334,-0.232 0,0 0.08,-0.081 -0.02,-0.238 -0.1,-0.157 -0.02,-0.224 -0.02,-0.224 0,0 -0.105,-0.255 -0.072,-0.437 0.032,-0.182 0.112,-0.341 0.112,-0.341 0,0 -0.345,0 -0.572,0.183 C 2.062,-3.359 1.93,-3.348 1.84,-3.233 1.702,-3.057 1.615,-3.166 1.615,-3.166 L 1.442,-3.315 C 1.386,-3.231 1.315,-3.128 0.793,-3.297 0.272,-3.465 0.475,-3.362 0.237,-3.384 c 0,0 -0.196,-0.043 -0.447,0.058 -0.206,0.084 -0.311,0.16 -0.311,0.16 L -0.805,-3.315 -1.141,-3.418 V -3.48 l -0.423,0.139 -0.304,-0.071 -0.13,0.125 -0.273,0.03 -0.298,-0.058 -0.093,0.123 c -0.348,-0.117 -0.199,-0.215 -0.516,-0.123 0,0 -0.146,0.083 -0.189,0 l -0.132,0.028 -0.125,0.113 -0.071,-0.167 c -0.034,0.138 -0.481,0.048 -0.787,-0.065 l -0.322,0.059 -0.255,0.078 c 0,0 -0.081,0.101 -0.19,0.018 -0.138,-0.106 -0.362,-0.048 -0.362,-0.048 l -0.327,-0.095 -0.356,0.167 c -0.103,-0.064 0.187,-0.224 -0.296,-0.036 l -0.267,0.103 c -0.185,-0.299 -0.533,-0.155 -0.533,-0.155 0,0 -2.162,0.003 -2.197,-0.004 -0.035,-0.008 -0.038,0.002 -0.039,0.004 -0.011,0.02 -0.062,0 -0.062,0 0.004,0.035 0.019,0.046 0,0.073 l -0.125,-0.073 c -0.571,-0.144 -0.699,-0.069 -1.914,0.119 -0.166,-0.154 -0.218,-0.229 -0.391,-0.117 -0.052,0.034 -0.244,0.115 -0.244,0.115 0.051,-0.123 0.025,-0.052 -0.056,-0.117 -0.025,-0.021 -0.884,0.082 -0.571,0.043 0.052,-0.007 -0.106,0.135 -0.106,0.135 l -0.079,-0.117 -0.387,-0.054 c -0.146,0.027 -0.255,-0.026 -0.444,-0.085 0,0 -0.02,0.025 -0.035,0.056 -0.006,0.016 -0.043,0.048 -0.043,0.076 0,0.028 -0.032,0.049 -0.032,0.049 l -0.214,-0.103 c 0,0 0.026,0.087 -0.047,0.077 -0.062,-0.009 -0.062,0.066 -0.062,0.066 l -0.08,-0.143 c 0,0 -0.705,-0.049 -0.972,0 -0.267,0.048 -0.415,-0.05 -0.415,-0.05 l -0.112,0.176 -0.212,-0.193 -0.326,0.067 -0.189,0.113 c -0.126,0 -0.399,-0.247 -0.476,-0.135 -0.009,0.014 -0.332,0.166 -0.528,0.048 -0.312,-0.188 -0.482,0.047 -0.596,-0.112 -0.138,-0.054 -0.849,0.172 -0.928,0.172 -0.049,0 -0.136,-0.125 -0.207,-0.087 l -0.328,0.107 c -0.109,-0.102 -0.3,-0.029 -0.3,-0.026 -0.041,0.063 -0.148,0.035 -0.148,0.035 l -0.409,0.005 c 0,0 0.146,0.192 0.17,0.413 0.014,0.123 0.055,0.389 0.055,0.389 0.07,0.109 0.043,0.184 0.064,0.264 l 0.113,0.119 c 0.011,0.088 0.011,0.315 0.011,0.315 l 0.105,0.553 0.414,0.222 c 0,0 -0.019,0.037 -0.015,0.057 0.003,0.021 -0.014,0.065 -0.025,0.104 -0.013,0.039 -0.011,0.073 -0.009,0.085 0.004,0.03 0,0.072 0,0.072 l 0.055,0.055 c 0.265,0.384 0.556,0.819 0.693,1.271 l 0.356,0.091 c 0.52,-0.121 0.492,-0.155 0.57,0 l 0.419,-0.132 c -0.058,0.028 0.276,0.134 0.293,0.144 0.045,0.025 0.112,-0.026 0.189,-0.082 l 0.735,-0.021 0.056,0.098 c 0.265,-0.006 0.47,0.09 0.761,-0.037 0.094,-0.041 0.231,-0.142 0.428,-0.092 0.088,0.023 0.328,0.086 0.504,-0.021 0.079,-0.048 0.277,-0.109 0.348,-0.09 0.071,0.019 0.397,0.059 0.534,0.031 0.113,0.015 0.503,-0.054 0.726,0.124 0.148,0.024 0.168,0.091 0.194,0.074 l 0.257,-0.068 c 0,0 0.733,-0.026 1.059,0.072 0.218,0.066 0.416,0.008 0.949,-0.007 l 0.296,-0.104 c 0.018,-0.003 0.322,-0.093 0.411,0.078 0.164,0.01 0.335,-0.032 0.42,-0.063 0.084,0.005 0.124,0.115 0.208,0.119 0.256,0.011 0.494,-0.093 0.64,-0.114 l 0.205,0.114 0.299,-0.114 0.561,0.144 0.217,-0.123 c 0.265,-0.084 0.585,-0.062 0.796,0.115 -0.034,-0.202 0.26,0.122 0.26,-0.041 0,-0.162 0.266,-0.115 0.284,-0.038 l 0.885,0.107 0.056,-0.084 0.133,0.084 h 0.609 l 0.415,0.039 0.214,0.077 0.211,-0.054 0.507,0.032 c 0.064,-0.064 1.432,0.129 1.494,0.08 C -1.431,0.98 -1.787,0.737 -1.417,0.814 -1.206,0.858 -1.312,0.656 -1.127,0.738 -1.075,0.762 -1.05,0.7 -0.979,0.612 L -0.813,0.5 -0.628,0.347 c 0,0 0.154,-0.048 0.38,-0.137 C -0.171,0.179 0.003,0.157 -0.073,0.095 -0.155,0.028 0,0 0,0" /></g><g
         transform="translate(865.0098,750.1846)"
         id="g54"><path
           inkscape:connector-curvature="0"
           id="path56"
           style="fill:#d9e1d8;fill-opacity:1;fill-rule:nonzero;stroke:none"
           d="M 0,0 0.35,0.237 C 0.39,0.353 0.323,0.333 0.345,0.427 0.44,0.612 0.691,0.915 0.766,1.179 0.89,1.635 0.909,2.043 1.315,2.285 v 0.719 c 0,0.215 0.173,0.387 0.386,0.387 h 1.321 c 0.083,0 0.11,-0.11 0.193,-0.11 0.586,0 0.902,0.276 1.487,0.276 0.082,0 0.117,-0.103 0.193,-0.11 1.087,-0.097 1.72,0.034 2.808,-0.056 0.068,0 0.089,-0.11 0.165,-0.11 0.337,0 0.488,0.276 0.826,0.276 0.144,0 0.213,-0.11 0.357,-0.11 0.207,0 0.317,0.11 0.524,0.11 0.228,0 0.351,-0.11 0.578,-0.11 0.172,0 0.268,0.055 0.441,0.055 0.068,0 0.068,0.111 0.137,0.111 0.11,0 0.11,-0.166 0.22,-0.166 0.2,0 0.318,0.124 0.442,0.276 0.171,-0.131 0.274,-0.276 0.495,-0.276 0.296,0 0.585,0.014 0.716,0.276 0.068,-0.048 0.117,-0.097 0.165,-0.166 h 0.55 c 0.118,0 0.13,0.166 0.247,0.166 0.077,0 0.09,-0.11 0.166,-0.11 0.082,0 0.118,0.083 0.192,0.11 V 3.557 h 1.928 c 0.117,0 0.158,-0.11 0.275,-0.11 0.097,0 0.124,0.11 0.221,0.11 0.075,0 0.09,-0.11 0.165,-0.11 0.096,0 0.124,0.11 0.219,0.11 h 1.323 c 0.165,0 0.248,-0.11 0.412,-0.11 0.144,0 0.214,0.11 0.358,0.11 0.104,0 0.145,-0.11 0.248,-0.11 0.096,0 0.123,0.11 0.22,0.11 0.158,0 0.228,-0.166 0.386,-0.166 0.233,0 0.316,0.222 0.55,0.222 0.22,0 0.331,-0.166 0.55,-0.166 0.117,0 0.159,0.11 0.277,0.11 0.074,0 0.089,-0.11 0.165,-0.11 0.143,0 0.213,0.11 0.357,0.11 0.261,0 0.4,-0.11 0.661,-0.11 0.185,0 0.276,0.09 0.441,0.166 1.011,-0.021 1.583,0.069 2.588,-0.056 0.088,-0.007 0.124,-0.11 0.219,-0.11 0.103,0 0.145,0.11 0.248,0.11 0.096,0 0.124,-0.11 0.22,-0.11 0.083,0 0.09,0.11 0.139,0.166 0.123,-0.063 0.185,-0.166 0.329,-0.166 0.069,0 0.069,0.11 0.139,0.11 0.165,0 0.248,-0.11 0.413,-0.11 0.185,0 0.281,0.11 0.467,0.11 0.082,0 0.111,-0.11 0.193,-0.11 0.075,0 0.09,0.11 0.166,0.11 0.095,0 0.122,-0.11 0.22,-0.11 h 0.439 c 0.124,0 0.18,0.11 0.304,0.11 0.068,0 0.068,-0.11 0.137,-0.11 0.159,0 0.227,0.11 0.385,0.11 0.076,0 0.09,-0.11 0.166,-0.11 0.096,0 0.123,0.11 0.22,0.11 h 3.47 c 0.315,-0.421 0.632,-0.885 1.155,-0.774 0.021,-0.27 0.323,-0.304 0.495,-0.498 0.2,-0.221 0.304,-0.484 0.606,-0.498 0.014,-0.38 0.2,-0.525 0.468,-0.794 0.317,-0.318 0.222,-0.42 0.694,-0.851 0,0 0.52,-0.511 0.479,-0.501 L 37.5,-0.679 -0.018,-0.687 Z" /></g><g
         transform="translate(869.6934,781.2139)"
         id="g58"><path
           inkscape:connector-curvature="0"
           id="path60"
           style="fill:#0f2533;fill-opacity:1;fill-rule:nonzero;stroke:none"
           d="m 0,0 -0.059,-0.036 z m 29.894,-22.119 c -0.053,-0.052 -0.12,-0.072 -0.208,-0.027 v 0.178 l -0.091,0.071 c -0.099,-0.031 -0.241,-0.059 -0.243,-0.058 v 0.264 l -0.053,0.045 c -0.036,-0.051 -0.096,-0.089 -0.196,-0.038 v 0.204 c -0.101,0.082 -0.208,0.166 -0.329,0.249 h -0.04 c -0.105,0.077 -0.173,0.328 -0.289,0.266 l -0.052,0.285 c -0.054,0.023 -0.133,0.04 -0.291,0.067 -0.035,-0.007 -0.062,-0.026 -0.075,-0.07 l -0.063,0.093 -0.063,0.011 -0.045,0.091 h -0.121 c -0.407,0.677 -0.422,0.235 -0.587,0.492 l 0.024,0.224 c -0.043,0.04 -0.096,0.044 -0.101,-0.02 -0.145,0.101 -0.27,0.282 -0.333,0.453 -0.14,-0.037 -0.609,0.412 -0.891,0.692 -0.035,0.014 -0.062,0.011 -0.073,-0.02 l 0.002,0.09 -0.055,0.056 c -0.043,-0.052 -0.099,-0.081 -0.144,-0.028 l -0.137,0.192 c 0.026,-0.016 0.076,0.004 0.067,0.038 l -0.286,0.039 c 0.099,0.16 -0.669,0.556 -0.318,0.544 l -0.228,0.032 0.006,0.109 c -0.06,0 -0.243,-0.051 -0.39,0.057 -0.034,0.025 0.03,0.098 0.029,0.119 l -0.04,0.197 -0.147,-0.188 c -0.122,0.306 -0.253,0.459 -0.386,0.565 l -0.056,0.041 c -0.18,0.127 -0.361,0.193 -0.526,0.459 -0.084,0.032 -0.185,0.141 -0.279,0.261 -0.093,0.006 -0.195,0.001 -0.256,0.06 -0.054,0.052 -0.439,0.534 -0.376,0.634 -0.029,0.02 -0.059,0.04 -0.088,0.057 l -0.097,-0.103 c -0.32,0.443 -0.655,0.58 -1.009,0.845 l -0.191,-0.05 c -0.056,0.036 -0.079,0.161 -0.098,0.288 l -0.133,-0.083 0.018,0.268 c -0.053,0.05 -0.125,0.144 -0.207,0.258 0.012,-0.601 -0.22,0.516 -0.646,0.43 l -0.052,0.273 -0.207,0.178 c 0.06,-0.036 -0.02,0.039 -0.105,0.118 -0.045,0.015 -0.058,0.042 -0.074,0.071 l -0.049,0.049 -0.019,-0.238 h -0.069 c -0.088,0.186 -0.083,0.426 -0.317,0.347 l -0.158,0.257 -0.079,-0.08 -0.079,0.258 0.058,-0.03 c 0.071,0.097 -0.038,0.232 -0.137,0.247 -0.36,0.056 -0.428,0.295 -0.729,0.445 l -0.112,-0.099 -0.03,0.235 c -0.224,0.011 -1.034,0.94 -1.127,0.873 l -0.016,0.052 c -0.005,0.015 -0.029,0.11 -0.06,0.103 -0.121,-0.027 -0.265,-0.046 -0.399,0.133 -0.031,0.041 -0.193,0.309 -0.099,0.34 l -0.211,-0.011 v 0.106 l -0.144,0.278 -0.074,0.05 c -0.165,-0.063 -0.513,0.303 -0.88,0.684 l 0.011,-0.116 c -0.214,0.162 -0.488,0.733 -0.741,0.697 -0.015,0.046 -0.034,0.086 -0.056,0.12 l -0.179,0.016 -0.055,0.214 -0.054,0.049 c -0.062,-0.062 -0.099,0.053 -0.122,0.155 -0.018,0.036 -0.036,0.077 -0.049,0.124 l -0.036,-0.003 v -0.107 h -0.147 v 0.069 c 0.013,0.021 0.099,0.005 -0.002,0.147 -0.122,0.175 -0.312,0.132 -0.436,-0.068 -0.115,0.122 -0.057,0.585 -0.313,0.662 -10e-4,10e-4 -0.594,0.058 -0.477,0.331 l -0.088,0.147 -0.035,0.058 -0.2,0.038 -0.052,0.277 -0.192,0.171 c 0.047,-0.039 -0.067,-0.247 -0.198,-0.07 -0.078,0.106 0.069,0.167 0.08,0.2 l -0.132,0.092 -0.018,-0.212 h -0.07 l -0.16,0.34 0.027,0.044 -0.187,-0.034 -0.139,0.226 -0.102,-0.045 -0.08,0.26 0.06,-0.03 0.01,0.072 C 10.36,-4.93 10.201,-4.81 10.036,-4.679 L 9.501,-4.488 C 9.5,-4.487 9.469,-4.344 9.463,-4.221 9.279,-4.079 9.109,-3.957 8.97,-3.887 8.929,-3.791 8.867,-3.728 8.796,-3.673 8.75,-3.681 8.705,-3.689 8.677,-3.672 8.604,-3.627 8.521,-3.471 8.516,-3.482 8.465,-3.401 8.43,-3.336 8.418,-3.25 8.389,-3.296 8.376,-3.369 8.329,-3.366 l -0.04,0.13 c -0.064,0.04 -0.135,-0.098 -0.15,-0.08 -0.113,0.13 -0.268,0.233 -0.368,0.37 -0.335,0.066 -0.36,0.704 -0.671,0.661 -0.112,0.322 -0.586,0.362 -0.621,0.693 -0.215,0.198 -0.422,0.393 -0.885,0.71 H 5.443 L 5.365,-0.569 5.266,-0.605 5.255,-0.525 5.185,-0.555 5.175,-0.234 5.044,-0.417 4.955,0.006 C 5.031,-0.459 4.204,0.215 4.204,0.317 L 4.346,0.361 C 4.265,0.379 4.187,0.354 4.162,0.341 4.094,0.305 4.011,0.359 3.962,0.411 l -0.05,0.23 H 3.871 L 3.842,0.451 C 3.693,0.409 3.692,0.729 3.681,0.882 3.68,0.902 3.689,0.93 3.703,0.959 3.681,0.98 3.66,1.003 3.641,1.026 L 3.631,0.932 3.521,0.982 C 3.405,1.079 3.392,1.302 3.391,1.442 3.24,1.188 2.938,1.944 2.688,1.814 2.67,1.834 2.569,1.946 2.497,2.044 2.066,1.4 1.722,0.154 1.355,-0.584 L 1.382,-0.958 C 0.999,-1.164 1.271,-1.428 1.072,-1.697 l -0.063,0.1 -0.132,-0.205 C 0.979,-1.891 0.425,-2.62 0.482,-2.667 l -0.188,-0.264 0.227,0.076 c -0.266,-0.759 -0.638,-1.487 -0.914,-2.23 0.103,-0.32 -0.238,-0.481 -0.21,-0.785 -0.218,-0.435 -0.418,-0.876 -0.651,-1.26 l -0.453,-1.08 -0.122,-0.172 0.084,-0.072 c -0.39,-0.292 -0.287,-0.272 -0.277,-0.686 l -0.218,-0.202 0.116,-0.424 c -0.435,-0.029 -0.065,-0.565 -0.401,-0.693 l -0.052,0.079 -0.113,-0.107 c -0.025,-0.088 -0.144,-0.53 -0.152,-0.669 l -0.136,-0.345 c -0.549,-1.078 -1.067,-2.997 -1.31,-3.182 -0.129,-0.097 0.01,-0.333 -0.056,-0.48 l -0.159,-0.268 c 0.014,-0.072 0.012,-0.155 0.058,-0.213 0.019,-0.024 0.097,0.064 0.088,0.034 -0.045,-0.144 -0.271,-0.195 -0.291,-0.344 l 0.145,-0.024 c 0.016,-0.036 -0.129,-0.123 -0.17,-0.114 -0.069,-0.219 -0.144,-0.444 -0.249,-0.649 0.211,-0.177 -0.607,-0.602 -0.332,-0.667 -0.05,-0.104 -0.243,-0.583 -0.281,-0.582 -0.159,-0.295 -0.303,-0.603 -0.253,-0.948 -0.247,-0.021 -0.323,-0.658 -0.413,-0.821 0.015,0.038 -0.118,-0.143 -0.254,-0.18 l -0.009,-0.058 0.079,-0.032 -0.074,-0.026 c -0.014,-0.23 -0.383,-1.4 -0.516,-1.405 l -0.057,-0.246 c -0.09,0.128 -0.181,-0.095 0.02,-0.022 l -0.158,-0.176 0.018,-0.103 -0.168,-0.263 0.077,-0.068 c -0.021,-0.023 -0.119,0.021 -0.138,-0.002 l -0.052,-0.124 -0.092,-0.23 0.073,-0.007 -0.065,-0.165 c -0.019,-0.022 -0.229,-0.579 -0.212,-0.283 -0.024,-0.118 -0.097,-0.368 -0.154,-0.467 l -0.06,-0.034 -0.072,-0.015 -0.009,-0.236 0.061,0.092 0.026,-0.052 -0.128,-0.38 -0.104,0.039 c -0.025,-0.03 0.012,-0.13 -0.002,-0.168 -0.101,-0.264 -0.4,-0.459 -0.412,-0.742 -0.006,-0.146 0.075,-0.264 -0.04,-0.396 -0.339,-0.39 -0.997,-1.977 -1.251,-2.541 v 3.82 c 0.154,0.175 0.308,0.47 0.459,0.836 -0.08,-0.124 -0.156,-0.223 -0.22,-0.042 -0.086,0.243 0.164,0.35 0.223,0.378 l -0.047,0.044 0.028,0.121 c 0.025,0.1 0.087,0.335 0.179,0.393 0.304,0.196 0.028,0.268 0.17,0.469 0.057,0.082 0.133,-0.096 0.121,-0.054 -0.042,0.138 0.31,1.465 0.532,1.782 0.033,0.046 0.063,0.02 0.084,-0.014 -0.009,0.07 -0.031,0.117 -0.022,0.153 l 0.078,-0.009 0.052,0.131 c -0.005,0.035 0.007,0.072 0.05,0.123 l 0.077,0.173 0.024,0.079 0.057,0.234 c 0.013,-0.051 0.084,0.042 0.092,0.041 l 0.023,0.038 c -0.081,0.045 -0.203,0.049 -0.061,0.123 l 0.059,-0.079 0.047,0.033 0.063,0.098 -0.053,0.005 0.041,0.096 c -0.008,0.044 -0.046,0.113 -0.067,0.087 l 0.105,0.309 c 0.003,-0.027 0.051,-0.063 0.095,-0.091 l 0.045,0.102 -0.027,0.192 c 0.044,0.001 0.096,0.048 0.138,0.055 l 0.069,0.153 -0.042,0.24 c 0.05,-0.025 0.104,-0.017 0.156,0.011 l 0.186,0.402 c -0.09,0.077 -0.211,0.135 -0.021,0.141 l -0.006,0.316 0.161,0.186 c 0.041,-0.003 0.117,-0.033 0.128,-0.081 l 0.016,0.477 c 0.094,-0.08 0.096,-0.064 0.103,0.051 l 0.003,0.052 c 0.258,-0.028 -0.054,-0.112 -0.01,-0.209 0.003,-0.006 0.021,-0.018 0.047,-0.029 l 0.084,0.18 c -0.002,0.05 0.004,0.109 0.025,0.205 -0.137,-0.329 -0.055,0.27 0.033,0.463 l 0.022,0.085 c 0.037,0.032 0.088,-0.099 0.096,-0.106 0.053,-0.046 0.148,0.067 0.159,0.082 0.042,0.061 0.008,0.135 -0.024,0.19 l -0.037,0.066 -0.004,-0.157 -0.045,0.014 0.015,0.085 -0.052,0.007 10e-4,0.065 c 0.001,0.033 0.07,0.06 0.099,0.031 0.004,0.096 -0.062,0.395 0.117,0.325 l 0.056,0.24 0.097,-0.014 -0.044,0.138 c 0.002,0.029 0.074,-0.038 0.087,-0.013 0.052,0.097 -0.063,0.159 -0.029,0.253 l 0.147,0.246 0.056,-0.045 -0.025,0.045 c 0.114,-0.071 0.119,0.041 0.118,0.205 l 0.125,0.844 0.063,0.061 c 0.137,-0.049 0.071,-0.244 0.125,-0.13 0.084,0.176 -0.019,0.039 0.078,0.207 0.038,0.066 -0.041,0.132 -0.041,0.132 l -0.011,0.084 0.049,0.025 -0.023,-0.067 c 0.02,-0.048 0.142,-0.066 0.154,-0.016 0.034,0.132 -0.038,0.06 -0.096,0.129 l -0.074,0.031 0.119,0.02 0.042,0.078 c 0.021,-0.051 -0.007,-0.097 0.028,-0.146 0.028,0.011 -0.1,0.439 0.009,0.519 l 0.075,-0.084 c 0.016,-0.007 0.126,0.05 0.23,0.076 0.274,0.451 0.096,1 0.492,1.029 l 0.025,0.076 c -0.038,0.062 -0.129,0.096 -0.151,0.15 -0.021,0.05 0.031,0.194 0.061,0.246 l -0.02,0.041 c 0.106,0.035 0.393,0.657 0.618,1.2 0.127,0.446 0.208,0.791 0.18,0.861 0.097,0.017 0.199,0.17 0.29,0.36 l 0.072,0.318 c 10e-4,-0.016 0.017,-0.035 0.041,-0.053 0.028,0.073 0.055,0.146 0.078,0.213 l -0.006,0.043 0.098,0.227 -0.042,0.232 c 0.186,-0.016 0.251,0.229 0.136,0.348 0.057,0.028 0.134,0.126 0.217,0.264 0.05,0.277 0.129,0.83 0.323,0.955 0.273,0.176 0.02,0.3 0.169,0.469 0.024,0.038 0.05,0.062 0.079,0.093 l -0.017,0.047 c 0.013,0.034 0.055,0.048 0.096,0.056 l 0.024,0.038 -0.081,0.088 c -0.019,0.054 0.029,0.193 0.061,0.246 l -0.02,0.041 c 0.159,0.053 0.844,1.694 0.914,1.962 0.033,0 0.066,0.014 0.094,0.036 l 0.115,0.317 -0.015,0.108 -0.052,0.008 0.108,0.317 c 0.025,0.024 0.115,0.122 0.194,0.211 l 0.108,0.278 -0.028,0.154 c 0.027,-0.014 0.054,-0.018 0.083,-0.014 0.07,0.175 0.136,0.334 0.201,0.473 -0.07,0.053 -0.113,0.09 0.039,0.095 l -0.007,0.315 0.16,0.187 c 0.043,-0.004 0.124,-0.036 0.129,-0.087 l 0.005,0.157 0.001,0.039 0.009,0.282 c 0.012,0.019 0.068,0.111 0.106,0.107 L 0.013,0.015 C 0.027,0.033 0.04,0.054 0.055,0.073 L 0.099,0.321 C -0.07,-0.086 0.028,0.795 0.153,0.869 0.199,0.896 0.235,0.775 0.25,0.762 0.303,0.716 0.396,0.829 0.408,0.845 0.451,0.906 0.417,0.98 0.385,1.034 L 0.347,1.1 0.345,0.944 0.299,0.957 0.313,1.042 0.261,1.05 0.263,1.115 c 0,0.033 0.07,0.06 0.097,0.031 C 0.365,1.242 0.3,1.54 0.478,1.47 L 0.533,1.711 0.632,1.696 0.589,1.834 C 0.59,1.863 0.662,1.796 0.675,1.822 0.703,1.874 0.647,2.021 0.645,2.075 L 0.793,2.32 0.849,2.276 0.824,2.32 C 0.889,2.308 1.035,2.441 0.995,2.549 0.984,2.576 0.941,2.483 0.921,2.502 0.818,2.592 0.836,2.715 0.836,2.715 1.058,2.783 0.774,3.04 1.074,2.798 L 1.056,2.846 1.033,2.925 C 1.009,3.032 0.928,3.187 1.015,3.252 1.543,3.648 1.396,4.229 1.487,4.296 L 1.563,4.212 1.662,4.499 C 1.712,4.44 1.8,4.354 1.9,4.278 L 1.894,4.402 1.975,4.276 2.004,4.317 C 2.025,4.331 2.058,4.284 2.055,4.258 2.209,4.351 2.544,3.893 2.733,3.98 L 2.867,3.792 2.967,3.68 3.167,3.652 C 3.137,3.604 3.172,3.537 3.235,3.465 L 3.396,3.471 3.412,3.298 C 3.584,3.148 3.755,3.013 3.611,2.993 L 3.83,2.952 3.822,2.813 3.973,2.907 4.297,2.75 C 4.308,2.706 4.297,2.638 4.261,2.606 L 4.273,2.543 C 4.326,2.525 4.352,2.488 4.374,2.447 L 4.49,2.594 C 4.443,1.792 5.154,2.215 5.035,1.738 L 5.26,1.824 C 5.266,1.776 5.288,1.572 5.344,1.546 L 5.428,1.582 5.439,1.197 5.676,1.33 5.701,0.959 C 5.704,1.162 5.977,0.912 6.028,1.101 L 6.161,0.909 H 6.317 C 6.382,0.795 6.437,0.635 6.428,0.499 L 6.656,0.436 6.799,0.187 7.147,-0.004 v -0.18 H 7.304 C 7.336,-0.249 7.173,-0.397 7.292,-0.461 L 7.568,-0.497 C 7.299,-0.699 7.836,-0.795 7.953,-0.786 l 0.121,-0.312 c 0.117,-0.081 0.367,-0.195 0.481,-0.036 l 0.084,-0.313 c 0.144,-0.086 0.25,-0.286 0.336,-0.423 0.04,0.15 -0.023,0.351 -0.1,0.478 l 0.209,-0.151 c 0.018,-0.123 0.222,-0.302 0.432,-0.596 l 0.239,-0.045 0.062,-0.333 0.246,-0.211 c -0.044,0.052 0.058,0.314 0.224,0.091 0.026,-0.038 0.037,-0.064 0.04,-0.084 l 0.042,-0.036 0.086,0.023 c 0.021,-0.044 0.037,-0.091 0.053,-0.138 0.126,-0.106 0.272,-0.237 0.294,-0.294 l 0.038,0.011 c 0.165,0.066 0.296,-0.168 0.339,-0.297 l 0.02,-0.151 c 0.162,-0.138 0.355,-0.281 0.554,-0.343 l 0.071,-0.112 c 0.184,-0.095 0.398,-0.15 0.519,-0.311 l 0.037,-0.285 0.17,-0.009 0.045,-0.064 c 0.128,-0.131 0.252,-0.267 0.375,-0.405 0.106,-0.039 0.209,-0.08 0.346,-0.179 0.16,-0.115 0.188,-0.327 0.335,-0.534 l 0.08,0.04 0.019,0.089 0.019,-0.063 c 0.005,-0.019 0.036,-0.134 0.072,-0.126 0.146,0.034 0.324,0.056 0.487,-0.162 0.083,-0.11 -0.024,-0.357 0.107,-0.398 l 0.269,-0.002 c -0.089,-0.146 0.147,-0.326 0.403,-0.379 0.042,-0.009 0.046,-0.056 0.045,-0.11 l 0.093,-0.149 c 0.043,-0.008 0.042,-0.035 0.038,-0.063 l 0.068,-0.109 v 0.052 l 0.182,-0.086 -0.06,-0.012 0.056,-0.209 0.082,0.151 c 0.026,-0.066 0.629,-0.64 1.269,-1.234 0.048,-0.028 0.098,-0.056 0.153,-0.084 h 0.18 l 0.073,-0.29 0.072,-0.066 0.07,0.024 0.011,-0.096 0.084,0.036 -0.001,-0.115 0.075,-0.067 -0.001,0.05 0.152,-0.048 c 0.111,-0.09 0.38,-0.421 0.32,-0.289 l 0.253,-0.044 c -0.022,-0.103 0.236,-0.449 0.367,-0.526 -0.022,-0.008 -0.06,-0.06 0.001,-0.079 0.088,-0.027 0.143,0.152 0.219,0.11 0.085,-0.046 0.082,-0.234 0.128,-0.305 l 0.006,0.049 c 0.034,0.015 0.064,0.078 0.096,0.057 0.075,-0.051 0.173,-0.217 0.132,-0.313 l 0.149,-0.25 0.132,-0.023 0.111,-0.023 0.061,-0.323 c 0.077,-0.031 0.158,-0.074 0.239,-0.128 0.037,0.072 0.133,0.133 0.237,-0.008 0.023,-0.031 0,-0.092 -0.022,-0.155 0.032,-0.028 0.065,-0.058 0.095,-0.089 l 0.013,0.147 h 0.085 l 0.194,-0.414 -0.028,-0.045 0.224,0.032 0.169,-0.274 0.123,0.055 0.097,-0.317 -0.072,0.037 -0.014,-0.099 c 0.025,-0.041 0.048,-0.084 0.07,-0.127 l 0.114,-0.079 0.194,0.074 c 0.238,-0.145 0.269,-0.286 0.647,-0.402 v -0.147 l 0.172,-0.122 c 0.023,-0.121 0.052,-0.305 0.142,-0.399 l 0.526,-0.161 c -0.027,-0.28 0.328,-0.304 0.358,-0.261 l 10e-4,-0.038 0.11,0.019 0.018,-0.069 c 0.085,0.02 0.121,-0.2 0.04,-0.162 l 0.035,-0.143 c 0.199,-0.393 0.541,0.318 0.864,-0.736 l 0.32,-0.004 v -0.25 h 0.142 l -0.133,-0.281 0.074,-0.004 0.253,0.163 c 0.092,-0.131 0.116,-0.323 0.164,-0.462 l 0.166,-0.026 0.045,-0.149 c 0.068,0.01 0.159,0.051 0.281,0.137 l 0.016,-0.264 0.073,-0.016 c 0.041,-0.025 0.059,-0.06 0.067,-0.099 l 0.116,-0.092 0.024,0.094 0.023,-0.073 0.196,-0.134 c -0.04,-0.018 -0.054,-0.035 -0.052,-0.05 l 0.038,-0.034 c 0.05,-0.021 0.135,-0.026 0.165,-0.001 l -0.041,0.097 c 0.056,-0.049 0.061,-0.08 0.041,-0.097 l 0.105,-0.244 0.044,-0.072 c 0.127,-0.045 0.245,-0.093 0.285,-0.221 0.199,0.028 0.224,-0.073 0.252,-0.172 l 0.198,-0.01 0.037,-0.148 0.108,-0.214 0.073,0.025 0.011,-0.097 0.085,0.036 0.013,-0.39 0.061,0.256 0.183,-0.085 -0.061,-0.012 0.073,-0.388 c 0.032,0.153 0.296,-0.032 0.341,0.132 l 0.133,-0.195 h 0.16 c 0.408,-0.677 0.421,-0.234 0.586,-0.492 l 0.061,-0.28 c -0.021,0.106 0.149,0.173 0.22,0.049 0.101,-0.184 0.317,-0.593 0.399,-0.87 l 0.044,0.018 0.116,0.184 0.125,-0.328 0.142,0.008 -0.021,0.041 0.033,-0.04 0.123,-0.269 c 0.026,-0.012 0.051,-0.026 0.075,-0.041 l -0.012,0.055 c 0.018,0.005 0.025,-0.017 0.02,-0.037 0.093,-0.085 0.156,-0.145 0.189,-0.218 0.007,-0.013 -0.004,-0.038 -0.016,-0.064 0.084,-0.11 0.164,-0.17 0.228,-0.144 0.13,0.053 0.168,-0.219 0.211,-0.084 l -0.012,-0.153 0.044,0.035 0.208,-0.042 -0.07,-0.09 0.038,-0.084 0.019,-0.044 0.132,0.007 -0.083,-0.117 0.033,-0.071 c 0.043,-0.086 0.211,-0.079 0.246,0.011 l 0.087,-0.16 0.032,-0.049 0.15,-0.016 c 0.058,-0.12 0.034,-0.314 0.08,-0.449 0.012,-0.03 0.025,-0.058 0.043,-0.08 0.023,-0.027 0.051,-0.047 0.089,-0.059 l 0.181,0.073 0.034,-0.049 0.106,0.014 c 0.013,-0.044 0.033,-0.138 0.061,-0.248 0.063,0.002 0.133,0.013 0.212,0.035 l -0.105,-0.196 0.144,-0.205 0.046,-0.022 0.172,-0.203 v -1.787 c -0.599,0.593 -1.244,1.19 -1.935,1.675 l -0.072,0.312 c 0.017,-0.216 -0.159,-0.12 -0.262,-0.037 -0.094,0.076 -0.409,0.717 -0.483,0.852 -0.07,0.041 -0.135,0.083 -0.197,0.125" /></g><g
         transform="translate(873.4219,776.6851)"
         id="g62"><path
           inkscape:connector-curvature="0"
           id="path64"
           style="fill:#0f2533;fill-opacity:1;fill-rule:nonzero;stroke:none"
           d="m 0,0 c -0.526,-0.699 -0.336,-1.904 -1.191,-2.253 -0.098,0.358 0.402,0.588 0.224,0.858 0.285,0.287 0.055,0.832 0.559,0.956 -0.116,0.293 0.175,0.431 0.144,0.685 C -0.034,0.36 -0.088,0.103 0,0" /></g><g
         transform="translate(872.2266,774.0073)"
         id="g66"><path
           inkscape:connector-curvature="0"
           id="path68"
           style="fill:#0f2533;fill-opacity:1;fill-rule:nonzero;stroke:none"
           d="M 0,0 0.013,-0.34 C -0.072,-0.343 -0.198,-0.368 -0.245,-0.264 -0.294,-0.074 -0.085,0.614 0,0" /></g><g
         transform="translate(871.9678,773.4624)"
         id="g70"><path
           inkscape:connector-curvature="0"
           id="path72"
           style="fill:#0f2533;fill-opacity:1;fill-rule:nonzero;stroke:none"
           d="m 0,0 c 0.069,-0.146 -0.076,-0.237 -0.157,-0.346 0.043,-0.041 0.078,-0.06 0.09,-0.167 -0.058,-0.15 -0.186,-0.05 -0.335,-0.096 C -0.363,-0.287 -0.297,0.011 0,0" /></g><g
         transform="translate(868.9385,765.7915)"
         id="g74"><path
           inkscape:connector-curvature="0"
           id="path76"
           style="fill:#0f2533;fill-opacity:1;fill-rule:nonzero;stroke:none"
           d="m 0,0 c -0.464,-0.037 -0.044,-0.554 -0.399,-0.694 l -0.178,0.272 c 0.483,0.081 -0.141,0.95 0.477,0.844 z" /></g><g
         transform="translate(868.0068,763.9102)"
         id="g78"><path
           inkscape:connector-curvature="0"
           id="path80"
           style="fill:#0f2533;fill-opacity:1;fill-rule:nonzero;stroke:none"
           d="m 0,0 c -0.313,-0.257 -0.024,-0.511 -0.229,-0.688 -0.156,-0.41 -0.503,-0.741 -0.467,-1.207 -0.473,0.217 0.129,0.578 0.052,0.937 0.116,0.323 0.362,0.687 0.39,0.949 z" /></g><g
         transform="translate(864.2852,754.0854)"
         id="g82"><path
           inkscape:connector-curvature="0"
           id="path84"
           style="fill:#0f2533;fill-opacity:1;fill-rule:nonzero;stroke:none"
           d="M 0,0 C -0.122,-0.153 -0.336,-0.076 -0.504,-0.103 -0.686,0.252 -0.225,0.375 -0.276,0.671 -0.083,0.571 0.055,0.278 0,0" /></g><g
         transform="translate(863.6328,753.3823)"
         id="g86"><path
           inkscape:connector-curvature="0"
           id="path88"
           style="fill:#0f2533;fill-opacity:1;fill-rule:nonzero;stroke:none"
           d="m 0,0 c 0.116,-0.889 -0.777,-1.388 -0.598,-2.317 -0.099,-0.152 -0.246,-0.2 -0.415,-0.185 -0.052,0.87 0.453,1.526 0.596,2.317 C -0.316,-0.032 -0.17,0.015 0,0" /></g><g
         transform="translate(862.5615,750.1133)"
         id="g90"><path
           inkscape:connector-curvature="0"
           id="path92"
           style="fill:#0f2533;fill-opacity:1;fill-rule:nonzero;stroke:none"
           d="m 0,0 c 0.023,-0.084 -0.038,-0.129 -0.079,-0.173 l -0.51,0.067 C -0.752,0.335 -0.015,0.403 0,0" /></g><g
         transform="translate(864.6641,755.374)"
         id="g94"><path
           inkscape:connector-curvature="0"
           id="path96"
           style="fill:#0f2533;fill-opacity:1;fill-rule:nonzero;stroke:none"
           d="m 0,0 c -0.03,-0.362 -0.173,-0.495 -0.577,-0.445 -0.172,0.079 0.013,0.234 0.073,0.342 0.083,0.025 0.128,-0.038 0.172,-0.079 C -0.232,-0.029 -0.219,0.205 0,0" /></g><g
         transform="translate(873.625,777.6279)"
         id="g98"><path
           inkscape:connector-curvature="0"
           id="path100"
           style="fill:#0f2533;fill-opacity:1;fill-rule:nonzero;stroke:none"
           d="M 0,0 C 0.007,-0.212 -0.071,-0.385 -0.236,-0.518 -0.32,-0.543 -0.364,-0.48 -0.408,-0.439 -0.286,-0.286 -0.387,0.156 0,0" /></g><g
         transform="translate(869.3379,767.0181)"
         id="g102"><path
           inkscape:connector-curvature="0"
           id="path104"
           style="fill:#0f2533;fill-opacity:1;fill-rule:nonzero;stroke:none"
           d="M 0,0 C 0.024,-0.084 -0.038,-0.129 -0.079,-0.173 L -0.248,-0.179 -0.257,0.076 C -0.172,0.079 -0.046,0.105 0,0" /></g><g
         transform="translate(869.1836,766.5874)"
         id="g106"><path
           inkscape:connector-curvature="0"
           id="path108"
           style="fill:#0f2533;fill-opacity:1;fill-rule:nonzero;stroke:none"
           d="M 0,0 C 0.003,-0.085 0.029,-0.212 -0.076,-0.258 -0.265,-0.286 -0.252,-0.051 -0.257,0.076 -0.172,0.079 -0.046,0.105 0,0" /></g><g
         transform="translate(863.6123,753.9766)"
         id="g110"><path
           inkscape:connector-curvature="0"
           id="path112"
           style="fill:#0f2533;fill-opacity:1;fill-rule:nonzero;stroke:none"
           d="m 0,0 c -0.117,-0.034 -0.179,0.053 -0.24,0.11 -0.064,0.117 0.107,0.301 0.227,0.246 z" /></g><g
         transform="translate(867.248,762.0962)"
         id="g114"><path
           inkscape:connector-curvature="0"
           id="path116"
           style="fill:#0f2533;fill-opacity:1;fill-rule:nonzero;stroke:none"
           d="m 0,0 c 0.023,-0.084 -0.038,-0.129 -0.079,-0.173 l -0.169,-0.006 -0.01,0.255 C -0.173,0.079 -0.047,0.105 0,0" /></g><g
         transform="translate(867.0938,761.666)"
         id="g118"><path
           inkscape:connector-curvature="0"
           id="path120"
           style="fill:#0f2533;fill-opacity:1;fill-rule:nonzero;stroke:none"
           d="M 0,0 C 0.003,-0.085 0.028,-0.212 -0.076,-0.258 -0.266,-0.286 -0.252,-0.051 -0.258,0.076 -0.173,0.079 -0.047,0.104 0,0" /></g><g
         transform="translate(868.375,764.7656)"
         id="g122"><path
           inkscape:connector-curvature="0"
           id="path124"
           style="fill:#0f2533;fill-opacity:1;fill-rule:nonzero;stroke:none"
           d="m 0,0 -0.008,-0.419 -0.133,0.003 C -0.203,-0.564 -0.086,-0.89 -0.319,-0.908 -0.284,-1.045 -0.375,-1.091 -0.457,-1.173 -0.5,-1.352 -0.48,-1.542 -0.485,-1.724 l -0.285,0.005 c 0.131,-0.346 -0.418,-0.168 -0.029,-0.552 -0.298,0.063 -0.044,-0.371 -0.308,-0.357 l -0.001,-0.057 -0.191,0.004 c -0.083,0.226 0.12,0.164 0.158,0.34 0.02,0.086 0.23,-0.003 0.155,0.149 -0.158,-0.027 -0.086,0.151 -0.149,0.193 0.07,-0.016 0.059,0.111 0.06,0.152 0.12,0.003 0.129,0.155 0.229,0.148 0.024,0.032 0.028,0.076 0.022,0.114 -0.078,0.028 -0.202,0.036 -0.15,0.155 0.12,0 -0.005,0.209 0.118,0.188 0.11,0.158 -0.084,0.613 0.2,0.606 l 0.003,0.152 c 0.061,0.048 0.086,0.13 0.155,0.169 l 0.001,0.095 0.154,0.15 0.005,0.343 C -0.21,0.263 0.551,0.315 0,0" /></g><g
         transform="translate(869.29,766.7461)"
         id="g126"><path
           inkscape:connector-curvature="0"
           id="path128"
           style="fill:#0f2533;fill-opacity:1;fill-rule:nonzero;stroke:none"
           d="m 0,0 -0.018,-0.131 c -0.141,0.048 -0.123,-0.167 -0.272,-0.169 -0.007,-0.075 -0.07,-0.062 -0.078,-0.151 -0.113,-0.043 -0.029,0.139 -0.114,0.102 -0.072,0.274 0.253,0.066 0.141,0.336 0.217,-0.117 0.073,0.19 0.229,0.137 C -0.103,0.121 -0.06,0.102 -0.055,0.096 -0.035,0.069 -0.017,0.03 0,0" /></g><g
         transform="translate(866.5283,760.52)"
         id="g130"><path
           inkscape:connector-curvature="0"
           id="path132"
           style="fill:#0f2533;fill-opacity:1;fill-rule:nonzero;stroke:none"
           d="M 0,0 C -0.038,-0.209 0.248,-0.156 0.144,-0.44 0.027,-0.373 0.07,-0.518 -0.009,-0.533 0,-0.654 -0.055,-0.807 0.022,-0.914 l 0.015,-0.229 c -0.114,0.061 -0.1,-0.057 -0.154,-0.112 0.158,-0.431 -0.327,-0.344 -0.165,-0.797 l -0.133,0.003 c -0.042,-0.092 -0.02,-0.207 -0.024,-0.305 -0.237,0.123 -0.091,-0.195 -0.287,-0.147 l -0.021,-0.114 0.152,-0.021 c 0.043,-0.136 -0.078,-0.097 -0.136,-0.169 l -0.024,-0.267 -0.132,0.003 -0.026,-0.4 c -0.113,0.062 -0.101,-0.056 -0.154,-0.111 l -0.003,-0.191 -0.095,0.002 -0.026,-0.4 c -0.196,0.107 -0.32,-0.35 -0.441,-0.297 -0.061,-0.123 0.044,-0.388 -0.103,-0.455 -0.173,0.033 -0.063,0.322 -0.087,0.44 0.414,0.085 -0.062,0.361 0.046,0.456 0.178,-0.051 0.094,0.213 0.249,0.148 0.031,0.08 0.015,0.164 0.023,0.247 0.112,-0.044 0.073,0.103 0.154,0.093 l 0.007,0.457 c 0.315,0.065 0.033,0.604 0.24,0.757 l 0.058,-10e-4 c -0.012,-0.063 -0.004,-0.187 0.092,-0.154 0.077,-0.026 0.078,0.106 0.078,0.151 l 0.133,-0.002 c 0.071,0.173 -0.094,0.628 0.182,0.625 -0.048,0.058 -0.043,0.164 -0.15,0.117 -0.001,0.087 0.027,0.186 0.135,0.131 -0.05,0.299 0.153,0.331 0.199,0.549 l 0.057,-0.001 c 0.032,0.099 0.015,0.202 0.024,0.304 l 0.152,0.035 c -0.02,0.093 -0.146,0.127 -0.148,0.212 0.094,0.029 0.162,-0.02 0.207,-0.099 0.077,0.058 0.112,0.152 0.099,0.246 l -0.151,0.022 C -0.17,-0.075 -0.109,-0.01 0,0" /></g><g
         transform="translate(871.4531,772.6626)"
         id="g134"><path
           inkscape:connector-curvature="0"
           id="path136"
           style="fill:#0f2533;fill-opacity:1;fill-rule:nonzero;stroke:none"
           d="M 0,0 C -0.033,-0.14 0.021,-0.258 0.146,-0.326 0.132,-0.387 0.107,-0.472 0.011,-0.438 l -0.028,0.112 c -0.111,0.067 -0.042,-0.079 -0.123,-0.095 l 0.036,-0.11 h -0.039 c 0.131,-0.372 -0.356,-0.292 -0.163,-0.682 l 0.037,-10e-4 c -0.038,-0.082 -0.15,-0.034 -0.19,-0.13 -0.057,-0.135 0.042,-0.464 -0.123,-0.512 l -0.002,-0.133 -0.058,-0.018 c 0.096,-0.021 0.016,-0.213 0.051,-0.287 L -0.65,-2.342 c -0.228,-0.011 -0.048,-0.256 -0.156,-0.348 -0.047,-0.137 0.073,-0.176 0.017,-0.326 h -0.055 l -0.068,-0.396 c -0.187,0.016 -0.162,-0.229 -0.401,-0.145 -0.106,-0.036 -0.05,-0.22 -0.062,-0.304 -0.285,0.142 -0.021,-0.48 -0.275,-0.566 -0.023,-0.161 0.044,-0.42 -0.067,-0.551 -0.229,0.135 -0.147,-0.095 -0.144,-0.1 0,0 -0.058,-0.235 -0.147,-0.047 -0.067,0.14 -0.129,0.002 -0.129,0.002 l 0.008,0.438 c 0.109,-0.048 0.071,0.098 0.153,0.092 0.019,0.133 -0.07,0.411 0.159,0.378 0.03,0.172 -0.094,0.664 0.145,0.702 0.066,0.149 -0.083,0.563 0.16,0.55 l 0.022,0.152 0.227,-0.004 c 0.021,0.112 0.006,0.289 0.158,0.302 0.009,0.086 0.084,0.316 -0.017,0.366 l 0.044,0.088 c 0.021,0.088 0.076,0.102 0.134,0.095 l 0.026,0.419 0.133,-0.003 c 0.033,0.182 0.016,0.368 0.028,0.552 0.117,0 0.127,0.153 0.23,0.148 -0.011,0.09 0.158,0.197 0.024,0.247 -0.038,0.078 0.006,-0.02 -0.038,0.118 0.151,0.018 0.099,-0.039 0.226,-0.044 0.03,0.08 0.037,0.13 0.046,0.212 0.179,-0.06 -0.007,0.153 0.118,0.136 l 0.018,0.181 z" /></g><g
         transform="translate(863.9688,753.4077)"
         id="g138"><path
           inkscape:connector-curvature="0"
           id="path140"
           style="fill:#0f2533;fill-opacity:1;fill-rule:nonzero;stroke:none"
           d="m 0,0 c -0.116,-0.034 -0.179,0.053 -0.239,0.11 -0.064,0.116 0.107,0.3 0.227,0.245 z" /></g><g
         transform="translate(867.0234,761.0845)"
         id="g142"><path
           inkscape:connector-curvature="0"
           id="path144"
           style="fill:#0f2533;fill-opacity:1;fill-rule:nonzero;stroke:none"
           d="m 0,0 c -0.121,0.063 -0.075,-0.082 -0.153,-0.093 l -0.009,-0.514 c -0.193,-0.028 -0.209,0.144 -0.186,0.289 -0.014,0.03 -0.066,0.033 -0.093,0.021 -0.038,-0.016 -0.022,-0.083 -0.022,-0.114 l -0.133,0.002 0.003,0.134 c 0.05,0.01 0.107,-0.011 0.153,0.016 -0.037,0.073 -0.079,0.103 -0.054,0.191 0.232,0.032 0.134,0.382 0.497,0.239 z" /></g></g></g><text
     id="text150"
     style="font-variant:normal;font-weight:normal;font-stretch:normal;font-size:23.39999962px;font-family:'Libre Serif SSi';-inkscape-font-specification:LibreSerifSSi;writing-mode:lr-tb;fill:#0f2533;fill-opacity:1;fill-rule:nonzero;stroke:none"
     transform="matrix(0.9,0,0,-1,912.3633,775.542)"><tspan
       id="tspan146"
       sodipodi:role="line"
       y="0"
       x="0 14.6952 27.1908 33.204601 44.8344 54.756001 62.478001 71.065804 77.079597 83.959198 94.746597 101.6262 108.0846 119.7144 124.839 140.3766 146.3904 157.1778 167.0994 177.8868 190.3824">Universitat d’Alacant</tspan><tspan
       id="tspan148"
       sodipodi:role="line"
       y="25.9974"
       x="0.023399999 14.7186 27.214199 33.228001 44.8578 54.7794 62.5014 71.089203 77.102997 88.732803 99.520203 111.15 117.6084 129.2382 139.15981 145.61819 161.15581 167.1696 173.1834 183.105 193.8924 206.388 213.26759">Universidad de Alicante</tspan></text>
</g>



<g
   id="g1108"><g
     transform="translate(642.4023,791.688)"
     id="g152"><path
       inkscape:connector-curvature="0"
       id="path154"
       style="fill:#d9e1d8;fill-opacity:1;fill-rule:nonzero;stroke:none"
       d="M 0,0 32.13,0.005 32.122,-32.121 H -0.005 Z" /></g><g
     transform="translate(0,-6.2554235e-5)"
     id="g156"><g
       clip-path="url(#clipPath162)"
       id="g158"><g
         transform="translate(651.4492,786.1802)"
         id="g164"><path
           inkscape:connector-curvature="0"
           id="path166"
           style="fill:#ffffff;fill-opacity:1;fill-rule:nonzero;stroke:none"
           d="m 0,0 23.074,-20.296 c 0.005,-1.602 -0.01,-3.71 0,-6.317 H -9.052 l 0.006,4.567 z" /></g><g
         transform="translate(657.2266,774.9707)"
         id="g168"><path
           inkscape:connector-curvature="0"
           id="path170"
           style="fill:#fccc2d;fill-opacity:1;fill-rule:nonzero;stroke:none"
           d="M 0,0 0.076,-0.198 C 0.207,-0.232 0.35,-0.242 0.485,-0.244 V -0.35 l 0.228,0.03 0.091,-0.274 0.121,-0.092 c 0.022,0.004 0.056,0.187 0.121,0.122 l 0.122,-0.35 c 0.114,0.05 0.596,-0.428 0.576,-0.488 L 1.865,-1.417 1.986,-1.615 2.229,-1.63 C 2.244,-1.986 2.912,-2.39 3.154,-2.666 L 3.229,-2.681 V -3.108 C 2.525,-3.03 -0.998,-3.01 -1.683,-3.154 l -0.016,0.046 -0.227,-0.046 -0.015,0.046 -0.046,-0.122 h -0.788 c 0.062,0.129 -0.21,0.098 -0.137,0 -0.166,0.09 -0.416,0.04 -0.591,0 l -0.015,0.122 -0.228,-0.091 -0.03,0.091 -0.106,-0.122 h -0.546 l -0.076,0.122 c -0.034,0 -0.193,-0.299 -0.167,-0.015 -0.305,-0.055 -0.617,-0.041 -0.925,-0.031 v 0.518 l 0.106,-0.045 c 0.12,0.184 0.18,0.469 0.137,0.685 h 0.106 c 0.132,0.344 0.289,0.721 0.258,1.097 l 0.106,-0.03 c 0.1,0.084 0.189,0.232 0.136,0.365 h 0.106 l 0.016,0.198 c 0.161,0.095 0.403,0.161 0.591,0.122 l 0.03,-0.122 0.061,0.168 c 0.21,-0.015 0.387,-0.227 0.516,-0.168 -0.011,0.198 0.697,0.176 0.834,0.168 l 0.015,-0.046 0.167,0.122 c 0.059,0.06 0.268,-0.111 0.106,-0.107 l 0.273,-0.137 0.061,0.122 c 0.299,0.205 0.548,0.034 0.899,0.114 l 0.022,-0.191 0.443,-0.045 0.061,0.122 0.137,-0.122 0.182,0.137 -0.046,0.061 0.106,0.092 0.046,-0.046 z" /></g><g
         transform="translate(664.7441,768.6357)"
         id="g172"><path
           inkscape:connector-curvature="0"
           id="path174"
           style="fill:#f36717;fill-opacity:1;fill-rule:nonzero;stroke:none"
           d="m 0,0 c 0,0 -0.035,-0.144 0.064,-0.141 0.052,0.002 0.073,-0.085 0.143,-0.066 0.103,0.029 0.074,-0.055 0.074,-0.055 0,0 0.102,-0.017 0.051,-0.082 -0.034,-0.044 0.09,-0.099 0.09,-0.099 l 0.182,0.005 0.024,-0.104 c 0,0 0.11,-0.09 0.157,-0.212 0.047,-0.123 0.197,-0.231 0.197,-0.231 0,0 0.033,-0.029 0.08,0.031 0.047,0.061 0.068,0.049 0.068,0.049 0,0 0.066,-0.095 0.24,-0.209 0.053,-0.034 -0.001,-0.142 0.143,-0.183 0.073,-0.021 0.203,-0.117 0.203,-0.117 L 1.629,-1.509 c 0.029,-0.044 0.17,-0.056 0.176,-0.109 0.039,-0.303 0.252,-0.175 0.252,-0.175 0,0 0.058,-0.061 -0.016,-0.178 C 1.966,-2.089 2.025,-2.14 2.025,-2.14 c 0,0 -0.078,-0.192 -0.053,-0.329 0.023,-0.137 0.085,-0.256 0.085,-0.256 0,0 -0.26,0 -0.431,0.138 -0.077,0.061 -0.175,0.07 -0.242,0.156 -0.105,0.133 -0.17,0.051 -0.17,0.051 L 1.084,-2.493 C 1.042,-2.43 0.988,-2.352 0.596,-2.479 0.203,-2.606 0.356,-2.528 0.178,-2.544 c 0,0 -0.148,-0.033 -0.336,0.043 -0.155,0.063 -0.235,0.121 -0.235,0.121 L -0.605,-2.493 -0.858,-2.57 v -0.046 l -0.32,0.104 -0.226,-0.054 -0.1,0.094 -0.204,0.023 -0.224,-0.044 -0.07,0.093 c -0.262,-0.088 -0.149,-0.162 -0.388,-0.093 0,0 -0.109,0.063 -0.142,0 l -0.1,0.021 -0.094,0.086 -0.052,-0.126 c -0.028,0.104 -0.363,0.036 -0.593,-0.049 l -0.241,0.045 -0.193,0.058 c 0,0 -0.06,0.076 -0.142,0.013 -0.104,-0.079 -0.273,-0.036 -0.273,-0.036 l -0.246,-0.071 -0.267,0.125 c -0.079,-0.047 0.14,-0.168 -0.222,-0.027 l -0.202,0.078 c -0.139,-0.225 -0.4,-0.117 -0.4,-0.117 0,0 -1.626,0.003 -1.652,-0.003 -0.026,-0.006 -0.028,0.002 -0.029,0.003 -0.009,0.015 -0.047,0 -0.047,0 0.003,0.027 0.014,0.035 -0.002,0.055 l -0.092,-0.055 c -0.43,-0.108 -0.525,-0.052 -1.439,0.09 -0.124,-0.116 -0.163,-0.172 -0.293,-0.088 -0.04,0.025 -0.185,0.086 -0.185,0.086 0.039,-0.092 0.02,-0.038 -0.041,-0.088 -0.019,-0.015 -0.665,0.062 -0.43,0.033 0.038,-0.005 -0.08,0.102 -0.08,0.102 l -0.059,-0.089 -0.29,-0.04 c -0.112,0.02 -0.194,-0.02 -0.335,-0.064 0,0 -0.016,0.019 -0.027,0.042 -0.005,0.012 -0.031,0.036 -0.031,0.057 0,0.021 -0.024,0.037 -0.024,0.037 l -0.161,-0.078 c 0,0 0.02,0.066 -0.037,0.058 -0.045,-0.006 -0.045,0.05 -0.045,0.05 l -0.061,-0.108 c 0,0 -0.53,-0.037 -0.731,0 -0.201,0.037 -0.311,-0.037 -0.311,-0.037 l -0.085,0.132 -0.16,-0.145 -0.244,0.05 -0.142,0.086 c -0.096,0 -0.301,-0.186 -0.358,-0.102 -0.008,0.01 -0.249,0.125 -0.398,0.036 -0.234,-0.142 -0.362,0.035 -0.448,-0.085 -0.103,-0.04 -0.639,0.13 -0.698,0.13 -0.036,0 -0.101,-0.094 -0.155,-0.065 l -0.247,0.08 c -0.082,-0.077 -0.225,-0.022 -0.227,-0.019 -0.03,0.047 -0.109,0.026 -0.109,0.026 l -0.308,0.004 c 0,0 0.109,0.144 0.127,0.31 0.011,0.093 0.041,0.293 0.041,0.293 0.055,0.082 0.034,0.138 0.05,0.198 l 0.085,0.09 c 0.007,0.066 0.007,0.236 0.007,0.236 l 0.08,0.416 0.311,0.167 c 0,0 -0.015,0.028 -0.012,0.043 0.003,0.016 -0.009,0.049 -0.018,0.079 -0.009,0.029 -0.008,0.054 -0.008,0.063 0.004,0.023 0,0.054 0,0.054 l 0.042,0.042 c 0.2,0.288 0.418,0.615 0.521,0.956 l 0.269,0.068 c 0.39,-0.091 0.369,-0.117 0.428,0 L -13.3,0.514 c -0.045,0.021 0.207,0.1 0.22,0.108 0.034,0.018 0.084,-0.02 0.142,-0.062 l 0.553,-0.015 0.042,0.073 c 0.198,-0.004 0.354,0.068 0.572,-0.028 0.071,-0.031 0.173,-0.107 0.322,-0.069 0.067,0.017 0.245,0.065 0.379,-0.016 0.06,-0.035 0.209,-0.082 0.261,-0.067 0.054,0.014 0.3,0.044 0.402,0.023 0.085,0.011 0.379,-0.041 0.546,0.093 0.111,0.018 0.126,0.069 0.146,0.056 l 0.193,-0.051 c 0,0 0.551,-0.02 0.795,0.054 0.165,0.049 0.313,0.006 0.714,-0.005 L -7.79,0.529 c 0.015,-0.002 0.243,-0.07 0.31,0.059 0.123,0.007 0.251,-0.024 0.315,-0.047 0.063,0.003 0.094,0.086 0.157,0.089 0.192,0.008 0.37,-0.07 0.482,-0.085 l 0.154,0.085 0.224,-0.085 0.421,0.108 0.164,-0.093 c 0.2,-0.063 0.44,-0.046 0.598,0.087 -0.025,-0.152 0.196,0.091 0.196,-0.031 0,-0.122 0.201,-0.087 0.213,-0.029 l 0.665,0.081 0.043,-0.064 0.101,0.064 h 0.458 l 0.31,0.029 0.162,0.058 0.159,-0.041 0.381,0.025 c 0.048,-0.049 1.077,0.097 1.124,0.059 0.077,-0.061 -0.192,-0.244 0.087,-0.186 0.159,0.033 0.08,-0.119 0.217,-0.057 0.04,0.018 0.059,-0.029 0.112,-0.095 l 0.125,-0.084 0.139,-0.115 c 0,0 0.116,-0.036 0.285,-0.103 C -0.129,0.135 0.003,0.118 -0.056,0.071 -0.117,0.021 0,0 0,0" /></g><g
         transform="translate(646.3071,760.0654)"
         id="g176"><path
           inkscape:connector-curvature="0"
           id="path178"
           style="fill:#d9e1d8;fill-opacity:1;fill-rule:nonzero;stroke:none"
           d="M 0,0 0.263,0.178 C 0.293,0.265 0.243,0.251 0.258,0.321 0.331,0.46 0.52,0.688 0.575,0.886 0.668,1.23 0.684,1.536 0.989,1.718 v 0.541 c 0,0.161 0.13,0.291 0.29,0.291 h 0.993 c 0.063,0 0.083,-0.083 0.145,-0.083 0.44,0 0.678,0.208 1.118,0.208 0.062,0 0.088,-0.078 0.145,-0.083 0.818,-0.073 1.294,0.026 2.112,-0.042 0.051,0 0.067,-0.083 0.124,-0.083 0.253,0 0.367,0.208 0.621,0.208 0.109,0 0.16,-0.083 0.269,-0.083 0.155,0 0.238,0.083 0.393,0.083 0.171,0 0.264,-0.083 0.435,-0.083 0.129,0 0.202,0.041 0.331,0.041 0.052,0 0.052,0.083 0.104,0.083 0.082,0 0.082,-0.124 0.165,-0.124 0.15,0 0.238,0.093 0.332,0.208 0.129,-0.099 0.207,-0.208 0.372,-0.208 0.223,0 0.44,0.01 0.538,0.208 C 9.528,2.763 9.564,2.727 9.6,2.675 h 0.415 c 0.088,0 0.098,0.125 0.186,0.125 0.057,0 0.067,-0.084 0.124,-0.084 0.062,0 0.088,0.063 0.145,0.084 V 2.675 h 1.449 c 0.088,0 0.119,-0.083 0.207,-0.083 0.072,0 0.093,0.083 0.166,0.083 0.057,0 0.067,-0.083 0.124,-0.083 0.072,0 0.093,0.083 0.166,0.083 h 0.993 c 0.124,0 0.186,-0.083 0.311,-0.083 0.108,0 0.16,0.083 0.269,0.083 0.077,0 0.108,-0.083 0.186,-0.083 0.072,0 0.093,0.083 0.166,0.083 0.119,0 0.17,-0.125 0.289,-0.125 0.176,0 0.238,0.166 0.414,0.166 0.166,0 0.249,-0.124 0.415,-0.124 0.087,0 0.118,0.083 0.207,0.083 0.056,0 0.067,-0.083 0.125,-0.083 0.107,0 0.159,0.083 0.268,0.083 0.196,0 0.3,-0.083 0.496,-0.083 0.14,0 0.208,0.067 0.332,0.124 0.761,-0.015 1.19,0.052 1.947,-0.041 0.066,-0.005 0.092,-0.083 0.164,-0.083 0.078,0 0.109,0.083 0.186,0.083 0.073,0 0.094,-0.083 0.166,-0.083 0.062,0 0.067,0.083 0.104,0.124 0.093,-0.046 0.139,-0.124 0.248,-0.124 0.052,0 0.052,0.083 0.103,0.083 0.125,0 0.187,-0.083 0.311,-0.083 0.14,0 0.212,0.083 0.352,0.083 0.062,0 0.083,-0.083 0.145,-0.083 0.057,0 0.067,0.083 0.124,0.083 0.072,0 0.093,-0.083 0.166,-0.083 H 21.4 c 0.093,0 0.134,0.083 0.228,0.083 0.051,0 0.051,-0.083 0.103,-0.083 0.119,0 0.171,0.083 0.29,0.083 0.057,0 0.067,-0.083 0.124,-0.083 0.073,0 0.093,0.083 0.166,0.083 h 2.608 c 0.238,-0.317 0.476,-0.666 0.869,-0.582 0.016,-0.203 0.244,-0.229 0.373,-0.375 0.15,-0.166 0.228,-0.364 0.455,-0.374 0.011,-0.286 0.15,-0.395 0.352,-0.598 0.239,-0.239 0.167,-0.315 0.521,-0.639 0,0 0.392,-0.384 0.362,-0.377 l 0.346,-0.241 -28.211,-0.005 z" /></g><g
         transform="translate(649.8291,783.3965)"
         id="g180"><path
           inkscape:connector-curvature="0"
           id="path182"
           style="fill:#0f2533;fill-opacity:1;fill-rule:nonzero;stroke:none"
           d="m 0,0 -0.044,-0.026 z m 22.477,-16.632 c -0.039,-0.038 -0.09,-0.053 -0.156,-0.019 v 0.133 l -0.068,0.054 c -0.075,-0.023 -0.181,-0.045 -0.184,-0.044 v 0.198 l -0.039,0.034 c -0.027,-0.038 -0.072,-0.066 -0.148,-0.028 v 0.153 c -0.075,0.062 -0.156,0.125 -0.246,0.188 h -0.031 c -0.079,0.058 -0.13,0.246 -0.217,0.2 l -0.04,0.214 c -0.04,0.017 -0.1,0.03 -0.218,0.05 -0.026,-0.005 -0.047,-0.019 -0.056,-0.052 l -0.048,0.07 -0.047,0.008 -0.034,0.068 h -0.091 c -0.306,0.509 -0.318,0.177 -0.441,0.37 l 0.017,0.169 c -0.033,0.029 -0.072,0.033 -0.076,-0.015 -0.108,0.076 -0.202,0.212 -0.25,0.34 -0.105,-0.028 -0.458,0.31 -0.67,0.521 -0.026,0.01 -0.047,0.008 -0.054,-0.015 l 0.001,0.067 -0.042,0.042 c -0.032,-0.039 -0.074,-0.06 -0.109,-0.021 l -0.101,0.145 c 0.018,-0.012 0.056,0.002 0.05,0.028 l -0.216,0.03 c 0.075,0.119 -0.503,0.417 -0.238,0.408 l -0.172,0.025 0.005,0.081 c -0.046,0.001 -0.183,-0.038 -0.294,0.043 -0.026,0.019 0.023,0.074 0.023,0.089 l -0.03,0.149 -0.112,-0.141 c -0.091,0.23 -0.19,0.345 -0.291,0.424 l -0.041,0.031 c -0.135,0.096 -0.271,0.146 -0.395,0.345 -0.064,0.025 -0.139,0.107 -0.21,0.197 -0.07,0.004 -0.146,10e-4 -0.193,0.045 -0.041,0.039 -0.329,0.402 -0.284,0.476 -0.02,0.016 -0.043,0.03 -0.065,0.043 l -0.071,-0.077 c -0.242,0.333 -0.494,0.436 -0.76,0.635 l -0.145,-0.037 c -0.041,0.027 -0.058,0.121 -0.072,0.217 l -0.1,-0.063 0.014,0.201 c -0.041,0.038 -0.094,0.108 -0.156,0.194 0.008,-0.451 -0.166,0.388 -0.486,0.323 l -0.039,0.206 -0.156,0.134 c 0.045,-0.027 -0.015,0.029 -0.078,0.089 -0.035,0.011 -0.045,0.031 -0.056,0.053 l -0.037,0.036 -0.015,-0.178 h -0.052 c -0.066,0.14 -0.062,0.32 -0.238,0.26 l -0.119,0.194 -0.059,-0.06 -0.061,0.193 0.046,-0.022 c 0.053,0.073 -0.03,0.174 -0.104,0.186 -0.27,0.042 -0.322,0.222 -0.548,0.335 L 13.29,-8.785 13.267,-8.609 C 13.099,-8.6 12.49,-7.902 12.42,-7.952 l -0.012,0.039 c -0.004,0.012 -0.022,0.083 -0.045,0.078 -0.092,-0.021 -0.2,-0.035 -0.301,0.1 -0.023,0.03 -0.145,0.232 -0.073,0.256 L 11.83,-7.488 v 0.08 l -0.109,0.209 -0.056,0.037 c -0.123,-0.047 -0.385,0.229 -0.662,0.514 l 0.009,-0.086 c -0.161,0.121 -0.366,0.551 -0.556,0.523 -0.012,0.035 -0.027,0.065 -0.043,0.091 l -0.135,0.012 -0.04,0.161 -0.042,0.037 c -0.047,-0.047 -0.074,0.04 -0.092,0.116 -0.013,0.027 -0.026,0.058 -0.037,0.093 L 10.04,-5.702 10.041,-5.783 H 9.93 v 0.052 c 0.009,0.016 0.074,0.003 -10e-4,0.11 -0.093,0.132 -0.235,0.099 -0.328,-0.051 -0.086,0.092 -0.044,0.44 -0.236,0.498 -10e-4,0 -0.445,0.043 -0.358,0.249 L 8.94,-4.815 8.915,-4.771 8.764,-4.742 8.725,-4.534 8.58,-4.405 c 0.036,-0.03 -0.05,-0.186 -0.148,-0.054 -0.059,0.08 0.051,0.126 0.06,0.151 l -0.1,0.069 -0.013,-0.159 H 8.326 l -0.12,0.256 0.021,0.033 -0.142,-0.026 -0.104,0.17 -0.077,-0.034 -0.06,0.196 0.045,-0.023 0.008,0.054 C 7.79,-3.706 7.67,-3.616 7.546,-3.518 L 7.144,-3.374 C 7.143,-3.373 7.119,-3.266 7.115,-3.173 6.978,-3.067 6.849,-2.975 6.744,-2.922 6.713,-2.85 6.667,-2.803 6.613,-2.762 6.578,-2.767 6.545,-2.774 6.524,-2.761 6.469,-2.727 6.408,-2.609 6.403,-2.618 6.364,-2.557 6.338,-2.508 6.329,-2.443 6.307,-2.478 6.297,-2.533 6.262,-2.53 l -0.03,0.098 C 6.184,-2.403 6.131,-2.507 6.119,-2.493 6.035,-2.395 5.918,-2.318 5.844,-2.215 5.59,-2.165 5.572,-1.685 5.338,-1.718 5.254,-1.475 4.898,-1.446 4.871,-1.197 4.71,-1.048 4.553,-0.901 4.206,-0.662 H 4.093 L 4.034,-0.428 3.959,-0.454 3.951,-0.394 3.898,-0.417 3.891,-0.176 3.792,-0.313 3.725,0.005 C 3.783,-0.345 3.16,0.162 3.16,0.239 L 3.267,0.272 C 3.207,0.286 3.147,0.266 3.129,0.257 3.078,0.229 3.015,0.271 2.978,0.309 L 2.941,0.483 H 2.91 L 2.888,0.339 C 2.777,0.308 2.777,0.548 2.767,0.663 2.766,0.679 2.774,0.7 2.784,0.721 2.767,0.738 2.752,0.754 2.738,0.772 L 2.73,0.701 2.647,0.739 C 2.56,0.812 2.55,0.979 2.549,1.085 2.436,0.894 2.209,1.462 2.021,1.364 2.007,1.38 1.932,1.464 1.877,1.537 1.553,1.053 1.295,0.116 1.019,-0.439 L 1.038,-0.72 C 0.751,-0.875 0.955,-1.073 0.807,-1.275 L 0.758,-1.2 0.659,-1.355 C 0.736,-1.422 0.319,-1.97 0.362,-2.005 L 0.22,-2.203 0.392,-2.147 c -0.201,-0.57 -0.48,-1.117 -0.688,-1.676 0.078,-0.24 -0.179,-0.362 -0.157,-0.591 -0.165,-0.326 -0.314,-0.658 -0.49,-0.947 l -0.341,-0.812 -0.092,-0.129 0.063,-0.055 c -0.292,-0.218 -0.215,-0.204 -0.208,-0.515 l -0.164,-0.152 0.087,-0.319 c -0.326,-0.021 -0.049,-0.424 -0.301,-0.521 l -0.039,0.06 -0.085,-0.081 c -0.019,-0.066 -0.109,-0.399 -0.115,-0.503 l -0.101,-0.259 c -0.414,-0.811 -0.803,-2.254 -0.986,-2.393 -0.097,-0.073 0.008,-0.25 -0.041,-0.361 l -0.12,-0.201 c 0.01,-0.054 0.008,-0.117 0.043,-0.16 0.015,-0.019 0.074,0.047 0.066,0.025 -0.034,-0.108 -0.204,-0.147 -0.218,-0.259 l 0.109,-0.018 c 0.011,-0.027 -0.098,-0.092 -0.128,-0.086 -0.052,-0.164 -0.109,-0.333 -0.187,-0.487 0.158,-0.134 -0.457,-0.453 -0.25,-0.502 -0.037,-0.078 -0.183,-0.439 -0.211,-0.437 -0.12,-0.223 -0.229,-0.454 -0.191,-0.713 -0.186,-0.016 -0.242,-0.495 -0.311,-0.618 0.013,0.029 -0.088,-0.107 -0.19,-0.135 l -0.007,-0.044 0.059,-0.024 -0.055,-0.019 c -0.01,-0.173 -0.288,-1.053 -0.388,-1.057 l -0.043,-0.185 c -0.068,0.097 -0.136,-0.071 0.016,-0.016 l -0.12,-0.133 0.014,-0.077 -0.127,-0.197 0.058,-0.052 c -0.014,-0.017 -0.089,0.016 -0.104,-0.001 l -0.038,-0.094 -0.069,-0.172 0.054,-0.006 -0.048,-0.124 c -0.015,-0.016 -0.173,-0.435 -0.16,-0.213 -0.018,-0.088 -0.073,-0.276 -0.116,-0.35 l -0.045,-0.026 -0.053,-0.012 -0.008,-0.177 0.046,0.069 0.021,-0.039 -0.098,-0.286 -0.078,0.029 c -0.019,-0.022 0.009,-0.097 -0.002,-0.125 -0.075,-0.199 -0.3,-0.346 -0.309,-0.559 -0.005,-0.11 0.056,-0.198 -0.03,-0.298 -0.255,-0.292 -0.75,-1.486 -0.941,-1.91 v 2.872 c 0.117,0.132 0.231,0.354 0.345,0.629 -0.06,-0.094 -0.117,-0.168 -0.165,-0.031 -0.064,0.182 0.124,0.262 0.167,0.284 l -0.035,0.033 0.022,0.091 c 0.018,0.075 0.066,0.251 0.134,0.295 0.229,0.147 0.022,0.202 0.128,0.353 0.043,0.062 0.1,-0.072 0.09,-0.041 -0.031,0.104 0.234,1.101 0.401,1.34 0.024,0.035 0.047,0.015 0.064,-0.01 -0.008,0.052 -0.024,0.088 -0.018,0.115 l 0.059,-0.007 0.039,0.098 c -0.004,0.027 0.005,0.055 0.038,0.092 l 0.057,0.131 0.019,0.06 0.042,0.176 c 0.011,-0.039 0.064,0.031 0.07,0.03 l 0.016,0.029 c -0.06,0.034 -0.152,0.036 -0.044,0.092 l 0.043,-0.06 0.036,0.026 0.048,0.073 -0.041,0.004 0.031,0.072 c -0.006,0.034 -0.035,0.085 -0.05,0.066 l 0.079,0.232 c 10e-4,-0.021 0.038,-0.048 0.071,-0.068 l 0.034,0.076 -0.02,0.145 c 0.033,0 0.072,0.035 0.103,0.041 l 0.052,0.115 -0.031,0.18 c 0.037,-0.019 0.078,-0.012 0.117,0.009 l 0.14,0.302 c -0.068,0.058 -0.159,0.102 -0.015,0.106 l -0.005,0.237 0.12,0.141 c 0.031,-0.003 0.088,-0.025 0.097,-0.061 l 0.012,0.358 c 0.07,-0.06 0.072,-0.048 0.077,0.038 l 0.002,0.039 c 0.195,-0.021 -0.04,-0.084 -0.007,-0.157 0.002,-0.004 0.017,-0.013 0.036,-0.022 l 0.063,0.136 c -0.002,0.037 0.002,0.082 0.018,0.154 -0.102,-0.247 -0.041,0.203 0.026,0.349 l 0.016,0.063 c 0.027,0.024 0.066,-0.074 0.072,-0.08 0.04,-0.034 0.111,0.051 0.119,0.062 0.032,0.046 0.007,0.102 -0.017,0.143 l -0.029,0.049 -0.002,-0.117 -0.034,0.01 0.011,0.064 -0.039,0.005 0.001,0.049 c 0,0.025 0.053,0.045 0.074,0.024 0.003,0.072 -0.046,0.296 0.088,0.244 l 0.042,0.181 0.073,-0.011 -0.032,0.103 c 0.001,0.022 0.055,-0.028 0.065,-0.009 0.039,0.073 -0.048,0.119 -0.023,0.19 l 0.112,0.185 0.041,-0.034 -0.018,0.034 c 0.085,-0.053 0.089,0.031 0.088,0.154 l 0.094,0.634 0.049,0.046 c 0.102,-0.036 0.052,-0.183 0.093,-0.097 0.064,0.132 -0.014,0.029 0.058,0.156 0.029,0.049 -0.03,0.099 -0.03,0.099 l -0.009,0.063 0.037,0.019 -0.017,-0.051 c 0.015,-0.036 0.106,-0.05 0.116,-0.012 0.025,0.1 -0.029,0.046 -0.073,0.098 l -0.055,0.023 0.089,0.015 0.032,0.058 c 0.015,-0.038 -0.006,-0.073 0.02,-0.109 0.023,0.008 -0.074,0.33 0.007,0.39 l 0.057,-0.064 c 0.012,-0.004 0.095,0.038 0.173,0.058 0.205,0.339 0.072,0.752 0.37,0.774 l 0.019,0.056 c -0.029,0.047 -0.098,0.072 -0.114,0.113 -0.016,0.038 0.023,0.146 0.046,0.185 l -0.015,0.031 c 0.08,0.026 0.296,0.494 0.464,0.903 0.096,0.335 0.157,0.594 0.136,0.647 0.073,0.013 0.149,0.128 0.218,0.271 l 0.054,0.238 c 10e-4,-0.011 0.014,-0.025 0.031,-0.039 0.021,0.055 0.041,0.11 0.059,0.16 l -0.005,0.032 0.074,0.171 -0.032,0.175 c 0.141,-0.013 0.189,0.171 0.103,0.261 0.042,0.021 0.101,0.095 0.163,0.199 0.037,0.208 0.097,0.624 0.242,0.718 0.206,0.132 0.015,0.225 0.128,0.352 0.017,0.029 0.038,0.047 0.059,0.071 l -0.013,0.034 c 0.01,0.026 0.042,0.037 0.072,0.043 l 0.018,0.029 -0.06,0.066 c -0.015,0.04 0.022,0.145 0.046,0.185 l -0.015,0.031 c 0.119,0.039 0.634,1.273 0.687,1.474 0.025,10e-4 0.049,0.011 0.07,0.027 l 0.086,0.239 -0.011,0.081 -0.039,0.006 0.081,0.239 c 0.019,0.018 0.087,0.091 0.147,0.159 l 0.08,0.208 -0.02,0.116 c 0.02,-0.01 0.041,-0.013 0.062,-0.011 0.052,0.132 0.103,0.252 0.151,0.356 -0.052,0.04 -0.084,0.068 0.029,0.071 l -0.005,0.238 0.12,0.14 c 0.032,-0.003 0.093,-0.027 0.097,-0.066 l 0.004,0.119 0.001,0.029 0.006,0.212 c 0.011,0.015 0.052,0.083 0.081,0.081 L 0.009,0.012 C 0.02,0.025 0.03,0.041 0.041,0.056 L 0.073,0.242 C -0.053,-0.064 0.021,0.598 0.115,0.654 0.149,0.674 0.177,0.583 0.187,0.574 0.227,0.539 0.298,0.624 0.306,0.636 0.338,0.681 0.313,0.737 0.289,0.778 L 0.261,0.828 0.259,0.71 0.224,0.72 0.235,0.784 0.196,0.79 0.197,0.839 c 0,0.024 0.053,0.045 0.074,0.023 0.003,0.072 -0.046,0.297 0.088,0.244 L 0.401,1.287 0.475,1.276 0.442,1.38 C 0.443,1.401 0.497,1.351 0.507,1.371 0.528,1.41 0.487,1.52 0.484,1.56 L 0.596,1.745 0.638,1.711 0.619,1.745 C 0.668,1.736 0.777,1.836 0.748,1.917 0.74,1.937 0.708,1.867 0.692,1.882 0.616,1.949 0.628,2.042 0.628,2.042 0.795,2.093 0.582,2.286 0.808,2.104 L 0.794,2.14 0.777,2.2 C 0.758,2.28 0.697,2.397 0.763,2.446 1.159,2.743 1.05,3.18 1.119,3.231 L 1.175,3.168 1.249,3.383 C 1.287,3.339 1.353,3.274 1.428,3.217 L 1.424,3.311 1.484,3.216 1.506,3.247 C 1.522,3.257 1.547,3.221 1.544,3.202 1.661,3.272 1.913,2.927 2.055,2.993 l 0.1,-0.142 0.076,-0.084 0.15,-0.02 C 2.358,2.71 2.385,2.66 2.433,2.606 L 2.554,2.61 2.565,2.48 C 2.694,2.368 2.823,2.266 2.716,2.251 L 2.879,2.22 2.874,2.115 2.987,2.186 3.231,2.068 C 3.239,2.035 3.23,1.984 3.204,1.96 L 3.213,1.912 C 3.252,1.899 3.271,1.871 3.288,1.84 L 3.375,1.951 C 3.341,1.348 3.875,1.666 3.785,1.308 L 3.954,1.372 C 3.959,1.336 3.975,1.182 4.017,1.163 L 4.081,1.19 4.09,0.901 4.267,1.001 4.286,0.721 C 4.288,0.874 4.494,0.686 4.533,0.828 L 4.632,0.684 H 4.75 C 4.798,0.598 4.84,0.478 4.833,0.376 L 5.005,0.328 5.112,0.141 5.374,-0.002 V -0.138 H 5.492 C 5.516,-0.187 5.393,-0.298 5.482,-0.346 L 5.69,-0.373 C 5.488,-0.525 5.891,-0.597 5.98,-0.59 l 0.09,-0.235 c 0.089,-0.061 0.277,-0.146 0.362,-0.027 l 0.063,-0.236 c 0.109,-0.064 0.188,-0.215 0.253,-0.318 0.03,0.113 -0.017,0.264 -0.076,0.36 L 6.83,-1.16 c 0.014,-0.092 0.167,-0.227 0.324,-0.448 l 0.181,-0.034 0.047,-0.25 0.185,-0.159 c -0.034,0.039 0.043,0.236 0.167,0.068 0.021,-0.028 0.029,-0.047 0.03,-0.063 l 0.032,-0.026 0.065,0.017 C 7.876,-2.089 7.889,-2.124 7.9,-2.159 7.995,-2.239 8.105,-2.337 8.121,-2.38 l 0.029,0.008 c 0.124,0.05 0.223,-0.126 0.255,-0.223 L 8.42,-2.708 C 8.543,-2.812 8.687,-2.92 8.837,-2.966 L 8.891,-3.051 C 9.028,-3.122 9.188,-3.164 9.28,-3.285 L 9.308,-3.499 9.436,-3.506 9.47,-3.554 c 0.095,-0.098 0.189,-0.201 0.282,-0.304 0.08,-0.029 0.157,-0.061 0.261,-0.135 0.119,-0.086 0.14,-0.246 0.252,-0.402 l 0.06,0.03 0.013,0.067 0.015,-0.047 c 0.003,-0.014 0.027,-0.1 0.054,-0.094 0.11,0.025 0.242,0.041 0.365,-0.122 0.063,-0.083 -0.017,-0.269 0.082,-0.3 l 0.202,-0.001 c -0.067,-0.11 0.11,-0.246 0.302,-0.285 0.033,-0.007 0.036,-0.042 0.036,-0.083 l 0.069,-0.112 c 0.032,-0.006 0.031,-0.026 0.028,-0.047 l 0.051,-0.082 v 0.039 l 0.138,-0.065 -0.046,-0.009 0.043,-0.157 0.062,0.114 c 0.018,-0.05 0.471,-0.482 0.953,-0.928 0.036,-0.021 0.074,-0.042 0.115,-0.063 h 0.135 l 0.055,-0.218 0.055,-0.05 0.052,0.018 0.009,-0.072 0.063,0.027 v -0.087 l 0.054,-0.05 -0.001,0.037 0.115,-0.035 c 0.085,-0.068 0.286,-0.317 0.242,-0.218 l 0.19,-0.033 c -0.017,-0.078 0.177,-0.338 0.276,-0.396 -0.017,-0.005 -0.046,-0.045 0.001,-0.059 0.066,-0.02 0.107,0.114 0.164,0.083 0.064,-0.035 0.062,-0.176 0.096,-0.23 l 0.004,0.038 c 0.026,0.011 0.049,0.058 0.072,0.042 0.057,-0.038 0.13,-0.163 0.1,-0.235 l 0.112,-0.188 0.099,-0.017 0.083,-0.018 0.046,-0.243 c 0.058,-0.023 0.119,-0.055 0.18,-0.096 0.028,0.055 0.099,0.101 0.179,-0.006 0.017,-0.023 0,-0.069 -0.017,-0.116 0.024,-0.022 0.048,-0.044 0.072,-0.067 l 0.009,0.11 h 0.063 l 0.148,-0.311 -0.023,-0.034 0.168,0.024 0.128,-0.206 0.093,0.042 0.073,-0.239 -0.055,0.028 -0.01,-0.074 c 0.018,-0.032 0.037,-0.064 0.053,-0.096 l 0.086,-0.059 0.146,0.055 c 0.178,-0.109 0.201,-0.215 0.486,-0.302 v -0.11 l 0.129,-0.092 c 0.018,-0.092 0.039,-0.23 0.107,-0.301 l 0.396,-0.12 c -0.02,-0.211 0.246,-0.229 0.268,-0.196 l 0.001,-0.029 0.084,0.014 0.012,-0.052 c 0.064,0.015 0.091,-0.15 0.031,-0.122 l 0.026,-0.107 c 0.15,-0.296 0.408,0.239 0.65,-0.553 l 0.241,-0.003 v -0.189 h 0.106 l -0.1,-0.21 0.056,-0.004 0.19,0.123 c 0.069,-0.099 0.087,-0.243 0.123,-0.348 l 0.125,-0.019 0.034,-0.112 c 0.051,0.007 0.119,0.039 0.211,0.103 l 0.012,-0.199 0.055,-0.012 c 0.031,-0.018 0.045,-0.045 0.051,-0.074 l 0.087,-0.07 0.017,0.071 0.019,-0.055 0.146,-0.101 c -0.03,-0.013 -0.04,-0.025 -0.039,-0.037 l 0.029,-0.025 c 0.037,-0.016 0.102,-0.02 0.124,-0.001 l -0.031,0.073 c 0.042,-0.037 0.045,-0.06 0.031,-0.073 l 0.079,-0.184 0.034,-0.054 c 0.095,-0.034 0.183,-0.07 0.213,-0.166 0.149,0.021 0.17,-0.055 0.189,-0.129 l 0.15,-0.008 0.028,-0.111 0.081,-0.161 0.054,0.019 0.009,-0.073 0.065,0.027 0.009,-0.293 0.046,0.192 0.137,-0.064 -0.046,-0.009 0.055,-0.292 c 0.024,0.116 0.223,-0.024 0.257,0.1 l 0.1,-0.147 h 0.119 c 0.307,-0.509 0.318,-0.176 0.442,-0.37 l 0.045,-0.21 c -0.016,0.079 0.113,0.13 0.165,0.036 0.078,-0.138 0.239,-0.445 0.301,-0.654 l 0.033,0.014 0.088,0.138 0.094,-0.246 0.106,0.006 -0.015,0.03 0.024,-0.03 0.092,-0.202 c 0.019,-0.009 0.039,-0.02 0.057,-0.031 l -0.009,0.041 c 0.012,0.004 0.018,-0.012 0.014,-0.027 0.071,-0.064 0.118,-0.109 0.143,-0.164 0.005,-0.01 -0.003,-0.029 -0.013,-0.048 0.064,-0.083 0.124,-0.128 0.172,-0.109 0.098,0.04 0.127,-0.164 0.159,-0.063 l -0.008,-0.115 0.032,0.026 0.157,-0.031 -0.053,-0.068 0.028,-0.063 0.015,-0.033 0.099,0.005 -0.063,-0.088 0.025,-0.053 c 0.032,-0.065 0.159,-0.059 0.184,0.008 l 0.067,-0.12 0.024,-0.037 0.113,-0.012 c 0.042,-0.09 0.026,-0.236 0.06,-0.338 0.008,-0.022 0.018,-0.043 0.032,-0.06 0.017,-0.02 0.038,-0.035 0.067,-0.044 l 0.135,0.055 0.027,-0.037 0.08,0.01 c 0.009,-0.032 0.024,-0.103 0.045,-0.186 0.047,0.001 0.1,0.01 0.159,0.027 l -0.078,-0.148 0.107,-0.154 0.034,-0.017 0.13,-0.152 v -1.344 c -0.45,0.446 -0.935,0.895 -1.454,1.26 l -0.055,0.234 c 0.014,-0.163 -0.12,-0.091 -0.195,-0.028 -0.071,0.058 -0.309,0.539 -0.365,0.641 -0.052,0.031 -0.101,0.062 -0.148,0.093" /></g><g
         transform="translate(652.6318,779.9917)"
         id="g184"><path
           inkscape:connector-curvature="0"
           id="path186"
           style="fill:#0f2533;fill-opacity:1;fill-rule:nonzero;stroke:none"
           d="m 0,0 c -0.396,-0.525 -0.253,-1.432 -0.896,-1.694 -0.073,0.269 0.303,0.442 0.169,0.645 0.215,0.216 0.042,0.625 0.42,0.719 -0.087,0.22 0.132,0.324 0.11,0.515 C -0.025,0.271 -0.066,0.078 0,0" /></g><g
         transform="translate(651.7334,777.978)"
         id="g188"><path
           inkscape:connector-curvature="0"
           id="path190"
           style="fill:#0f2533;fill-opacity:1;fill-rule:nonzero;stroke:none"
           d="M 0,0 0.009,-0.255 C -0.055,-0.258 -0.15,-0.277 -0.184,-0.198 -0.221,-0.056 -0.064,0.461 0,0" /></g><g
         transform="translate(651.5391,777.5684)"
         id="g192"><path
           inkscape:connector-curvature="0"
           id="path194"
           style="fill:#0f2533;fill-opacity:1;fill-rule:nonzero;stroke:none"
           d="M 0,0 C 0.052,-0.11 -0.057,-0.178 -0.118,-0.26 -0.085,-0.291 -0.059,-0.305 -0.05,-0.385 -0.094,-0.499 -0.19,-0.423 -0.302,-0.458 -0.273,-0.216 -0.223,0.008 0,0" /></g><g
         transform="translate(649.2607,771.8003)"
         id="g196"><path
           inkscape:connector-curvature="0"
           id="path198"
           style="fill:#0f2533;fill-opacity:1;fill-rule:nonzero;stroke:none"
           d="m 0,0 c -0.349,-0.028 -0.033,-0.417 -0.3,-0.522 l -0.134,0.205 c 0.364,0.061 -0.105,0.714 0.359,0.634 z" /></g><g
         transform="translate(648.5605,770.3857)"
         id="g200"><path
           inkscape:connector-curvature="0"
           id="path202"
           style="fill:#0f2533;fill-opacity:1;fill-rule:nonzero;stroke:none"
           d="m 0,0 c -0.235,-0.194 -0.018,-0.384 -0.173,-0.518 -0.117,-0.307 -0.378,-0.556 -0.35,-0.907 -0.356,0.163 0.096,0.435 0.039,0.705 0.087,0.243 0.272,0.516 0.293,0.713 z" /></g><g
         transform="translate(645.7622,762.9985)"
         id="g204"><path
           inkscape:connector-curvature="0"
           id="path206"
           style="fill:#0f2533;fill-opacity:1;fill-rule:nonzero;stroke:none"
           d="M 0,0 C -0.091,-0.115 -0.253,-0.057 -0.379,-0.077 -0.516,0.19 -0.169,0.282 -0.208,0.504 -0.063,0.429 0.04,0.209 0,0" /></g><g
         transform="translate(645.2715,762.4697)"
         id="g208"><path
           inkscape:connector-curvature="0"
           id="path210"
           style="fill:#0f2533;fill-opacity:1;fill-rule:nonzero;stroke:none"
           d="m 0,0 c 0.087,-0.668 -0.584,-1.044 -0.449,-1.742 -0.075,-0.115 -0.185,-0.15 -0.313,-0.139 -0.039,0.654 0.342,1.147 0.449,1.742 C -0.238,-0.024 -0.128,0.012 0,0" /></g><g
         transform="translate(644.4658,760.0117)"
         id="g212"><path
           inkscape:connector-curvature="0"
           id="path214"
           style="fill:#0f2533;fill-opacity:1;fill-rule:nonzero;stroke:none"
           d="m 0,0 c 0.018,-0.063 -0.028,-0.097 -0.059,-0.13 l -0.384,0.051 C -0.566,0.252 -0.011,0.303 0,0" /></g><g
         transform="translate(646.0469,763.9678)"
         id="g216"><path
           inkscape:connector-curvature="0"
           id="path218"
           style="fill:#0f2533;fill-opacity:1;fill-rule:nonzero;stroke:none"
           d="m 0,0 c -0.022,-0.273 -0.13,-0.372 -0.434,-0.335 -0.129,0.059 0.01,0.176 0.055,0.258 0.063,0.018 0.096,-0.029 0.129,-0.06 C -0.174,-0.022 -0.164,0.154 0,0" /></g><g
         transform="translate(652.7847,780.7002)"
         id="g220"><path
           inkscape:connector-curvature="0"
           id="path222"
           style="fill:#0f2533;fill-opacity:1;fill-rule:nonzero;stroke:none"
           d="M 0,0 C 0.006,-0.16 -0.054,-0.29 -0.177,-0.39 -0.24,-0.408 -0.274,-0.361 -0.307,-0.331 -0.215,-0.215 -0.291,0.118 0,0" /></g><g
         transform="translate(649.5615,772.7227)"
         id="g224"><path
           inkscape:connector-curvature="0"
           id="path226"
           style="fill:#0f2533;fill-opacity:1;fill-rule:nonzero;stroke:none"
           d="M 0,0 C 0.018,-0.063 -0.028,-0.097 -0.059,-0.13 L -0.187,-0.134 -0.193,0.057 C -0.129,0.059 -0.035,0.079 0,0" /></g><g
         transform="translate(649.4453,772.3989)"
         id="g228"><path
           inkscape:connector-curvature="0"
           id="path230"
           style="fill:#0f2533;fill-opacity:1;fill-rule:nonzero;stroke:none"
           d="M 0,0 C 0.002,-0.064 0.021,-0.159 -0.057,-0.194 -0.199,-0.215 -0.19,-0.039 -0.193,0.057 -0.129,0.059 -0.035,0.079 0,0" /></g><g
         transform="translate(645.2559,762.917)"
         id="g232"><path
           inkscape:connector-curvature="0"
           id="path234"
           style="fill:#0f2533;fill-opacity:1;fill-rule:nonzero;stroke:none"
           d="M 0,0 C -0.088,-0.025 -0.135,0.04 -0.181,0.083 -0.228,0.171 -0.1,0.309 -0.009,0.268 Z" /></g><g
         transform="translate(647.9897,769.0225)"
         id="g236"><path
           inkscape:connector-curvature="0"
           id="path238"
           style="fill:#0f2533;fill-opacity:1;fill-rule:nonzero;stroke:none"
           d="M 0,0 C 0.018,-0.063 -0.028,-0.097 -0.059,-0.13 L -0.186,-0.134 -0.193,0.057 C -0.129,0.059 -0.035,0.079 0,0" /></g><g
         transform="translate(647.8735,768.6982)"
         id="g240"><path
           inkscape:connector-curvature="0"
           id="path242"
           style="fill:#0f2533;fill-opacity:1;fill-rule:nonzero;stroke:none"
           d="M 0,0 C 0.002,-0.064 0.021,-0.159 -0.057,-0.194 -0.199,-0.215 -0.19,-0.039 -0.193,0.057 -0.129,0.059 -0.035,0.079 0,0" /></g><g
         transform="translate(648.8369,771.0293)"
         id="g244"><path
           inkscape:connector-curvature="0"
           id="path246"
           style="fill:#0f2533;fill-opacity:1;fill-rule:nonzero;stroke:none"
           d="m 0,0 -0.005,-0.315 -0.1,0.002 c -0.048,-0.111 0.041,-0.356 -0.135,-0.37 0.027,-0.102 -0.041,-0.137 -0.103,-0.199 -0.032,-0.135 -0.018,-0.277 -0.022,-0.415 l -0.213,0.004 c 0.099,-0.26 -0.314,-0.126 -0.022,-0.415 -0.224,0.048 -0.033,-0.278 -0.233,-0.268 v -0.043 l -0.143,0.003 c -0.062,0.17 0.09,0.124 0.119,0.256 0.014,0.065 0.172,-0.003 0.116,0.112 -0.119,-0.021 -0.065,0.113 -0.112,0.145 0.052,-0.012 0.044,0.084 0.045,0.114 0.09,0.002 0.097,0.117 0.173,0.111 0.017,0.025 0.02,0.057 0.016,0.086 -0.059,0.021 -0.152,0.028 -0.112,0.117 0.089,0 -0.004,0.157 0.088,0.141 0.082,0.119 -0.064,0.461 0.15,0.456 l 0.002,0.114 c 0.046,0.036 0.064,0.098 0.116,0.127 l 0.002,0.072 0.115,0.112 0.005,0.258 C -0.157,0.198 0.415,0.237 0,0" /></g><g
         transform="translate(649.5254,772.5186)"
         id="g248"><path
           inkscape:connector-curvature="0"
           id="path250"
           style="fill:#0f2533;fill-opacity:1;fill-rule:nonzero;stroke:none"
           d="m 0,0 -0.013,-0.098 c -0.107,0.035 -0.093,-0.126 -0.205,-0.127 -0.006,-0.057 -0.053,-0.048 -0.059,-0.114 -0.085,-0.033 -0.022,0.104 -0.086,0.077 -0.053,0.205 0.19,0.049 0.106,0.252 0.164,-0.088 0.056,0.143 0.173,0.103 C -0.077,0.091 -0.045,0.077 -0.042,0.072 -0.026,0.052 -0.013,0.022 0,0" /></g><g
         transform="translate(647.4487,767.8369)"
         id="g252"><path
           inkscape:connector-curvature="0"
           id="path254"
           style="fill:#0f2533;fill-opacity:1;fill-rule:nonzero;stroke:none"
           d="M 0,0 C -0.029,-0.157 0.187,-0.117 0.108,-0.331 0.021,-0.281 0.053,-0.39 -0.007,-0.401 0,-0.492 -0.042,-0.607 0.017,-0.688 L 0.028,-0.86 c -0.086,0.046 -0.076,-0.042 -0.116,-0.083 0.119,-0.324 -0.246,-0.26 -0.124,-0.6 l -0.1,0.002 C -0.344,-1.61 -0.327,-1.696 -0.33,-1.77 -0.508,-1.678 -0.398,-1.917 -0.546,-1.88 l -0.016,-0.086 0.114,-0.016 c 0.033,-0.103 -0.058,-0.073 -0.102,-0.127 l -0.018,-0.201 -0.099,0.002 -0.02,-0.3 c -0.085,0.046 -0.075,-0.043 -0.115,-0.084 l -0.003,-0.143 -0.071,10e-4 -0.019,-0.3 c -0.148,0.08 -0.241,-0.264 -0.332,-0.224 -0.046,-0.092 0.033,-0.292 -0.077,-0.342 -0.131,0.025 -0.048,0.242 -0.066,0.33 0.311,0.064 -0.046,0.272 0.035,0.344 0.134,-0.039 0.07,0.16 0.187,0.111 0.023,0.06 0.011,0.123 0.017,0.186 0.084,-0.033 0.055,0.077 0.115,0.069 l 0.007,0.344 c 0.236,0.049 0.024,0.454 0.18,0.569 h 0.043 c -0.008,-0.048 -0.003,-0.141 0.069,-0.116 0.058,-0.02 0.059,0.079 0.059,0.113 l 0.1,-10e-4 c 0.054,0.13 -0.07,0.472 0.137,0.47 -0.036,0.043 -0.033,0.123 -0.113,0.088 -0.001,0.065 0.02,0.14 0.102,0.098 -0.038,0.225 0.115,0.249 0.149,0.413 l 0.043,-0.001 c 0.024,0.074 0.012,0.152 0.018,0.229 l 0.115,0.026 c -0.016,0.07 -0.11,0.095 -0.112,0.16 0.071,0.022 0.122,-0.015 0.156,-0.075 0.058,0.044 0.084,0.114 0.074,0.185 l -0.113,0.017 C -0.128,-0.057 -0.082,-0.007 0,0" /></g><g
         transform="translate(651.1514,776.9673)"
         id="g256"><path
           inkscape:connector-curvature="0"
           id="path258"
           style="fill:#0f2533;fill-opacity:1;fill-rule:nonzero;stroke:none"
           d="M 0,0 C -0.025,-0.105 0.016,-0.194 0.11,-0.245 0.099,-0.291 0.081,-0.355 0.009,-0.329 l -0.021,0.084 c -0.084,0.05 -0.032,-0.059 -0.092,-0.072 l 0.026,-0.083 -0.029,0.001 c 0.099,-0.28 -0.268,-0.22 -0.123,-0.513 l 0.029,-0.001 C -0.23,-0.974 -0.315,-0.938 -0.345,-1.011 -0.388,-1.112 -0.313,-1.36 -0.438,-1.396 l -0.001,-0.1 -0.043,-0.013 c 0.072,-0.016 0.011,-0.16 0.038,-0.216 l -0.044,-0.036 c -0.172,-0.008 -0.036,-0.192 -0.117,-0.262 -0.036,-0.102 0.054,-0.132 0.011,-0.245 h -0.04 l -0.052,-0.297 c -0.139,0.012 -0.121,-0.172 -0.301,-0.11 -0.08,-0.027 -0.038,-0.165 -0.047,-0.228 -0.214,0.107 -0.016,-0.361 -0.207,-0.426 -0.017,-0.121 0.034,-0.315 -0.05,-0.414 -0.172,0.102 -0.111,-0.072 -0.109,-0.075 0,0 -0.043,-0.177 -0.11,-0.036 -0.05,0.106 -0.096,0.002 -0.096,0.002 l 0.005,0.329 c 0.083,-0.036 0.054,0.074 0.116,0.07 0.013,0.099 -0.053,0.309 0.119,0.284 0.023,0.129 -0.071,0.499 0.109,0.528 0.049,0.112 -0.063,0.423 0.121,0.413 l 0.016,0.114 0.171,-0.003 c 0.015,0.084 0.004,0.218 0.118,0.227 0.007,0.065 0.063,0.238 -0.012,0.275 l 0.032,0.067 c 0.017,0.066 0.058,0.077 0.101,0.071 l 0.02,0.315 0.1,-0.002 c 0.025,0.137 0.012,0.277 0.021,0.415 0.088,0 0.095,0.115 0.173,0.112 -0.009,0.067 0.118,0.148 0.018,0.185 -0.029,0.059 0.004,-0.015 -0.029,0.089 0.115,0.014 0.075,-0.03 0.17,-0.033 0.023,0.06 0.028,0.098 0.035,0.159 0.134,-0.045 -0.006,0.115 0.088,0.102 L -0.1,0.002 Z" /></g><g
         transform="translate(645.5244,762.4893)"
         id="g260"><path
           inkscape:connector-curvature="0"
           id="path262"
           style="fill:#0f2533;fill-opacity:1;fill-rule:nonzero;stroke:none"
           d="m 0,0 c -0.088,-0.026 -0.134,0.04 -0.18,0.083 -0.048,0.087 0.081,0.225 0.171,0.184 z" /></g><g
         transform="translate(647.8208,768.2612)"
         id="g264"><path
           inkscape:connector-curvature="0"
           id="path266"
           style="fill:#0f2533;fill-opacity:1;fill-rule:nonzero;stroke:none"
           d="m 0,0 c -0.091,0.047 -0.056,-0.062 -0.115,-0.07 l -0.007,-0.386 c -0.145,-0.022 -0.157,0.108 -0.139,0.217 -0.011,0.022 -0.05,0.025 -0.071,0.016 -0.027,-0.013 -0.015,-0.063 -0.015,-0.086 l -0.1,0.002 0.002,0.1 c 0.037,0.007 0.08,-0.008 0.114,0.012 -0.027,0.055 -0.058,0.078 -0.041,0.144 0.175,0.024 0.101,0.287 0.374,0.18 z" /></g></g></g></g><g
   id="g280"
   transform="translate(745.53304,667.8477)"><path
     d="M 0,0 H 481.891"
     style="fill:none;stroke:#f36717;stroke-width:5.66900015;stroke-linecap:butt;stroke-linejoin:miter;stroke-miterlimit:4;stroke-dasharray:none;stroke-opacity:1"
     id="path282"
     inkscape:connector-curvature="0" /></g><g
   id="g284"
   transform="translate(745.53304,433.4414)"><path
     d="M 0,0 H 481.891"
     style="fill:none;stroke:#f36717;stroke-width:5.66900015;stroke-linecap:butt;stroke-linejoin:miter;stroke-miterlimit:4;stroke-dasharray:none;stroke-opacity:1"
     id="path286"
     inkscape:connector-curvature="0" /></g>









<g
   id="g310"><g
     id="g312"
     clip-path="url(#clipPath316)"><g
       id="g318"
       transform="translate(15,871.063)"><path
         d="m 0,0 h -15 m 1301.929,0 h 15 M 0,-841.89 h -15 m 1301.929,0 h 15 M 14.173,14.173 v 15 m 0,-885.236 v -15 M 1272.756,14.173 v 15 m 0,-885.236 v -15"
         style="fill:none;stroke:#ffffff;stroke-width:1.25;stroke-linecap:butt;stroke-linejoin:miter;stroke-miterlimit:10;stroke-dasharray:none;stroke-opacity:1"
         id="path320"
         inkscape:connector-curvature="0" /></g><g
       id="g322"
       transform="translate(15,871.063)"><path
         d="m 0,0 h -15 m 1301.929,0 h 15 M 0,-841.89 h -15 m 1301.929,0 h 15 M 14.173,14.173 v 15 m 0,-885.236 v -15 M 1272.756,14.173 v 15 m 0,-885.236 v -15"
         style="fill:none;stroke:#000000;stroke-width:0.25;stroke-linecap:butt;stroke-linejoin:miter;stroke-miterlimit:10;stroke-dasharray:none;stroke-opacity:1"
         id="path324"
         inkscape:connector-curvature="0" /></g><g
       id="g326"
       transform="translate(624.4487,891.2363)"><path
         d="m 0,0 v 15 m 0,-897.236 v -15 M 0,0 v 15 m 0,-897.236 v -15 M 0,0 v 11.25 m 0,-893.486 v -11.25"
         style="fill:none;stroke:#ffffff;stroke-width:1.25;stroke-linecap:butt;stroke-linejoin:miter;stroke-miterlimit:10;stroke-dasharray:none;stroke-opacity:1"
         id="path328"
         inkscape:connector-curvature="0" /></g><g
       id="g330"
       transform="translate(624.4487,891.2363)"><path
         d="m 0,0 v 15 m 0,-897.236 v -15 M 0,0 v 15 m 0,-897.236 v -15 M 0,0 v 11.25 m 0,-893.486 v -11.25"
         style="fill:none;stroke:#000000;stroke-width:0.25;stroke-linecap:butt;stroke-linejoin:miter;stroke-miterlimit:10;stroke-dasharray:none;stroke-opacity:1"
         id="path332"
         inkscape:connector-curvature="0" /></g><g
       id="g334"
       transform="translate(692.4805,891.2363)"><path
         d="m 0,0 v 15 m 0,-897.236 v -15 M 0,0 v 15 m 0,-897.236 v -15 M 0,0 v 11.25 m 0,-893.486 v -11.25"
         style="fill:none;stroke:#ffffff;stroke-width:1.25;stroke-linecap:butt;stroke-linejoin:miter;stroke-miterlimit:10;stroke-dasharray:none;stroke-opacity:1"
         id="path336"
         inkscape:connector-curvature="0" /></g><g
       id="g338"
       transform="translate(692.4805,891.2363)"><path
         d="m 0,0 v 15 m 0,-897.236 v -15 M 0,0 v 15 m 0,-897.236 v -15 M 0,0 v 11.25 m 0,-893.486 v -11.25"
         style="fill:none;stroke:#000000;stroke-width:0.25;stroke-linecap:butt;stroke-linejoin:miter;stroke-miterlimit:10;stroke-dasharray:none;stroke-opacity:1"
         id="path340"
         inkscape:connector-curvature="0" /></g></g></g><text
   xml:space="preserve"
   style="font-style:normal;font-variant:normal;font-weight:bold;font-stretch:normal;font-size:30px;line-height:1.25;font-family:'Libre Semi Serif SSi';-inkscape-font-specification:'Libre Semi Serif SSi Bold';letter-spacing:0px;word-spacing:0px;fill:#000000;fill-opacity:1;stroke:none;stroke-width:0.75"
   x="987.15527"
   y="-584.32916"
   id="text1163"
   transform="scale(1,-1)"><tspan
     sodipodi:role="line"
     id="tspan1161"
     x="987.15527"
     y="-584.32916"
     style="font-style:normal;font-variant:normal;font-weight:bold;font-stretch:normal;font-size:36px;font-family:'Libre Semi Serif SSi';-inkscape-font-specification:'Libre Semi Serif SSi Bold';text-align:center;text-anchor:middle;stroke-width:0.75">Functionalized Bilayer Graphene</tspan><tspan
     sodipodi:role="line"
     x="987.15527"
     y="-539.32916"
     style="font-style:normal;font-variant:normal;font-weight:bold;font-stretch:normal;font-size:36px;font-family:'Libre Semi Serif SSi';-inkscape-font-specification:'Libre Semi Serif SSi Bold';text-align:center;text-anchor:middle;stroke-width:0.75"
     id="tspan1165">For</tspan><tspan
     sodipodi:role="line"
     x="987.15527"
     y="-494.32916"
     style="font-style:normal;font-variant:normal;font-weight:bold;font-stretch:normal;font-size:36px;font-family:'Libre Semi Serif SSi';-inkscape-font-specification:'Libre Semi Serif SSi Bold';text-align:center;text-anchor:middle;stroke-width:0.75"
     id="tspan1167">Quantum Technologies</tspan></text>







<text
   xml:space="preserve"
   style="font-style:normal;font-variant:normal;font-weight:bold;font-stretch:normal;font-size:30px;line-height:1.25;font-family:'Libre Semi Serif SSi';-inkscape-font-specification:'Libre Semi Serif SSi Bold';letter-spacing:0px;word-spacing:0px;fill:#ffffff;fill-opacity:1;stroke:none;stroke-width:0.75"
   x="920.2749"
   y="-103.18774"
   id="text1198"
   transform="scale(1,-1)"><tspan
     sodipodi:role="line"
     id="tspan1196"
     x="920.2749"
     y="-103.18774"
     style="font-style:normal;font-variant:normal;font-weight:bold;font-stretch:normal;font-size:15px;font-family:'Libre Semi Serif SSi';-inkscape-font-specification:'Libre Semi Serif SSi Bold';fill:#ffffff;fill-opacity:1;stroke-width:0.75">Alicante, enero 2020</tspan></text>




<text
   xml:space="preserve"
   style="font-style:normal;font-variant:normal;font-weight:bold;font-stretch:normal;font-size:30px;line-height:1.25;font-family:'Libre Semi Serif SSi';-inkscape-font-specification:'Libre Semi Serif SSi Bold';letter-spacing:0px;word-spacing:0px;fill:#ffffff;fill-opacity:1;stroke:none;stroke-width:0.75"
   x="281.79663"
   y="-88.772911"
   id="text1202"
   transform="scale(1,-1)"><tspan
     sodipodi:role="line"
     id="tspan1200"
     x="281.79663"
     y="-88.772911"
     style="font-style:normal;font-variant:normal;font-weight:bold;font-stretch:normal;font-size:11.47000027px;font-family:'Libre Semi Sans SSi';-inkscape-font-specification:'Libre Semi Sans SSi Bold';fill:#ffffff;fill-opacity:1;stroke-width:0.75">edua.ua.es</tspan></text>




<text
   xml:space="preserve"
   style="font-style:normal;font-variant:normal;font-weight:bold;font-stretch:normal;font-size:30px;line-height:1.25;font-family:'Libre Semi Serif SSi';-inkscape-font-specification:'Libre Semi Serif SSi Bold';letter-spacing:0px;word-spacing:0px;fill:#000000;fill-opacity:1;stroke:none;stroke-width:0.75"
   x="54.055702"
   y="652.31763"
   id="text977"
   transform="matrix(0,1,1,0,0,0)"><tspan
     sodipodi:role="line"
     id="tspan975"
     x="54.055702"
     y="652.31763"
     style="font-style:normal;font-variant:normal;font-weight:bold;font-stretch:normal;font-size:18.02000045px;font-family:'Libre Serif SSi';-inkscape-font-specification:'Libre Serif SSi Bold';fill:#ffffff;fill-opacity:1;stroke-width:0.75">Tesis doctoral</tspan></text>


<text
   transform="matrix(0,1,1,0,0,0)"
   id="text981"
   y="678.08734"
   x="46.889721"
   style="font-style:normal;font-variant:normal;font-weight:bold;font-stretch:normal;font-size:30px;line-height:1.25;font-family:'Libre Semi Serif SSi';-inkscape-font-specification:'Libre Semi Serif SSi Bold';letter-spacing:0px;word-spacing:0px;fill:#000000;fill-opacity:1;stroke:none;stroke-width:0.75"
   xml:space="preserve"><tspan
     style="font-style:normal;font-variant:normal;font-weight:bold;font-stretch:normal;font-size:13.28000069px;font-family:'Libre Serif SSi';-inkscape-font-specification:'Libre Serif SSi Bold';fill:#ffffff;fill-opacity:1;stroke-width:0.75"
     y="678.08734"
     x="46.889721"
     id="tspan979"
     sodipodi:role="line">Alicante, enero 2020</tspan></text>


<text
   transform="scale(0.9486833,-1.0540926)"
   style="font-variant:normal;font-weight:normal;font-stretch:normal;font-size:9.91374016px;font-family:'Libre Semi Sans SSi';-inkscape-font-specification:LibreSemiSansSSi;writing-mode:lr-tb;fill:#ffffff;fill-opacity:1;fill-rule:nonzero;stroke:none;stroke-width:0.94868332"
   id="text304"
   x="352.44827"
   y="-121.39067"><tspan
     x="352.44827 357.03833 360.52798 364.75122 369.71802 372.10724 376.6973 379.27487 384.24164 388.69293 391.27048 397.14935 402.11612 406.33939 409.73978 414.70657 418.01776 422.60782"
     y="-121.39067"
     sodipodi:role="line"
     id="tspan300"
     style="stroke-width:0.94868332">Escola de Doctorat</tspan><tspan
     x="352.44827 357.03833 360.52798 364.75122 369.89645 374.34775 376.73694 381.327 383.90457 388.87137 393.32263 395.90021 401.77905 406.74585 410.96909 414.36951 419.3363 422.64749 427.23755 432.20432"
     y="-107.82867"
     sodipodi:role="line"
     id="tspan302"
     style="stroke-width:0.94868332">Escuela de Doctorado</tspan></text>
<text
   xml:space="preserve"
   style="font-style:normal;font-variant:normal;font-weight:normal;font-stretch:normal;font-size:30px;line-height:1.25;font-family:'Agfa Rotis Serif';-inkscape-font-specification:'Agfa Rotis Serif';letter-spacing:0px;word-spacing:0px;fill:#ffffff;fill-opacity:1;stroke:none;stroke-width:0.75"
   x="239.17909"
   y="-112.82733"
   id="text985"
   transform="scale(1,-1)"><tspan
     sodipodi:role="line"
     id="tspan983"
     x="239.17909"
     y="-112.82733"
     style="font-style:normal;font-variant:normal;font-weight:bold;font-stretch:normal;font-size:31.09000015px;font-family:'Libre Serif SSi';-inkscape-font-specification:'Libre Serif SSi Bold';fill:#ffffff;fill-opacity:1;stroke-width:0.75">ED|UA</tspan></text>




<text
   transform="scale(1,-1)"
   id="text979"
   y="-355.43216"
   x="879.9502"
   style="font-style:normal;font-variant:normal;font-weight:bold;font-stretch:normal;font-size:30px;line-height:1.25;font-family:'Libre Semi Serif SSi';-inkscape-font-specification:'Libre Semi Serif SSi Bold';letter-spacing:0px;word-spacing:0px;fill:#000000;fill-opacity:1;stroke:none;stroke-width:0.75"
   xml:space="preserve"><tspan
     style="font-style:normal;font-variant:normal;font-weight:bold;font-stretch:normal;font-size:20px;font-family:'Libre Serif SSi';-inkscape-font-specification:'Libre Serif SSi Bold';stroke-width:0.75"
     y="-355.43216"
     x="879.9502"
     id="tspan977"
     sodipodi:role="line">Noel A. García-Martínez</tspan></text>

<text
   id="text983"
   style="font-variant:normal;font-weight:bold;font-stretch:normal;font-size:18.97366524px;font-family:'Libre Serif SSi';-inkscape-font-specification:LibreSerifSSiBold;writing-mode:lr-tb;fill:#231f20;fill-opacity:1;fill-rule:nonzero;stroke:none;stroke-width:0.94868332"
   transform="matrix(0,0.94868326,1.0540926,0,0,0)"
   x="414.85437"
   y="631.58124"><tspan
     id="tspan981"
     sodipodi:role="line"
     x="414.85437"
     y="631.58124"
     style="stroke-width:0.94868332">Noel A. García-Martínez</tspan></text>

</g></svg>